<svg xmlns="http://www.w3.org/2000/svg" xmlns:xlink="http://www.w3.org/1999/xlink" width="113" height="113" viewBox="0 0 113 113">
  <defs>
    <filter id="Trazado_982547" x="0" y="0" width="113" height="113" filterUnits="userSpaceOnUse">
      <feOffset dy="3" input="SourceAlpha"/>
      <feGaussianBlur stdDeviation="3" result="blur"/>
      <feFlood flood-opacity="0.161"/>
      <feComposite operator="in" in2="blur"/>
      <feComposite in="SourceGraphic"/>
    </filter>
  </defs>
  <g id="Grupo_1227147" data-name="Grupo 1227147" transform="translate(-671.344 -3242.032)">
    <g id="Grupo_1226940" data-name="Grupo 1226940" transform="translate(680.344 3248.032)">
      <g id="Grupo_1226375" data-name="Grupo 1226375" transform="translate(0)">
        <g id="Grupo_1211216" data-name="Grupo 1211216">
          <g id="Grupo_1210737" data-name="Grupo 1210737">
            <g id="Grupo_1210537" data-name="Grupo 1210537">
              <g id="Grupo_1164202" data-name="Grupo 1164202">
                <g id="Grupo_1158168" data-name="Grupo 1158168">
                  <g id="Grupo_1152576" data-name="Grupo 1152576">
                    <g id="Grupo_1148633" data-name="Grupo 1148633">
                      <g id="Grupo_1148525" data-name="Grupo 1148525">
                        <g transform="matrix(1, 0, 0, 1, -9, -6)" filter="url(#Trazado_982547)">
                          <g id="Trazado_982547-2" data-name="Trazado 982547" transform="translate(9 6)" fill="#fef9e5">
                            <path d="M 47.49999237060547 93.49999237060547 C 41.28937911987305 93.49999237060547 35.26532745361328 92.28396606445312 29.59519195556641 89.88569641113281 C 24.11772537231445 87.56892395019531 19.19813919067383 84.251953125 14.97309875488281 80.02690124511719 C 10.74804592132568 75.80185699462891 7.431072235107422 70.88227081298828 5.114298820495605 65.40480804443359 C 2.716032266616821 59.73465728759766 1.500005722045898 53.71060562133789 1.500005722045898 47.49999237060547 C 1.500005722045898 41.28937911987305 2.716032266616821 35.26532745361328 5.114298820495605 29.59517860412598 C 7.431072235107422 24.11771202087402 10.74804592132568 19.1981258392334 14.97309875488281 14.97308540344238 C 19.19813919067383 10.74804592132568 24.11772537231445 7.431072235107422 29.59519195556641 5.114298820495605 C 35.26532745361328 2.716032266616821 41.28937911987305 1.500005722045898 47.49999237060547 1.500005722045898 C 53.71062088012695 1.500005722045898 59.73465728759766 2.716032266616821 65.40480804443359 5.114298820495605 C 70.88227081298828 7.431072235107422 75.80185699462891 10.74804592132568 80.02690124511719 14.97308540344238 C 84.251953125 19.1981258392334 87.56892395019531 24.11771202087402 89.88569641113281 29.59517860412598 C 92.28396606445312 35.26532745361328 93.49999237060547 41.28937911987305 93.49999237060547 47.49999237060547 C 93.49999237060547 53.71062088012695 92.28396606445312 59.73465728759766 89.88569641113281 65.40480804443359 C 87.56892395019531 70.88227081298828 84.251953125 75.80185699462891 80.02690124511719 80.02690124511719 C 75.80185699462891 84.251953125 70.88227081298828 87.56892395019531 65.40480804443359 89.88569641113281 C 59.73465728759766 92.28396606445312 53.71062088012695 93.49999237060547 47.49999237060547 93.49999237060547 Z" stroke="none"/>
                            <path d="M 47.49999237060547 2.999992370605469 C 41.49120712280273 2.999992370605469 35.66376113891602 4.1761474609375 30.17951202392578 6.49578857421875 C 24.88083648681641 8.736946105957031 20.12151336669922 11.94597625732422 16.03374481201172 16.03374481201172 C 11.94597625732422 20.12151336669922 8.736946105957031 24.88083648681641 6.49578857421875 30.17949676513672 C 4.1761474609375 35.66376113891602 2.999992370605469 41.49120712280273 2.999992370605469 47.49999237060547 C 2.999992370605469 53.5087776184082 4.1761474609375 59.33622360229492 6.49578857421875 64.82046508789062 C 8.736946105957031 70.11914825439453 11.94597625732422 74.87847137451172 16.03374481201172 78.96623992919922 C 20.12151336669922 83.05400848388672 24.88083648681641 86.26303863525391 30.17951202392578 88.50418090820312 C 35.66376113891602 90.82382202148438 41.49120712280273 91.99997711181641 47.49999237060547 91.99997711181641 C 53.5087776184082 91.99997711181641 59.33622360229492 90.82382202148438 64.82046508789062 88.50418090820312 C 70.11914825439453 86.26303863525391 74.87847137451172 83.05400848388672 78.96623992919922 78.96623992919922 C 83.05400848388672 74.87847137451172 86.26303863525391 70.11914825439453 88.50418090820312 64.82046508789062 C 90.82382202148438 59.33622360229492 91.99997711181641 53.5087776184082 91.99997711181641 47.49999237060547 C 91.99997711181641 41.49120712280273 90.82382202148438 35.66376113891602 88.50418090820312 30.17949676513672 C 86.26303863525391 24.88083648681641 83.05400848388672 20.12151336669922 78.96623992919922 16.03374481201172 C 74.87847137451172 11.94597625732422 70.11914825439453 8.736946105957031 64.82046508789062 6.49578857421875 C 59.33622360229492 4.1761474609375 53.5087776184082 2.999992370605469 47.49999237060547 2.999992370605469 M 47.49999237060547 -7.62939453125e-06 C 73.73351287841797 -7.62939453125e-06 94.99997711181641 21.26647186279297 94.99997711181641 47.49999237060547 C 94.99997711181641 73.73351287841797 73.73351287841797 94.99997711181641 47.49999237060547 94.99997711181641 C 21.26648712158203 94.99997711181641 -7.62939453125e-06 73.73351287841797 -7.62939453125e-06 47.49999237060547 C -7.62939453125e-06 21.26647186279297 21.26648712158203 -7.62939453125e-06 47.49999237060547 -7.62939453125e-06 Z" stroke="none" fill="#f6c810"/>
                          </g>
                        </g>
                      </g>
                    </g>
                  </g>
                </g>
              </g>
            </g>
          </g>
        </g>
      </g>
    </g>
    <g id="solucion-de-problemas" transform="translate(689.229 3256.417)">
      <g id="Grupo_1227145" data-name="Grupo 1227145" transform="translate(8.996 9.005)">
        <g id="Grupo_1227132" data-name="Grupo 1227132" transform="translate(0 10.008)">
          <g id="Grupo_1227124" data-name="Grupo 1227124" transform="translate(18.928 35.922)">
            <path id="Trazado_1059222" data-name="Trazado 1059222" d="M166.872,382.1h17.351v10.268H166.872Z" transform="translate(-166.872 -382.104)" fill="#a79ba7" fill-rule="evenodd"/>
          </g>
          <g id="Grupo_1227125" data-name="Grupo 1227125" transform="translate(34.782 35.922)">
            <path id="Trazado_1059223" data-name="Trazado 1059223" d="M293.243,382.1h1.5v10.268h-1.5Z" transform="translate(-293.243 -382.104)" fill="#837683" fill-rule="evenodd"/>
          </g>
          <g id="Grupo_1227126" data-name="Grupo 1227126" transform="translate(8.849 44.428)">
            <path id="Trazado_1059224" data-name="Trazado 1059224" d="M87.106,455.685h36.359a.576.576,0,0,0,.575-.575v-2.317c0-1.591-1.629-2.892-3.619-2.892H90.15c-1.991,0-3.619,1.3-3.619,2.892v2.317A.576.576,0,0,0,87.106,455.685Z" transform="translate(-86.531 -449.901)" fill="#eceff1" fill-rule="evenodd"/>
          </g>
          <g id="Grupo_1227127" data-name="Grupo 1227127" transform="translate(8.849 45.003)">
            <path id="Trazado_1059225" data-name="Trazado 1059225" d="M87.106,459.693h36.359a.576.576,0,0,0,.575-.575V456.8a2.755,2.755,0,0,0-1.46-2.317,2.386,2.386,0,0,1,.31,1.167v2.317a.576.576,0,0,1-.575.575H86.531v.575A.576.576,0,0,0,87.106,459.693Z" transform="translate(-86.531 -454.484)" fill="#d1d1d6" fill-rule="evenodd"/>
          </g>
          <g id="Grupo_1227128" data-name="Grupo 1227128">
            <path id="Trazado_1059226" data-name="Trazado 1059226" d="M20.244,95.771H66.962a4.257,4.257,0,0,1,4.244,4.244v29.2a4.257,4.257,0,0,1-4.244,4.244H20.244A4.257,4.257,0,0,1,16,129.212v-29.2A4.256,4.256,0,0,1,20.244,95.771Z" transform="translate(-16 -95.771)" fill="#eceff1" fill-rule="evenodd"/>
          </g>
          <g id="Grupo_1227129" data-name="Grupo 1227129" transform="translate(0.726 0.727)">
            <path id="Trazado_1059227" data-name="Trazado 1059227" d="M74.393,101.562a4.249,4.249,0,0,1,1.877,3.518v29.2a4.257,4.257,0,0,1-4.244,4.244H25.308a4.249,4.249,0,0,1-3.518-1.877,4.212,4.212,0,0,0,2.367.727H70.876a4.257,4.257,0,0,0,4.244-4.244v-29.2a4.213,4.213,0,0,0-.727-2.367Z" transform="translate(-21.79 -101.562)" fill="#d1d1d6" fill-rule="evenodd"/>
          </g>
          <g id="Grupo_1227130" data-name="Grupo 1227130" transform="translate(3.549 3.549)">
            <path id="Trazado_1059228" data-name="Trazado 1059228" d="M44.877,124.06H91.808a.59.59,0,0,1,.589.589v26.4H44.288v-26.4a.59.59,0,0,1,.589-.589Z" transform="translate(-44.288 -124.06)" fill="#d8ecfe" fill-rule="evenodd"/>
          </g>
          <g id="Grupo_1227131" data-name="Grupo 1227131" transform="translate(49.255 3.549)">
            <path id="Trazado_1059229" data-name="Trazado 1059229" d="M408.6,124.06h1.814a.59.59,0,0,1,.589.589v26.4h-2.4Z" transform="translate(-408.603 -124.06)" fill="#c4e2ff" fill-rule="evenodd"/>
          </g>
        </g>
        <g id="Grupo_1227137" data-name="Grupo 1227137" transform="translate(15.402)">
          <g id="Grupo_1227133" data-name="Grupo 1227133">
            <path id="Trazado_1059230" data-name="Trazado 1059230" d="M153.248,18a10.307,10.307,0,0,1,3.018,1.251l1.961-.871,2.311,2.311-.871,1.961a10.309,10.309,0,0,1,1.251,3.019l2,.77v3.269l-2,.77a10.307,10.307,0,0,1-1.251,3.018l.871,1.961-2.311,2.311-1.961-.871a10.3,10.3,0,0,1-3.019,1.251l-.77,2h-3.269l-.77-2a10.309,10.309,0,0,1-3.018-1.251l-1.961.871-2.311-2.311.871-1.961a10.308,10.308,0,0,1-1.251-3.019l-2-.77V26.44l2-.77a10.309,10.309,0,0,1,1.251-3.018l-.871-1.961,2.311-2.311,1.961.871A10.308,10.308,0,0,1,148.439,18l.77-2h3.269Z" transform="translate(-138.767 -15.998)" fill="#ffe177" fill-rule="evenodd"/>
          </g>
          <g id="Grupo_1227134" data-name="Grupo 1227134" transform="translate(4.4 0)">
            <path id="Trazado_1059231" data-name="Trazado 1059231" d="M188.241,18.673l.659-.292,2.311,2.311-.871,1.961a10.308,10.308,0,0,1,1.251,3.019l2,.77V29.71l-2,.77A10.307,10.307,0,0,1,190.34,33.5l.871,1.961L188.9,37.771l-.659-.292,2.019-2.019-.871-1.961a10.311,10.311,0,0,0,1.251-3.018l2-.77V26.441l-2-.77a10.311,10.311,0,0,0-1.251-3.019l.871-1.961Zm-14.4,0,.292-.293,1.961.871q-.208.115-.411.24ZM183.921,18a10.307,10.307,0,0,1,3.018,1.251l-.54.24A13.485,13.485,0,0,0,182.97,18l-.77-2h.951Zm-7.827,18.9-1.961.871-.292-.292,1.843-.818Q175.886,36.784,176.094,36.9Zm10.846,0a10.307,10.307,0,0,1-3.019,1.251l-.77,2H182.2l.77-2A13.48,13.48,0,0,0,186.4,36.66Z" transform="translate(-173.84 -15.999)" fill="#ffd064" fill-rule="evenodd"/>
          </g>
          <g id="Grupo_1227135" data-name="Grupo 1227135" transform="translate(4.493 4.498)">
            <circle id="Elipse_13569" data-name="Elipse 13569" cx="6.475" cy="6.475" r="6.475" transform="translate(0 2.448) rotate(-10.894)" fill="#eceff1"/>
          </g>
          <g id="Grupo_1227136" data-name="Grupo 1227136" transform="translate(5.601 5.601)">
            <path id="Trazado_1059232" data-name="Trazado 1059232" d="M189.886,60.644c.147,0,.294.005.439.015a6.475,6.475,0,0,0,0,12.921c-.145.01-.291.015-.439.015a6.475,6.475,0,1,1,0-12.951Z" transform="translate(-183.411 -60.644)" fill="#d1d1d6" fill-rule="evenodd"/>
          </g>
        </g>
        <g id="Grupo_1227140" data-name="Grupo 1227140" transform="translate(11.222 26.354)">
          <g id="Grupo_1227138" data-name="Grupo 1227138" transform="translate(0 0)">
            <path id="Trazado_1059233" data-name="Trazado 1059233" d="M113.372,232.581a4.521,4.521,0,0,1-4.167,2.88,4.464,4.464,0,0,1-3.691-1.988.377.377,0,0,1,.312-.589h3.89l1.178-2.122-1.178-2.122h-3.89a.377.377,0,0,1-.311-.589,4.464,4.464,0,0,1,3.691-1.988,4.521,4.521,0,0,1,4.167,2.88h16.664a4.521,4.521,0,0,1,4.167-2.88,4.463,4.463,0,0,1,3.691,1.988.377.377,0,0,1-.312.589h-3.89l-1.178,2.122,1.178,2.122h3.89a.377.377,0,0,1,.312.589,4.463,4.463,0,0,1-3.691,1.988,4.521,4.521,0,0,1-4.167-2.88H113.372Z" transform="translate(-105.448 -226.064)" fill="#9facba" fill-rule="evenodd"/>
          </g>
          <g id="Grupo_1227139" data-name="Grupo 1227139" transform="translate(3.13)">
            <path id="Trazado_1059234" data-name="Trazado 1059234" d="M135.189,232.58a4.521,4.521,0,0,1-4.167,2.88,4.387,4.387,0,0,1-.628-.045,4.554,4.554,0,0,0,3.54-2.835h1.255Zm-4.795-6.473a4.392,4.392,0,0,1,.628-.045,4.521,4.521,0,0,1,4.167,2.88h-1.255A4.555,4.555,0,0,0,130.394,226.107Zm25,0a4.379,4.379,0,0,1,.627-.045,4.463,4.463,0,0,1,3.691,1.988.377.377,0,0,1-.312.589h-1.254a.377.377,0,0,0,.311-.589A4.5,4.5,0,0,0,155.393,226.107Zm.116,2.532h-1.255l-1.178,2.122,1.178,2.122h1.255l-1.178-2.122Zm2.635,4.244H159.4a.377.377,0,0,1,.312.589,4.463,4.463,0,0,1-3.691,1.988,4.381,4.381,0,0,1-.627-.045,4.494,4.494,0,0,0,3.063-1.943.377.377,0,0,0-.311-.589Z" transform="translate(-130.394 -226.062)" fill="#8d9ca8" fill-rule="evenodd"/>
          </g>
        </g>
        <g id="Grupo_1227144" data-name="Grupo 1227144" transform="translate(36.999 28.262)">
          <g id="Grupo_1227141" data-name="Grupo 1227141" transform="translate(0 0)">
            <path id="Trazado_1059235" data-name="Trazado 1059235" d="M320.017,242.67a2.8,2.8,0,0,1,4.855,0l8.721,15.105a2.8,2.8,0,0,1-2.427,4.2H313.723a2.8,2.8,0,0,1-2.427-4.2Z" transform="translate(-310.916 -241.269)" fill="#ffe177" fill-rule="evenodd"/>
          </g>
          <g id="Grupo_1227142" data-name="Grupo 1227142" transform="translate(10.193 4.564)">
            <path id="Trazado_1059236" data-name="Trazado 1059236" d="M393.5,289.414a1.336,1.336,0,1,0,1.336,1.336A1.336,1.336,0,0,0,393.5,289.414Zm0-2.384a1.043,1.043,0,0,0,1.042-1l.264-7.3a1.043,1.043,0,0,0-1.042-1.08h-.527a1.043,1.043,0,0,0-1.042,1.08l.264,7.3A1.043,1.043,0,0,0,393.5,287.03Z" transform="translate(-392.16 -277.647)" fill="#fe646f" fill-rule="evenodd"/>
          </g>
          <g id="Grupo_1227143" data-name="Grupo 1227143" transform="translate(10.965 0)">
            <path id="Trazado_1059237" data-name="Trazado 1059237" d="M398.315,241.325a2.862,2.862,0,0,1,.563-.056,2.776,2.776,0,0,1,2.427,1.4l8.721,15.105a2.8,2.8,0,0,1-2.427,4.2h-1.127a2.8,2.8,0,0,0,2.427-4.2l-8.721-15.105a2.772,2.772,0,0,0-1.864-1.346Z" transform="translate(-398.315 -241.269)" fill="#ffd064" fill-rule="evenodd"/>
          </g>
        </g>
      </g>
      <g id="Grupo_1227146" data-name="Grupo 1227146" transform="translate(7.991 8.002)">
        <path id="Trazado_1059238" data-name="Trazado 1059238" d="M57.178,54.575a.225.225,0,1,1,.226-.226A.225.225,0,0,1,57.178,54.575Zm0-2.457a2.232,2.232,0,1,0,2.233,2.232A2.235,2.235,0,0,0,57.178,52.117Zm.2-8.82-.2,5.44-.2-5.44Zm-.2,8.633a1.956,1.956,0,0,0,1.962-1.892l.243-6.714A1.962,1.962,0,0,0,57.42,41.29h-.484a1.964,1.964,0,0,0-1.962,2.034l.242,6.714A1.957,1.957,0,0,0,57.178,51.93ZM67.851,55.9a2.646,2.646,0,0,0,0-2.66l-8.024-13.9a2.661,2.661,0,0,0-4.608,0l-8.024,13.9a2.66,2.66,0,0,0,2.3,3.991H65.548A2.641,2.641,0,0,0,67.851,55.9ZM28.926,62.437V57.7H44.269v4.735Zm25.423,3.895v1.889h-35.5V66.332c0-1.023,1.2-1.888,2.616-1.888h30.27C53.15,64.445,54.349,65.309,54.349,66.332ZM10,52.454v-29.2a3.244,3.244,0,0,1,3.239-3.241H23.392v1.542H13.131a1.6,1.6,0,0,0-1.592,1.592v26.4a1,1,0,0,0,1,1H46.427l-.972,1.685a4.616,4.616,0,0,0-.491,3.458H13.238A3.243,3.243,0,0,1,10,52.454Zm16.76-32.841-1.359.523v1.891l1.357.522a1,1,0,0,1,.616.7,9.3,9.3,0,0,0,1.13,2.725,1,1,0,0,1,.063.933l-.591,1.331,1.336,1.337,1.331-.592a1.006,1.006,0,0,1,.933.063A9.311,9.311,0,0,0,34.3,30.181a1,1,0,0,1,.7.615l.523,1.359h1.889L37.94,30.8a1.006,1.006,0,0,1,.7-.616,9.31,9.31,0,0,0,2.725-1.129,1,1,0,0,1,.935-.063l1.33.591,1.337-1.337-.59-1.331a1,1,0,0,1,.061-.933,9.284,9.284,0,0,0,1.131-2.723,1,1,0,0,1,.616-.706l1.358-.523V20.137l-1.358-.523a1.006,1.006,0,0,1-.616-.7,9.311,9.311,0,0,0-1.129-2.725,1,1,0,0,1-.063-.934l.59-1.331-1.337-1.338-1.331.592a1,1,0,0,1-.933-.063,9.247,9.247,0,0,0-2.724-1.129,1.006,1.006,0,0,1-.7-.616l-.523-1.359H35.528L35,11.367a1.007,1.007,0,0,1-.7.616,9.258,9.258,0,0,0-2.725,1.129,1,1,0,0,1-.933.063l-1.331-.592-1.336,1.338.591,1.331a1,1,0,0,1-.063.934,9.309,9.309,0,0,0-1.13,2.725,1,1,0,0,1-.615.7Zm27.2,18.037a4.615,4.615,0,0,1,3.558-1.645,4.67,4.67,0,0,1,2.127.506V23.566H49.078a.9.9,0,0,1-.169.086l-1.522.586a11.285,11.285,0,0,1-.965,2.329l.662,1.491a1,1,0,0,1-.207,1.117l-2.312,2.311a1,1,0,0,1-1.116.208l-1.492-.662A11.25,11.25,0,0,1,39.629,32l-.586,1.522a1,1,0,0,1-.936.644H34.837a1,1,0,0,1-.936-.644L33.316,32a11.259,11.259,0,0,1-2.327-.965l-1.493.662a1,1,0,0,1-1.116-.208l-2.311-2.311a1.006,1.006,0,0,1-.208-1.117l.662-1.491a11.323,11.323,0,0,1-.965-2.329l-1.522-.586a.94.94,0,0,1-.169-.086H13.546V48.545h34.04L49.2,45.753c-.076,0-.152.007-.228.007a5.481,5.481,0,0,1-4.8-2.879h-15.4a5.444,5.444,0,0,1-9.734-.261,1,1,0,0,1,.9-1.444h3.952l.621-1.118-.621-1.119H19.941a1,1,0,0,1-.9-1.443,5.442,5.442,0,0,1,9.734-.261h15.4a5.443,5.443,0,0,1,9.734.261,1,1,0,0,1,.057.154Zm-2.123,3.525H49.052l-.621-1.118.621-1.119H53a1.008,1.008,0,0,0,.134-.008Zm-1.246,2.16a3.374,3.374,0,0,1-1.623.417A3.513,3.513,0,0,1,45.735,41.5a1,1,0,0,0-.93-.627H28.14a1,1,0,0,0-.931.627,3.512,3.512,0,0,1-3.237,2.252,3.383,3.383,0,0,1-1.878-.57h2.389a1,1,0,0,0,.878-.516l1.178-2.123a1,1,0,0,0,0-.974l-1.178-2.123a1,1,0,0,0-.878-.517H22.1a3.388,3.388,0,0,1,1.878-.57,3.513,3.513,0,0,1,3.237,2.253,1,1,0,0,0,.931.627H44.805a1,1,0,0,0,.93-.627,3.513,3.513,0,0,1,3.237-2.253,3.387,3.387,0,0,1,1.878.57H48.461a1,1,0,0,0-.877.517l-1.179,2.123a1,1,0,0,0,0,.974l1.179,2.123a1,1,0,0,0,.877.516h2.222ZM63.2,23.257v17.91L61.655,38.5V23.15a1.6,1.6,0,0,0-1.592-1.592H49.552V20.017h10.4A3.246,3.246,0,0,1,63.2,23.257Zm6.388,28.98-4.381-7.593V23.257a5.255,5.255,0,0,0-5.249-5.248H47.608l-.221-.084a11.288,11.288,0,0,0-.965-2.329l.662-1.491a1,1,0,0,0-.207-1.116l-2.312-2.311a1,1,0,0,0-1.116-.208l-1.492.662a11.284,11.284,0,0,0-2.328-.965l-.586-1.522A1,1,0,0,0,38.107,8H34.838a1,1,0,0,0-.936.643l-.586,1.522a11.328,11.328,0,0,0-2.329.965L29.5,10.469a1,1,0,0,0-1.116.208l-2.311,2.311a1,1,0,0,0-.208,1.116l.662,1.491a11.386,11.386,0,0,0-.965,2.329l-.221.084h-12.1a5.253,5.253,0,0,0-5.247,5.248v29.2A5.254,5.254,0,0,0,13.238,57.7H26.919v4.735H21.463c-2.549,0-4.623,1.748-4.623,3.9v2.893a1,1,0,0,0,1,1H55.353a1,1,0,0,0,1-1V66.332c0-2.147-2.074-3.9-4.624-3.9H46.277V57.954A4.615,4.615,0,0,0,49.5,59.24H65.548a4.668,4.668,0,0,0,4.038-7Zm-33.114-36.5a5.347,5.347,0,1,0,5.347,5.347,5.353,5.353,0,0,0-5.347-5.347Zm0,12.7a7.354,7.354,0,1,0-7.354-7.354A7.363,7.363,0,0,0,36.473,28.436Z" transform="translate(-7.991 -8.002)" fill="#242222" fill-rule="evenodd"/>
      </g>
    </g>
  </g>
</svg>
