<svg xmlns="http://www.w3.org/2000/svg" xmlns:xlink="http://www.w3.org/1999/xlink" width="113" height="113" viewBox="0 0 113 113">
  <defs>
    <filter id="Trazado_982547" x="0" y="0" width="113" height="113" filterUnits="userSpaceOnUse">
      <feOffset dy="3" input="SourceAlpha"/>
      <feGaussianBlur stdDeviation="3" result="blur"/>
      <feFlood flood-opacity="0.161"/>
      <feComposite operator="in" in2="blur"/>
      <feComposite in="SourceGraphic"/>
    </filter>
  </defs>
  <g id="Grupo_1227169" data-name="Grupo 1227169" transform="translate(-11107.344 -3251.067)">
    <g id="Grupo_1227091" data-name="Grupo 1227091" transform="translate(11116.344 3257.067)">
      <g id="Grupo_1226375" data-name="Grupo 1226375" transform="translate(0)">
        <g id="Grupo_1211216" data-name="Grupo 1211216">
          <g id="Grupo_1210737" data-name="Grupo 1210737">
            <g id="Grupo_1210537" data-name="Grupo 1210537">
              <g id="Grupo_1164202" data-name="Grupo 1164202">
                <g id="Grupo_1158168" data-name="Grupo 1158168">
                  <g id="Grupo_1152576" data-name="Grupo 1152576">
                    <g id="Grupo_1148633" data-name="Grupo 1148633">
                      <g id="Grupo_1148525" data-name="Grupo 1148525">
                        <g transform="matrix(1, 0, 0, 1, -9, -6)" filter="url(#Trazado_982547)">
                          <g id="Trazado_982547-2" data-name="Trazado 982547" transform="translate(9 6)" fill="#fef9e5">
                            <path d="M 47.49999237060547 93.49999237060547 C 41.28937911987305 93.49999237060547 35.26532745361328 92.28396606445312 29.59519195556641 89.88569641113281 C 24.11772537231445 87.56892395019531 19.19813919067383 84.251953125 14.97309875488281 80.02690124511719 C 10.74804592132568 75.80185699462891 7.431072235107422 70.88227081298828 5.114298820495605 65.40480804443359 C 2.716032266616821 59.73465728759766 1.500005722045898 53.71060562133789 1.500005722045898 47.49999237060547 C 1.500005722045898 41.28937911987305 2.716032266616821 35.26532745361328 5.114298820495605 29.59517860412598 C 7.431072235107422 24.11771202087402 10.74804592132568 19.1981258392334 14.97309875488281 14.97308540344238 C 19.19813919067383 10.74804592132568 24.11772537231445 7.431072235107422 29.59519195556641 5.114298820495605 C 35.26532745361328 2.716032266616821 41.28937911987305 1.500005722045898 47.49999237060547 1.500005722045898 C 53.71062088012695 1.500005722045898 59.73465728759766 2.716032266616821 65.40480804443359 5.114298820495605 C 70.88227081298828 7.431072235107422 75.80185699462891 10.74804592132568 80.02690124511719 14.97308540344238 C 84.251953125 19.1981258392334 87.56892395019531 24.11771202087402 89.88569641113281 29.59517860412598 C 92.28396606445312 35.26532745361328 93.49999237060547 41.28937911987305 93.49999237060547 47.49999237060547 C 93.49999237060547 53.71062088012695 92.28396606445312 59.73465728759766 89.88569641113281 65.40480804443359 C 87.56892395019531 70.88227081298828 84.251953125 75.80185699462891 80.02690124511719 80.02690124511719 C 75.80185699462891 84.251953125 70.88227081298828 87.56892395019531 65.40480804443359 89.88569641113281 C 59.73465728759766 92.28396606445312 53.71062088012695 93.49999237060547 47.49999237060547 93.49999237060547 Z" stroke="none"/>
                            <path d="M 47.49999237060547 2.999992370605469 C 41.49120712280273 2.999992370605469 35.66376113891602 4.1761474609375 30.17951202392578 6.49578857421875 C 24.88083648681641 8.736946105957031 20.12151336669922 11.94597625732422 16.03374481201172 16.03374481201172 C 11.94597625732422 20.12151336669922 8.736946105957031 24.88083648681641 6.49578857421875 30.17949676513672 C 4.1761474609375 35.66376113891602 2.999992370605469 41.49120712280273 2.999992370605469 47.49999237060547 C 2.999992370605469 53.5087776184082 4.1761474609375 59.33622360229492 6.49578857421875 64.82046508789062 C 8.736946105957031 70.11914825439453 11.94597625732422 74.87847137451172 16.03374481201172 78.96623992919922 C 20.12151336669922 83.05400848388672 24.88083648681641 86.26303863525391 30.17951202392578 88.50418090820312 C 35.66376113891602 90.82382202148438 41.49120712280273 91.99997711181641 47.49999237060547 91.99997711181641 C 53.5087776184082 91.99997711181641 59.33622360229492 90.82382202148438 64.82046508789062 88.50418090820312 C 70.11914825439453 86.26303863525391 74.87847137451172 83.05400848388672 78.96623992919922 78.96623992919922 C 83.05400848388672 74.87847137451172 86.26303863525391 70.11914825439453 88.50418090820312 64.82046508789062 C 90.82382202148438 59.33622360229492 91.99997711181641 53.5087776184082 91.99997711181641 47.49999237060547 C 91.99997711181641 41.49120712280273 90.82382202148438 35.66376113891602 88.50418090820312 30.17949676513672 C 86.26303863525391 24.88083648681641 83.05400848388672 20.12151336669922 78.96623992919922 16.03374481201172 C 74.87847137451172 11.94597625732422 70.11914825439453 8.736946105957031 64.82046508789062 6.49578857421875 C 59.33622360229492 4.1761474609375 53.5087776184082 2.999992370605469 47.49999237060547 2.999992370605469 M 47.49999237060547 -7.62939453125e-06 C 73.73351287841797 -7.62939453125e-06 94.99997711181641 21.26647186279297 94.99997711181641 47.49999237060547 C 94.99997711181641 73.73351287841797 73.73351287841797 94.99997711181641 47.49999237060547 94.99997711181641 C 21.26648712158203 94.99997711181641 -7.62939453125e-06 73.73351287841797 -7.62939453125e-06 47.49999237060547 C -7.62939453125e-06 21.26647186279297 21.26648712158203 -7.62939453125e-06 47.49999237060547 -7.62939453125e-06 Z" stroke="none" fill="#f6c810"/>
                          </g>
                        </g>
                      </g>
                    </g>
                  </g>
                </g>
              </g>
            </g>
          </g>
        </g>
      </g>
    </g>
    <g id="Layer_13" data-name="Layer 13" transform="translate(11132 3273)">
      <path id="Trazado_1059301" data-name="Trazado 1059301" d="M9,13H55a4,4,0,0,1,4,4V49H5V17a4,4,0,0,1,4-4Z" fill="#d6e4e8"/>
      <path id="Trazado_1059302" data-name="Trazado 1059302" d="M11,13H49V49H11Z" fill="#baced3"/>
      <path id="Trazado_1059303" data-name="Trazado 1059303" d="M24,46A16,16,0,0,1,8,30V14a3.974,3.974,0,0,1,.108-.892A4,4,0,0,0,5,17V49H59V46Z" fill="#baced3"/>
      <path id="Trazado_1059304" data-name="Trazado 1059304" d="M17,9H47a4,4,0,0,1,4,4V49H13V13A4,4,0,0,1,17,9Z" fill="#f8c460"/>
      <path id="Trazado_1059305" data-name="Trazado 1059305" d="M28,46A12,12,0,0,1,16,34V10a3.974,3.974,0,0,1,.108-.892A4,4,0,0,0,13,13V49H51V46Z" fill="#faaf42"/>
      <g id="Grupo_1227168" data-name="Grupo 1227168">
        <circle id="Elipse_13571" data-name="Elipse 13571" cx="4" cy="4" r="4" transform="translate(17 13)" fill="#f97878"/>
        <circle id="Elipse_13572" data-name="Elipse 13572" cx="4" cy="4" r="4" transform="translate(17 25)" fill="#f97878"/>
        <circle id="Elipse_13573" data-name="Elipse 13573" cx="4" cy="4" r="4" transform="translate(17 37)" fill="#f97878"/>
      </g>
      <path id="Trazado_1059306" data-name="Trazado 1059306" d="M1,49H63v2a4,4,0,0,1-4,4H5a4,4,0,0,1-4-4Z" fill="#7a838b"/>
      <path id="Trazado_1059307" data-name="Trazado 1059307" d="M4,51V49H1v2a4,4,0,0,0,4,4H8A4,4,0,0,1,4,51Z" fill="#5d6972"/>
      <path id="Trazado_1059308" data-name="Trazado 1059308" d="M25,49H39v1a2,2,0,0,1-2,2H27a2,2,0,0,1-2-2Z" fill="#d6e4e8"/>
      <path id="Trazado_1059309" data-name="Trazado 1059309" d="M21,22a4.992,4.992,0,0,0,4.167-7.753l.54-.54a1,1,0,1,0-1.414-1.414l-.54.54A5,5,0,1,0,21,22Zm0-8a2.951,2.951,0,0,1,1.285.3l-2.992,2.992a1,1,0,1,0,1.414,1.414L23.7,15.715A2.951,2.951,0,0,1,24,17a3,3,0,1,1-3-3Z"/>
      <path id="Trazado_1059310" data-name="Trazado 1059310" d="M21,34a4.992,4.992,0,0,0,4.167-7.753l.54-.54a1,1,0,1,0-1.414-1.414l-.54.54A5,5,0,1,0,21,34Zm0-8a2.951,2.951,0,0,1,1.285.3l-2.992,2.992a1,1,0,1,0,1.414,1.414L23.7,27.715A2.951,2.951,0,0,1,24,29a3,3,0,1,1-3-3Z"/>
      <path id="Trazado_1059311" data-name="Trazado 1059311" d="M31,16H47a1,1,0,0,0,0-2H31a1,1,0,0,0,0,2Z"/>
      <path id="Trazado_1059312" data-name="Trazado 1059312" d="M29,20H47a1,1,0,0,0,0-2H29a1,1,0,0,0,0,2Z"/>
      <path id="Trazado_1059313" data-name="Trazado 1059313" d="M47,26H31a1,1,0,0,0,0,2H47a1,1,0,0,0,0-2Z"/>
      <path id="Trazado_1059314" data-name="Trazado 1059314" d="M29,32H47a1,1,0,0,0,0-2H29a1,1,0,0,0,0,2Z"/>
      <path id="Trazado_1059315" data-name="Trazado 1059315" d="M25.167,38.247l.54-.54a1,1,0,1,0-1.414-1.414l-.54.54a5.015,5.015,0,1,0,1.414,1.414ZM21,44a3,3,0,0,1,0-6,2.951,2.951,0,0,1,1.285.3l-2.992,2.992a1,1,0,1,0,1.414,1.414L23.7,39.715A2.951,2.951,0,0,1,24,41a3,3,0,0,1-3,3Z"/>
      <path id="Trazado_1059316" data-name="Trazado 1059316" d="M47,38H31a1,1,0,0,0,0,2H47a1,1,0,0,0,0-2Z"/>
      <path id="Trazado_1059317" data-name="Trazado 1059317" d="M29,44H47a1,1,0,0,0,0-2H29a1,1,0,0,0,0,2Z"/>
      <path id="Trazado_1059318" data-name="Trazado 1059318" d="M63,48H60V17a5.006,5.006,0,0,0-5-5H51.9A5.009,5.009,0,0,0,47,8H17a5.009,5.009,0,0,0-4.9,4H9a5.006,5.006,0,0,0-5,5V48H1a1,1,0,0,0-1,1v2a5.006,5.006,0,0,0,5,5H59a5.006,5.006,0,0,0,5-5V49A1,1,0,0,0,63,48ZM14,13a3,3,0,0,1,3-3H47a3,3,0,0,1,3,3v6a1,1,0,0,0,2,0V14h3a3,3,0,0,1,3,3V48H52V23a1,1,0,0,0-2,0V48H14ZM38,50a1,1,0,0,1-1,1H27a1,1,0,0,1-1-1ZM6,17a3,3,0,0,1,3-3h3V48H6ZM62,51a3,3,0,0,1-3,3H5a3,3,0,0,1-3-3V50H24a3,3,0,0,0,3,3H37a3,3,0,0,0,3-3H62Z"/>
    </g>
  </g>
</svg>
