<svg xmlns="http://www.w3.org/2000/svg" xmlns:xlink="http://www.w3.org/1999/xlink" width="113" height="113" viewBox="0 0 113 113">
  <defs>
    <filter id="Trazado_982547" x="0" y="0" width="113" height="113" filterUnits="userSpaceOnUse">
      <feOffset dy="3" input="SourceAlpha"/>
      <feGaussianBlur stdDeviation="3" result="blur"/>
      <feFlood flood-opacity="0.161"/>
      <feComposite operator="in" in2="blur"/>
      <feComposite in="SourceGraphic"/>
    </filter>
  </defs>
  <g id="Grupo_1227167" data-name="Grupo 1227167" transform="translate(-10784.344 -3626.067)">
    <g id="Grupo_1227090" data-name="Grupo 1227090" transform="translate(10793.344 3632.067)">
      <g id="Grupo_1226375" data-name="Grupo 1226375" transform="translate(0)">
        <g id="Grupo_1211216" data-name="Grupo 1211216">
          <g id="Grupo_1210737" data-name="Grupo 1210737">
            <g id="Grupo_1210537" data-name="Grupo 1210537">
              <g id="Grupo_1164202" data-name="Grupo 1164202">
                <g id="Grupo_1158168" data-name="Grupo 1158168">
                  <g id="Grupo_1152576" data-name="Grupo 1152576">
                    <g id="Grupo_1148633" data-name="Grupo 1148633">
                      <g id="Grupo_1148525" data-name="Grupo 1148525">
                        <g transform="matrix(1, 0, 0, 1, -9, -6)" filter="url(#Trazado_982547)">
                          <g id="Trazado_982547-2" data-name="Trazado 982547" transform="translate(9 6)" fill="#fef9e5">
                            <path d="M 47.49999237060547 93.49999237060547 C 41.28937911987305 93.49999237060547 35.26532745361328 92.28396606445312 29.59519195556641 89.88569641113281 C 24.11772537231445 87.56892395019531 19.19813919067383 84.251953125 14.97309875488281 80.02690124511719 C 10.74804592132568 75.80185699462891 7.431072235107422 70.88227081298828 5.114298820495605 65.40480804443359 C 2.716032266616821 59.73465728759766 1.500005722045898 53.71060562133789 1.500005722045898 47.49999237060547 C 1.500005722045898 41.28937911987305 2.716032266616821 35.26532745361328 5.114298820495605 29.59517860412598 C 7.431072235107422 24.11771202087402 10.74804592132568 19.1981258392334 14.97309875488281 14.97308540344238 C 19.19813919067383 10.74804592132568 24.11772537231445 7.431072235107422 29.59519195556641 5.114298820495605 C 35.26532745361328 2.716032266616821 41.28937911987305 1.500005722045898 47.49999237060547 1.500005722045898 C 53.71062088012695 1.500005722045898 59.73465728759766 2.716032266616821 65.40480804443359 5.114298820495605 C 70.88227081298828 7.431072235107422 75.80185699462891 10.74804592132568 80.02690124511719 14.97308540344238 C 84.251953125 19.1981258392334 87.56892395019531 24.11771202087402 89.88569641113281 29.59517860412598 C 92.28396606445312 35.26532745361328 93.49999237060547 41.28937911987305 93.49999237060547 47.49999237060547 C 93.49999237060547 53.71062088012695 92.28396606445312 59.73465728759766 89.88569641113281 65.40480804443359 C 87.56892395019531 70.88227081298828 84.251953125 75.80185699462891 80.02690124511719 80.02690124511719 C 75.80185699462891 84.251953125 70.88227081298828 87.56892395019531 65.40480804443359 89.88569641113281 C 59.73465728759766 92.28396606445312 53.71062088012695 93.49999237060547 47.49999237060547 93.49999237060547 Z" stroke="none"/>
                            <path d="M 47.49999237060547 2.999992370605469 C 41.49120712280273 2.999992370605469 35.66376113891602 4.1761474609375 30.17951202392578 6.49578857421875 C 24.88083648681641 8.736946105957031 20.12151336669922 11.94597625732422 16.03374481201172 16.03374481201172 C 11.94597625732422 20.12151336669922 8.736946105957031 24.88083648681641 6.49578857421875 30.17949676513672 C 4.1761474609375 35.66376113891602 2.999992370605469 41.49120712280273 2.999992370605469 47.49999237060547 C 2.999992370605469 53.5087776184082 4.1761474609375 59.33622360229492 6.49578857421875 64.82046508789062 C 8.736946105957031 70.11914825439453 11.94597625732422 74.87847137451172 16.03374481201172 78.96623992919922 C 20.12151336669922 83.05400848388672 24.88083648681641 86.26303863525391 30.17951202392578 88.50418090820312 C 35.66376113891602 90.82382202148438 41.49120712280273 91.99997711181641 47.49999237060547 91.99997711181641 C 53.5087776184082 91.99997711181641 59.33622360229492 90.82382202148438 64.82046508789062 88.50418090820312 C 70.11914825439453 86.26303863525391 74.87847137451172 83.05400848388672 78.96623992919922 78.96623992919922 C 83.05400848388672 74.87847137451172 86.26303863525391 70.11914825439453 88.50418090820312 64.82046508789062 C 90.82382202148438 59.33622360229492 91.99997711181641 53.5087776184082 91.99997711181641 47.49999237060547 C 91.99997711181641 41.49120712280273 90.82382202148438 35.66376113891602 88.50418090820312 30.17949676513672 C 86.26303863525391 24.88083648681641 83.05400848388672 20.12151336669922 78.96623992919922 16.03374481201172 C 74.87847137451172 11.94597625732422 70.11914825439453 8.736946105957031 64.82046508789062 6.49578857421875 C 59.33622360229492 4.1761474609375 53.5087776184082 2.999992370605469 47.49999237060547 2.999992370605469 M 47.49999237060547 -7.62939453125e-06 C 73.73351287841797 -7.62939453125e-06 94.99997711181641 21.26647186279297 94.99997711181641 47.49999237060547 C 94.99997711181641 73.73351287841797 73.73351287841797 94.99997711181641 47.49999237060547 94.99997711181641 C 21.26648712158203 94.99997711181641 -7.62939453125e-06 73.73351287841797 -7.62939453125e-06 47.49999237060547 C -7.62939453125e-06 21.26647186279297 21.26648712158203 -7.62939453125e-06 47.49999237060547 -7.62939453125e-06 Z" stroke="none" fill="#f6c810"/>
                          </g>
                        </g>
                      </g>
                    </g>
                  </g>
                </g>
              </g>
            </g>
          </g>
        </g>
      </g>
    </g>
    <g id="proceso_2_" data-name="proceso (2)" transform="translate(10809.947 3649.256)">
      <g id="Grupo_1227165" data-name="Grupo 1227165" transform="translate(2.108 0.888)">
        <path id="Trazado_1059266" data-name="Trazado 1059266" d="M377.044,7.5a7.936,7.936,0,0,0-6.184,12.736l5.581,7.169a.935.935,0,0,0,1.475,0l5.581-7.169A7.936,7.936,0,0,0,377.044,7.5Z" transform="translate(-326.556 -7.501)" fill="#ff6470"/>
        <path id="Trazado_1059267" data-name="Trazado 1059267" d="M433.011,16.832a7.9,7.9,0,0,1-1.617,4.8L425.813,28.8a.935.935,0,0,1-1.475,0l-.765-.983,5.52-7.091a7.937,7.937,0,0,0-2.3-11.643,7.938,7.938,0,0,1,6.214,7.747Z" transform="translate(-374.453 -8.897)" fill="#ff4555"/>
        <circle id="Elipse_13570" data-name="Elipse 13570" cx="3.97" cy="3.97" r="3.97" transform="translate(46.652 3.965)" fill="#fff6ec"/>
        <path id="Trazado_1059268" data-name="Trazado 1059268" d="M420.827,45.027a3.97,3.97,0,0,1-6.576,2.995c.091.006.182.009.275.009a3.97,3.97,0,0,0,2.606-6.965A3.971,3.971,0,0,1,420.827,45.027Z" transform="translate(-366.235 -37.092)" fill="#fff1da"/>
        <path id="Trazado_1059269" data-name="Trazado 1059269" d="M241.026,469.213a4.507,4.507,0,0,1-4.507-4.507v-.232h9.014v.232A4.507,4.507,0,0,1,241.026,469.213Z" transform="translate(-209.547 -410.366)" fill="#9baebc"/>
        <path id="Trazado_1059270" data-name="Trazado 1059270" d="M263.7,464.469v.233a4.509,4.509,0,0,1-6.574,4.006,4.507,4.507,0,0,0,3.982-4.239Z" transform="translate(-227.711 -410.362)" fill="#889daa"/>
        <path id="Trazado_1059271" data-name="Trazado 1059271" d="M172.761,123.394a13.8,13.8,0,0,0-13.838,13.682,13.649,13.649,0,0,0,3.828,9.509l1.036,1.142a17.493,17.493,0,0,1,4.534,11.751v.076H177.2v-.076a17.493,17.493,0,0,1,4.534-11.751l1.036-1.142a13.649,13.649,0,0,0,3.828-9.509A13.8,13.8,0,0,0,172.761,123.394Z" transform="translate(-141.139 -109.671)" fill="#ffe54c"/>
        <path id="Trazado_1059272" data-name="Trazado 1059272" d="M302.1,137.733a13.655,13.655,0,0,1-3.828,9.509l-1.036,1.141a17.5,17.5,0,0,0-4.534,11.751v.076h-2.368v-.567a17.5,17.5,0,0,1,4.534-11.751l1.036-1.143a13.65,13.65,0,0,0,3.828-9.508,13.825,13.825,0,0,0-9.795-13.1A13.817,13.817,0,0,1,302.1,137.733Z" transform="translate(-256.644 -110.329)" fill="#ffd500"/>
        <path id="Trazado_1059273" data-name="Trazado 1059273" d="M226.34,433.013h-12.6a1.024,1.024,0,0,1-1.024-1.024v-2.178a1.024,1.024,0,0,1,1.024-1.024h12.6a1.024,1.024,0,0,1,1.024,1.024v2.178A1.024,1.024,0,0,1,226.34,433.013Z" transform="translate(-188.559 -378.906)" fill="#889daa"/>
        <path id="Trazado_1059274" data-name="Trazado 1059274" d="M311.2,429.812v2.177a1.024,1.024,0,0,1-1.024,1.023H307.8a1.024,1.024,0,0,0,1.024-1.023v-2.177a1.024,1.024,0,0,0-1.024-1.024h2.368A1.024,1.024,0,0,1,311.2,429.812Z" transform="translate(-272.391 -378.906)" fill="#728d9a"/>
        <path id="Trazado_1059275" data-name="Trazado 1059275" d="M241.312,165.173l-4.53,8.24a.539.539,0,0,0,.472.8h2.6a.539.539,0,0,1,.53.634l-.885,4.921a.539.539,0,0,0,.978.4l5.393-8.045a.539.539,0,0,0-.448-.839h-3.375a.539.539,0,0,1-.532-.622l.8-5.141A.539.539,0,0,0,241.312,165.173Z" transform="translate(-209.72 -146.256)" fill="#00d6a0"/>
        <path id="Trazado_1059276" data-name="Trazado 1059276" d="M259.993,172.12l-5.393,8.045a.539.539,0,0,1-.978-.4l.251-1.394,3.225-4.812a.539.539,0,0,0-.448-.839h-3.375a.538.538,0,0,1-.533-.622l.443-2.834,2.251-4.093a.539.539,0,0,1,1.005.342l-.8,5.141a.54.54,0,0,0,.533.623h3.375a.538.538,0,0,1,.447.838Z" transform="translate(-223.845 -146.258)" fill="#00c376"/>
        <g id="Grupo_1227164" data-name="Grupo 1227164" transform="translate(0 34.76)">
          <g id="Grupo_1227161" data-name="Grupo 1227161">
            <path id="Trazado_1059277" data-name="Trazado 1059277" d="M27.987,314.564l-2.078-1.2a.729.729,0,0,1-.356-.745,7.211,7.211,0,0,0,0-2.216.727.727,0,0,1,.356-.744l2.078-1.2a.729.729,0,0,0,.267-1L26.9,305.121a.73.73,0,0,0-1-.267l-2.079,1.2A.728.728,0,0,1,23,305.99a7.1,7.1,0,0,0-1.917-1.109.728.728,0,0,1-.467-.68v-2.4a.73.73,0,0,0-.73-.73h-2.7a.73.73,0,0,0-.73.73v2.4a.728.728,0,0,1-.467.68,7.1,7.1,0,0,0-1.918,1.109.728.728,0,0,1-.824.065l-2.079-1.2a.73.73,0,0,0-1,.267l-1.351,2.341a.73.73,0,0,0,.267,1l2.079,1.2a.728.728,0,0,1,.355.744,7.211,7.211,0,0,0,0,2.216.73.73,0,0,1-.355.745l-2.079,1.2a.73.73,0,0,0-.267,1l1.351,2.341a.73.73,0,0,0,1,.267l2.079-1.2a.73.73,0,0,1,.824.065,7.1,7.1,0,0,0,1.918,1.109.728.728,0,0,1,.467.68v2.4a.73.73,0,0,0,.73.73h2.7a.73.73,0,0,0,.73-.73v-2.4a.728.728,0,0,1,.467-.68A7.092,7.092,0,0,0,23,317.033a.73.73,0,0,1,.823-.065l2.079,1.2a.73.73,0,0,0,1-.267l1.351-2.341A.729.729,0,0,0,27.987,314.564Zm-9.449.911a3.963,3.963,0,1,1,3.962-3.963A3.963,3.963,0,0,1,18.538,315.475Z" transform="translate(-8.724 -301.072)" fill="#00b8ff"/>
          </g>
          <g id="Grupo_1227163" data-name="Grupo 1227163" transform="translate(7.73 3.684)">
            <g id="Grupo_1227162" data-name="Grupo 1227162">
              <path id="Trazado_1059278" data-name="Trazado 1059278" d="M85.539,341.993l-2.078-1.2a.732.732,0,0,1-.356-.746,7.141,7.141,0,0,0,0-2.215.728.728,0,0,1,.356-.744l2.078-1.2a.729.729,0,0,0,.266-1l-1.351-2.341a.73.73,0,0,0-1-.268l-2,1.154a14.493,14.493,0,0,1,.213,4.522c-.6,4.822-3.187,7.017-7.665,8.221q0,.036,0,.071v2.4a.73.73,0,0,0,.731.729h2.7a.731.731,0,0,0,.731-.729v-2.4a.726.726,0,0,1,.467-.68,7.123,7.123,0,0,0,1.917-1.109.73.73,0,0,1,.823-.065l2.079,1.2a.731.731,0,0,0,1-.266l1.351-2.342A.727.727,0,0,0,85.539,341.993Z" transform="translate(-74.005 -332.185)" fill="#00a8ff"/>
            </g>
          </g>
        </g>
      </g>
      <g id="Grupo_1227166" data-name="Grupo 1227166" transform="translate(1.22)">
        <path id="Trazado_1059279" data-name="Trazado 1059279" d="M55.492,348.263a4.852,4.852,0,1,0,4.85,4.852A4.857,4.857,0,0,0,55.492,348.263Zm0,7.927a3.075,3.075,0,1,1,3.074-3.075A3.079,3.079,0,0,1,55.492,356.19Z" transform="translate(-44.788 -307.027)"/>
        <path id="Trazado_1059280" data-name="Trazado 1059280" d="M22.57,301.632a1.6,1.6,0,0,0-.162-1.226l-1.352-2.342a1.62,1.62,0,0,0-2.209-.591l-1.985,1.146a7.973,7.973,0,0,0-1.969-1.139v-2.29a1.62,1.62,0,0,0-1.618-1.618h-2.7a1.62,1.62,0,0,0-1.618,1.618v2.29a7.978,7.978,0,0,0-1.97,1.139L5,297.474a1.62,1.62,0,0,0-2.211.592l-1.351,2.34a1.618,1.618,0,0,0,.591,2.211l1.984,1.146a8.092,8.092,0,0,0,0,2.276l-1.985,1.145a1.619,1.619,0,0,0-.591,2.209l1.352,2.342A1.619,1.619,0,0,0,5,312.325l1.985-1.146a7.968,7.968,0,0,0,1.97,1.139v2.29a1.619,1.619,0,0,0,1.618,1.618h2.7a1.62,1.62,0,0,0,1.618-1.618v-2.29a7.969,7.969,0,0,0,1.969-1.139l1.985,1.146a1.62,1.62,0,0,0,2.21-.592l1.351-2.34a1.617,1.617,0,0,0-.592-2.211l-1.984-1.146a8.085,8.085,0,0,0,0-2.275l1.984-1.147A1.606,1.606,0,0,0,22.57,301.632Zm-3.72.645a1.625,1.625,0,0,0-.79,1.65,6.311,6.311,0,0,1,0,1.941,1.626,1.626,0,0,0,.789,1.652l1.941,1.12L19.6,310.708l-1.943-1.122a1.627,1.627,0,0,0-1.825.145,6.2,6.2,0,0,1-1.677.97,1.626,1.626,0,0,0-1.036,1.509v2.241H10.73v-2.241A1.626,1.626,0,0,0,9.694,310.7a6.205,6.205,0,0,1-1.678-.97,1.629,1.629,0,0,0-1.826-.144l-1.942,1.121-1.193-2.066L5,307.521a1.626,1.626,0,0,0,.788-1.65,6.326,6.326,0,0,1,0-1.941A1.626,1.626,0,0,0,5,302.278l-1.942-1.121,1.193-2.067,1.943,1.122a1.625,1.625,0,0,0,1.825-.145,6.2,6.2,0,0,1,1.678-.97,1.625,1.625,0,0,0,1.037-1.509v-2.241h2.386v2.241a1.625,1.625,0,0,0,1.036,1.508,6.2,6.2,0,0,1,1.676.969,1.627,1.627,0,0,0,1.828.145L19.6,299.09l1.193,2.067Z" transform="translate(-1.22 -258.812)"/>
        <path id="Trazado_1059281" data-name="Trazado 1059281" d="M120.648,187.388a.888.888,0,0,0,.424,1.182c.293.138.6.264.9.372a.888.888,0,0,0,.6-1.673c-.25-.089-.5-.192-.74-.306A.888.888,0,0,0,120.648,187.388Z" transform="translate(-106.432 -164.752)"/>
        <path id="Trazado_1059282" data-name="Trazado 1059282" d="M235.5,42h1.712a.888.888,0,1,0,0-1.776H235.5a.888.888,0,1,0,0,1.776Z" transform="translate(-206.98 -35.458)"/>
        <path id="Trazado_1059283" data-name="Trazado 1059283" d="M278.892,42H280.6a.888.888,0,0,0,0-1.776h-1.713a.888.888,0,1,0,0,1.776Z" transform="translate(-245.232 -35.458)"/>
        <path id="Trazado_1059284" data-name="Trazado 1059284" d="M192.112,42h1.713a.888.888,0,0,0,0-1.776h-1.713a.888.888,0,1,0,0,1.776Z" transform="translate(-168.727 -35.458)"/>
        <path id="Trazado_1059285" data-name="Trazado 1059285" d="M82.2,79.565a.887.887,0,0,0,1.15-.5,8.209,8.209,0,0,1,.694-1.377.888.888,0,1,0-1.5-.945,9.979,9.979,0,0,0-.845,1.676A.888.888,0,0,0,82.2,79.565Z" transform="translate(-72.115 -67.286)"/>
        <path id="Trazado_1059286" data-name="Trazado 1059286" d="M88.841,158.709a.888.888,0,0,0-.271,1.226,10.067,10.067,0,0,0,1.153,1.48.888.888,0,0,0,1.293-1.217,8.285,8.285,0,0,1-.949-1.218A.888.888,0,0,0,88.841,158.709Z" transform="translate(-78.104 -139.794)"/>
        <path id="Trazado_1059287" data-name="Trazado 1059287" d="M77.443,120.966a.889.889,0,0,0,.873-1.056,8.321,8.321,0,0,1-.149-1.537.888.888,0,0,0-.888-.885h0a.888.888,0,0,0-.885.891,10.088,10.088,0,0,0,.181,1.867A.888.888,0,0,0,77.443,120.966Z" transform="translate(-67.49 -103.577)"/>
        <path id="Trazado_1059288" data-name="Trazado 1059288" d="M148.726,42.019l.064,0c.2-.014.4-.021.594-.021h1.055a.888.888,0,1,0,0-1.776h-1.056c-.24,0-.481.009-.719.026a.888.888,0,0,0,.062,1.774Z" transform="translate(-130.479 -35.457)"/>
        <path id="Trazado_1059289" data-name="Trazado 1059289" d="M108.577,50.444a.885.885,0,0,0,.527-.174,8.243,8.243,0,0,1,1.321-.8.888.888,0,1,0-.77-1.6,10.017,10.017,0,0,0-1.607.968.888.888,0,0,0,.528,1.6Z" transform="translate(-95.082 -42.127)"/>
        <path id="Trazado_1059290" data-name="Trazado 1059290" d="M322.343,42h.888a.888.888,0,1,0,0-1.776h-.888a.888.888,0,1,0,0,1.776Z" transform="translate(-283.538 -35.458)"/>
        <path id="Trazado_1059291" data-name="Trazado 1059291" d="M362.233,348.191h-.888a.888.888,0,0,0,0,1.776h.888a.888.888,0,1,0,0-1.776Z" transform="translate(-317.922 -306.964)"/>
        <path id="Trazado_1059292" data-name="Trazado 1059292" d="M402.387,341.276a8.18,8.18,0,0,1-1.628.549.888.888,0,1,0,.387,1.733,9.972,9.972,0,0,0,1.983-.669.888.888,0,0,0-.742-1.614Z" transform="translate(-352.839 -300.796)"/>
        <path id="Trazado_1059293" data-name="Trazado 1059293" d="M443.414,309.089a.888.888,0,0,0-1.21.337,8.269,8.269,0,0,1-1,1.4A.888.888,0,1,0,442.54,312a10.058,10.058,0,0,0,1.211-1.7A.888.888,0,0,0,443.414,309.089Z" transform="translate(-388.916 -272.39)"/>
        <path id="Trazado_1059294" data-name="Trazado 1059294" d="M441.156,221.974a.888.888,0,0,0,1.528-.905,10.056,10.056,0,0,0-1.247-1.678.888.888,0,0,0-1.307,1.2A8.251,8.251,0,0,1,441.156,221.974Z" transform="translate(-387.954 -193.162)"/>
        <path id="Trazado_1059295" data-name="Trazado 1059295" d="M460.479,262.354a.888.888,0,0,0-.781.983,8.337,8.337,0,0,1,.054.947c0,.259-.012.519-.036.774a.888.888,0,0,0,.8.967c.028,0,.056,0,.084,0a.888.888,0,0,0,.883-.805c.029-.31.044-.626.044-.94a10.113,10.113,0,0,0-.065-1.149A.888.888,0,0,0,460.479,262.354Z" transform="translate(-405.407 -231.285)"/>
        <path id="Trazado_1059296" data-name="Trazado 1059296" d="M408.118,199.889a.888.888,0,1,0,.706-1.63c-.3-.129-.6-.244-.913-.343a.888.888,0,1,0-.543,1.691C407.621,199.689,407.873,199.783,408.118,199.889Z" transform="translate(-358.735 -174.445)"/>
        <path id="Trazado_1059297" data-name="Trazado 1059297" d="M376.754,2.533A8.758,8.758,0,0,0,370.569,0h-.151a8.748,8.748,0,0,0-5,1.669.888.888,0,1,0,1.04,1.44,7.041,7.041,0,0,1,11.158,5.714,6.975,6.975,0,0,1-1.43,4.256L370.6,20.248a.047.047,0,0,1-.074,0l-5.575-7.161a7.034,7.034,0,0,1-.773-7.24.888.888,0,1,0-1.607-.756,8.69,8.69,0,0,0-.825,3.389,8.853,8.853,0,0,0,1.8,5.691l5.581,7.169a1.822,1.822,0,0,0,2.876,0l5.587-7.176a8.824,8.824,0,0,0-.838-11.63Z" transform="translate(-319.056)"/>
        <path id="Trazado_1059298" data-name="Trazado 1059298" d="M404.95,38.349a4.858,4.858,0,1,0-4.858,4.858A4.863,4.863,0,0,0,404.95,38.349Zm-7.94,0a3.082,3.082,0,1,1,3.082,3.082A3.085,3.085,0,0,1,397.01,38.349Z" transform="translate(-348.581 -29.526)"/>
        <path id="Trazado_1059299" data-name="Trazado 1059299" d="M176.807,140.595a14.509,14.509,0,0,0-.29-20.439,14.946,14.946,0,0,0-15.865-3.215,14.8,14.8,0,0,0-4.873,3.215,14.508,14.508,0,0,0-.29,20.439,20.533,20.533,0,0,1,3.339,4.4.888.888,0,0,0,1.563-.843,18.4,18.4,0,0,0-2.56-3.618c-2.655-2.928-4.637-5.942-4.634-10.054a12.693,12.693,0,0,1,3.83-9.062,13.011,13.011,0,0,1,18.24,0,12.694,12.694,0,0,1,3.83,9.062c0,4.112-1.977,7.124-4.634,10.054a18.343,18.343,0,0,0-4.747,11.535h-2.825v-9.044h1.266v1.313a.888.888,0,0,0,1.776,0v-1.62a1.471,1.471,0,0,0-1.469-1.469H163.83a1.471,1.471,0,0,0-1.469,1.469v1.62a.888.888,0,0,0,1.776,0v-1.313h.98v9.045h-2.538a18.388,18.388,0,0,0-.622-4,.888.888,0,1,0-1.714.465,16.61,16.61,0,0,1,.559,3.532h-1.1a1.914,1.914,0,0,0-1.912,1.912v2.178a1.914,1.914,0,0,0,1.912,1.912h.947a5.4,5.4,0,0,0,10.71,0h.947a1.914,1.914,0,0,0,1.912-1.912v-2.178a1.914,1.914,0,0,0-1.912-1.912H171.5a16.569,16.569,0,0,1,4.284-10.342ZM166,161.033a3.625,3.625,0,0,1-3.559-2.963h7.119A3.625,3.625,0,0,1,166,161.033Zm6.438-7.053v2.178a.136.136,0,0,1-.136.136H159.7a.136.136,0,0,1-.136-.136v-2.178a.136.136,0,0,1,.136-.136h12.6A.136.136,0,0,1,172.442,153.981Z" transform="translate(-133.637 -102.187)"/>
        <path id="Trazado_1059300" data-name="Trazado 1059300" d="M235.624,157.46a1.407,1.407,0,0,0-1.711.663l-4.53,8.241a1.427,1.427,0,0,0,1.25,2.114h2.179l-.811,4.51a1.415,1.415,0,0,0,.869,1.575,1.443,1.443,0,0,0,.542.106,1.415,1.415,0,0,0,1.179-.635l5.393-8.045a1.427,1.427,0,0,0-1.185-2.222h-2.967l.74-4.738A1.407,1.407,0,0,0,235.624,157.46Zm2.521,8.085-4.1,6.116.59-3.28a1.427,1.427,0,0,0-1.4-1.679h-2.006l3.288-5.981-.5,3.177a1.427,1.427,0,0,0,1.41,1.647Z" transform="translate(-202.21 -138.745)"/>
      </g>
    </g>
  </g>
</svg>
