<svg xmlns="http://www.w3.org/2000/svg" xmlns:xlink="http://www.w3.org/1999/xlink" width="103" height="103" viewBox="0 0 103 103">
  <defs>
    <filter id="Trazado_982547" x="0" y="0" width="103" height="103" filterUnits="userSpaceOnUse">
      <feOffset dy="3" input="SourceAlpha"/>
      <feGaussianBlur stdDeviation="3" result="blur"/>
      <feFlood flood-opacity="0.161"/>
      <feComposite operator="in" in2="blur"/>
      <feComposite in="SourceGraphic"/>
    </filter>
  </defs>
  <g id="Grupo_1226928" data-name="Grupo 1226928" transform="translate(-187 -1212)">
    <g id="Grupo_1224795" data-name="Grupo 1224795" transform="translate(-4 20.388)">
      <g id="Grupo_1210290" data-name="Grupo 1210290" transform="translate(0 -2868)">
        <g id="Grupo_1207485" data-name="Grupo 1207485" transform="translate(0 396.112)">
          <g id="Grupo_1207313" data-name="Grupo 1207313" transform="translate(0 2919.5)">
            <g id="Grupo_1202212" data-name="Grupo 1202212" transform="translate(-80 -126.414)">
              <g id="Grupo_1174813" data-name="Grupo 1174813" transform="translate(280 876.414)">
                <g id="Grupo_1201680" data-name="Grupo 1201680">
                  <g id="Grupo_1201330" data-name="Grupo 1201330">
                    <g id="Grupo_1172010" data-name="Grupo 1172010">
                      <g id="Grupo_1171046" data-name="Grupo 1171046">
                        <g id="Grupo_1148525" data-name="Grupo 1148525">
                          <g transform="matrix(1, 0, 0, 1, -9, -6)" filter="url(#Trazado_982547)">
                            <g id="Trazado_982547-2" data-name="Trazado 982547" transform="translate(9 6)" fill="#f6ecfe">
                              <path d="M 42.5 83.5 C 36.96437835693359 83.5 31.59512901306152 82.41617584228516 26.54141235351562 80.27863311767578 C 21.65934181213379 78.21369171142578 17.27447128295898 75.25723266601562 13.50862312316895 71.49137878417969 C 9.742764472961426 67.72553253173828 6.786305904388428 63.34066009521484 4.721364498138428 58.45858764648438 C 2.583823442459106 53.40486907958984 1.5 48.03562164306641 1.5 42.5 C 1.5 36.96437835693359 2.583823442459106 31.59512901306152 4.721364498138428 26.54141235351562 C 6.786305904388428 21.65934181213379 9.742764472961426 17.27448272705078 13.50862312316895 13.50862312316895 C 17.27447128295898 9.742776870727539 21.65934181213379 6.786305904388428 26.54141235351562 4.721364498138428 C 31.59512901306152 2.583823442459106 36.96437835693359 1.5 42.5 1.5 C 48.03562164306641 1.5 53.40486907958984 2.583823442459106 58.45858764648438 4.721364498138428 C 63.34066009521484 6.786305904388428 67.72553253173828 9.742776870727539 71.49137878417969 13.50862312316895 C 75.25723266601562 17.27448272705078 78.21369171142578 21.65934181213379 80.27863311767578 26.54141235351562 C 82.41617584228516 31.59512901306152 83.5 36.96437835693359 83.5 42.5 C 83.5 48.03562164306641 82.41617584228516 53.40486907958984 80.27863311767578 58.45858764648438 C 78.21369171142578 63.34066009521484 75.25723266601562 67.72553253173828 71.49137878417969 71.49137878417969 C 67.72553253173828 75.25723266601562 63.34066009521484 78.21369171142578 58.45858764648438 80.27863311767578 C 53.40486907958984 82.41617584228516 48.03562164306641 83.5 42.5 83.5 Z" stroke="none"/>
                              <path d="M 42.5 3 C 37.16621398925781 3 31.99356079101562 4.043960571289062 27.125732421875 6.102882385253906 C 22.42246627807617 8.092185974121094 18.19785308837891 10.94070434570312 14.56928253173828 14.56928253173828 C 10.94070434570312 18.19785308837891 8.092185974121094 22.42246627807617 6.102882385253906 27.125732421875 C 4.043960571289062 31.99356079101562 3 37.16621398925781 3 42.5 C 3 47.83378601074219 4.043960571289062 53.00643920898438 6.102882385253906 57.874267578125 C 8.092185974121094 62.57753372192383 10.94070434570312 66.80214691162109 14.56928253173828 70.43071746826172 C 18.19785308837891 74.05929565429688 22.42246627807617 76.90781402587891 27.125732421875 78.89711761474609 C 31.99356079101562 80.95603942871094 37.16621398925781 82 42.5 82 C 47.83378601074219 82 53.00643920898438 80.95603942871094 57.874267578125 78.89711761474609 C 62.57753372192383 76.90781402587891 66.80214691162109 74.05929565429688 70.43071746826172 70.43071746826172 C 74.05929565429688 66.80214691162109 76.90781402587891 62.57753372192383 78.89711761474609 57.874267578125 C 80.95603942871094 53.00643920898438 82 47.83378601074219 82 42.5 C 82 37.16621398925781 80.95603942871094 31.99356079101562 78.89711761474609 27.125732421875 C 76.90781402587891 22.42246627807617 74.05929565429688 18.19785308837891 70.43071746826172 14.56928253173828 C 66.80214691162109 10.94070434570312 62.57753372192383 8.092185974121094 57.874267578125 6.102882385253906 C 53.00643920898438 4.043960571289062 47.83378601074219 3 42.5 3 M 42.5 0 C 65.97210693359375 0 85 19.02789306640625 85 42.5 C 85 65.97210693359375 65.97210693359375 85 42.5 85 C 19.02789306640625 85 0 65.97210693359375 0 42.5 C 0 19.02789306640625 19.02789306640625 0 42.5 0 Z" stroke="none" fill="#aa52f9"/>
                            </g>
                          </g>
                        </g>
                      </g>
                    </g>
                  </g>
                </g>
              </g>
            </g>
          </g>
        </g>
      </g>
    </g>
    <g id="pruebas_3_" data-name="pruebas (3)" transform="translate(205.191 1181.287)">
      <path id="Trazado_1058514" data-name="Trazado 1058514" d="M133.017,126.391v-.933l.2-.039a.578.578,0,0,0,.472-.569v-2.022l.167-.049a10.654,10.654,0,0,0,2.135-.885l.152-.084,1.43,1.43a.579.579,0,0,0,.74.066,13.118,13.118,0,0,0,3.294-3.294.579.579,0,0,0-.066-.74l-1.429-1.432.084-.152a10.441,10.441,0,0,0,.884-2.133l.048-.167h2.021a.579.579,0,0,0,.57-.476,13.066,13.066,0,0,0,0-4.663.579.579,0,0,0-.57-.476h-2.022l-.049-.167a10.568,10.568,0,0,0-.884-2.132l-.084-.152,1.429-1.429a.579.579,0,0,0,.066-.74,13.082,13.082,0,0,0-3.294-3.3.579.579,0,0,0-.74.066l-1.43,1.43-.152-.084a10.65,10.65,0,0,0-2.135-.884l-.167-.049v-2.022a.579.579,0,0,0-.476-.57l-.2-.039V98.322h39.406v28.069Zm17.006-12.739a.58.58,0,0,0-.579.579v9.252a.58.58,0,0,0,.579.579h9.252a.58.58,0,0,0,.579-.579v-9.252a.58.58,0,0,0-.579-.579Zm20.532,4.764v-1.159H162.1v1.159Zm0-3.6v-1.159H162.1v1.159Zm-20.532-14.16a.58.58,0,0,0-.579.579v9.256a.58.58,0,0,0,.579.579h9.252a.58.58,0,0,0,.579-.579v-9.256a.58.58,0,0,0-.579-.579Zm20.532,4.764v-1.159H162.1v1.159Zm0-3.6V100.65H162.1v1.159Z" transform="translate(-117.607 -34.273)" fill="#e9e9ff"/>
      <path id="Trazado_1058515" data-name="Trazado 1058515" d="M271.007,377.421h7.437v2.213h-7.437Z" transform="translate(-239.614 -281.045)" fill="#445ea0"/>
      <path id="Trazado_1058516" data-name="Trazado 1058516" d="M107.862,105.83a1.606,1.606,0,0,1-1.6-1.6v-2.292l.245.014c.251.014.495.021.726.021s.475-.007.726-.021l.245-.014v1.376a.58.58,0,0,0,.579.579h40.565a.58.58,0,0,0,.579-.579V74.082a.58.58,0,0,0-.579-.579H108.778a.58.58,0,0,0-.579.579v1.827l-.244-.013c-.241-.013-.486-.02-.728-.02s-.484.007-.724.02l-.244.013V73.166a1.606,1.606,0,0,1,1.6-1.6h42.4a1.606,1.606,0,0,1,1.6,1.6v31.06a1.606,1.606,0,0,1-1.6,1.6Z" transform="translate(-93.948 -10.613)" fill="#445ea0"/>
      <path id="Trazado_1058517" data-name="Trazado 1058517" d="M211.763,410.461V408.5a1.967,1.967,0,0,1,1.965-1.965h17.234a1.967,1.967,0,0,1,1.965,1.965v1.962Z" transform="translate(-187.233 -306.786)" fill="#293d7c"/>
      <path id="Trazado_1058518" data-name="Trazado 1058518" d="M66.45,179.569a6.311,6.311,0,1,1,6.309-6.309A6.318,6.318,0,0,1,66.45,179.569Zm-.391-2.612,1.9-7.095-1.119-.3-1.9,7.095Zm-4.845-4.1a.58.58,0,0,0,0,.82l2.341,2.336.819-.82-1.93-1.927,1.93-1.93-.819-.819ZM69.347,176l2.337-2.34a.58.58,0,0,0,0-.819l-2.337-2.337-.819.819,1.928,1.928-1.928,1.931Z" transform="translate(-53.17 -94.951)" fill="#e9e9ff"/>
      <path id="Trazado_1058519" data-name="Trazado 1058519" d="M23.892,142.565a11.961,11.961,0,0,1-1.445-.088l-.2-.025v-1.984a.576.576,0,0,0-.451-.565,9.474,9.474,0,0,1-2.94-1.219.579.579,0,0,0-.718.081l-1.4,1.4-.162-.126A11.935,11.935,0,0,1,14.527,138l-.126-.161,1.4-1.405a.576.576,0,0,0,.08-.718,9.419,9.419,0,0,1-1.219-2.939.576.576,0,0,0-.565-.451H12.116l-.024-.2a12.261,12.261,0,0,1,0-2.889l.024-.2H14.1a.576.576,0,0,0,.565-.451,9.473,9.473,0,0,1,1.219-2.94.576.576,0,0,0-.081-.718l-1.4-1.4.126-.161a11.9,11.9,0,0,1,2.045-2.045l.161-.126,1.4,1.4a.58.58,0,0,0,.718.081,9.469,9.469,0,0,1,2.94-1.219.576.576,0,0,0,.451-.565V118.9l.2-.025a11.965,11.965,0,0,1,2.89,0l.2.025v1.984a.576.576,0,0,0,.451.565,9.479,9.479,0,0,1,2.943,1.219.58.58,0,0,0,.718-.081l1.4-1.4.162.127a11.939,11.939,0,0,1,2.042,2.044l.126.161-1.4,1.4a.576.576,0,0,0-.08.719,9.394,9.394,0,0,1,1.219,2.938.576.576,0,0,0,.565.451h1.984l.025.2a11.915,11.915,0,0,1,0,2.89l-.025.2H33.684a.576.576,0,0,0-.565.452,9.267,9.267,0,0,1-1.218,2.936.576.576,0,0,0,.079.72l1.4,1.405-.126.161a11.969,11.969,0,0,1-2.042,2.042l-.162.127-1.4-1.4a.579.579,0,0,0-.718-.081,9.48,9.48,0,0,1-2.943,1.219.576.576,0,0,0-.451.565v1.984l-.2.025A11.924,11.924,0,0,1,23.892,142.565Zm0-19.358a7.469,7.469,0,1,0,7.468,7.471A7.479,7.479,0,0,0,23.893,123.207Z" transform="translate(-10.613 -52.368)" fill="#0cb4fb"/>
      <path id="Trazado_1058520" data-name="Trazado 1058520" d="M284.84,136.523v-8.1h8.094v8.1Zm2.545-1.848a.577.577,0,0,0,.439.229h.022a.58.58,0,0,0,.433-.2l3.664-4.134-.867-.769-3.2,3.605-1.122-1.478-.923.7Z" transform="translate(-251.845 -60.89)" fill="#43cb8e"/>
      <path id="Trazado_1058521" data-name="Trazado 1058521" d="M284.84,248.771v-8.094h8.094v8.094Zm2.477-1.658,1.569-1.569,1.569,1.569.819-.819-1.569-1.569,1.569-1.569-.819-.819-1.569,1.569-1.569-1.569-.819.819,1.569,1.569-1.569,1.569Z" transform="translate(-251.845 -160.141)" fill="#ed524e"/>
      <path id="Trazado_1058522" data-name="Trazado 1058522" d="M20.98,78.31a7.7,7.7,0,1,0-7.7,7.7A7.71,7.71,0,0,0,20.98,78.31Zm-13.78,0a6.079,6.079,0,1,1,6.081,6.077A6.088,6.088,0,0,1,7.2,78.31ZM53.179,67.767H44.262V66.145h8.917Zm3.132-8.208h-42.4a3,3,0,0,0-2.994,2.994V65.24l-.014,0a.811.811,0,0,0-.666.8v1.849a10.841,10.841,0,0,0-2.178.9L6.756,67.486a.811.811,0,0,0-1.035-.093A13.275,13.275,0,0,0,2.364,70.75a.811.811,0,0,0,.093,1.035l1.307,1.307a10.829,10.829,0,0,0-.9,2.178H1.011a.811.811,0,0,0-.8.666,13.51,13.51,0,0,0,0,4.746.811.811,0,0,0,.8.666H2.86a10.8,10.8,0,0,0,.9,2.179L2.456,84.836a.811.811,0,0,0-.092,1.036A13.307,13.307,0,0,0,5.72,89.224a.81.81,0,0,0,1.035-.093l1.307-1.307a10.841,10.841,0,0,0,2.178.9v1.849a.811.811,0,0,0,.666.8l.014,0v2.237a3,3,0,0,0,2.994,2.994H30v1.75H26.5a3.359,3.359,0,0,0-3.355,3.355v2.541a.811.811,0,0,0,.811.811H46.274a.811.811,0,0,0,.811-.811v-2.541a3.359,3.359,0,0,0-3.355-3.355H40.22v-1.75H56.311a3,3,0,0,0,2.994-2.994V62.553a3,3,0,0,0-2.994-2.994ZM11.231,87.31a9.236,9.236,0,0,1-2.868-1.19.811.811,0,0,0-1,.113L6.1,87.491a11.676,11.676,0,0,1-2-2l1.258-1.26a.811.811,0,0,0,.112-1.006,9.192,9.192,0,0,1-1.189-2.867.811.811,0,0,0-.791-.631H1.709a12.026,12.026,0,0,1,0-2.833H3.486a.811.811,0,0,0,.791-.631,9.237,9.237,0,0,1,1.19-2.868.811.811,0,0,0-.113-1.005L4.1,71.131A11.636,11.636,0,0,1,6.1,69.126l1.257,1.257a.811.811,0,0,0,1,.113,9.241,9.241,0,0,1,2.868-1.19.811.811,0,0,0,.631-.791V66.737a11.736,11.736,0,0,1,2.833,0v1.779a.811.811,0,0,0,.631.791A9.25,9.25,0,0,1,18.2,70.5a.811.811,0,0,0,1-.113l1.257-1.257a11.678,11.678,0,0,1,2,2L21.2,72.388a.811.811,0,0,0-.112,1.007,9.163,9.163,0,0,1,1.188,2.866.811.811,0,0,0,.791.631H24.85a11.681,11.681,0,0,1,0,2.833H23.071a.811.811,0,0,0-.791.633,9.037,9.037,0,0,1-1.187,2.863.811.811,0,0,0,.111,1.007l1.258,1.26a11.714,11.714,0,0,1-2,2L19.2,86.233a.811.811,0,0,0-1-.113,9.247,9.247,0,0,1-2.871,1.19.811.811,0,0,0-.631.791v1.779a11.736,11.736,0,0,1-2.833,0V88.1A.811.811,0,0,0,11.231,87.31ZM24.1,84.835,22.8,83.527a10.645,10.645,0,0,0,.9-2.18h1.847a.811.811,0,0,0,.8-.666,13.3,13.3,0,0,0,0-4.746.811.811,0,0,0-.8-.666H23.7a10.774,10.774,0,0,0-.9-2.179L24.1,71.785a.811.811,0,0,0,.093-1.035,13.314,13.314,0,0,0-3.352-3.356.811.811,0,0,0-1.036.092L18.5,68.793a10.854,10.854,0,0,0-2.181-.9V66.04a.811.811,0,0,0-.666-.8l-.011,0v-.96H54.584V91.886H15.641v-.51l.01,0a.811.811,0,0,0,.666-.8V88.727a10.851,10.851,0,0,0,2.181-.9l1.307,1.307a.811.811,0,0,0,1.036.092,13.347,13.347,0,0,0,3.352-3.352A.811.811,0,0,0,24.1,84.835ZM43.73,99.979a1.736,1.736,0,0,1,1.734,1.733v1.73h-20.7v-1.73A1.735,1.735,0,0,1,26.5,99.979H43.73ZM31.624,98.357v-1.75H38.6v1.75Zm26.059-4.744a1.374,1.374,0,0,1-1.372,1.372h-42.4a1.374,1.374,0,0,1-1.372-1.372V91.566c.246.014.492.021.739.021s.493-.008.739-.021V92.7a.811.811,0,0,0,.811.811H55.4a.811.811,0,0,0,.811-.811V63.469a.811.811,0,0,0-.811-.811H14.83a.811.811,0,0,0-.811.811v1.582a13.464,13.464,0,0,0-1.477,0v-2.5a1.374,1.374,0,0,1,1.372-1.372h42.4a1.374,1.374,0,0,1,1.372,1.372v31.06ZM15.071,74.748l-2.018,7.542-1.567-.419L13.5,74.329Zm-3.54,5.491-1.146,1.148-2.5-2.5a.811.811,0,0,1,0-1.147l2.5-2.5,1.147,1.147L9.6,78.313Zm3.5-3.863,1.147-1.147,2.5,2.5a.811.811,0,0,1,0,1.146l-2.5,2.5L15.03,80.235,16.957,78.3Zm17.386.647h9.252a.811.811,0,0,0,.811-.811V66.956a.811.811,0,0,0-.811-.811H32.415a.811.811,0,0,0-.811.811v9.256A.811.811,0,0,0,32.415,77.023Zm.811-9.256h7.63V75.4h-7.63Zm19.953,3.6H44.262V69.75h8.917ZM32.415,90.021h9.252a.811.811,0,0,0,.811-.811V79.958a.811.811,0,0,0-.811-.811H32.415a.811.811,0,0,0-.811.811V89.21A.811.811,0,0,0,32.415,90.021Zm.811-9.252h7.63V88.4h-7.63Zm6.531,2.246-1.569,1.569,1.569,1.569L38.611,87.3l-1.569-1.569L35.472,87.3l-1.147-1.147,1.569-1.569-1.569-1.569,1.147-1.147,1.569,1.569,1.569-1.569Zm13.421-2.246H44.262V79.147h8.917Zm0,3.6H44.262V82.752h8.917ZM39.212,68.589l1.214,1.076-3.818,4.307a.811.811,0,0,1-.607.273H35.97a.811.811,0,0,1-.615-.32L33.666,71.7l1.292-.98,1.091,1.438Z" transform="translate(0 0)"/>
    </g>
  </g>
</svg>
