<svg xmlns="http://www.w3.org/2000/svg" xmlns:xlink="http://www.w3.org/1999/xlink" width="113" height="113" viewBox="0 0 113 113">
  <defs>
    <filter id="Trazado_982547" x="0" y="0" width="113" height="113" filterUnits="userSpaceOnUse">
      <feOffset dy="3" input="SourceAlpha"/>
      <feGaussianBlur stdDeviation="3" result="blur"/>
      <feFlood flood-opacity="0.161"/>
      <feComposite operator="in" in2="blur"/>
      <feComposite in="SourceGraphic"/>
    </filter>
  </defs>
  <g id="Grupo_1227039" data-name="Grupo 1227039" transform="translate(-793.98 -4701.135)">
    <g id="Grupo_1227015" data-name="Grupo 1227015" transform="translate(802.98 4707.135)">
      <g id="Grupo_1224575" data-name="Grupo 1224575" transform="translate(0 0)">
        <g id="Grupo_1224449" data-name="Grupo 1224449" transform="translate(0)">
          <g id="Grupo_1224084" data-name="Grupo 1224084">
            <g id="Grupo_1223183" data-name="Grupo 1223183">
              <g id="Grupo_1211217" data-name="Grupo 1211217">
                <g id="Grupo_1210736" data-name="Grupo 1210736">
                  <g id="Grupo_1210537" data-name="Grupo 1210537">
                    <g id="Grupo_1164202" data-name="Grupo 1164202">
                      <g id="Grupo_1158168" data-name="Grupo 1158168">
                        <g id="Grupo_1152576" data-name="Grupo 1152576">
                          <g id="Grupo_1148633" data-name="Grupo 1148633">
                            <g id="Grupo_1148525" data-name="Grupo 1148525">
                              <g transform="matrix(1, 0, 0, 1, -9, -6)" filter="url(#Trazado_982547)">
                                <g id="Trazado_982547-2" data-name="Trazado 982547" transform="translate(9 6)" fill="#fef9e5">
                                  <path d="M 47.49999618530273 93.5 C 41.28936767578125 93.5 35.26533126831055 92.28396606445312 29.59518241882324 89.88570404052734 C 24.11771583557129 87.56893157958984 19.19812965393066 84.251953125 14.97308921813965 80.02690124511719 C 10.74803638458252 75.80186462402344 7.431062698364258 70.88227844238281 5.114289283752441 65.40480804443359 C 2.716022968292236 59.73466110229492 1.499996185302734 53.71062469482422 1.499996185302734 47.49999618530273 C 1.499996185302734 41.28936767578125 2.716022968292236 35.26533126831055 5.114289283752441 29.59518241882324 C 7.431062698364258 24.11771583557129 10.74803638458252 19.19812965393066 14.97308921813965 14.97308921813965 C 19.19812965393066 10.74803638458252 24.11771583557129 7.431062698364258 29.59518241882324 5.114289283752441 C 35.26533126831055 2.716022968292236 41.28936767578125 1.499996185302734 47.49999618530273 1.499996185302734 C 53.71062469482422 1.499996185302734 59.73466110229492 2.716022968292236 65.40480804443359 5.114289283752441 C 70.88227844238281 7.431062698364258 75.80186462402344 10.74803638458252 80.02690124511719 14.97308921813965 C 84.251953125 19.19812965393066 87.56893157958984 24.11771583557129 89.88570404052734 29.59518241882324 C 92.28396606445312 35.26533126831055 93.5 41.28936767578125 93.5 47.49999618530273 C 93.5 53.71062469482422 92.28396606445312 59.73466110229492 89.88570404052734 65.40480804443359 C 87.56893157958984 70.88227844238281 84.251953125 75.80186462402344 80.02690124511719 80.02690124511719 C 75.80186462402344 84.251953125 70.88227844238281 87.56893157958984 65.40480804443359 89.88570404052734 C 59.73466110229492 92.28396606445312 53.71062469482422 93.5 47.49999618530273 93.5 Z" stroke="none"/>
                                  <path d="M 47.49999618530273 2.999992370605469 C 41.4912109375 2.999992370605469 35.66376495361328 4.1761474609375 30.17950439453125 6.495796203613281 C 24.88084411621094 8.736953735351562 20.12152099609375 11.94598388671875 16.03375244140625 16.03375244140625 C 11.94598388671875 20.12152099609375 8.736953735351562 24.88084411621094 6.495796203613281 30.17950439453125 C 4.1761474609375 35.66376495361328 2.999992370605469 41.4912109375 2.999992370605469 47.49999618530273 C 2.999992370605469 53.50878143310547 4.1761474609375 59.33622741699219 6.495796203613281 64.82048797607422 C 8.736953735351562 70.11914825439453 11.94598388671875 74.87847137451172 16.03375244140625 78.96623992919922 C 20.12152099609375 83.05400848388672 24.88084411621094 86.26304626464844 30.17950439453125 88.50419616699219 C 35.66376495361328 90.82384490966797 41.4912109375 92 47.49999618530273 92 C 53.50878143310547 92 59.33622741699219 90.82384490966797 64.82048797607422 88.50419616699219 C 70.11914825439453 86.26304626464844 74.87847137451172 83.05400848388672 78.96623992919922 78.96623992919922 C 83.05400848388672 74.87847137451172 86.26304626464844 70.11914825439453 88.50419616699219 64.82048797607422 C 90.82384490966797 59.33622741699219 92 53.50878143310547 92 47.49999618530273 C 92 41.4912109375 90.82384490966797 35.66376495361328 88.50419616699219 30.17950439453125 C 86.26304626464844 24.88084411621094 83.05400848388672 20.12152099609375 78.96623992919922 16.03375244140625 C 74.87847137451172 11.94598388671875 70.11914825439453 8.736953735351562 64.82048797607422 6.495796203613281 C 59.33622741699219 4.1761474609375 53.50878143310547 2.999992370605469 47.49999618530273 2.999992370605469 M 47.49999618530273 -7.62939453125e-06 C 73.7335205078125 -7.62939453125e-06 95 21.26647186279297 95 47.49999618530273 C 95 73.7335205078125 73.7335205078125 95 47.49999618530273 95 C 21.26647186279297 95 -7.62939453125e-06 73.7335205078125 -7.62939453125e-06 47.49999618530273 C -7.62939453125e-06 21.26647186279297 21.26647186279297 -7.62939453125e-06 47.49999618530273 -7.62939453125e-06 Z" stroke="none" fill="#f6c810"/>
                                </g>
                              </g>
                            </g>
                          </g>
                        </g>
                      </g>
                    </g>
                  </g>
                </g>
              </g>
            </g>
          </g>
        </g>
      </g>
    </g>
    <g id="software-development" transform="translate(812.137 4716.289)">
      <g id="Grupo_1227038" data-name="Grupo 1227038" transform="translate(10.688 10.849)">
        <g id="Grupo_1227035" data-name="Grupo 1227035" transform="translate(0 2.417)">
          <path id="Trazado_1058898" data-name="Trazado 1058898" d="M176.078,343.168l-5.524-3.25-5.6,3.25c0,6.583-2.092,9.986-5.571,9.986l11.134,2.3,11.133-2.3C178.171,353.154,176.078,349.751,176.078,343.168Z" transform="translate(-142.86 -305.167)" fill="#7a8c98" fill-rule="evenodd"/>
          <path id="Trazado_1058899" data-name="Trazado 1058899" d="M121.754,454.781H148.63a2.3,2.3,0,0,1,2.3,2.3v1.144a1.155,1.155,0,0,1-1.152,1.152H120.61a1.155,1.155,0,0,1-1.152-1.152v-1.144A2.3,2.3,0,0,1,121.754,454.781Z" transform="translate(-107.536 -406.794)" fill="#8d9ca8" fill-rule="evenodd"/>
          <path id="Trazado_1058900" data-name="Trazado 1058900" d="M19.457,38.347h48.4A3.464,3.464,0,0,1,71.311,41.8V72.891a3.464,3.464,0,0,1-3.457,3.457h-48.4A3.464,3.464,0,0,1,16,72.891V41.8A3.464,3.464,0,0,1,19.457,38.347Z" transform="translate(-16 -38.347)" fill="#8d9ca8" fill-rule="evenodd"/>
          <path id="Trazado_1058901" data-name="Trazado 1058901" d="M89.78,77.026V63.038a.7.7,0,0,0-.691-.691h-48.4a.7.7,0,0,0-.691.691V91.013a.7.7,0,0,0,.691.691h48.4a.7.7,0,0,0,.691-.691Z" transform="translate(-37.234 -59.581)" fill="#d4f2f6" fill-rule="evenodd"/>
        </g>
        <g id="Grupo_1227037" data-name="Grupo 1227037" transform="translate(10.259 0)">
          <g id="Grupo_1227036" data-name="Grupo 1227036">
            <path id="Trazado_1058902" data-name="Trazado 1058902" d="M107.2,17.372h30.445a2.179,2.179,0,0,1,2.175,2.175V43.188a2.179,2.179,0,0,1-2.175,2.175H107.2a2.179,2.179,0,0,1-2.175-2.175V19.547a2.179,2.179,0,0,1,2.175-2.175Z" transform="translate(-105.027 -17.372)" fill="#f9f3f1" fill-rule="evenodd"/>
            <path id="Trazado_1058903" data-name="Trazado 1058903" d="M137.647,17.372H107.2a2.179,2.179,0,0,0-2.175,2.175v4.14h34.794v-4.14A2.179,2.179,0,0,0,137.647,17.372Z" transform="translate(-105.028 -17.372)" fill="#6bd9e7" fill-rule="evenodd"/>
            <path id="Trazado_1058904" data-name="Trazado 1058904" d="M127.7,38.429a.95.95,0,1,0-.95-.95A.952.952,0,0,0,127.7,38.429Z" transform="translate(-124.249 -34.322)" fill="#f47c7c" fill-rule="evenodd"/>
            <path id="Trazado_1058905" data-name="Trazado 1058905" d="M163.967,38.429a.95.95,0,1,0-.95-.95A.952.952,0,0,0,163.967,38.429Z" transform="translate(-156.335 -34.322)" fill="#fad97f" fill-rule="evenodd"/>
            <path id="Trazado_1058906" data-name="Trazado 1058906" d="M200.232,38.429a.95.95,0,1,0-.95-.95A.952.952,0,0,0,200.232,38.429Z" transform="translate(-188.421 -34.322)" fill="#d6f6b2" fill-rule="evenodd"/>
            <path id="Trazado_1058907" data-name="Trazado 1058907" d="M297.184,38.429a.95.95,0,1,1,0-1.9h8.358a.95.95,0,0,1,0,1.9Z" transform="translate(-274.201 -34.322)" fill="#f9f3f1" fill-rule="evenodd"/>
          </g>
          <path id="Trazado_1058908" data-name="Trazado 1058908" d="M192.777,95.386a8.309,8.309,0,0,1,.856.044.888.888,0,0,1,.8.807l.111,1.19a.8.8,0,0,0,1.321.541l.913-.77a.888.888,0,0,1,1.135-.015,8.285,8.285,0,0,1,1.263,1.252.888.888,0,0,1-.006,1.135l-.763.919a.8.8,0,0,0,.551,1.316l1.191.1a.887.887,0,0,1,.813.792,8.328,8.328,0,0,1,.007,1.778.888.888,0,0,1-.807.8l-1.19.111a.8.8,0,0,0-.541,1.321l.77.913a.888.888,0,0,1,.015,1.135,8.285,8.285,0,0,1-1.252,1.263.888.888,0,0,1-1.135-.006l-.919-.763a.8.8,0,0,0-1.316.551l-.1,1.191a.887.887,0,0,1-.792.813,8.325,8.325,0,0,1-1.778.007.888.888,0,0,1-.8-.807l-.111-1.19a.8.8,0,0,0-1.321-.541l-.913.77a.888.888,0,0,1-1.135.015,8.28,8.28,0,0,1-1.263-1.252.888.888,0,0,1,.006-1.135l.763-.919a.8.8,0,0,0-.551-1.316l-1.191-.1a.887.887,0,0,1-.813-.792,8.327,8.327,0,0,1-.007-1.778.888.888,0,0,1,.807-.8l1.19-.111a.8.8,0,0,0,.541-1.321l-.77-.913a.888.888,0,0,1-.015-1.135,8.28,8.28,0,0,1,1.252-1.263.888.888,0,0,1,1.135.006l.919.763a.8.8,0,0,0,1.316-.551l.1-1.191a.887.887,0,0,1,.792-.813,8.3,8.3,0,0,1,.921-.051Zm0,4.538a3.7,3.7,0,1,0,3.7,3.7A3.7,3.7,0,0,0,192.777,99.924Z" transform="translate(-175.38 -86.396)" fill="#fad97f" fill-rule="evenodd"/>
        </g>
      </g>
      <path id="Trazado_1058909" data-name="Trazado 1058909" d="M44.06,13.639H52.6a.28.28,0,1,1,0,.559H44.06a.28.28,0,1,1,0-.559Zm0,1.942H52.6a1.663,1.663,0,1,0,0-3.325H44.06a1.663,1.663,0,1,0,0,3.325ZM32.633,13.639a.28.28,0,1,1-.276.28.28.28,0,0,1,.276-.28Zm0,1.942a1.663,1.663,0,1,0-1.659-1.663A1.666,1.666,0,0,0,32.633,15.582Zm-4.272-1.942a.28.28,0,1,1-.282.28.279.279,0,0,1,.282-.28Zm0,1.942A1.663,1.663,0,1,0,26.7,13.919,1.666,1.666,0,0,0,28.361,15.582ZM24.09,13.639a.28.28,0,1,1-.282.28.279.279,0,0,1,.282-.28Zm0,1.942a1.663,1.663,0,1,0-1.664-1.663A1.662,1.662,0,0,0,24.09,15.582Zm14.257,9.644a3,3,0,1,1-3,3.005A3.009,3.009,0,0,1,38.346,25.226Zm0,7.393a4.388,4.388,0,1,0-4.391-4.388A4.392,4.392,0,0,0,38.346,32.618Zm-7.5-5.172a7.583,7.583,0,0,0-.043.785,7.317,7.317,0,0,0,.049.845.194.194,0,0,0,.184.18l1.193.1A1.5,1.5,0,0,1,33.251,31.8l-.764.919a.2.2,0,0,0,0,.258,7.635,7.635,0,0,0,1.155,1.148.2.2,0,0,0,.26,0l.911-.771a1.494,1.494,0,0,1,1.534-.242,1.481,1.481,0,0,1,.922,1.247l.114,1.19a.194.194,0,0,0,.179.184,7.675,7.675,0,0,0,1.632-.006.2.2,0,0,0,.179-.185l.1-1.191a1.5,1.5,0,0,1,2.45-1.025l.922.763a.193.193,0,0,0,.255,0,7.7,7.7,0,0,0,1.149-1.157.2.2,0,0,0-.005-.258l-.77-.913a1.488,1.488,0,0,1-.244-1.532,1.5,1.5,0,0,1,1.247-.923l1.193-.111a.2.2,0,0,0,.184-.181,7.594,7.594,0,0,0,.038-.785,7.317,7.317,0,0,0-.043-.845.2.2,0,0,0-.184-.18l-1.193-.1a1.5,1.5,0,0,1-1.025-2.447l.764-.919a.2.2,0,0,0,0-.258,7.418,7.418,0,0,0-1.16-1.148.193.193,0,0,0-.255,0l-.916.771a1.493,1.493,0,0,1-2.45-1.006l-.114-1.19a.2.2,0,0,0-.179-.183,7.669,7.669,0,0,0-1.632.006.2.2,0,0,0-.179.185l-.1,1.191a1.494,1.494,0,0,1-2.445,1.025l-.922-.763a.193.193,0,0,0-.255,0,7.685,7.685,0,0,0-1.149,1.157.194.194,0,0,0,.005.257l.77.913a1.5,1.5,0,0,1-1.008,2.455l-1.187.111A.2.2,0,0,0,30.844,27.446Zm.076,3.187,1.187.1a.11.11,0,0,1,.1.069.107.107,0,0,1-.016.117l-.764.919a1.566,1.566,0,0,0-.011,2.012,9.208,9.208,0,0,0,1.366,1.357,1.571,1.571,0,0,0,2.011-.027l.916-.771a.112.112,0,0,1,.184.077L36,35.678a1.568,1.568,0,0,0,1.415,1.431,8.935,8.935,0,0,0,1.924-.007,1.567,1.567,0,0,0,1.4-1.442l.1-1.191a.1.1,0,0,1,.065-.1.108.108,0,0,1,.119.018l.922.763a1.568,1.568,0,0,0,2.011.011A9.007,9.007,0,0,0,45.323,33.8a1.573,1.573,0,0,0-.027-2.012l-.77-.913a.114.114,0,0,1-.022-.116.11.11,0,0,1,.1-.069l1.193-.111a1.577,1.577,0,0,0,1.431-1.415c.027-.307.043-.619.043-.928a8.746,8.746,0,0,0-.054-1,1.567,1.567,0,0,0-1.442-1.405l-1.193-.1a.1.1,0,0,1-.092-.069.107.107,0,0,1,.016-.117l.764-.919a1.573,1.573,0,0,0,.011-2.012,9.186,9.186,0,0,0-1.366-1.357,1.576,1.576,0,0,0-2.017.028l-.911.77a.112.112,0,0,1-.119.019.1.1,0,0,1-.065-.1l-.114-1.19a1.568,1.568,0,0,0-1.415-1.43,9.026,9.026,0,0,0-1.924.008,1.567,1.567,0,0,0-1.4,1.442l-.1,1.192a.1.1,0,0,1-.071.1.1.1,0,0,1-.114-.018l-.922-.763a1.568,1.568,0,0,0-2.011-.01,8.978,8.978,0,0,0-1.355,1.368,1.566,1.566,0,0,0,.027,2.012l.77.913a.115.115,0,0,1-.076.186l-1.193.111A1.572,1.572,0,0,0,29.467,27.3a8.847,8.847,0,0,0-.049.928,8.731,8.731,0,0,0,.06,1,1.567,1.567,0,0,0,1.442,1.4ZM65.309,47.968V16.881a2.769,2.769,0,0,0-2.765-2.766H56.826V15.5h5.719a1.383,1.383,0,0,1,1.382,1.383V44.856a1.383,1.383,0,0,1-1.382,1.383h-48.4a1.383,1.383,0,0,1-1.382-1.383V16.881A1.383,1.383,0,0,1,14.148,15.5h5.713V14.115H14.148a2.77,2.77,0,0,0-2.77,2.766V47.968a2.77,2.77,0,0,0,2.77,2.765h48.4A2.769,2.769,0,0,0,65.309,47.968ZM44.792,59.23a6.174,6.174,0,0,0,1.155,1.489h-15.2A6.312,6.312,0,0,0,31.9,59.23a15.207,15.207,0,0,0,1.567-7.113h9.757A15.21,15.21,0,0,0,44.792,59.23ZM51.784,62.1a1.608,1.608,0,0,1,1.6,1.605v1.143a.461.461,0,0,1-.461.461H23.765a.461.461,0,0,1-.461-.461V63.706a1.608,1.608,0,0,1,1.6-1.605ZM22.778,11.382a1.53,1.53,0,0,0-1.529,1.532v3.542H55.443V12.914a1.534,1.534,0,0,0-1.529-1.532Zm0,28.623a2.921,2.921,0,0,1-2.916-2.915V16.881H14.148V44.856h48.4V16.881H56.826V37.089A2.917,2.917,0,0,1,53.915,40ZM21.249,17.839v19.25a1.53,1.53,0,0,0,1.529,1.532H53.915a1.534,1.534,0,0,0,1.529-1.532V17.839Zm41.295-5.107H56.82A2.915,2.915,0,0,0,53.915,10H22.778a2.915,2.915,0,0,0-2.905,2.733H14.148A4.156,4.156,0,0,0,10,16.881V47.968a4.157,4.157,0,0,0,4.152,4.148H32.086c-.087,3.5-.9,8.6-4.873,8.6h-2.3a2.99,2.99,0,0,0-2.987,2.988v1.143a1.844,1.844,0,0,0,1.843,1.844H52.928a1.848,1.848,0,0,0,1.843-1.844V63.706a2.99,2.99,0,0,0-2.987-2.988h-2.3c-3.973,0-4.787-5.1-4.873-8.6H62.545a4.152,4.152,0,0,0,4.147-4.148V16.881a4.152,4.152,0,0,0-4.147-4.148Z" fill-rule="evenodd"/>
    </g>
  </g>
</svg>
