<svg xmlns="http://www.w3.org/2000/svg" xmlns:xlink="http://www.w3.org/1999/xlink" width="113" height="113" viewBox="0 0 113 113">
  <defs>
    <filter id="Trazado_982547" x="0" y="0" width="113" height="113" filterUnits="userSpaceOnUse">
      <feOffset dy="3" input="SourceAlpha"/>
      <feGaussianBlur stdDeviation="3" result="blur"/>
      <feFlood flood-opacity="0.161"/>
      <feComposite operator="in" in2="blur"/>
      <feComposite in="SourceGraphic"/>
    </filter>
  </defs>
  <g id="Grupo_1227034" data-name="Grupo 1227034" transform="translate(-1112.49 -4701.135)">
    <g id="Grupo_1227016" data-name="Grupo 1227016" transform="translate(1121.49 4707.135)">
      <g id="Grupo_1224577" data-name="Grupo 1224577" transform="translate(0 0)">
        <g id="Grupo_1224450" data-name="Grupo 1224450" transform="translate(0)">
          <g id="Grupo_1224085" data-name="Grupo 1224085">
            <g id="Grupo_1223184" data-name="Grupo 1223184">
              <g id="Grupo_1211216" data-name="Grupo 1211216">
                <g id="Grupo_1210737" data-name="Grupo 1210737">
                  <g id="Grupo_1210537" data-name="Grupo 1210537">
                    <g id="Grupo_1164202" data-name="Grupo 1164202">
                      <g id="Grupo_1158168" data-name="Grupo 1158168">
                        <g id="Grupo_1152576" data-name="Grupo 1152576">
                          <g id="Grupo_1148633" data-name="Grupo 1148633">
                            <g id="Grupo_1148525" data-name="Grupo 1148525">
                              <g transform="matrix(1, 0, 0, 1, -9, -6)" filter="url(#Trazado_982547)">
                                <g id="Trazado_982547-2" data-name="Trazado 982547" transform="translate(9 6)" fill="#fef9e5">
                                  <path d="M 47.49999618530273 93.5 C 41.28936767578125 93.5 35.26533126831055 92.28396606445312 29.59518241882324 89.88570404052734 C 24.11771583557129 87.56893157958984 19.19812965393066 84.251953125 14.97308921813965 80.02690124511719 C 10.74803638458252 75.80186462402344 7.431062698364258 70.88227844238281 5.114289283752441 65.40480804443359 C 2.716022968292236 59.73466110229492 1.499996185302734 53.71062469482422 1.499996185302734 47.49999618530273 C 1.499996185302734 41.28936767578125 2.716022968292236 35.26533126831055 5.114289283752441 29.59518241882324 C 7.431062698364258 24.11771583557129 10.74803638458252 19.19812965393066 14.97308921813965 14.97308921813965 C 19.19812965393066 10.74803638458252 24.11771583557129 7.431062698364258 29.59518241882324 5.114289283752441 C 35.26533126831055 2.716022968292236 41.28936767578125 1.499996185302734 47.49999618530273 1.499996185302734 C 53.71062469482422 1.499996185302734 59.73466110229492 2.716022968292236 65.40480804443359 5.114289283752441 C 70.88227844238281 7.431062698364258 75.80186462402344 10.74803638458252 80.02690124511719 14.97308921813965 C 84.251953125 19.19812965393066 87.56893157958984 24.11771583557129 89.88570404052734 29.59518241882324 C 92.28396606445312 35.26533126831055 93.5 41.28936767578125 93.5 47.49999618530273 C 93.5 53.71062469482422 92.28396606445312 59.73466110229492 89.88570404052734 65.40480804443359 C 87.56893157958984 70.88227844238281 84.251953125 75.80186462402344 80.02690124511719 80.02690124511719 C 75.80186462402344 84.251953125 70.88227844238281 87.56893157958984 65.40480804443359 89.88570404052734 C 59.73466110229492 92.28396606445312 53.71062469482422 93.5 47.49999618530273 93.5 Z" stroke="none"/>
                                  <path d="M 47.49999618530273 2.999992370605469 C 41.4912109375 2.999992370605469 35.66376495361328 4.1761474609375 30.17950439453125 6.495796203613281 C 24.88084411621094 8.736953735351562 20.12152099609375 11.94598388671875 16.03375244140625 16.03375244140625 C 11.94598388671875 20.12152099609375 8.736953735351562 24.88084411621094 6.495796203613281 30.17950439453125 C 4.1761474609375 35.66376495361328 2.999992370605469 41.4912109375 2.999992370605469 47.49999618530273 C 2.999992370605469 53.50878143310547 4.1761474609375 59.33622741699219 6.495796203613281 64.82048797607422 C 8.736953735351562 70.11914825439453 11.94598388671875 74.87847137451172 16.03375244140625 78.96623992919922 C 20.12152099609375 83.05400848388672 24.88084411621094 86.26304626464844 30.17950439453125 88.50419616699219 C 35.66376495361328 90.82384490966797 41.4912109375 92 47.49999618530273 92 C 53.50878143310547 92 59.33622741699219 90.82384490966797 64.82048797607422 88.50419616699219 C 70.11914825439453 86.26304626464844 74.87847137451172 83.05400848388672 78.96623992919922 78.96623992919922 C 83.05400848388672 74.87847137451172 86.26304626464844 70.11914825439453 88.50419616699219 64.82048797607422 C 90.82384490966797 59.33622741699219 92 53.50878143310547 92 47.49999618530273 C 92 41.4912109375 90.82384490966797 35.66376495361328 88.50419616699219 30.17950439453125 C 86.26304626464844 24.88084411621094 83.05400848388672 20.12152099609375 78.96623992919922 16.03375244140625 C 74.87847137451172 11.94598388671875 70.11914825439453 8.736953735351562 64.82048797607422 6.495796203613281 C 59.33622741699219 4.1761474609375 53.50878143310547 2.999992370605469 47.49999618530273 2.999992370605469 M 47.49999618530273 -7.62939453125e-06 C 73.7335205078125 -7.62939453125e-06 95 21.26647186279297 95 47.49999618530273 C 95 73.7335205078125 73.7335205078125 95 47.49999618530273 95 C 21.26647186279297 95 -7.62939453125e-06 73.7335205078125 -7.62939453125e-06 47.49999618530273 C -7.62939453125e-06 21.26647186279297 21.26647186279297 -7.62939453125e-06 47.49999618530273 -7.62939453125e-06 Z" stroke="none" fill="#f6c810"/>
                                </g>
                              </g>
                            </g>
                          </g>
                        </g>
                      </g>
                    </g>
                  </g>
                </g>
              </g>
            </g>
          </g>
        </g>
      </g>
    </g>
    <g id="base-de-datos-en-la-nube" transform="translate(1137 4720)">
      <g id="Grupo_1227032" data-name="Grupo 1227032">
        <g id="Grupo_1227021" data-name="Grupo 1227021">
          <path id="Trazado_1058874" data-name="Trazado 1058874" d="M43,44H59v4H43Z" fill="#ffeaa7"/>
        </g>
        <g id="Grupo_1227022" data-name="Grupo 1227022">
          <path id="Trazado_1058875" data-name="Trazado 1058875" d="M43,32H59v4H43Z" fill="#ffeaa7"/>
        </g>
        <g id="Grupo_1227023" data-name="Grupo 1227023">
          <path id="Trazado_1058876" data-name="Trazado 1058876" d="M43,48H60a2.006,2.006,0,0,1,2,2v4a2.006,2.006,0,0,1-2,2H42a2.006,2.006,0,0,1-2-2V50a2.006,2.006,0,0,1,2-2Z" fill="#fcd770"/>
        </g>
        <g id="Grupo_1227024" data-name="Grupo 1227024">
          <path id="Trazado_1058877" data-name="Trazado 1058877" d="M43,36H60a2.006,2.006,0,0,1,2,2v4a2.006,2.006,0,0,1-2,2H42a2.006,2.006,0,0,1-2-2V38a2.006,2.006,0,0,1,2-2Z" fill="#fcd770"/>
        </g>
        <g id="Grupo_1227025" data-name="Grupo 1227025">
          <path id="Trazado_1058878" data-name="Trazado 1058878" d="M40,30V26a2.006,2.006,0,0,1,2-2H60a2.006,2.006,0,0,1,2,2v4a2.006,2.006,0,0,1-2,2H42A2.006,2.006,0,0,1,40,30Z" fill="#fcd770"/>
        </g>
        <g id="Grupo_1227026" data-name="Grupo 1227026">
          <path id="Trazado_1058879" data-name="Trazado 1058879" d="M14,58H24v4H14Z" fill="#aab2bd"/>
        </g>
        <g id="Grupo_1227027" data-name="Grupo 1227027">
          <path id="Trazado_1058880" data-name="Trazado 1058880" d="M36,52v4a2.006,2.006,0,0,1-2,2H4a2.006,2.006,0,0,1-2-2V52Z" fill="#ccd1d9"/>
        </g>
        <g id="Grupo_1227028" data-name="Grupo 1227028">
          <path id="Trazado_1058881" data-name="Trazado 1058881" d="M2,52V38a2.006,2.006,0,0,1,2-2H34a2.006,2.006,0,0,1,2,2V52Z" fill="#69d6f4"/>
        </g>
        <g id="Grupo_1227029" data-name="Grupo 1227029">
          <path id="Trazado_1058882" data-name="Trazado 1058882" d="M22,40H32v8H22Z" fill="#ff826e"/>
        </g>
        <g id="Grupo_1227030" data-name="Grupo 1227030">
          <path id="Trazado_1058883" data-name="Trazado 1058883" d="M25,24a4,4,0,0,1,0,8H11a4,4,0,0,1,0-8,4.078,4.078,0,0,1,1.27.22,6,6,0,0,1,11.46,0A4.078,4.078,0,0,1,25,24Z" fill="#e6e9ed"/>
        </g>
        <g id="Grupo_1227031" data-name="Grupo 1227031">
          <path id="Trazado_1058884" data-name="Trazado 1058884" d="M25,6a4,4,0,0,1,0,8H11a4,4,0,0,1,0-8,4.078,4.078,0,0,1,1.27.22,6,6,0,0,1,11.46,0A4.078,4.078,0,0,1,25,6Z" fill="#e6e9ed"/>
        </g>
      </g>
      <g id="Grupo_1227033" data-name="Grupo 1227033">
        <path id="Trazado_1058885" data-name="Trazado 1058885" d="M34,35H4a3,3,0,0,0-3,3V56a3,3,0,0,0,3,3h9v2H10v2H28V61H25V59h9a3,3,0,0,0,3-3V38A3,3,0,0,0,34,35ZM4,37H34a1,1,0,0,1,1,1V51H3V38A1,1,0,0,1,4,37ZM23,61H15V59h8Zm11-4H4a1,1,0,0,1-1-1V53H35v3A1,1,0,0,1,34,57Z"/>
        <path id="Trazado_1058886" data-name="Trazado 1058886" d="M33,39H21V49H33Zm-2,8H23V41h8Z"/>
        <path id="Trazado_1058887" data-name="Trazado 1058887" d="M5,39H7v2H5Z"/>
        <path id="Trazado_1058888" data-name="Trazado 1058888" d="M9,39H19v2H9Z"/>
        <path id="Trazado_1058889" data-name="Trazado 1058889" d="M5,43H19v2H5Z"/>
        <path id="Trazado_1058890" data-name="Trazado 1058890" d="M5,47H19v2H5Z"/>
        <path id="Trazado_1058891" data-name="Trazado 1058891" d="M43,51h2v2H43Z"/>
        <path id="Trazado_1058892" data-name="Trazado 1058892" d="M47,51h2v2H47Z"/>
        <path id="Trazado_1058893" data-name="Trazado 1058893" d="M43,39h2v2H43Z"/>
        <path id="Trazado_1058894" data-name="Trazado 1058894" d="M47,39h2v2H47Z"/>
        <path id="Trazado_1058895" data-name="Trazado 1058895" d="M63,30V26a3,3,0,0,0-3-3H52V12a3,3,0,0,0-3-3H29.9A4.953,4.953,0,0,0,24.35,5.048a7,7,0,0,0-12.7,0A5,5,0,1,0,11,15h6v4.072a6.954,6.954,0,0,0-5.35,3.976A5,5,0,1,0,11,33H25a5,5,0,1,0-.65-9.952A6.948,6.948,0,0,0,19,19.072V15h6a5.009,5.009,0,0,0,4.9-4H49a1,1,0,0,1,1,1V23H42a3,3,0,0,0-3,3v4a3,3,0,0,0,3,3v2a3,3,0,0,0-3,3v4a3,3,0,0,0,3,3v2a3,3,0,0,0-3,3v4a3,3,0,0,0,3,3H60a3,3,0,0,0,3-3V50a3,3,0,0,0-3-3V45a3,3,0,0,0,3-3V38a3,3,0,0,0-3-3V33A3,3,0,0,0,63,30ZM22.777,24.52l.3.98.972-.327A2.928,2.928,0,0,1,25,25a3,3,0,0,1,0,6H11a3,3,0,0,1,0-6,2.952,2.952,0,0,1,.948.172l.972.328.3-.979a5,5,0,0,1,9.554,0ZM25,13H11a3,3,0,0,1,0-6,2.952,2.952,0,0,1,.948.172l.972.328.3-.979a5,5,0,0,1,9.554,0l.3.98.972-.327A2.928,2.928,0,0,1,25,7a3,3,0,0,1,0,6ZM41,30V26a1,1,0,0,1,1-1H60a1,1,0,0,1,1,1v4a1,1,0,0,1-1,1H42A1,1,0,0,1,41,30ZM61,50v4a1,1,0,0,1-1,1H42a1,1,0,0,1-1-1V50a1,1,0,0,1,1-1H60A1,1,0,0,1,61,50Zm-3-3H44V45H58Zm3-9v4a1,1,0,0,1-1,1H42a1,1,0,0,1-1-1V38a1,1,0,0,1,1-1H60A1,1,0,0,1,61,38Zm-3-3H44V33H58Z"/>
        <path id="Trazado_1058896" data-name="Trazado 1058896" d="M43,27h2v2H43Z"/>
        <path id="Trazado_1058897" data-name="Trazado 1058897" d="M47,27h2v2H47Z"/>
      </g>
    </g>
  </g>
</svg>
