<svg xmlns="http://www.w3.org/2000/svg" xmlns:xlink="http://www.w3.org/1999/xlink" width="113" height="113" viewBox="0 0 113 113">
  <defs>
    <filter id="Trazado_982547" x="0" y="0" width="113" height="113" filterUnits="userSpaceOnUse">
      <feOffset dy="3" input="SourceAlpha"/>
      <feGaussianBlur stdDeviation="3" result="blur"/>
      <feFlood flood-opacity="0.161"/>
      <feComposite operator="in" in2="blur"/>
      <feComposite in="SourceGraphic"/>
    </filter>
  </defs>
  <g id="Grupo_1227049" data-name="Grupo 1227049" transform="translate(-6584.49 -4710.367)">
    <g id="Grupo_1227020" data-name="Grupo 1227020" transform="translate(6593.49 4716.367)">
      <g id="Grupo_1224577" data-name="Grupo 1224577" transform="translate(0 0)">
        <g id="Grupo_1224450" data-name="Grupo 1224450" transform="translate(0)">
          <g id="Grupo_1224085" data-name="Grupo 1224085">
            <g id="Grupo_1223184" data-name="Grupo 1223184">
              <g id="Grupo_1211216" data-name="Grupo 1211216">
                <g id="Grupo_1210737" data-name="Grupo 1210737">
                  <g id="Grupo_1210537" data-name="Grupo 1210537">
                    <g id="Grupo_1164202" data-name="Grupo 1164202">
                      <g id="Grupo_1158168" data-name="Grupo 1158168">
                        <g id="Grupo_1152576" data-name="Grupo 1152576">
                          <g id="Grupo_1148633" data-name="Grupo 1148633">
                            <g id="Grupo_1148525" data-name="Grupo 1148525">
                              <g transform="matrix(1, 0, 0, 1, -9, -6)" filter="url(#Trazado_982547)">
                                <g id="Trazado_982547-2" data-name="Trazado 982547" transform="translate(9 6)" fill="#fef9e5">
                                  <path d="M 47.49999618530273 93.5 C 41.28936767578125 93.5 35.26533126831055 92.28396606445312 29.59518241882324 89.88570404052734 C 24.11771583557129 87.56893157958984 19.19812965393066 84.251953125 14.97308921813965 80.02690124511719 C 10.74803638458252 75.80186462402344 7.431062698364258 70.88227844238281 5.114289283752441 65.40480804443359 C 2.716022968292236 59.73466110229492 1.499996185302734 53.71062469482422 1.499996185302734 47.49999618530273 C 1.499996185302734 41.28936767578125 2.716022968292236 35.26533126831055 5.114289283752441 29.59518241882324 C 7.431062698364258 24.11771583557129 10.74803638458252 19.19812965393066 14.97308921813965 14.97308921813965 C 19.19812965393066 10.74803638458252 24.11771583557129 7.431062698364258 29.59518241882324 5.114289283752441 C 35.26533126831055 2.716022968292236 41.28936767578125 1.499996185302734 47.49999618530273 1.499996185302734 C 53.71062469482422 1.499996185302734 59.73466110229492 2.716022968292236 65.40480804443359 5.114289283752441 C 70.88227844238281 7.431062698364258 75.80186462402344 10.74803638458252 80.02690124511719 14.97308921813965 C 84.251953125 19.19812965393066 87.56893157958984 24.11771583557129 89.88570404052734 29.59518241882324 C 92.28396606445312 35.26533126831055 93.5 41.28936767578125 93.5 47.49999618530273 C 93.5 53.71062469482422 92.28396606445312 59.73466110229492 89.88570404052734 65.40480804443359 C 87.56893157958984 70.88227844238281 84.251953125 75.80186462402344 80.02690124511719 80.02690124511719 C 75.80186462402344 84.251953125 70.88227844238281 87.56893157958984 65.40480804443359 89.88570404052734 C 59.73466110229492 92.28396606445312 53.71062469482422 93.5 47.49999618530273 93.5 Z" stroke="none"/>
                                  <path d="M 47.49999618530273 2.999992370605469 C 41.4912109375 2.999992370605469 35.66376495361328 4.1761474609375 30.17950439453125 6.495796203613281 C 24.88084411621094 8.736953735351562 20.12152099609375 11.94598388671875 16.03375244140625 16.03375244140625 C 11.94598388671875 20.12152099609375 8.736953735351562 24.88084411621094 6.495796203613281 30.17950439453125 C 4.1761474609375 35.66376495361328 2.999992370605469 41.4912109375 2.999992370605469 47.49999618530273 C 2.999992370605469 53.50878143310547 4.1761474609375 59.33622741699219 6.495796203613281 64.82048797607422 C 8.736953735351562 70.11914825439453 11.94598388671875 74.87847137451172 16.03375244140625 78.96623992919922 C 20.12152099609375 83.05400848388672 24.88084411621094 86.26304626464844 30.17950439453125 88.50419616699219 C 35.66376495361328 90.82384490966797 41.4912109375 92 47.49999618530273 92 C 53.50878143310547 92 59.33622741699219 90.82384490966797 64.82048797607422 88.50419616699219 C 70.11914825439453 86.26304626464844 74.87847137451172 83.05400848388672 78.96623992919922 78.96623992919922 C 83.05400848388672 74.87847137451172 86.26304626464844 70.11914825439453 88.50419616699219 64.82048797607422 C 90.82384490966797 59.33622741699219 92 53.50878143310547 92 47.49999618530273 C 92 41.4912109375 90.82384490966797 35.66376495361328 88.50419616699219 30.17950439453125 C 86.26304626464844 24.88084411621094 83.05400848388672 20.12152099609375 78.96623992919922 16.03375244140625 C 74.87847137451172 11.94598388671875 70.11914825439453 8.736953735351562 64.82048797607422 6.495796203613281 C 59.33622741699219 4.1761474609375 53.50878143310547 2.999992370605469 47.49999618530273 2.999992370605469 M 47.49999618530273 -7.62939453125e-06 C 73.7335205078125 -7.62939453125e-06 95 21.26647186279297 95 47.49999618530273 C 95 73.7335205078125 73.7335205078125 95 47.49999618530273 95 C 21.26647186279297 95 -7.62939453125e-06 73.7335205078125 -7.62939453125e-06 47.49999618530273 C -7.62939453125e-06 21.26647186279297 21.26647186279297 -7.62939453125e-06 47.49999618530273 -7.62939453125e-06 Z" stroke="none" fill="#f6c810"/>
                                </g>
                              </g>
                            </g>
                          </g>
                        </g>
                      </g>
                    </g>
                  </g>
                </g>
              </g>
            </g>
          </g>
        </g>
      </g>
    </g>
    <g id="programacion_3_" data-name="programacion (3)" transform="translate(6611.92 4740.398)">
      <path id="Trazado_1058959" data-name="Trazado 1058959" d="M57.554,52.7H14.834A7.335,7.335,0,0,1,7.5,45.37V14.835A7.335,7.335,0,0,1,14.834,7.5h42.72a7.335,7.335,0,0,1,7.335,7.335V45.37A7.335,7.335,0,0,1,57.554,52.7Zm0,0" transform="translate(-6.634 -6.634)" fill="#767678"/>
      <path id="Trazado_1058960" data-name="Trazado 1058960" d="M7.5,14.833V45.369A7.334,7.334,0,0,0,14.835,52.7h9.6c-2.5-2.933-2.668-7.539-2.668-7.539s-.02-4.721-.031-9.6a19.552,19.552,0,0,1,6.557-14.677A26.508,26.508,0,0,0,36.195,7.5H14.835A7.335,7.335,0,0,0,7.5,14.833Zm0,0" transform="translate(-6.634 -6.633)" fill="#575757"/>
      <path id="Trazado_1058961" data-name="Trazado 1058961" d="M57.554,7.5H14.834A7.335,7.335,0,0,0,7.5,14.835v2.52H64.889v-2.52A7.335,7.335,0,0,0,57.554,7.5Zm0,0" transform="translate(-6.634 -6.634)" fill="#a4e7ff"/>
      <path id="Trazado_1058962" data-name="Trazado 1058962" d="M7.5,14.835v2.52H31.546A26.573,26.573,0,0,0,36.195,7.5H14.835A7.335,7.335,0,0,0,7.5,14.835Zm0,0" transform="translate(-6.634 -6.634)" fill="#5ad6ff"/>
      <path id="Trazado_1058963" data-name="Trazado 1058963" d="M64.507,36.935a1.728,1.728,0,1,1-1.728-1.728A1.729,1.729,0,0,1,64.507,36.935Zm0,0" transform="translate(-54.002 -31.142)" fill="#ff8a98"/>
      <path id="Trazado_1058964" data-name="Trazado 1058964" d="M119.55,36.935a1.728,1.728,0,1,1-1.728-1.728A1.729,1.729,0,0,1,119.55,36.935Zm0,0" transform="translate(-102.688 -31.142)" fill="#eedb00"/>
      <path id="Trazado_1058965" data-name="Trazado 1058965" d="M174.593,36.935a1.728,1.728,0,1,1-1.728-1.728A1.729,1.729,0,0,1,174.593,36.935Zm0,0" transform="translate(-151.375 -31.142)" fill="#00c140"/>
      <path id="Trazado_1058966" data-name="Trazado 1058966" d="M119.376,198.522l-6.865-5.321a1.732,1.732,0,0,1,0-2.738l6.865-5.321a1.732,1.732,0,0,1,2.122,2.738l-5.1,3.952,5.1,3.951a1.731,1.731,0,0,1,.308,2.43A1.7,1.7,0,0,1,119.376,198.522Zm0,0" transform="translate(-98.926 -163.442)" fill="#73da8c"/>
      <path id="Trazado_1058967" data-name="Trazado 1058967" d="M313.5,198.522l6.865-5.321a1.732,1.732,0,0,0,0-2.738l-6.865-5.321a1.732,1.732,0,0,0-2.122,2.738l5.1,3.952-5.1,3.951a1.732,1.732,0,0,0-.308,2.43A1.7,1.7,0,0,0,313.5,198.522Zm0,0" transform="translate(-274.83 -163.442)" fill="#73da8c"/>
      <path id="Trazado_1058968" data-name="Trazado 1058968" d="M227.28,180.763a1.732,1.732,0,0,1-1.326-2.06l3.483-16.068a1.732,1.732,0,1,1,3.385.734l-3.483,16.068a1.616,1.616,0,0,1-2.06,1.326Zm0,0" transform="translate(-199.828 -142.648)" fill="#00c140"/>
      <path id="Trazado_1058969" data-name="Trazado 1058969" d="M50.92,0H8.2A8.21,8.21,0,0,0,0,8.2V38.736a8.21,8.21,0,0,0,8.2,8.2H50.92a8.21,8.21,0,0,0,8.2-8.2V8.2A8.21,8.21,0,0,0,50.92,0Zm0,45.2H8.2a6.476,6.476,0,0,1-6.469-6.468V11.587H49.615a.866.866,0,0,0,0-1.732H1.732V8.2A6.476,6.476,0,0,1,8.2,1.732H50.92A6.476,6.476,0,0,1,57.389,8.2V9.855H53.218a.866.866,0,1,0,0,1.732h4.171V38.736A6.476,6.476,0,0,1,50.92,45.2Zm0,0"/>
      <path id="Trazado_1058970" data-name="Trazado 1058970" d="M56.145,27.707A2.594,2.594,0,1,0,58.739,30.3a2.6,2.6,0,0,0-2.595-2.594Zm0,3.456a.862.862,0,1,1,.862-.862.863.863,0,0,1-.862.862Zm0,0" transform="translate(-47.368 -24.508)"/>
      <path id="Trazado_1058971" data-name="Trazado 1058971" d="M111.188,27.707a2.594,2.594,0,1,0,2.595,2.594A2.6,2.6,0,0,0,111.188,27.707Zm0,3.456a.862.862,0,1,1,.862-.862A.863.863,0,0,1,111.188,31.163Zm0,0" transform="translate(-96.055 -24.508)"/>
      <path id="Trazado_1058972" data-name="Trazado 1058972" d="M166.231,27.707a2.594,2.594,0,1,0,2.595,2.594A2.6,2.6,0,0,0,166.231,27.707Zm0,3.456a.862.862,0,1,1,.862-.862A.863.863,0,0,1,166.231,31.163Zm0,0" transform="translate(-144.742 -24.508)"/>
      <path id="Trazado_1058973" data-name="Trazado 1058973" d="M115.857,178.122a2.556,2.556,0,0,0-3.645-.462l-6.865,5.32a2.6,2.6,0,0,0,0,4.107l3.139,2.433a.866.866,0,0,0,1.061-1.369l-3.14-2.433a.867.867,0,0,1,0-1.369l6.865-5.321a.866.866,0,0,1,1.061,1.369l-5.1,3.951a.866.866,0,0,0,0,1.369l5.1,3.952a.852.852,0,0,1,.154,1.215.823.823,0,0,1-1.237.136l-.874-.677a.866.866,0,1,0-1.061,1.369l.9.694c.014.011,2.142,1.526,3.645-.462a2.425,2.425,0,0,0-.462-3.645l-4.215-3.267,4.215-3.267A2.6,2.6,0,0,0,115.857,178.122Zm0,0" transform="translate(-92.292 -156.644)"/>
      <path id="Trazado_1058974" data-name="Trazado 1058974" d="M313.582,182.979l-6.865-5.321a2.556,2.556,0,0,0-3.645.462,2.6,2.6,0,0,0,.462,3.645l4.216,3.267-4.216,3.267a2.425,2.425,0,0,0-.462,3.645c1.5,1.988,3.632.473,3.645.462l6.865-5.321a2.6,2.6,0,0,0,0-4.107Zm-1.061,2.738-6.843,5.3a.823.823,0,0,1-1.238-.136.853.853,0,0,1,.154-1.215l5.1-3.952a.866.866,0,0,0,0-1.369l-5.1-3.951a.866.866,0,0,1,1.061-1.369l6.866,5.321a.867.867,0,0,1,0,1.369Zm0,0" transform="translate(-267.516 -156.643)"/>
      <path id="Trazado_1058975" data-name="Trazado 1058975" d="M225.048,153.828a2.6,2.6,0,0,0-3.09,1.989l-3.483,16.068a2.6,2.6,0,0,0,1.989,3.089A2.476,2.476,0,0,0,223.55,173l0-.017,3.483-16.068a2.6,2.6,0,0,0-1.989-3.09Zm.3,2.723-3.481,16.06a.809.809,0,0,1-1.032.672.867.867,0,0,1-.663-1.03l3.483-16.068a.866.866,0,0,1,1.693.367Zm0,0" transform="translate(-193.196 -136.013)"/>
    </g>
  </g>
</svg>
