<svg xmlns="http://www.w3.org/2000/svg" xmlns:xlink="http://www.w3.org/1999/xlink" width="113" height="113" viewBox="0 0 113 113">
  <defs>
    <filter id="Trazado_982547" x="0" y="0" width="113" height="113" filterUnits="userSpaceOnUse">
      <feOffset dy="3" input="SourceAlpha"/>
      <feGaussianBlur stdDeviation="3" result="blur"/>
      <feFlood flood-opacity="0.161"/>
      <feComposite operator="in" in2="blur"/>
      <feComposite in="SourceGraphic"/>
    </filter>
  </defs>
  <g id="Grupo_1227006" data-name="Grupo 1227006" transform="translate(-585.737 -706.323)">
    <g id="Grupo_1226917" data-name="Grupo 1226917" transform="translate(0.344 -2831)">
      <g id="Grupo_1226284" data-name="Grupo 1226284" transform="translate(-0.429 -6427.152)">
        <g id="Grupo_1225529" data-name="Grupo 1225529" transform="translate(0.313 8669.134)">
          <g id="Grupo_1225176" data-name="Grupo 1225176" transform="translate(0 -3445.654)">
            <g id="Grupo_1224647" data-name="Grupo 1224647" transform="translate(0 1927)">
              <g id="Grupo_1224292" data-name="Grupo 1224292" transform="translate(0 859.245)">
                <g id="Grupo_1224092" data-name="Grupo 1224092" transform="translate(-88.49 -2620.317)">
                  <g id="Grupo_1223184" data-name="Grupo 1223184" transform="translate(683 4581.069)">
                    <g id="Grupo_1211216" data-name="Grupo 1211216" transform="translate(0)">
                      <g id="Grupo_1210737" data-name="Grupo 1210737">
                        <g id="Grupo_1210537" data-name="Grupo 1210537">
                          <g id="Grupo_1164202" data-name="Grupo 1164202">
                            <g id="Grupo_1158168" data-name="Grupo 1158168">
                              <g id="Grupo_1152576" data-name="Grupo 1152576">
                                <g id="Grupo_1148633" data-name="Grupo 1148633">
                                  <g id="Grupo_1148525" data-name="Grupo 1148525">
                                    <g transform="matrix(1, 0, 0, 1, -9, -6)" filter="url(#Trazado_982547)">
                                      <g id="Trazado_982547-2" data-name="Trazado 982547" transform="translate(9 6)" fill="#fdf6e4">
                                        <path d="M 47.49999618530273 93.5 C 41.28936767578125 93.5 35.26533126831055 92.28396606445312 29.59518241882324 89.88570404052734 C 24.11771583557129 87.56893157958984 19.19812965393066 84.251953125 14.97308921813965 80.02690124511719 C 10.74803638458252 75.80186462402344 7.431062698364258 70.88227844238281 5.114289283752441 65.40480804443359 C 2.716022968292236 59.73466110229492 1.499996185302734 53.71062469482422 1.499996185302734 47.49999618530273 C 1.499996185302734 41.28936767578125 2.716022968292236 35.26533126831055 5.114289283752441 29.59518241882324 C 7.431062698364258 24.11771583557129 10.74803638458252 19.19812965393066 14.97308921813965 14.97308921813965 C 19.19812965393066 10.74803638458252 24.11771583557129 7.431062698364258 29.59518241882324 5.114289283752441 C 35.26533126831055 2.716022968292236 41.28936767578125 1.499996185302734 47.49999618530273 1.499996185302734 C 53.71062469482422 1.499996185302734 59.73466110229492 2.716022968292236 65.40480804443359 5.114289283752441 C 70.88227844238281 7.431062698364258 75.80186462402344 10.74803638458252 80.02690124511719 14.97308921813965 C 84.251953125 19.19812965393066 87.56893157958984 24.11771583557129 89.88570404052734 29.59518241882324 C 92.28396606445312 35.26533126831055 93.5 41.28936767578125 93.5 47.49999618530273 C 93.5 53.71062469482422 92.28396606445312 59.73466110229492 89.88570404052734 65.40480804443359 C 87.56893157958984 70.88227844238281 84.251953125 75.80186462402344 80.02690124511719 80.02690124511719 C 75.80186462402344 84.251953125 70.88227844238281 87.56893157958984 65.40480804443359 89.88570404052734 C 59.73466110229492 92.28396606445312 53.71062469482422 93.5 47.49999618530273 93.5 Z" stroke="none"/>
                                        <path d="M 47.49999618530273 2.999992370605469 C 41.4912109375 2.999992370605469 35.66376495361328 4.1761474609375 30.17950439453125 6.495796203613281 C 24.88084411621094 8.736953735351562 20.12152099609375 11.94598388671875 16.03375244140625 16.03375244140625 C 11.94598388671875 20.12152099609375 8.736953735351562 24.88084411621094 6.495796203613281 30.17950439453125 C 4.1761474609375 35.66376495361328 2.999992370605469 41.4912109375 2.999992370605469 47.49999618530273 C 2.999992370605469 53.50878143310547 4.1761474609375 59.33622741699219 6.495796203613281 64.82048797607422 C 8.736953735351562 70.11914825439453 11.94598388671875 74.87847137451172 16.03375244140625 78.96623992919922 C 20.12152099609375 83.05400848388672 24.88084411621094 86.26304626464844 30.17950439453125 88.50419616699219 C 35.66376495361328 90.82384490966797 41.4912109375 92 47.49999618530273 92 C 53.50878143310547 92 59.33622741699219 90.82384490966797 64.82048797607422 88.50419616699219 C 70.11914825439453 86.26304626464844 74.87847137451172 83.05400848388672 78.96623992919922 78.96623992919922 C 83.05400848388672 74.87847137451172 86.26304626464844 70.11914825439453 88.50419616699219 64.82048797607422 C 90.82384490966797 59.33622741699219 92 53.50878143310547 92 47.49999618530273 C 92 41.4912109375 90.82384490966797 35.66376495361328 88.50419616699219 30.17950439453125 C 86.26304626464844 24.88084411621094 83.05400848388672 20.12152099609375 78.96623992919922 16.03375244140625 C 74.87847137451172 11.94598388671875 70.11914825439453 8.736953735351562 64.82048797607422 6.495796203613281 C 59.33622741699219 4.1761474609375 53.50878143310547 2.999992370605469 47.49999618530273 2.999992370605469 M 47.49999618530273 -7.62939453125e-06 C 73.7335205078125 -7.62939453125e-06 95 21.26647186279297 95 47.49999618530273 C 95 73.7335205078125 73.7335205078125 95 47.49999618530273 95 C 21.26647186279297 95 -7.62939453125e-06 73.7335205078125 -7.62939453125e-06 47.49999618530273 C -7.62939453125e-06 21.26647186279297 21.26647186279297 -7.62939453125e-06 47.49999618530273 -7.62939453125e-06 Z" stroke="none" fill="#f5b104"/>
                                      </g>
                                    </g>
                                  </g>
                                </g>
                              </g>
                            </g>
                          </g>
                        </g>
                      </g>
                    </g>
                  </g>
                </g>
              </g>
            </g>
          </g>
        </g>
      </g>
    </g>
    <g id="servicios-digitales" transform="translate(614.131 731.227)">
      <path id="Trazado_1058837" data-name="Trazado 1058837" d="M21,29.255V8.78A1.78,1.78,0,0,1,22.78,7H53.047a1.78,1.78,0,0,1,1.78,1.78V29.255Z" transform="translate(-2.196 -0.659)" fill="#c8cded"/>
      <path id="Trazado_1058838" data-name="Trazado 1058838" d="M25,11H51.706V29.694H25Z" transform="translate(-2.635 -1.098)" fill="#e2e7f6"/>
      <path id="Trazado_1058839" data-name="Trazado 1058839" d="M16,56.243h7.122L28.463,59.8,56.95,53.573v-.89a3.561,3.561,0,0,0-3.561-3.561H32.024V48.89a1.78,1.78,0,0,0-.428-1.157L26.682,42H16Z" transform="translate(-1.647 -4.501)" fill="#fbe1ca"/>
      <path id="Trazado_1058840" data-name="Trazado 1058840" d="M2,40H9.122V59.585H2Z" transform="translate(-0.11 -4.282)" fill="#d5883e"/>
      <path id="Trazado_1058841" data-name="Trazado 1058841" d="M10,40h5.341V57.8H10Z" transform="translate(-0.988 -4.282)" fill="#f0ae42"/>
      <path id="Trazado_1058842" data-name="Trazado 1058842" d="M13.561,54.243V40H10V56.024h1.78A1.78,1.78,0,0,0,13.561,54.243Z" transform="translate(-0.988 -4.282)" fill="#f9d266"/>
      <path id="Trazado_1058843" data-name="Trazado 1058843" d="M18,32H57.169v3.561a1.78,1.78,0,0,1-1.78,1.78H19.78A1.78,1.78,0,0,1,18,35.561Z" transform="translate(-1.866 -3.404)" fill="#9da1bf"/>
      <path id="Trazado_1058844" data-name="Trazado 1058844" d="M48.585,13.573V10.012H46.6a7.961,7.961,0,0,0-1.029-2.479l1.406-1.406L44.458,3.609,43.052,5.015a7.961,7.961,0,0,0-2.479-1.029V2H37.012V3.986a7.961,7.961,0,0,0-2.479,1.029L33.127,3.609,30.61,6.127l1.406,1.406a7.961,7.961,0,0,0-1.029,2.479H29v3.561h1.986a7.961,7.961,0,0,0,1.029,2.479l-1.406,1.406,2.518,2.518,1.406-1.406A7.961,7.961,0,0,0,37.012,19.6v1.986h3.561V19.6a7.961,7.961,0,0,0,2.479-1.029l1.406,1.406,2.518-2.518-1.406-1.406A7.961,7.961,0,0,0,46.6,13.573Z" transform="translate(-3.074 -0.11)" fill="#5e87ca"/>
      <circle id="Elipse_13559" data-name="Elipse 13559" cx="4.5" cy="4.5" r="4.5" transform="translate(31 7)" fill="#e2e7f6"/>
      <path id="Trazado_1058845" data-name="Trazado 1058845" d="M2,16H23.365V26.682H2Z" transform="translate(-0.11 -1.647)" fill="#3b5892"/>
      <path id="Trazado_1058846" data-name="Trazado 1058846" d="M2,16H20.955v8.012H2Z" transform="translate(-0.11 -1.647)" fill="#4c6cb5"/>
      <g id="Grupo_1227005" data-name="Grupo 1227005" transform="translate(4.561 15.738)">
        <path id="Trazado_1058847" data-name="Trazado 1058847" d="M7.931,24.893,5.261,22.222a.89.89,0,0,1,0-1.259l2.671-2.671L9.19,19.552,7.149,21.593,9.19,23.634Z" transform="translate(-5 -17.637)" fill="#5e87ca"/>
        <path id="Trazado_1058848" data-name="Trazado 1058848" d="M19.552,24.893l-1.259-1.259,2.041-2.041-2.041-2.041,1.259-1.259,2.671,2.671a.89.89,0,0,1,0,1.259Z" transform="translate(-6.46 -17.637)" fill="#5e87ca"/>
        <path id="Trazado_1058849" data-name="Trazado 1058849" d="M0,0H7.962V1.78H0Z" transform="translate(5.426 7.118) rotate(-63.435)" fill="#5e87ca"/>
      </g>
      <path id="Trazado_1058850" data-name="Trazado 1058850" d="M51.742,47.9H31.178a2.676,2.676,0,0,0-.55-1.079l-4.917-5.731a.89.89,0,0,0-.676-.312H15.243v-.89a.89.89,0,0,0-.89-.89H1.89a.89.89,0,0,0-.89.89V59.475a.89.89,0,0,0,.89.89H9.012a.89.89,0,0,0,.89-.89v-.89h4.451a.89.89,0,0,0,.89-.89V56.8h5.964l5.117,3.411a.89.89,0,0,0,.491.15.924.924,0,0,0,.191-.02l28.487-6.231a.89.89,0,0,0,.7-.87v-.89A4.456,4.456,0,0,0,51.742,47.9ZM8.122,58.585H2.78V40.78H8.122Zm5.341-1.78H9.9V40.78h3.561Zm40.95-4.273L26.994,58.525l-5.026-3.352a.9.9,0,0,0-.493-.15H15.243V42.561h9.383l4.646,5.42a.89.89,0,0,1,.215.58v1.122a.89.89,0,0,1-.89.89H27.554a.89.89,0,0,1-.63-.261l-3.929-3.929-1.259,1.259,3.929,3.929a2.651,2.651,0,0,0,1.889.782H28.6a2.671,2.671,0,0,0,2.671-2.671H51.742a2.671,2.671,0,0,1,2.671,2.671Z" transform="translate(0 -4.172)"/>
      <path id="Trazado_1058851" data-name="Trazado 1058851" d="M55.3,27.706h-1.78V8.122a2.671,2.671,0,0,0-2.671-2.671h-6.28a.705.705,0,0,0-.042-.063L42.013,2.869a.89.89,0,0,0-1.259,0l-.924.924a8.849,8.849,0,0,0-1.441-.6V1.89A.89.89,0,0,0,37.5,1H33.938a.89.89,0,0,0-.89.89V3.2a8.849,8.849,0,0,0-1.441.6l-.924-.924a.89.89,0,0,0-1.259,0L26.905,5.388a.706.706,0,0,0-.041.063h-6.28a2.671,2.671,0,0,0-2.671,2.671v5.341H1.89a.89.89,0,0,0-.89.89V25.036a.89.89,0,0,0,.89.89H17.914v1.78h-1.78a.89.89,0,0,0-.89.89v3.561a2.671,2.671,0,0,0,2.671,2.671H53.522a2.671,2.671,0,0,0,2.671-2.671V28.6A.89.89,0,0,0,55.3,27.706ZM51.742,8.122V27.706h-1.78V9.9a.89.89,0,0,0-.89-.89H44.205a8.849,8.849,0,0,0-.6-1.441l.339-.339h6.905a.89.89,0,0,1,.89.89Zm-27.6,16.914V14.353a.89.89,0,0,0-.89-.89V10.792h1.78v2.671a.89.89,0,0,0,.89.89h1.305a8.85,8.85,0,0,0,.6,1.441l-.924.924a.89.89,0,0,0,0,1.259L29.423,20.5a.89.89,0,0,0,1.259,0l.924-.924a8.841,8.841,0,0,0,1.441.6v1.305a.89.89,0,0,0,.89.89H37.5a.89.89,0,0,0,.89-.89V20.17a8.84,8.84,0,0,0,1.441-.6l.924.925a.89.89,0,0,0,1.259,0l2.518-2.518a.89.89,0,0,0,0-1.259l-.923-.924a8.85,8.85,0,0,0,.6-1.441H45.51a.89.89,0,0,0,.89-.89V10.792h1.78V27.706H23.255v-1.78A.89.89,0,0,0,24.145,25.036ZM28.78,10.1a7.048,7.048,0,0,1,.914-2.2.89.89,0,0,0-.124-1.1l-.776-.776,1.259-1.259.776.776a.89.89,0,0,0,1.1.124,7.048,7.048,0,0,1,2.2-.914.89.89,0,0,0,.693-.869V2.78h1.78V3.875a.89.89,0,0,0,.693.869,7.048,7.048,0,0,1,2.2.914.89.89,0,0,0,1.1-.124l.776-.776,1.259,1.259-.776.776a.89.89,0,0,0-.124,1.1,7.048,7.048,0,0,1,.914,2.2.89.89,0,0,0,.869.693H44.62v1.78H43.525a.89.89,0,0,0-.869.693,7.048,7.048,0,0,1-.914,2.2.89.89,0,0,0,.124,1.1l.776.776-1.259,1.259-.776-.776a.89.89,0,0,0-1.1-.124,7.062,7.062,0,0,1-2.2.914.89.89,0,0,0-.693.868v1.1h-1.78v-1.1a.89.89,0,0,0-.693-.868,7.062,7.062,0,0,1-2.2-.914.89.89,0,0,0-1.1.124l-.776.776-1.259-1.259.776-.776a.89.89,0,0,0,.124-1.1,7.048,7.048,0,0,1-.914-2.2.89.89,0,0,0-.869-.693H26.816v-1.78h1.095a.89.89,0,0,0,.869-.693ZM19.694,8.122a.89.89,0,0,1,.89-.89H27.49l.339.339a8.85,8.85,0,0,0-.6,1.441H22.365a.89.89,0,0,0-.89.89v3.561h-1.78ZM2.78,15.243H22.365v8.9H2.78ZM19.694,25.926h1.78v1.78h-1.78Zm34.718,6.231a.89.89,0,0,1-.89.89H17.914a.89.89,0,0,1-.89-.89V29.487H54.412Z"/>
      <path id="Trazado_1058852" data-name="Trazado 1058852" d="M39.341,17.682A5.341,5.341,0,1,0,34,12.341,5.341,5.341,0,0,0,39.341,17.682Zm0-8.9a3.561,3.561,0,1,1-3.561,3.561A3.561,3.561,0,0,1,39.341,8.78Z" transform="translate(-3.623 -0.659)"/>
      <path id="Trazado_1058853" data-name="Trazado 1058853" d="M7.931,18.293,5.261,20.964a.89.89,0,0,0,0,1.259l2.671,2.671L9.19,23.634,7.149,21.593,9.19,19.552Z" transform="translate(-0.439 -1.899)"/>
      <path id="Trazado_1058854" data-name="Trazado 1058854" d="M19.552,18.293l-1.259,1.259,2.041,2.041-2.041,2.041,1.259,1.259,2.671-2.671a.89.89,0,0,0,0-1.259Z" transform="translate(-1.899 -1.899)"/>
      <path id="Trazado_1058855" data-name="Trazado 1058855" d="M0,0H7.962V1.78H0Z" transform="translate(9.987 22.856) rotate(-63.435)"/>
    </g>
  </g>
</svg>
