<svg xmlns="http://www.w3.org/2000/svg" xmlns:xlink="http://www.w3.org/1999/xlink" width="113" height="113" viewBox="0 0 113 113">
  <defs>
    <filter id="Trazado_982547" x="0" y="0" width="113" height="113" filterUnits="userSpaceOnUse">
      <feOffset dy="3" input="SourceAlpha"/>
      <feGaussianBlur stdDeviation="3" result="blur"/>
      <feFlood flood-opacity="0.161"/>
      <feComposite operator="in" in2="blur"/>
      <feComposite in="SourceGraphic"/>
    </filter>
  </defs>
  <g id="Grupo_1227007" data-name="Grupo 1227007" transform="translate(-900.737 -706.323)">
    <g id="Grupo_1226915" data-name="Grupo 1226915" transform="translate(0.344 -2831)">
      <g id="Grupo_1226285" data-name="Grupo 1226285" transform="translate(-0.429 -6427.152)">
        <g id="Grupo_1225530" data-name="Grupo 1225530" transform="translate(0.313 8669.134)">
          <g id="Grupo_1225177" data-name="Grupo 1225177" transform="translate(0 -3445.654)">
            <g id="Grupo_1224648" data-name="Grupo 1224648" transform="translate(0 1927)">
              <g id="Grupo_1224293" data-name="Grupo 1224293" transform="translate(0 859.245)">
                <g id="Grupo_1224093" data-name="Grupo 1224093" transform="translate(226.51 -2620.317)">
                  <g id="Grupo_1223184" data-name="Grupo 1223184" transform="translate(683 4581.069)">
                    <g id="Grupo_1211216" data-name="Grupo 1211216" transform="translate(0)">
                      <g id="Grupo_1210737" data-name="Grupo 1210737">
                        <g id="Grupo_1210537" data-name="Grupo 1210537">
                          <g id="Grupo_1164202" data-name="Grupo 1164202">
                            <g id="Grupo_1158168" data-name="Grupo 1158168">
                              <g id="Grupo_1152576" data-name="Grupo 1152576">
                                <g id="Grupo_1148633" data-name="Grupo 1148633">
                                  <g id="Grupo_1148525" data-name="Grupo 1148525">
                                    <g transform="matrix(1, 0, 0, 1, -9, -6)" filter="url(#Trazado_982547)">
                                      <g id="Trazado_982547-2" data-name="Trazado 982547" transform="translate(9 6)" fill="#fdf6e4">
                                        <path d="M 47.49999618530273 93.5 C 41.28936767578125 93.5 35.26533126831055 92.28396606445312 29.59518241882324 89.88570404052734 C 24.11771583557129 87.56893157958984 19.19812965393066 84.251953125 14.97308921813965 80.02690124511719 C 10.74803638458252 75.80186462402344 7.431062698364258 70.88227844238281 5.114289283752441 65.40480804443359 C 2.716022968292236 59.73466110229492 1.499996185302734 53.71062469482422 1.499996185302734 47.49999618530273 C 1.499996185302734 41.28936767578125 2.716022968292236 35.26533126831055 5.114289283752441 29.59518241882324 C 7.431062698364258 24.11771583557129 10.74803638458252 19.19812965393066 14.97308921813965 14.97308921813965 C 19.19812965393066 10.74803638458252 24.11771583557129 7.431062698364258 29.59518241882324 5.114289283752441 C 35.26533126831055 2.716022968292236 41.28936767578125 1.499996185302734 47.49999618530273 1.499996185302734 C 53.71062469482422 1.499996185302734 59.73466110229492 2.716022968292236 65.40480804443359 5.114289283752441 C 70.88227844238281 7.431062698364258 75.80186462402344 10.74803638458252 80.02690124511719 14.97308921813965 C 84.251953125 19.19812965393066 87.56893157958984 24.11771583557129 89.88570404052734 29.59518241882324 C 92.28396606445312 35.26533126831055 93.5 41.28936767578125 93.5 47.49999618530273 C 93.5 53.71062469482422 92.28396606445312 59.73466110229492 89.88570404052734 65.40480804443359 C 87.56893157958984 70.88227844238281 84.251953125 75.80186462402344 80.02690124511719 80.02690124511719 C 75.80186462402344 84.251953125 70.88227844238281 87.56893157958984 65.40480804443359 89.88570404052734 C 59.73466110229492 92.28396606445312 53.71062469482422 93.5 47.49999618530273 93.5 Z" stroke="none"/>
                                        <path d="M 47.49999618530273 2.999992370605469 C 41.4912109375 2.999992370605469 35.66376495361328 4.1761474609375 30.17950439453125 6.495796203613281 C 24.88084411621094 8.736953735351562 20.12152099609375 11.94598388671875 16.03375244140625 16.03375244140625 C 11.94598388671875 20.12152099609375 8.736953735351562 24.88084411621094 6.495796203613281 30.17950439453125 C 4.1761474609375 35.66376495361328 2.999992370605469 41.4912109375 2.999992370605469 47.49999618530273 C 2.999992370605469 53.50878143310547 4.1761474609375 59.33622741699219 6.495796203613281 64.82048797607422 C 8.736953735351562 70.11914825439453 11.94598388671875 74.87847137451172 16.03375244140625 78.96623992919922 C 20.12152099609375 83.05400848388672 24.88084411621094 86.26304626464844 30.17950439453125 88.50419616699219 C 35.66376495361328 90.82384490966797 41.4912109375 92 47.49999618530273 92 C 53.50878143310547 92 59.33622741699219 90.82384490966797 64.82048797607422 88.50419616699219 C 70.11914825439453 86.26304626464844 74.87847137451172 83.05400848388672 78.96623992919922 78.96623992919922 C 83.05400848388672 74.87847137451172 86.26304626464844 70.11914825439453 88.50419616699219 64.82048797607422 C 90.82384490966797 59.33622741699219 92 53.50878143310547 92 47.49999618530273 C 92 41.4912109375 90.82384490966797 35.66376495361328 88.50419616699219 30.17950439453125 C 86.26304626464844 24.88084411621094 83.05400848388672 20.12152099609375 78.96623992919922 16.03375244140625 C 74.87847137451172 11.94598388671875 70.11914825439453 8.736953735351562 64.82048797607422 6.495796203613281 C 59.33622741699219 4.1761474609375 53.50878143310547 2.999992370605469 47.49999618530273 2.999992370605469 M 47.49999618530273 -7.62939453125e-06 C 73.7335205078125 -7.62939453125e-06 95 21.26647186279297 95 47.49999618530273 C 95 73.7335205078125 73.7335205078125 95 47.49999618530273 95 C 21.26647186279297 95 -7.62939453125e-06 73.7335205078125 -7.62939453125e-06 47.49999618530273 C -7.62939453125e-06 21.26647186279297 21.26647186279297 -7.62939453125e-06 47.49999618530273 -7.62939453125e-06 Z" stroke="none" fill="#f5b104"/>
                                      </g>
                                    </g>
                                  </g>
                                </g>
                              </g>
                            </g>
                          </g>
                        </g>
                      </g>
                    </g>
                  </g>
                </g>
              </g>
            </g>
          </g>
        </g>
      </g>
    </g>
    <g id="apoyo-tecnico_3_" data-name="apoyo-tecnico (3)" transform="translate(925.606 728.193)">
      <path id="Trazado_1058856" data-name="Trazado 1058856" d="M397.857,46a3.954,3.954,0,1,1-3.954-3.954A3.954,3.954,0,0,1,397.857,46Zm0,0" transform="translate(-341.767 -36.856)" fill="#f5737f"/>
      <path id="Trazado_1058857" data-name="Trazado 1058857" d="M65.959,409.9A3.954,3.954,0,1,1,62,405.949,3.954,3.954,0,0,1,65.959,409.9Zm0,0" transform="translate(-50.879 -355.791)" fill="#d8ec84"/>
      <path id="Trazado_1058858" data-name="Trazado 1058858" d="M123.131,101.378a18.211,18.211,0,0,0-2.511-6.059l2.367-2.368-5.465-5.461-2.365,2.365a18.211,18.211,0,0,0-6.059-2.511V84h-7.726v3.345a18.209,18.209,0,0,0-6.059,2.511l-2.365-2.365-5.465,5.461L89.85,95.32a18.21,18.21,0,0,0-2.511,6.059H83.985l0,7.726h3.359a18.189,18.189,0,0,0,2.511,6.059l-2.377,2.377,5.461,5.465,2.379-2.379a18.189,18.189,0,0,0,6.059,2.511V126.5H109.1v-3.367a18.2,18.2,0,0,0,6.059-2.511l2.379,2.379L123,117.54l-2.377-2.377a18.189,18.189,0,0,0,2.511-6.059h3.359v-7.726Zm-17.9,12.848a8.974,8.974,0,1,1,8.974-8.974A8.974,8.974,0,0,1,105.235,114.227Zm0,0" transform="translate(-73.604 -73.622)" fill="#91def5"/>
      <path id="Trazado_1058859" data-name="Trazado 1058859" d="M11.126,48.923a5.158,5.158,0,0,0-2.492.636,29.173,29.173,0,0,1,28.8-46.51A1.236,1.236,0,0,0,37.928.626,31.867,31.867,0,0,0,31.631,0,31.631,31.631,0,0,0,6.806,51.234a5.192,5.192,0,1,0,4.32-2.311Zm1.922,7.111a2.718,2.718,0,1,1,.8-1.922A2.7,2.7,0,0,1,13.048,56.034Zm0,0" transform="translate(0)"/>
      <path id="Trazado_1058860" data-name="Trazado 1058860" d="M229.537,40.117a5.179,5.179,0,1,0-1.826,1.676,29.173,29.173,0,0,1-28.749,46.521,1.236,1.236,0,1,0-.485,2.423,31.888,31.888,0,0,0,6.237.615,31.631,31.631,0,0,0,24.824-51.236Zm-6.241-.955a2.719,2.719,0,1,1,1.922.8A2.7,2.7,0,0,1,223.3,39.163Zm0,0" transform="translate(-173.083 -28.091)"/>
      <path id="Trazado_1058861" data-name="Trazado 1058861" d="M91.375,117.74a1.236,1.236,0,0,0,1.236,1.236h7.726a1.235,1.235,0,0,0,1.236-1.236v-2.4a19.349,19.349,0,0,0,4.637-1.922l1.691,1.691a1.235,1.235,0,0,0,1.748,0l5.461-5.465a1.236,1.236,0,0,0,0-1.747l-1.689-1.689a19.349,19.349,0,0,0,1.922-4.637h2.386a1.236,1.236,0,0,0,1.236-1.236V92.614a1.236,1.236,0,0,0-1.236-1.236h-2.387a19.352,19.352,0,0,0-1.921-4.637l1.68-1.68a1.236,1.236,0,0,0,0-1.748l-5.465-5.461a1.236,1.236,0,0,0-1.747,0l-1.678,1.678a19.349,19.349,0,0,0-4.637-1.922V75.236A1.235,1.235,0,0,0,100.337,74H92.611a1.236,1.236,0,0,0-1.236,1.236v2.374a19.332,19.332,0,0,0-4.637,1.921L85.06,77.853a1.236,1.236,0,0,0-1.747,0l-5.465,5.461a1.235,1.235,0,0,0,0,1.748l1.68,1.68a19.346,19.346,0,0,0-1.922,4.637H75.224a1.235,1.235,0,0,0-1.236,1.235l0,7.726a1.235,1.235,0,0,0,1.236,1.236h2.386a19.349,19.349,0,0,0,1.922,4.637L77.839,107.9a1.236,1.236,0,0,0,0,1.747l5.461,5.465a1.236,1.236,0,0,0,.874.362h0a1.236,1.236,0,0,0,.874-.362l1.691-1.691a19.365,19.365,0,0,0,4.637,1.922Zm-4.153-6.916a1.236,1.236,0,0,0-1.545.164l-1.5,1.5-3.714-3.717,1.5-1.5a1.235,1.235,0,0,0,.164-1.544,16.912,16.912,0,0,1-2.34-5.649,1.236,1.236,0,0,0-1.208-.976H76.456l0-5.255h2.119a1.235,1.235,0,0,0,1.208-.976,16.914,16.914,0,0,1,2.34-5.648,1.235,1.235,0,0,0-.164-1.544l-1.493-1.494,3.717-3.714,1.492,1.492a1.237,1.237,0,0,0,1.545.164,16.905,16.905,0,0,1,5.648-2.34,1.236,1.236,0,0,0,.976-1.208v-2.11H99.1v2.11a1.235,1.235,0,0,0,.976,1.208,16.919,16.919,0,0,1,5.648,2.34,1.235,1.235,0,0,0,1.544-.164l1.492-1.492,3.717,3.714-1.493,1.493a1.235,1.235,0,0,0-.164,1.544,16.924,16.924,0,0,1,2.34,5.648,1.235,1.235,0,0,0,1.208.976h2.123V99.1h-2.123a1.236,1.236,0,0,0-1.208.976,16.91,16.91,0,0,1-2.34,5.648,1.236,1.236,0,0,0,.164,1.545l1.5,1.5-3.714,3.717-1.5-1.5a1.235,1.235,0,0,0-1.544-.164,16.924,16.924,0,0,1-5.648,2.34,1.235,1.235,0,0,0-.976,1.208V116.5H93.846v-2.132a1.236,1.236,0,0,0-.976-1.208,16.914,16.914,0,0,1-5.648-2.34Zm0,0" transform="translate(-64.843 -64.857)"/>
      <path id="Trazado_1058862" data-name="Trazado 1058862" d="M193.79,183.581a10.21,10.21,0,1,0-10.21,10.21A10.221,10.221,0,0,0,193.79,183.581Zm-17.948,0a7.738,7.738,0,1,1,7.738,7.738A7.747,7.747,0,0,1,175.842,183.581Zm0,0" transform="translate(-151.95 -151.95)"/>
      <path id="Trazado_1058863" data-name="Trazado 1058863" d="M339.314,20.281a1.237,1.237,0,1,0-.873-.362A1.245,1.245,0,0,0,339.314,20.281Zm0,0" transform="translate(-296.306 -15.609)"/>
      <path id="Trazado_1058864" data-name="Trazado 1058864" d="M155.595,474.359a1.236,1.236,0,1,0,.874.362A1.245,1.245,0,0,0,155.595,474.359Zm0,0" transform="translate(-135.287 -415.748)"/>
    </g>
  </g>
</svg>
