<svg xmlns="http://www.w3.org/2000/svg" xmlns:xlink="http://www.w3.org/1999/xlink" width="108" height="108" viewBox="0 0 108 108">
  <defs>
    <filter id="Trazado_904820" x="0" y="0" width="108" height="108" filterUnits="userSpaceOnUse">
      <feOffset dy="3" input="SourceAlpha"/>
      <feGaussianBlur stdDeviation="3" result="blur"/>
      <feFlood flood-opacity="0.161"/>
      <feComposite operator="in" in2="blur"/>
      <feComposite in="SourceGraphic"/>
    </filter>
  </defs>
  <g id="Grupo_1210302" data-name="Grupo 1210302" transform="translate(9 6)">
    <g id="Grupo_1173585" data-name="Grupo 1173585" transform="translate(0 0)">
      <g id="Grupo_1173428" data-name="Grupo 1173428">
        <g id="Grupo_1171958" data-name="Grupo 1171958">
          <g id="Grupo_1167341" data-name="Grupo 1167341">
            <g id="Grupo_1166792" data-name="Grupo 1166792">
              <g transform="matrix(1, 0, 0, 1, -9, -6)" filter="url(#Trazado_904820)">
                <g id="Trazado_904820-2" data-name="Trazado 904820" transform="translate(9 6)" fill="#fef9e5">
                  <path d="M 44.99999618530273 88.5 C 39.12687301635742 88.5 33.43022155761719 87.35007476806641 28.06829643249512 85.08216094970703 C 22.88852119445801 82.89131164550781 18.23629570007324 79.75458526611328 14.24084663391113 75.75914001464844 C 10.24540901184082 71.76368713378906 7.108683586120605 67.11146545410156 4.917821407318115 61.93170166015625 C 2.649921178817749 56.56976318359375 1.499996185302734 50.87312316894531 1.499996185302734 45 C 1.499996185302734 39.12687683105469 2.649921178817749 33.43022537231445 4.917821407318115 28.06830024719238 C 7.108683586120605 22.88852500915527 10.24540901184082 18.23629951477051 14.24084663391113 14.2408504486084 C 18.23629570007324 10.24541282653809 22.88852119445801 7.108687400817871 28.06829643249512 4.917825222015381 C 33.43022155761719 2.649924993515015 39.12687301635742 1.5 44.99999618530273 1.5 C 50.87311935424805 1.5 56.56977081298828 2.649924993515015 61.93169784545898 4.917825222015381 C 67.11147308349609 7.108687400817871 71.76369476318359 10.24541282653809 75.75914764404297 14.2408504486084 C 79.75458526611328 18.23629951477051 82.89131164550781 22.88852500915527 85.08216857910156 28.06830024719238 C 87.35007476806641 33.43022537231445 88.5 39.12687683105469 88.5 45 C 88.5 50.87312316894531 87.35007476806641 56.56976318359375 85.08216857910156 61.93170166015625 C 82.89131164550781 67.11146545410156 79.75458526611328 71.76368713378906 75.75914764404297 75.75914001464844 C 71.76369476318359 79.75458526611328 67.11147308349609 82.89131164550781 61.93169784545898 85.08216094970703 C 56.56977081298828 87.35007476806641 50.87311935424805 88.5 44.99999618530273 88.5 Z" stroke="none"/>
                  <path d="M 44.99999618530273 3 C 39.32870864868164 3 33.82865142822266 4.110054016113281 28.65262603759766 6.299339294433594 C 23.65165710449219 8.414573669433594 19.15968322753906 11.44334411621094 15.301513671875 15.301513671875 C 11.44333648681641 19.15968322753906 8.414566040039062 23.65165710449219 6.299339294433594 28.65262985229492 C 4.110054016113281 33.82865524291992 2.999992370605469 39.32871246337891 2.999992370605469 45 C 2.999992370605469 50.67128753662109 4.110054016113281 56.17132949829102 6.299339294433594 61.34737396240234 C 8.414566040039062 66.34834289550781 11.44333648681641 70.84030151367188 15.301513671875 74.698486328125 C 19.15968322753906 78.55665588378906 23.65165710449219 81.58542633056641 28.65262603759766 83.70066070556641 C 33.82865142822266 85.88994598388672 39.32870864868164 87 44.99999618530273 87 C 50.67128372192383 87 56.17134094238281 85.88994598388672 61.34736633300781 83.70066070556641 C 66.34834289550781 81.58542633056641 70.84030914306641 78.55665588378906 74.69847869873047 74.698486328125 C 78.55665588378906 70.84030151367188 81.58542633056641 66.34834289550781 83.70065307617188 61.34737396240234 C 85.88993835449219 56.17132949829102 87 50.67128753662109 87 45 C 87 39.32871246337891 85.88993835449219 33.82865524291992 83.70065307617188 28.65262985229492 C 81.58542633056641 23.65165710449219 78.55665588378906 19.15968322753906 74.69847869873047 15.301513671875 C 70.84030914306641 11.44334411621094 66.34834289550781 8.414573669433594 61.34736633300781 6.299339294433594 C 56.17134094238281 4.110054016113281 50.67128372192383 3 44.99999618530273 3 M 44.99999618530273 0 C 69.85281372070312 0 90 20.14718627929688 90 45 C 90 69.85279846191406 69.85281372070312 90 44.99999618530273 90 C 20.14717864990234 90 -7.62939453125e-06 69.85279846191406 -7.62939453125e-06 45 C -7.62939453125e-06 20.14718627929688 20.14717864990234 0 44.99999618530273 0 Z" stroke="none" fill="#866d08"/>
                </g>
              </g>
            </g>
          </g>
        </g>
      </g>
    </g>
    <g id="prueba_2_" data-name="prueba (2)" transform="translate(15.915 15.583)">
      <g id="Grupo_1226932" data-name="Grupo 1226932" transform="translate(0.854 1.186)">
        <path id="Trazado_1058523" data-name="Trazado 1058523" d="M130.978,115.427l-2.428-4.2.432-3.968-6.512-3.761-3.222,2.357h-4.866l-3.222-2.357-6.512,3.761.432,3.968-2.428,4.2L99,117.036v7.521l3.652,1.609,2.428,4.2-.432,3.968,6.512,3.761,3.229-2.362h4.853l3.228,2.362,6.512-3.761-.432-3.968,2.428-4.2,3.652-1.609v-7.521Z" transform="translate(-88.584 -92.566)" fill="#a8e1f8"/>
        <circle id="Elipse_13544" data-name="Elipse 13544" cx="9.107" cy="9.107" r="9.107" transform="translate(19.124 19.124)" fill="#fff"/>
        <circle id="Elipse_13545" data-name="Elipse 13545" cx="7.399" cy="7.399" r="7.399" fill="#a7eed4"/>
        <circle id="Elipse_13546" data-name="Elipse 13546" cx="7.399" cy="7.399" r="7.399" transform="translate(41.664)" fill="#ff9d87"/>
        <circle id="Elipse_13547" data-name="Elipse 13547" cx="7.399" cy="7.399" r="7.399" transform="translate(0 41.664)" fill="#ff9d87"/>
        <circle id="Elipse_13548" data-name="Elipse 13548" cx="7.399" cy="7.399" r="7.399" transform="translate(41.664 41.664)" fill="#a7eed4"/>
        <path id="Trazado_1058524" data-name="Trazado 1058524" d="M10.346,14.9a7.4,7.4,0,0,1,5.976-7.261,7.4,7.4,0,1,0,0,14.522A7.4,7.4,0,0,1,10.346,14.9Z" transform="translate(-7.5 -7.5)" fill="#71e4bf"/>
        <path id="Trazado_1058525" data-name="Trazado 1058525" d="M376.346,380.9a7.4,7.4,0,0,1,5.976-7.261,7.4,7.4,0,1,0,0,14.522A7.4,7.4,0,0,1,376.346,380.9Z" transform="translate(-331.836 -331.836)" fill="#71e4bf"/>
        <path id="Trazado_1058526" data-name="Trazado 1058526" d="M376.346,14.9a7.4,7.4,0,0,1,5.976-7.261,7.4,7.4,0,1,0,0,14.522A7.4,7.4,0,0,1,376.346,14.9Z" transform="translate(-331.836 -7.5)" fill="#ff6a47"/>
        <path id="Trazado_1058527" data-name="Trazado 1058527" d="M10.346,380.9a7.4,7.4,0,0,1,5.976-7.261,7.4,7.4,0,1,0,0,14.522A7.4,7.4,0,0,1,10.346,380.9Z" transform="translate(-7.5 -331.836)" fill="#ff6a47"/>
        <path id="Trazado_1058528" data-name="Trazado 1058528" d="M178.346,184.607a9.109,9.109,0,0,1,7.684-9,9.107,9.107,0,1,0,0,17.991A9.108,9.108,0,0,1,178.346,184.607Z" transform="translate(-156.376 -156.376)" fill="#e3edf6"/>
      </g>
      <g id="Grupo_1226933" data-name="Grupo 1226933" transform="translate(0 0.375)">
        <path id="Trazado_1058529" data-name="Trazado 1058529" d="M227.66,218.849v6.2h1.708V216h-1.6l-3.1,3.847,1.329,1.072Z" transform="translate(-199.087 -191.454)"/>
        <path id="Trazado_1058530" data-name="Trazado 1058530" d="M177.961,188.322a9.972,9.972,0,0,0,9.961-9.961c-.547-13.214-19.376-13.21-19.921,0A9.972,9.972,0,0,0,177.961,188.322Zm0-18.214a8.262,8.262,0,0,1,8.253,8.253c-.453,10.949-16.054,10.946-16.506,0A8.262,8.262,0,0,1,177.961,170.108Z" transform="translate(-148.876 -149.319)"/>
        <path id="Trazado_1058531" data-name="Trazado 1058531" d="M45.234,47.495l-1.208-1.208L39.87,50.444,38.4,48.978,37.2,50.185l2.674,2.673Z" transform="translate(-32.962 -41.061)"/>
        <path id="Trazado_1058532" data-name="Trazado 1058532" d="M8.253,16.838a8.262,8.262,0,0,0,8.253-8.253C16.053-2.364.452-2.36,0,8.585A8.262,8.262,0,0,0,8.253,16.838Zm0-14.8A6.546,6.546,0,1,1,1.708,8.585,6.553,6.553,0,0,1,8.253,2.04Z" transform="translate(0 -0.375)"/>
        <path id="Trazado_1058533" data-name="Trazado 1058533" d="M374.253,16.838a8.262,8.262,0,0,0,8.253-8.253c-.453-10.949-16.055-10.946-16.506,0A8.262,8.262,0,0,0,374.253,16.838Zm0-14.8a6.546,6.546,0,1,1-6.546,6.546A6.553,6.553,0,0,1,374.253,2.04Z" transform="translate(-324.336 -0.375)"/>
        <path id="Trazado_1058534" data-name="Trazado 1058534" d="M8.253,366A8.262,8.262,0,0,0,0,374.253c.453,10.949,16.054,10.946,16.506,0A8.262,8.262,0,0,0,8.253,366Zm0,14.8a6.546,6.546,0,1,1,6.546-6.546A6.553,6.553,0,0,1,8.253,380.8Z" transform="translate(0 -324.379)"/>
        <path id="Trazado_1058535" data-name="Trazado 1058535" d="M405.87,416.444l-1.466-1.466-1.208,1.207,2.674,2.673,5.364-5.364-1.208-1.208Z" transform="translate(-357.298 -365.397)"/>
        <path id="Trazado_1058536" data-name="Trazado 1058536" d="M374.253,366A8.262,8.262,0,0,0,366,374.253c.453,10.949,16.054,10.946,16.506,0A8.262,8.262,0,0,0,374.253,366Zm0,14.8a6.546,6.546,0,1,1,6.546-6.546A6.553,6.553,0,0,1,374.253,380.8Z" transform="translate(-324.336 -324.379)"/>
        <path id="Trazado_1058537" data-name="Trazado 1058537" d="M6.9,165.463l1.507-.8-2.729-5.124L.555,162.265l.8,1.507,2.373-1.264a27.164,27.164,0,0,0,.764,18.061l1.583-.639a25.465,25.465,0,0,1-.631-17.2Z" transform="translate(-0.492 -141.418)"/>
        <path id="Trazado_1058538" data-name="Trazado 1058538" d="M442.967,181.8l-1.507.8,2.729,5.124L449.313,185l-.8-1.507-2.373,1.264a27.163,27.163,0,0,0-.764-18.061l-1.583.639a25.465,25.465,0,0,1,.631,17.2Z" transform="translate(-391.206 -147.762)"/>
        <path id="Trazado_1058539" data-name="Trazado 1058539" d="M170.46,445.62a25.247,25.247,0,0,1-7.726-1.2l2.728-1.453-.8-1.507-5.124,2.729,2.729,5.124,1.507-.8-1.264-2.373a27.163,27.163,0,0,0,18.061-.764l-.639-1.583A25.194,25.194,0,0,1,170.46,445.62Z" transform="translate(-141.375 -391.249)"/>
        <path id="Trazado_1058540" data-name="Trazado 1058540" d="M176.8,4.248a25.246,25.246,0,0,1,7.726,1.2L181.8,6.9l.8,1.507,5.124-2.729L185,.555l-1.507.8,1.264,2.373a27.164,27.164,0,0,0-18.061.764l.639,1.583A25.192,25.192,0,0,1,176.8,4.248Z" transform="translate(-147.718 -0.534)"/>
        <path id="Trazado_1058541" data-name="Trazado 1058541" d="M409.4,49.1l2.242-2.242,2.242,2.242,1.208-1.208-2.242-2.242L415.1,43.4,413.888,42.2l-2.242,2.242L409.4,42.2,408.2,43.4l2.242,2.242L408.2,47.888Z" transform="translate(-361.729 -37.435)"/>
        <path id="Trazado_1058542" data-name="Trazado 1058542" d="M47.888,408.2l-2.242,2.242L43.4,408.2,42.2,409.4l2.242,2.242L42.2,413.888,43.4,415.1l2.242-2.242,2.242,2.242,1.208-1.208-2.242-2.242L49.1,409.4Z" transform="translate(-37.393 -361.771)"/>
        <path id="Trazado_1058543" data-name="Trazado 1058543" d="M104.569,150.693l3.453-2.526h4.3l3.453,2.526,3.128-1.807-.855-1.478-2.163,1.25-3-2.2h-5.412l-3,2.2-5.548-3.2.4-3.692-2.707-4.689-3.4-1.5v-6.407l3.4-1.5,2.707-4.689-.4-3.693,2.174-1.256-.854-1.479-3.138,1.813.461,4.244-2.149,3.722L91.5,128.054v8.634l3.906,1.722,2.149,3.722-.462,4.244Z" transform="translate(-81.084 -103.329)"/>
        <path id="Trazado_1058544" data-name="Trazado 1058544" d="M202.728,126.875l-.461-4.244,2.149-3.722,3.906-1.722v-8.634l-3.906-1.722-2.149-3.722.461-4.244-7.475-4.318-3.447,2.521H187.5l-3.447-2.522L181.194,96.2l.853,1.479,1.9-1.095,3,2.193h5.423l3-2.194,5.548,3.2-.4,3.692,2.707,4.689,3.4,1.5v6.407l-3.4,1.5-2.707,4.689.4,3.693-1.9,1.1.853,1.479C200.515,128.154,201.723,127.457,202.728,126.875Z" transform="translate(-160.568 -83.829)"/>
      </g>
      <g id="Grupo_1226934" data-name="Grupo 1226934" transform="translate(14.685 28.563)">
        <path id="Trazado_1058545" data-name="Trazado 1058545" d="M129,248h1.708v1.708H129Z" transform="translate(-129 -248)" fill="#fff"/>
        <path id="Trazado_1058546" data-name="Trazado 1058546" d="M367,248h1.708v1.708H367Z" transform="translate(-339.907 -248)" fill="#fff"/>
      </g>
    </g>
  </g>
</svg>
