<svg xmlns="http://www.w3.org/2000/svg" xmlns:xlink="http://www.w3.org/1999/xlink" width="113" height="113" viewBox="0 0 113 113">
  <defs>
    <filter id="Trazado_982547" x="0" y="0" width="113" height="113" filterUnits="userSpaceOnUse">
      <feOffset dy="3" input="SourceAlpha"/>
      <feGaussianBlur stdDeviation="3" result="blur"/>
      <feFlood flood-opacity="0.161"/>
      <feComposite operator="in" in2="blur"/>
      <feComposite in="SourceGraphic"/>
    </filter>
  </defs>
  <g id="Grupo_1226969" data-name="Grupo 1226969" transform="translate(-4067 -1567.751)">
    <g id="Grupo_1226751" data-name="Grupo 1226751" transform="translate(3393 -46.384)">
      <g id="Grupo_1224583" data-name="Grupo 1224583" transform="translate(0 -5449.616)">
        <g id="Grupo_1224450" data-name="Grupo 1224450" transform="translate(683 7069.751)">
          <g id="Grupo_1224085" data-name="Grupo 1224085" transform="translate(0 0)">
            <g id="Grupo_1223184" data-name="Grupo 1223184">
              <g id="Grupo_1211216" data-name="Grupo 1211216">
                <g id="Grupo_1210737" data-name="Grupo 1210737">
                  <g id="Grupo_1210537" data-name="Grupo 1210537">
                    <g id="Grupo_1164202" data-name="Grupo 1164202">
                      <g id="Grupo_1158168" data-name="Grupo 1158168">
                        <g id="Grupo_1152576" data-name="Grupo 1152576">
                          <g id="Grupo_1148633" data-name="Grupo 1148633">
                            <g id="Grupo_1148525" data-name="Grupo 1148525">
                              <g transform="matrix(1, 0, 0, 1, -9, -6)" filter="url(#Trazado_982547)">
                                <g id="Trazado_982547-2" data-name="Trazado 982547" transform="translate(9 6)" fill="#fef9e5">
                                  <path d="M 47.49999618530273 93.5 C 41.28936767578125 93.5 35.26533126831055 92.28396606445312 29.59518241882324 89.88570404052734 C 24.11771583557129 87.56893157958984 19.19812965393066 84.251953125 14.97308921813965 80.02690124511719 C 10.74803638458252 75.80186462402344 7.431062698364258 70.88227844238281 5.114289283752441 65.40480804443359 C 2.716022968292236 59.73466110229492 1.499996185302734 53.71062469482422 1.499996185302734 47.49999618530273 C 1.499996185302734 41.28936767578125 2.716022968292236 35.26533126831055 5.114289283752441 29.59518241882324 C 7.431062698364258 24.11771583557129 10.74803638458252 19.19812965393066 14.97308921813965 14.97308921813965 C 19.19812965393066 10.74803638458252 24.11771583557129 7.431062698364258 29.59518241882324 5.114289283752441 C 35.26533126831055 2.716022968292236 41.28936767578125 1.499996185302734 47.49999618530273 1.499996185302734 C 53.71062469482422 1.499996185302734 59.73466110229492 2.716022968292236 65.40480804443359 5.114289283752441 C 70.88227844238281 7.431062698364258 75.80186462402344 10.74803638458252 80.02690124511719 14.97308921813965 C 84.251953125 19.19812965393066 87.56893157958984 24.11771583557129 89.88570404052734 29.59518241882324 C 92.28396606445312 35.26533126831055 93.5 41.28936767578125 93.5 47.49999618530273 C 93.5 53.71062469482422 92.28396606445312 59.73466110229492 89.88570404052734 65.40480804443359 C 87.56893157958984 70.88227844238281 84.251953125 75.80186462402344 80.02690124511719 80.02690124511719 C 75.80186462402344 84.251953125 70.88227844238281 87.56893157958984 65.40480804443359 89.88570404052734 C 59.73466110229492 92.28396606445312 53.71062469482422 93.5 47.49999618530273 93.5 Z" stroke="none"/>
                                  <path d="M 47.49999618530273 2.999992370605469 C 41.4912109375 2.999992370605469 35.66376495361328 4.1761474609375 30.17950439453125 6.495796203613281 C 24.88084411621094 8.736953735351562 20.12152099609375 11.94598388671875 16.03375244140625 16.03375244140625 C 11.94598388671875 20.12152099609375 8.736953735351562 24.88084411621094 6.495796203613281 30.17950439453125 C 4.1761474609375 35.66376495361328 2.999992370605469 41.4912109375 2.999992370605469 47.49999618530273 C 2.999992370605469 53.50878143310547 4.1761474609375 59.33622741699219 6.495796203613281 64.82048797607422 C 8.736953735351562 70.11914825439453 11.94598388671875 74.87847137451172 16.03375244140625 78.96623992919922 C 20.12152099609375 83.05400848388672 24.88084411621094 86.26304626464844 30.17950439453125 88.50419616699219 C 35.66376495361328 90.82384490966797 41.4912109375 92 47.49999618530273 92 C 53.50878143310547 92 59.33622741699219 90.82384490966797 64.82048797607422 88.50419616699219 C 70.11914825439453 86.26304626464844 74.87847137451172 83.05400848388672 78.96623992919922 78.96623992919922 C 83.05400848388672 74.87847137451172 86.26304626464844 70.11914825439453 88.50419616699219 64.82048797607422 C 90.82384490966797 59.33622741699219 92 53.50878143310547 92 47.49999618530273 C 92 41.4912109375 90.82384490966797 35.66376495361328 88.50419616699219 30.17950439453125 C 86.26304626464844 24.88084411621094 83.05400848388672 20.12152099609375 78.96623992919922 16.03375244140625 C 74.87847137451172 11.94598388671875 70.11914825439453 8.736953735351562 64.82048797607422 6.495796203613281 C 59.33622741699219 4.1761474609375 53.50878143310547 2.999992370605469 47.49999618530273 2.999992370605469 M 47.49999618530273 -7.62939453125e-06 C 73.7335205078125 -7.62939453125e-06 95 21.26647186279297 95 47.49999618530273 C 95 73.7335205078125 73.7335205078125 95 47.49999618530273 95 C 21.26647186279297 95 -7.62939453125e-06 73.7335205078125 -7.62939453125e-06 47.49999618530273 C -7.62939453125e-06 21.26647186279297 21.26647186279297 -7.62939453125e-06 47.49999618530273 -7.62939453125e-06 Z" stroke="none" fill="#f6c810"/>
                                </g>
                              </g>
                            </g>
                          </g>
                        </g>
                      </g>
                    </g>
                  </g>
                </g>
              </g>
            </g>
          </g>
        </g>
      </g>
    </g>
    <g id="codificacion" transform="translate(4095.219 1594.598)">
      <rect id="Rectángulo_422747" data-name="Rectángulo 422747" width="3.132" height="4.261" transform="translate(34.991 33.259)" fill="#f0f0fa"/>
      <path id="Trazado_1058718" data-name="Trazado 1058718" d="M118,20.163V13.874A3.874,3.874,0,0,1,121.874,10h34.672a3.874,3.874,0,0,1,3.874,3.874V38.28a3.874,3.874,0,0,1-3.874,3.874H134.46Z" transform="translate(-104.965 -8.895)" fill="#fff"/>
      <g id="Grupo_1226968" data-name="Grupo 1226968" transform="translate(34.249 26.673)">
        <path id="Trazado_1058719" data-name="Trazado 1058719" d="M362.434,244.171v-2.719H345.1v6.586h13.466A3.866,3.866,0,0,0,362.434,244.171Z" transform="translate(-341.227 -241.452)" fill="#78d2fa"/>
        <path id="Trazado_1058720" data-name="Trazado 1058720" d="M314.778,339.642H310.03v3.874h8.622A3.874,3.874,0,0,0,314.778,339.642Z" transform="translate(-310.03 -328.795)" fill="#78d2fa"/>
      </g>
      <path id="Trazado_1058721" data-name="Trazado 1058721" d="M34.856,102H13.535A3.535,3.535,0,0,0,10,105.535v37.118a3.535,3.535,0,0,0,3.535,3.535H34.856a3.535,3.535,0,0,0,3.535-3.535V105.535A3.535,3.535,0,0,0,34.856,102Z" transform="translate(-8.895 -90.732)" fill="#fff"/>
      <path id="Trazado_1058722" data-name="Trazado 1058722" d="M109.59,102H98.254a3.866,3.866,0,0,0-3.866,3.866v4.087h19.068v-4.087A3.866,3.866,0,0,0,109.59,102Z" transform="translate(-83.961 -90.732)" fill="#f5b955"/>
      <path id="Trazado_1058723" data-name="Trazado 1058723" d="M18.141,174H45.2" transform="translate(-16.137 -154.778)" fill="#231f20"/>
      <path id="Trazado_1058724" data-name="Trazado 1058724" d="M51.582,0H16.909a4.984,4.984,0,0,0-4.979,4.979v5.185H4.64A4.645,4.645,0,0,0,0,14.8V51.921a4.645,4.645,0,0,0,4.64,4.64H25.96a4.645,4.645,0,0,0,4.64-4.64V42.5H42.871a1.1,1.1,0,0,0,1.1-1.1,4.985,4.985,0,0,0-4.748-4.973V34.364H51.582a4.984,4.984,0,0,0,4.979-4.979V4.979A4.984,4.984,0,0,0,51.582,0ZM4.64,12.373H25.96a2.433,2.433,0,0,1,2.43,2.43v3.314H2.209V14.8A2.433,2.433,0,0,1,4.64,12.373ZM22.2,10.163H20.978V8.294a.609.609,0,1,1,1.217,0Zm6.759.546a.607.607,0,0,1-.168.417,4.646,4.646,0,0,0-1.05-.61V8.242a.609.609,0,1,1,1.217,0V10.71Zm-.564,41.211a2.433,2.433,0,0,1-2.43,2.43H4.64a2.433,2.433,0,0,1-2.43-2.43V20.326H28.391ZM41.536,40.29H30.6V38.625H39A2.774,2.774,0,0,1,41.536,40.29Zm-4.518-3.874H30.6V34.364h6.418Zm17.333-7.03a2.772,2.772,0,0,1-2.769,2.769H30.6V27.778H46.508a1.1,1.1,0,0,0,0-2.209H30.6V14.8a4.611,4.611,0,0,0-.429-1.946,2.818,2.818,0,0,0,.993-2.148V8.242a2.818,2.818,0,1,0-5.636,0v1.921H24.4V8.294a2.818,2.818,0,1,0-5.636,0v1.869H14.14V4.979a2.772,2.772,0,0,1,2.769-2.769H51.582a2.772,2.772,0,0,1,2.769,2.769Z"/>
      <path id="Trazado_1058725" data-name="Trazado 1058725" d="M455.435,231.45a1.105,1.105,0,1,0,.781.324A1.113,1.113,0,0,0,455.435,231.45Z" transform="translate(-404.141 -205.882)"/>
      <path id="Trazado_1058726" data-name="Trazado 1058726" d="M301.134,261.26a1.1,1.1,0,1,0,.781.324A1.113,1.113,0,0,0,301.134,261.26Z" transform="translate(-266.885 -232.399)"/>
      <path id="Trazado_1058727" data-name="Trazado 1058727" d="M157.535,130.209h6.36a1.1,1.1,0,1,0,0-2.209h-6.36a1.1,1.1,0,0,0,0,2.209Z" transform="translate(-139.149 -113.86)"/>
      <path id="Trazado_1058728" data-name="Trazado 1058728" d="M70.655,130.209a1.1,1.1,0,1,0-.782-.324A1.109,1.109,0,0,0,70.655,130.209Z" transform="translate(-61.867 -113.86)"/>
      <path id="Trazado_1058729" data-name="Trazado 1058729" d="M41.055,130.209a1.105,1.105,0,1,0-.781-.324A1.111,1.111,0,0,0,41.055,130.209Z" transform="translate(-35.537 -113.86)"/>
      <path id="Trazado_1058730" data-name="Trazado 1058730" d="M100.245,130.209a1.105,1.105,0,1,0-.781-.324A1.113,1.113,0,0,0,100.245,130.209Z" transform="translate(-88.188 -113.86)"/>
      <path id="Trazado_1058731" data-name="Trazado 1058731" d="M296.579,57.2a1.1,1.1,0,0,0,1.1-1.1V50.2a1.1,1.1,0,0,0-2.209,0V56.1A1.1,1.1,0,0,0,296.579,57.2Z" transform="translate(-262.833 -43.676)"/>
      <path id="Trazado_1058732" data-name="Trazado 1058732" d="M449.1,57.2a1.1,1.1,0,0,0,1.1-1.1V50.2a1.1,1.1,0,0,0-2.209,0V56.1A1.1,1.1,0,0,0,449.1,57.2Z" transform="translate(-398.51 -43.676)"/>
      <path id="Trazado_1058733" data-name="Trazado 1058733" d="M331.27,54.857V52.389a2.818,2.818,0,1,0-5.636,0v2.467a2.818,2.818,0,1,0,5.636,0Zm-2.209,0a.609.609,0,0,1-1.218,0V52.389a.609.609,0,0,1,1.218,0Z" transform="translate(-289.661 -44.095)"/>
      <path id="Trazado_1058734" data-name="Trazado 1058734" d="M389.635,49.1a2.821,2.821,0,0,0-2.818,2.818v2.467a2.818,2.818,0,1,0,5.636,0V51.918A2.821,2.821,0,0,0,389.635,49.1Zm.609,5.286a.609.609,0,1,1-1.218,0V51.918a.609.609,0,1,1,1.218,0Z" transform="translate(-344.086 -43.676)"/>
      <path id="Trazado_1058735" data-name="Trazado 1058735" d="M418.944,141.4a1.1,1.1,0,0,0-1.1,1.1V148.4a1.1,1.1,0,0,0,2.209,0V142.5A1.1,1.1,0,0,0,418.944,141.4Z" transform="translate(-371.681 -125.777)"/>
      <path id="Trazado_1058736" data-name="Trazado 1058736" d="M450.209,148.4V142.5a1.1,1.1,0,0,0-2.209,0V148.4a1.1,1.1,0,0,0,2.209,0Z" transform="translate(-398.51 -125.778)"/>
      <path id="Trazado_1058737" data-name="Trazado 1058737" d="M297.862,141.869a2.821,2.821,0,0,0-2.818,2.818v2.467a2.818,2.818,0,1,0,5.636,0v-2.467A2.822,2.822,0,0,0,297.862,141.869Zm.609,5.286a.609.609,0,0,1-1.218,0v-2.467a.609.609,0,0,1,1.218,0Z" transform="translate(-262.451 -126.197)"/>
      <path id="Trazado_1058738" data-name="Trazado 1058738" d="M359.044,141.427a2.821,2.821,0,0,0-2.818,2.818v2.467a2.818,2.818,0,1,0,5.636,0v-2.467A2.821,2.821,0,0,0,359.044,141.427Zm.609,5.286a.609.609,0,1,1-1.218,0v-2.467a.609.609,0,1,1,1.218,0Z" transform="translate(-316.874 -125.804)"/>
      <path id="Trazado_1058739" data-name="Trazado 1058739" d="M57.4,233.661h7.2a1.1,1.1,0,0,0,0-2.209H57.4a1.1,1.1,0,0,0,0,2.209Z" transform="translate(-50.077 -205.884)"/>
      <path id="Trazado_1058740" data-name="Trazado 1058740" d="M157.012,233.661h5.5a1.1,1.1,0,0,0,0-2.209h-5.5a1.1,1.1,0,0,0,0,2.209Z" transform="translate(-138.684 -205.884)"/>
      <path id="Trazado_1058741" data-name="Trazado 1058741" d="M190.246,327.442h-2.057a1.1,1.1,0,0,0,0,2.209h2.057a1.1,1.1,0,0,0,0-2.209Z" transform="translate(-166.417 -291.27)"/>
      <path id="Trazado_1058742" data-name="Trazado 1058742" d="M57.4,329.664H67.444a1.1,1.1,0,1,0,0-2.209H57.4a1.1,1.1,0,1,0,0,2.209Z" transform="translate(-50.077 -291.281)"/>
      <path id="Trazado_1058743" data-name="Trazado 1058743" d="M57.4,281.659H61a1.1,1.1,0,0,0,0-2.209H57.4a1.1,1.1,0,0,0,0,2.209Z" transform="translate(-50.077 -248.579)"/>
      <path id="Trazado_1058744" data-name="Trazado 1058744" d="M136.921,280.555a1.1,1.1,0,0,0,1.1,1.1h7.6a1.1,1.1,0,0,0,0-2.209h-7.6A1.1,1.1,0,0,0,136.921,280.555Z" transform="translate(-121.795 -248.579)"/>
      <path id="Trazado_1058745" data-name="Trazado 1058745" d="M206.8,423.43a1.107,1.107,0,1,0,.781.324A1.115,1.115,0,0,0,206.8,423.43Z" transform="translate(-182.976 -376.654)"/>
      <path id="Trazado_1058746" data-name="Trazado 1058746" d="M69.741,423.445H57.4a1.1,1.1,0,1,0,0,2.209h12.34a1.1,1.1,0,1,0,0-2.209Z" transform="translate(-50.077 -376.667)"/>
      <path id="Trazado_1058747" data-name="Trazado 1058747" d="M57.4,377.649H61a1.1,1.1,0,1,0,0-2.209H57.4a1.1,1.1,0,0,0,0,2.209Z" transform="translate(-50.077 -333.965)"/>
      <path id="Trazado_1058748" data-name="Trazado 1058748" d="M145.624,375.44h-7.6a1.1,1.1,0,1,0,0,2.209h7.6a1.1,1.1,0,1,0,0-2.209Z" transform="translate(-121.795 -333.965)"/>
    </g>
  </g>
</svg>
