<svg xmlns="http://www.w3.org/2000/svg" xmlns:xlink="http://www.w3.org/1999/xlink" width="103" height="103" viewBox="0 0 103 103">
  <defs>
    <filter id="Trazado_982547" x="0" y="0" width="103" height="103" filterUnits="userSpaceOnUse">
      <feOffset dy="3" input="SourceAlpha"/>
      <feGaussianBlur stdDeviation="3" result="blur"/>
      <feFlood flood-opacity="0.161"/>
      <feComposite operator="in" in2="blur"/>
      <feComposite in="SourceGraphic"/>
    </filter>
  </defs>
  <g id="Grupo_1226982" data-name="Grupo 1226982" transform="translate(-191.687 -3704)">
    <g id="Grupo_1226537" data-name="Grupo 1226537" transform="translate(0.687 -2817.959)">
      <g id="Grupo_1226199" data-name="Grupo 1226199" transform="translate(200 6527.959)">
        <g id="Grupo_1225608" data-name="Grupo 1225608">
          <g id="Grupo_1225482" data-name="Grupo 1225482">
            <g id="Grupo_1210959" data-name="Grupo 1210959">
              <g id="Grupo_1210290" data-name="Grupo 1210290">
                <g id="Grupo_1207485" data-name="Grupo 1207485">
                  <g id="Grupo_1207313" data-name="Grupo 1207313">
                    <g id="Grupo_1202212" data-name="Grupo 1202212">
                      <g id="Grupo_1174813" data-name="Grupo 1174813">
                        <g id="Grupo_1201680" data-name="Grupo 1201680">
                          <g id="Grupo_1201330" data-name="Grupo 1201330">
                            <g id="Grupo_1172010" data-name="Grupo 1172010">
                              <g id="Grupo_1171046" data-name="Grupo 1171046">
                                <g id="Grupo_1148525" data-name="Grupo 1148525">
                                  <g transform="matrix(1, 0, 0, 1, -9, -6)" filter="url(#Trazado_982547)">
                                    <g id="Trazado_982547-2" data-name="Trazado 982547" transform="translate(9 6)" fill="#f6ecfe">
                                      <path d="M 42.5 83.5 C 36.96437835693359 83.5 31.59512901306152 82.41617584228516 26.54141235351562 80.27863311767578 C 21.65934181213379 78.21369171142578 17.27447128295898 75.25723266601562 13.50862312316895 71.49137878417969 C 9.742764472961426 67.72553253173828 6.786305904388428 63.34066009521484 4.721364498138428 58.45858764648438 C 2.583823442459106 53.40486907958984 1.5 48.03562164306641 1.5 42.5 C 1.5 36.96437835693359 2.583823442459106 31.59512901306152 4.721364498138428 26.54141235351562 C 6.786305904388428 21.65934181213379 9.742764472961426 17.27448272705078 13.50862312316895 13.50862312316895 C 17.27447128295898 9.742776870727539 21.65934181213379 6.786305904388428 26.54141235351562 4.721364498138428 C 31.59512901306152 2.583823442459106 36.96437835693359 1.5 42.5 1.5 C 48.03562164306641 1.5 53.40486907958984 2.583823442459106 58.45858764648438 4.721364498138428 C 63.34066009521484 6.786305904388428 67.72553253173828 9.742776870727539 71.49137878417969 13.50862312316895 C 75.25723266601562 17.27448272705078 78.21369171142578 21.65934181213379 80.27863311767578 26.54141235351562 C 82.41617584228516 31.59512901306152 83.5 36.96437835693359 83.5 42.5 C 83.5 48.03562164306641 82.41617584228516 53.40486907958984 80.27863311767578 58.45858764648438 C 78.21369171142578 63.34066009521484 75.25723266601562 67.72553253173828 71.49137878417969 71.49137878417969 C 67.72553253173828 75.25723266601562 63.34066009521484 78.21369171142578 58.45858764648438 80.27863311767578 C 53.40486907958984 82.41617584228516 48.03562164306641 83.5 42.5 83.5 Z" stroke="none"/>
                                      <path d="M 42.5 3 C 37.16621398925781 3 31.99356079101562 4.043960571289062 27.125732421875 6.102882385253906 C 22.42246627807617 8.092185974121094 18.19785308837891 10.94070434570312 14.56928253173828 14.56928253173828 C 10.94070434570312 18.19785308837891 8.092185974121094 22.42246627807617 6.102882385253906 27.125732421875 C 4.043960571289062 31.99356079101562 3 37.16621398925781 3 42.5 C 3 47.83378601074219 4.043960571289062 53.00643920898438 6.102882385253906 57.874267578125 C 8.092185974121094 62.57753372192383 10.94070434570312 66.80214691162109 14.56928253173828 70.43071746826172 C 18.19785308837891 74.05929565429688 22.42246627807617 76.90781402587891 27.125732421875 78.89711761474609 C 31.99356079101562 80.95603942871094 37.16621398925781 82 42.5 82 C 47.83378601074219 82 53.00643920898438 80.95603942871094 57.874267578125 78.89711761474609 C 62.57753372192383 76.90781402587891 66.80214691162109 74.05929565429688 70.43071746826172 70.43071746826172 C 74.05929565429688 66.80214691162109 76.90781402587891 62.57753372192383 78.89711761474609 57.874267578125 C 80.95603942871094 53.00643920898438 82 47.83378601074219 82 42.5 C 82 37.16621398925781 80.95603942871094 31.99356079101562 78.89711761474609 27.125732421875 C 76.90781402587891 22.42246627807617 74.05929565429688 18.19785308837891 70.43071746826172 14.56928253173828 C 66.80214691162109 10.94070434570312 62.57753372192383 8.092185974121094 57.874267578125 6.102882385253906 C 53.00643920898438 4.043960571289062 47.83378601074219 3 42.5 3 M 42.5 0 C 65.97210693359375 0 85 19.02789306640625 85 42.5 C 85 65.97210693359375 65.97210693359375 85 42.5 85 C 19.02789306640625 85 0 65.97210693359375 0 42.5 C 0 19.02789306640625 19.02789306640625 0 42.5 0 Z" stroke="none" fill="#aa52f9"/>
                                    </g>
                                  </g>
                                </g>
                              </g>
                            </g>
                          </g>
                        </g>
                      </g>
                    </g>
                  </g>
                </g>
              </g>
            </g>
          </g>
        </g>
      </g>
    </g>
    <g id="programacion-web_1_" data-name="programacion-web (1)" transform="translate(214.389 3723.202)">
      <g id="Grupo_1226980" data-name="Grupo 1226980" transform="translate(1.897 1.897)">
        <g id="Grupo_1226975" data-name="Grupo 1226975" transform="translate(10.76 17.037)">
          <path id="Trazado_1058767" data-name="Trazado 1058767" d="M40,27.277H14V52.385H33.907l-.2-.2,1.22-2.053a10.68,10.68,0,0,1-.69-1.65l-2.3-.583v-5.38l2.3-.583a10.68,10.68,0,0,1,.69-1.65l-1.22-2.053,3.8-3.8,2.053,1.22a10.68,10.68,0,0,1,1.65-.69l.583-2.3h4.484V21A6.272,6.272,0,0,1,40,27.277Z" transform="translate(-14 -21)" fill="#f0d0b4"/>
        </g>
        <g id="Grupo_1226976" data-name="Grupo 1226976" transform="translate(3.587 23.225)">
          <path id="Trazado_1058768" data-name="Trazado 1058768" d="M6.9,27.99h6.277V53.1H6V27.9A4.225,4.225,0,0,0,6.9,27.99Z" transform="translate(-6 -27.9)" fill="#dfb28b"/>
        </g>
        <g id="Grupo_1226977" data-name="Grupo 1226977" transform="translate(0 0)">
          <path id="Trazado_1058769" data-name="Trazado 1058769" d="M38.765,12.76a6.277,6.277,0,0,1,0,12.554H6.484a4.225,4.225,0,0,1-.9-.09,4.484,4.484,0,0,1,.9-8.877h.045c-.027-.3-.045-.592-.045-.9a8.071,8.071,0,0,1,8.07-8.07,7.929,7.929,0,0,1,3.676.9A10.756,10.756,0,0,1,38.765,12.76Z" transform="translate(-2 -2)" fill="#e6e9ed"/>
        </g>
        <g id="Grupo_1226978" data-name="Grupo 1226978" transform="translate(28.694 28.694)">
          <path id="Trazado_1058770" data-name="Trazado 1058770" d="M59.108,43.864v5.38l-2.3.583a10.679,10.679,0,0,1-.69,1.65l1.22,2.053-3.8,3.8-2.053-1.22a10.679,10.679,0,0,1-1.65.69l-.583,2.3h-5.38l-.583-2.3a10.679,10.679,0,0,1-1.65-.69l-2.053,1.22-3.6-3.6-.2-.2,1.22-2.053a10.679,10.679,0,0,1-.69-1.65L34,49.244v-5.38l2.3-.583a10.679,10.679,0,0,1,.69-1.65l-1.22-2.053,3.8-3.8,2.053,1.22a10.679,10.679,0,0,1,1.65-.69l.583-2.3h5.38l.583,2.3a10.679,10.679,0,0,1,1.65.69l2.053-1.22,3.8,3.8-1.22,2.053a10.679,10.679,0,0,1,.69,1.65Zm-5.38,2.69a7.174,7.174,0,1,0-7.174,7.174A7.172,7.172,0,0,0,53.727,46.554Z" transform="translate(-34 -34)" fill="#ffc729"/>
        </g>
        <g id="Grupo_1226979" data-name="Grupo 1226979" transform="translate(34.075 34.075)">
          <path id="Trazado_1058771" data-name="Trazado 1058771" d="M47.174,40A7.174,7.174,0,1,1,40,47.174,7.172,7.172,0,0,1,47.174,40Zm3.587,7.174a3.587,3.587,0,1,0-3.587,3.587A3.586,3.586,0,0,0,50.76,47.174Z" transform="translate(-40 -40)" fill="#fcd770"/>
        </g>
      </g>
      <g id="Grupo_1226981" data-name="Grupo 1226981" transform="translate(1 1)">
        <path id="Trazado_1058772" data-name="Trazado 1058772" d="M56.6,46.532V39.757l-2.513-.639c-.107-.285-.226-.573-.359-.857l1.327-2.232-4.79-4.79-2.232,1.326c-.284-.132-.571-.252-.857-.359l-.64-2.512h-.7V18.934a7.181,7.181,0,0,0-6.32-7.118A11.642,11.642,0,0,0,17.719,7a8.843,8.843,0,0,0-3.268-.62,8.977,8.977,0,0,0-8.967,8.967c0,.027,0,.053,0,.081a5.372,5.372,0,0,0-.9,10.366V51.215H32.194L36.03,55.05l2.232-1.326c.284.132.571.252.857.359l.639,2.513h6.775l.639-2.513c.286-.107.573-.227.857-.359l2.232,1.326,4.79-4.79-1.327-2.232c.132-.284.252-.572.359-.857Zm-53.8-25.8a3.587,3.587,0,0,1,7.174,0H11.76a5.384,5.384,0,0,0-4.479-5.3c0-.028,0-.054,0-.082a7.182,7.182,0,0,1,7.174-7.174,7.082,7.082,0,0,1,3.269.794l.833.429.392-.851a9.853,9.853,0,0,1,18.778,3.284,7.178,7.178,0,0,0-6.235,7.1h1.793a5.38,5.38,0,1,1,5.38,5.38H6.38a3.59,3.59,0,0,1-3.587-3.587Zm3.587,5.38h5.38V49.422H6.38ZM31.737,49.422H13.554V26.108H38.661a7.152,7.152,0,0,0,5.38-2.444v6.031H39.758l-.639,2.513c-.286.107-.573.227-.857.359L36.03,31.239l-4.79,4.79,1.327,2.232c-.132.284-.252.572-.359.857l-2.513.639v6.775l2.513.639c.107.285.226.573.359.857Zm21.06.557L49.979,52.8,48.1,51.68l-.442.23a9.868,9.868,0,0,1-1.509.631l-.473.151L45.138,54.8H41.152l-.537-2.111-.473-.151a9.869,9.869,0,0,1-1.509-.631l-.442-.23L36.311,52.8l-2.818-2.818L34.61,48.1l-.228-.441a9.843,9.843,0,0,1-.631-1.512l-.152-.473-2.112-.535V41.152l2.111-.536.152-.473a9.844,9.844,0,0,1,.631-1.512l.228-.441-1.117-1.879,2.818-2.818L38.19,34.61l.442-.23a9.868,9.868,0,0,1,1.509-.631l.473-.151.537-2.111h3.986l.537,2.111.473.151a9.869,9.869,0,0,1,1.509.631l.442.23,1.879-1.117L52.8,36.311,51.68,38.19l.228.441a9.844,9.844,0,0,1,.631,1.512l.152.473,2.112.535v3.986l-2.111.536-.152.473a9.844,9.844,0,0,1-.631,1.512l-.228.441Z" transform="translate(-1 -1)"/>
        <path id="Trazado_1058773" data-name="Trazado 1058773" d="M47.07,39a8.07,8.07,0,1,0,8.07,8.07A8.08,8.08,0,0,0,47.07,39Zm0,14.347a6.277,6.277,0,1,1,6.277-6.277A6.284,6.284,0,0,1,47.07,53.347Z" transform="translate(-4.925 -4.925)"/>
        <path id="Trazado_1058774" data-name="Trazado 1058774" d="M47.483,43a4.484,4.484,0,1,0,4.484,4.483A4.489,4.489,0,0,0,47.483,43Zm0,7.174a2.69,2.69,0,1,1,2.69-2.69A2.693,2.693,0,0,1,47.483,50.174Z" transform="translate(-5.339 -5.339)"/>
        <path id="Trazado_1058775" data-name="Trazado 1058775" d="M9,31h1.793v1.793H9Z" transform="translate(-1.826 -4.099)"/>
        <path id="Trazado_1058776" data-name="Trazado 1058776" d="M9,35h1.793v1.793H9Z" transform="translate(-1.826 -4.512)"/>
        <path id="Trazado_1058777" data-name="Trazado 1058777" d="M9,39h1.793v1.793H9Z" transform="translate(-1.826 -4.925)"/>
        <path id="Trazado_1058778" data-name="Trazado 1058778" d="M9,43h1.793v1.793H9Z" transform="translate(-1.826 -5.339)"/>
        <path id="Trazado_1058779" data-name="Trazado 1058779" d="M9,47h1.793v1.793H9Z" transform="translate(-1.826 -5.752)"/>
        <path id="Trazado_1058780" data-name="Trazado 1058780" d="M9,51h1.793v1.793H9Z" transform="translate(-1.826 -6.165)"/>
        <path id="Trazado_1058781" data-name="Trazado 1058781" d="M17,31H29.554v1.793H17Z" transform="translate(-2.653 -4.099)"/>
        <path id="Trazado_1058782" data-name="Trazado 1058782" d="M29,35h1.793v1.793H29Z" transform="translate(-3.892 -4.512)"/>
        <path id="Trazado_1058783" data-name="Trazado 1058783" d="M17,35h8.967v1.793H17Z" transform="translate(-2.653 -4.512)"/>
        <path id="Trazado_1058784" data-name="Trazado 1058784" d="M17,39H29.554v1.793H17Z" transform="translate(-2.653 -4.925)"/>
        <path id="Trazado_1058785" data-name="Trazado 1058785" d="M21,43h8.967v1.793H21Z" transform="translate(-3.066 -5.339)"/>
        <path id="Trazado_1058786" data-name="Trazado 1058786" d="M17,43h1.793v1.793H17Z" transform="translate(-2.653 -5.339)"/>
        <path id="Trazado_1058787" data-name="Trazado 1058787" d="M17,47H29.554v1.793H17Z" transform="translate(-2.653 -5.752)"/>
        <path id="Trazado_1058788" data-name="Trazado 1058788" d="M17,51H29.554v1.793H17Z" transform="translate(-2.653 -6.165)"/>
        <path id="Trazado_1058789" data-name="Trazado 1058789" d="M28.98,7.021l-.448-1.738a8.022,8.022,0,0,0-1.893.756l.871,1.567A6.21,6.21,0,0,1,28.98,7.021Z" transform="translate(-3.648 -1.442)"/>
        <path id="Trazado_1058790" data-name="Trazado 1058790" d="M37.08,11.5l1.737-.447A8.067,8.067,0,0,0,31,5V6.793A6.273,6.273,0,0,1,37.08,11.5Z" transform="translate(-4.099 -1.413)"/>
        <path id="Trazado_1058791" data-name="Trazado 1058791" d="M30.349,17.617l-2.056,2.056,1.268,1.268,3.324-3.324-3.324-3.324-1.268,1.268Z" transform="translate(-3.819 -2.373)"/>
        <path id="Trazado_1058792" data-name="Trazado 1058792" d="M21.178,19.673l-2.056-2.056,2.056-2.056L19.91,14.293l-3.324,3.324,3.324,3.324Z" transform="translate(-2.61 -2.373)"/>
        <path id="Trazado_1058793" data-name="Trazado 1058793" d="M0,0H9.012V1.793H0Z" transform="matrix(0.1, -0.995, 0.995, 0.1, 20.635, 19.644)"/>
        <path id="Trazado_1058794" data-name="Trazado 1058794" d="M46.587,21H44.793A1.8,1.8,0,0,1,43,22.793v1.793A3.59,3.59,0,0,0,46.587,21Z" transform="translate(-5.339 -3.066)"/>
        <path id="Trazado_1058795" data-name="Trazado 1058795" d="M15.393,11a5.4,5.4,0,0,0-5.273,4.305l1.758.357a3.6,3.6,0,0,1,3.515-2.869Z" transform="translate(-1.942 -2.033)"/>
      </g>
    </g>
  </g>
</svg>
