<svg xmlns="http://www.w3.org/2000/svg" xmlns:xlink="http://www.w3.org/1999/xlink" width="113" height="113" viewBox="0 0 113 113">
  <defs>
    <filter id="Trazado_982547" x="0" y="0" width="113" height="113" filterUnits="userSpaceOnUse">
      <feOffset dy="3" input="SourceAlpha"/>
      <feGaussianBlur stdDeviation="3" result="blur"/>
      <feFlood flood-opacity="0.161"/>
      <feComposite operator="in" in2="blur"/>
      <feComposite in="SourceGraphic"/>
    </filter>
  </defs>
  <g id="Grupo_1226936" data-name="Grupo 1226936" transform="translate(-271.227 -573.323)">
    <g id="Grupo_1226583" data-name="Grupo 1226583" transform="translate(0.344 -2964)">
      <g id="Grupo_1226282" data-name="Grupo 1226282" transform="translate(-0.429 -6427.152)">
        <g id="Grupo_1225528" data-name="Grupo 1225528" transform="translate(0.313 8669.134)">
          <g id="Grupo_1225173" data-name="Grupo 1225173" transform="translate(0 -3445.654)">
            <g id="Grupo_1224643" data-name="Grupo 1224643" transform="translate(0 1927)">
              <g id="Grupo_1224291" data-name="Grupo 1224291" transform="translate(0 859.245)">
                <g id="Grupo_1224091" data-name="Grupo 1224091" transform="translate(-84.49 -2620.317)">
                  <g id="Grupo_1223183" data-name="Grupo 1223183" transform="translate(364.49 4581.069)">
                    <g id="Grupo_1211217" data-name="Grupo 1211217" transform="translate(0)">
                      <g id="Grupo_1210736" data-name="Grupo 1210736">
                        <g id="Grupo_1210537" data-name="Grupo 1210537">
                          <g id="Grupo_1164202" data-name="Grupo 1164202">
                            <g id="Grupo_1158168" data-name="Grupo 1158168">
                              <g id="Grupo_1152576" data-name="Grupo 1152576">
                                <g id="Grupo_1148633" data-name="Grupo 1148633">
                                  <g id="Grupo_1148525" data-name="Grupo 1148525">
                                    <g transform="matrix(1, 0, 0, 1, -9, -6)" filter="url(#Trazado_982547)">
                                      <g id="Trazado_982547-2" data-name="Trazado 982547" transform="translate(9 6)" fill="#fdf6e4">
                                        <path d="M 47.49999618530273 93.5 C 41.28936767578125 93.5 35.26533126831055 92.28396606445312 29.59518241882324 89.88570404052734 C 24.11771583557129 87.56893157958984 19.19812965393066 84.251953125 14.97308921813965 80.02690124511719 C 10.74803638458252 75.80186462402344 7.431062698364258 70.88227844238281 5.114289283752441 65.40480804443359 C 2.716022968292236 59.73466110229492 1.499996185302734 53.71062469482422 1.499996185302734 47.49999618530273 C 1.499996185302734 41.28936767578125 2.716022968292236 35.26533126831055 5.114289283752441 29.59518241882324 C 7.431062698364258 24.11771583557129 10.74803638458252 19.19812965393066 14.97308921813965 14.97308921813965 C 19.19812965393066 10.74803638458252 24.11771583557129 7.431062698364258 29.59518241882324 5.114289283752441 C 35.26533126831055 2.716022968292236 41.28936767578125 1.499996185302734 47.49999618530273 1.499996185302734 C 53.71062469482422 1.499996185302734 59.73466110229492 2.716022968292236 65.40480804443359 5.114289283752441 C 70.88227844238281 7.431062698364258 75.80186462402344 10.74803638458252 80.02690124511719 14.97308921813965 C 84.251953125 19.19812965393066 87.56893157958984 24.11771583557129 89.88570404052734 29.59518241882324 C 92.28396606445312 35.26533126831055 93.5 41.28936767578125 93.5 47.49999618530273 C 93.5 53.71062469482422 92.28396606445312 59.73466110229492 89.88570404052734 65.40480804443359 C 87.56893157958984 70.88227844238281 84.251953125 75.80186462402344 80.02690124511719 80.02690124511719 C 75.80186462402344 84.251953125 70.88227844238281 87.56893157958984 65.40480804443359 89.88570404052734 C 59.73466110229492 92.28396606445312 53.71062469482422 93.5 47.49999618530273 93.5 Z" stroke="none"/>
                                        <path d="M 47.49999618530273 2.999992370605469 C 41.4912109375 2.999992370605469 35.66376495361328 4.1761474609375 30.17950439453125 6.495796203613281 C 24.88084411621094 8.736953735351562 20.12152099609375 11.94598388671875 16.03375244140625 16.03375244140625 C 11.94598388671875 20.12152099609375 8.736953735351562 24.88084411621094 6.495796203613281 30.17950439453125 C 4.1761474609375 35.66376495361328 2.999992370605469 41.4912109375 2.999992370605469 47.49999618530273 C 2.999992370605469 53.50878143310547 4.1761474609375 59.33622741699219 6.495796203613281 64.82048797607422 C 8.736953735351562 70.11914825439453 11.94598388671875 74.87847137451172 16.03375244140625 78.96623992919922 C 20.12152099609375 83.05400848388672 24.88084411621094 86.26304626464844 30.17950439453125 88.50419616699219 C 35.66376495361328 90.82384490966797 41.4912109375 92 47.49999618530273 92 C 53.50878143310547 92 59.33622741699219 90.82384490966797 64.82048797607422 88.50419616699219 C 70.11914825439453 86.26304626464844 74.87847137451172 83.05400848388672 78.96623992919922 78.96623992919922 C 83.05400848388672 74.87847137451172 86.26304626464844 70.11914825439453 88.50419616699219 64.82048797607422 C 90.82384490966797 59.33622741699219 92 53.50878143310547 92 47.49999618530273 C 92 41.4912109375 90.82384490966797 35.66376495361328 88.50419616699219 30.17950439453125 C 86.26304626464844 24.88084411621094 83.05400848388672 20.12152099609375 78.96623992919922 16.03375244140625 C 74.87847137451172 11.94598388671875 70.11914825439453 8.736953735351562 64.82048797607422 6.495796203613281 C 59.33622741699219 4.1761474609375 53.50878143310547 2.999992370605469 47.49999618530273 2.999992370605469 M 47.49999618530273 -7.62939453125e-06 C 73.7335205078125 -7.62939453125e-06 95 21.26647186279297 95 47.49999618530273 C 95 73.7335205078125 73.7335205078125 95 47.49999618530273 95 C 21.26647186279297 95 -7.62939453125e-06 73.7335205078125 -7.62939453125e-06 47.49999618530273 C -7.62939453125e-06 21.26647186279297 21.26647186279297 -7.62939453125e-06 47.49999618530273 -7.62939453125e-06 Z" stroke="none" fill="#f5b104"/>
                                      </g>
                                    </g>
                                  </g>
                                </g>
                              </g>
                            </g>
                          </g>
                        </g>
                      </g>
                    </g>
                  </g>
                </g>
              </g>
            </g>
          </g>
        </g>
      </g>
    </g>
    <g id="mensaje" transform="translate(296.188 595.282)">
      <g id="Icons" transform="translate(1.051 1.051)">
        <path id="Trazado_1058547" data-name="Trazado 1058547" d="M41.749,12h13.92a6.308,6.308,0,0,1,6.308,6.308V47.745a6.308,6.308,0,0,1-6.308,6.308h-14.9a2.109,2.109,0,0,0-1.493.62l-6.308,6.119a2.075,2.075,0,0,1-2.965,0L23.7,54.673a2.109,2.109,0,0,0-1.493-.62H7.308A6.308,6.308,0,0,1,1,47.745V18.308A6.308,6.308,0,0,1,7.308,12Z" transform="translate(-1 -0.435)" fill="#ffdf00"/>
        <path id="Trazado_1058548" data-name="Trazado 1058548" d="M34.713,52.62,28.5,58.648l.095.091a2.075,2.075,0,0,0,2.965,0l6.308-6.119A2.109,2.109,0,0,1,39.36,52H36.206A2.109,2.109,0,0,0,34.713,52.62Z" transform="translate(0.411 1.617)" fill="#fec108"/>
        <path id="Trazado_1058549" data-name="Trazado 1058549" d="M53.154,12H50a6.308,6.308,0,0,1,6.308,6.308V47.745A6.308,6.308,0,0,1,50,54.053h3.154a6.308,6.308,0,0,0,6.308-6.308V18.308A6.308,6.308,0,0,0,53.154,12Z" transform="translate(1.515 -0.435)" fill="#fec108"/>
        <path id="Trazado_1058550" data-name="Trazado 1058550" d="M50.109,26.482,35.432,3.449a5.282,5.282,0,0,0-8.915,0L11.841,26.482a5.3,5.3,0,0,0,4.458,8.16H45.651a5.3,5.3,0,0,0,4.458-8.16Z" transform="translate(-0.486 -1)" fill="#f44335"/>
        <path id="Trazado_1058551" data-name="Trazado 1058551" d="M49.211,26.483,34.535,3.448a5.267,5.267,0,0,0-6.035-2.2,5.211,5.211,0,0,1,2.881,2.2L46.057,26.483A5.3,5.3,0,0,1,41.6,34.642h3.154a5.3,5.3,0,0,0,4.458-8.159Z" transform="translate(0.411 -1)" fill="#c81e1e"/>
        <g id="Grupo_1226935" data-name="Grupo 1226935" transform="translate(27.334 6.308)">
          <path id="Trazado_1058552" data-name="Trazado 1058552" d="M33.308,10.154c0,1.742-1.412,11.565-3.154,11.565S27,11.9,27,10.154a3.154,3.154,0,1,1,6.308,0Z" transform="translate(-27 -7)" fill="#ffdf00"/>
          <circle id="Elipse_13549" data-name="Elipse 13549" cx="2.103" cy="2.103" r="2.103" transform="translate(1.051 18.924)" fill="#ffdf00"/>
        </g>
      </g>
      <g id="Icons_copy" data-name="Icons copy" transform="translate(0 0)">
        <path id="Trazado_1058553" data-name="Trazado 1058553" d="M55.72,11.565H42.383l-5.5-8.629a6.334,6.334,0,0,0-10.69,0l-5.5,8.629H7.359A7.369,7.369,0,0,0,0,18.924V48.361A7.369,7.369,0,0,0,7.359,55.72h14.9a1.064,1.064,0,0,1,.761.324l6.291,6.1a3.126,3.126,0,0,0,4.445.016l6.319-6.127a1.051,1.051,0,0,1,.75-.315h14.9a7.369,7.369,0,0,0,7.359-7.359V18.924a7.369,7.369,0,0,0-7.359-7.359Zm-27.755-7.5a4.229,4.229,0,0,1,7.141,0L49.782,27.1a4.254,4.254,0,0,1-3.566,6.544H16.863A4.254,4.254,0,0,1,13.289,27.1Zm33.012,44.3a5.263,5.263,0,0,1-5.257,5.257h-14.9a3.129,3.129,0,0,0-2.225.917l-6.323,6.134a1.039,1.039,0,0,1-1.484-.016l-6.3-6.107a3.138,3.138,0,0,0-2.239-.928H7.359A5.263,5.263,0,0,1,2.1,48.361V18.924a5.263,5.263,0,0,1,5.257-5.257h12l-7.839,12.3a6.357,6.357,0,0,0,5.345,9.777H46.216a6.357,6.357,0,0,0,5.345-9.777l-7.839-12.3h12a5.263,5.263,0,0,1,5.257,5.257Z" transform="translate(0 0)"/>
        <path id="Trazado_1058554" data-name="Trazado 1058554" d="M30.205,22.821c3.295,0,4.205-12.49,4.205-12.616a4.205,4.205,0,1,0-8.411,0C26,10.331,26.91,22.821,30.205,22.821Zm0-14.719a2.1,2.1,0,0,1,2.1,2.1c0,1.821-1.1,8.434-2.1,10.223-1-1.787-2.1-8.4-2.1-10.223a2.1,2.1,0,0,1,2.1-2.1Z" transform="translate(1.334 0.308)"/>
        <path id="Trazado_1058555" data-name="Trazado 1058555" d="M30.154,24a3.154,3.154,0,1,0,3.154,3.154A3.154,3.154,0,0,0,30.154,24Zm0,4.205a1.051,1.051,0,1,1,1.051-1.051A1.051,1.051,0,0,1,30.154,28.205Z" transform="translate(1.386 1.232)"/>
        <path id="Trazado_1058556" data-name="Trazado 1058556" d="M45.488,36H16.051a1.051,1.051,0,0,0,0,2.1H45.488a1.051,1.051,0,0,0,0-2.1Z" transform="translate(0.77 1.847)"/>
        <path id="Trazado_1058557" data-name="Trazado 1058557" d="M16.051,43.1H26.565a1.051,1.051,0,1,0,0-2.1H16.051a1.051,1.051,0,0,0,0,2.1Z" transform="translate(0.77 2.104)"/>
        <path id="Trazado_1058558" data-name="Trazado 1058558" d="M44.77,41H30.051a1.051,1.051,0,1,0,0,2.1H44.77a1.051,1.051,0,1,0,0-2.1Z" transform="translate(1.488 2.104)"/>
        <path id="Trazado_1058559" data-name="Trazado 1058559" d="M45.488,46H16.051a1.051,1.051,0,0,0,0,2.1H45.488a1.051,1.051,0,1,0,0-2.1Z" transform="translate(0.77 2.361)"/>
      </g>
    </g>
  </g>
</svg>
