<svg xmlns="http://www.w3.org/2000/svg" xmlns:xlink="http://www.w3.org/1999/xlink" width="113" height="113" viewBox="0 0 113 113">
  <defs>
    <filter id="Trazado_982547" x="0" y="0" width="113" height="113" filterUnits="userSpaceOnUse">
      <feOffset dy="3" input="SourceAlpha"/>
      <feGaussianBlur stdDeviation="3" result="blur"/>
      <feFlood flood-opacity="0.161"/>
      <feComposite operator="in" in2="blur"/>
      <feComposite in="SourceGraphic"/>
    </filter>
  </defs>
  <g id="Grupo_1226939" data-name="Grupo 1226939" transform="translate(-585.737 -573.323)">
    <g id="Grupo_1226584" data-name="Grupo 1226584" transform="translate(0.344 -2964)">
      <g id="Grupo_1226284" data-name="Grupo 1226284" transform="translate(-0.429 -6427.152)">
        <g id="Grupo_1225529" data-name="Grupo 1225529" transform="translate(0.313 8669.134)">
          <g id="Grupo_1225176" data-name="Grupo 1225176" transform="translate(0 -3445.654)">
            <g id="Grupo_1224647" data-name="Grupo 1224647" transform="translate(0 1927)">
              <g id="Grupo_1224292" data-name="Grupo 1224292" transform="translate(0 859.245)">
                <g id="Grupo_1224092" data-name="Grupo 1224092" transform="translate(-88.49 -2620.317)">
                  <g id="Grupo_1223184" data-name="Grupo 1223184" transform="translate(683 4581.069)">
                    <g id="Grupo_1211216" data-name="Grupo 1211216" transform="translate(0)">
                      <g id="Grupo_1210737" data-name="Grupo 1210737">
                        <g id="Grupo_1210537" data-name="Grupo 1210537">
                          <g id="Grupo_1164202" data-name="Grupo 1164202">
                            <g id="Grupo_1158168" data-name="Grupo 1158168">
                              <g id="Grupo_1152576" data-name="Grupo 1152576">
                                <g id="Grupo_1148633" data-name="Grupo 1148633">
                                  <g id="Grupo_1148525" data-name="Grupo 1148525">
                                    <g transform="matrix(1, 0, 0, 1, -9, -6)" filter="url(#Trazado_982547)">
                                      <g id="Trazado_982547-2" data-name="Trazado 982547" transform="translate(9 6)" fill="#fdf6e4">
                                        <path d="M 47.49999618530273 93.5 C 41.28936767578125 93.5 35.26533126831055 92.28396606445312 29.59518241882324 89.88570404052734 C 24.11771583557129 87.56893157958984 19.19812965393066 84.251953125 14.97308921813965 80.02690124511719 C 10.74803638458252 75.80186462402344 7.431062698364258 70.88227844238281 5.114289283752441 65.40480804443359 C 2.716022968292236 59.73466110229492 1.499996185302734 53.71062469482422 1.499996185302734 47.49999618530273 C 1.499996185302734 41.28936767578125 2.716022968292236 35.26533126831055 5.114289283752441 29.59518241882324 C 7.431062698364258 24.11771583557129 10.74803638458252 19.19812965393066 14.97308921813965 14.97308921813965 C 19.19812965393066 10.74803638458252 24.11771583557129 7.431062698364258 29.59518241882324 5.114289283752441 C 35.26533126831055 2.716022968292236 41.28936767578125 1.499996185302734 47.49999618530273 1.499996185302734 C 53.71062469482422 1.499996185302734 59.73466110229492 2.716022968292236 65.40480804443359 5.114289283752441 C 70.88227844238281 7.431062698364258 75.80186462402344 10.74803638458252 80.02690124511719 14.97308921813965 C 84.251953125 19.19812965393066 87.56893157958984 24.11771583557129 89.88570404052734 29.59518241882324 C 92.28396606445312 35.26533126831055 93.5 41.28936767578125 93.5 47.49999618530273 C 93.5 53.71062469482422 92.28396606445312 59.73466110229492 89.88570404052734 65.40480804443359 C 87.56893157958984 70.88227844238281 84.251953125 75.80186462402344 80.02690124511719 80.02690124511719 C 75.80186462402344 84.251953125 70.88227844238281 87.56893157958984 65.40480804443359 89.88570404052734 C 59.73466110229492 92.28396606445312 53.71062469482422 93.5 47.49999618530273 93.5 Z" stroke="none"/>
                                        <path d="M 47.49999618530273 2.999992370605469 C 41.4912109375 2.999992370605469 35.66376495361328 4.1761474609375 30.17950439453125 6.495796203613281 C 24.88084411621094 8.736953735351562 20.12152099609375 11.94598388671875 16.03375244140625 16.03375244140625 C 11.94598388671875 20.12152099609375 8.736953735351562 24.88084411621094 6.495796203613281 30.17950439453125 C 4.1761474609375 35.66376495361328 2.999992370605469 41.4912109375 2.999992370605469 47.49999618530273 C 2.999992370605469 53.50878143310547 4.1761474609375 59.33622741699219 6.495796203613281 64.82048797607422 C 8.736953735351562 70.11914825439453 11.94598388671875 74.87847137451172 16.03375244140625 78.96623992919922 C 20.12152099609375 83.05400848388672 24.88084411621094 86.26304626464844 30.17950439453125 88.50419616699219 C 35.66376495361328 90.82384490966797 41.4912109375 92 47.49999618530273 92 C 53.50878143310547 92 59.33622741699219 90.82384490966797 64.82048797607422 88.50419616699219 C 70.11914825439453 86.26304626464844 74.87847137451172 83.05400848388672 78.96623992919922 78.96623992919922 C 83.05400848388672 74.87847137451172 86.26304626464844 70.11914825439453 88.50419616699219 64.82048797607422 C 90.82384490966797 59.33622741699219 92 53.50878143310547 92 47.49999618530273 C 92 41.4912109375 90.82384490966797 35.66376495361328 88.50419616699219 30.17950439453125 C 86.26304626464844 24.88084411621094 83.05400848388672 20.12152099609375 78.96623992919922 16.03375244140625 C 74.87847137451172 11.94598388671875 70.11914825439453 8.736953735351562 64.82048797607422 6.495796203613281 C 59.33622741699219 4.1761474609375 53.50878143310547 2.999992370605469 47.49999618530273 2.999992370605469 M 47.49999618530273 -7.62939453125e-06 C 73.7335205078125 -7.62939453125e-06 95 21.26647186279297 95 47.49999618530273 C 95 73.7335205078125 73.7335205078125 95 47.49999618530273 95 C 21.26647186279297 95 -7.62939453125e-06 73.7335205078125 -7.62939453125e-06 47.49999618530273 C -7.62939453125e-06 21.26647186279297 21.26647186279297 -7.62939453125e-06 47.49999618530273 -7.62939453125e-06 Z" stroke="none" fill="#f5b104"/>
                                      </g>
                                    </g>
                                  </g>
                                </g>
                              </g>
                            </g>
                          </g>
                        </g>
                      </g>
                    </g>
                  </g>
                </g>
              </g>
            </g>
          </g>
        </g>
      </g>
    </g>
    <g id="archivo_3_" data-name="archivo (3)" transform="translate(613.173 578.179)">
      <g id="Grupo_1226937" data-name="Grupo 1226937" transform="translate(0.853 22.948)">
        <path id="Trazado_1058560" data-name="Trazado 1058560" d="M63.92,38.309V73.058A2.845,2.845,0,0,1,61.076,75.9H10.344A2.845,2.845,0,0,1,7.5,73.058V32.439a2.845,2.845,0,0,1,2.844-2.844h16.5a2.844,2.844,0,0,1,2.844,2.844v1.888a1.138,1.138,0,0,0,1.138,1.138H61.076A2.844,2.844,0,0,1,63.92,38.309Z" transform="translate(-7.5 -29.595)" fill="#ffe177"/>
        <path id="Trazado_1058561" data-name="Trazado 1058561" d="M13.758,75.9H10.344A2.845,2.845,0,0,1,7.5,73.058V32.439a2.845,2.845,0,0,1,2.844-2.844h3.413a2.845,2.845,0,0,0-2.844,2.844V73.058A2.845,2.845,0,0,0,13.758,75.9Z" transform="translate(-7.5 -29.595)" fill="#ffd15b"/>
        <path id="Trazado_1058562" data-name="Trazado 1058562" d="M244.326,347.514l-.813.681a2.863,2.863,0,0,1-4.033-.357l-9.757-11.65,5.2-4.357,9.757,11.65A2.863,2.863,0,0,1,244.326,347.514Z" transform="translate(-204.439 -297.443)" fill="#685e68"/>
        <path id="Trazado_1058563" data-name="Trazado 1058563" d="M241.761,371.562a2.863,2.863,0,0,1-4.033-.357l-10.034-11.981-1.1.919,10.04,11.988a2.863,2.863,0,0,0,4.033.357l.94-.787c.053-.045.1-.091.153-.139Z" transform="translate(-201.669 -321.72)" fill="#554e56"/>
        <path id="Trazado_1058564" data-name="Trazado 1058564" d="M190.524,298.956l3.774,4.192a.953.953,0,0,0,1.343.119l6.442-5.4a.953.953,0,0,0,.119-1.343l-3.774-4.192Z" transform="translate(-169.7 -262.443)" fill="#fe646f"/>
        <path id="Trazado_1058565" data-name="Trazado 1058565" d="M195.274,346.339a.976.976,0,0,1-1.376-.122l-3.859-4.287-1.1.919,3.865,4.294a.977.977,0,0,0,1.376.122l1.13-.947Z" transform="translate(-168.297 -306.393)" fill="#fd4755"/>
        <circle id="Elipse_13550" data-name="Elipse 13550" cx="14.436" cy="14.436" r="14.436" transform="translate(3.257 9.181)" fill="#685e68"/>
        <circle id="Elipse_13551" data-name="Elipse 13551" cx="10.59" cy="10.59" r="10.59" transform="translate(7.103 13.027)" fill="#f5f8f9"/>
        <path id="Trazado_1058566" data-name="Trazado 1058566" d="M82.23,165.129a10.591,10.591,0,1,1,0-20.906,10.592,10.592,0,0,0,0,20.906Z" transform="translate(-62.829 -131.06)" fill="#e8edf2"/>
        <path id="Trazado_1058567" data-name="Trazado 1058567" d="M52.1,139.073a14.437,14.437,0,1,1-.016-28.711,14.437,14.437,0,0,0,.016,28.711Z" transform="translate(-32.866 -101.1)" fill="#554e56"/>
      </g>
      <g id="Grupo_1226938" data-name="Grupo 1226938" transform="translate(0 22.095)">
        <path id="Trazado_1058568" data-name="Trazado 1058568" d="M11.158,68.4H3.7a1.993,1.993,0,0,1-1.991-1.991V25.793A1.993,1.993,0,0,1,3.7,23.8H20.2a1.993,1.993,0,0,1,1.991,1.991V27.68a1.993,1.993,0,0,0,1.991,1.991H46.995a.853.853,0,0,0,0-1.707H24.178a.285.285,0,0,1-.284-.284V25.793a3.7,3.7,0,0,0-3.7-3.7H3.7a3.7,3.7,0,0,0-3.7,3.7V66.411a3.7,3.7,0,0,0,3.7,3.7h7.46a.853.853,0,1,0,0-1.707Z" transform="translate(0 -22.095)"/>
        <path id="Trazado_1058569" data-name="Trazado 1058569" d="M79.789,73.685H76.337a.853.853,0,1,0,0,1.707h3.452a1.993,1.993,0,0,1,1.991,1.991v34.749a1.993,1.993,0,0,1-1.991,1.991h-12.8L59.184,104.8a1.808,1.808,0,0,0,.185-2.508L57.28,99.8a15.3,15.3,0,1,0-14.72,7.8q.689.061,1.373.061a15.221,15.221,0,0,0,3.912-.509c.033.1,2.312,2.855,2.312,2.855a1.8,1.8,0,0,0,1.226.64q.082.007.162.007a1.791,1.791,0,0,0,1.128-.4l3.24,3.868H40.5a.853.853,0,1,0,0,1.707H57.342l3.144,3.754a3.692,3.692,0,0,0,2.521,1.316q.168.015.335.015a3.686,3.686,0,0,0,2.379-.867l.813-.681a3.719,3.719,0,0,0,1.265-3.536h11.99a3.7,3.7,0,0,0,3.7-3.7V77.383A3.7,3.7,0,0,0,79.789,73.685ZM42.71,105.9a13.583,13.583,0,1,1,9.917-3.117A13.493,13.493,0,0,1,42.71,105.9Zm8.823,3.046a.1.1,0,0,1-.068-.035L49.527,106.6a15.45,15.45,0,0,0,6.792-5.289l1.742,2.08a.1.1,0,0,1-.012.141l-6.442,5.4a.1.1,0,0,1-.073.023Zm13.906,9.11-.813.681a2.009,2.009,0,0,1-2.83-.251l-7.813-9.328,3.895-3.262,7.812,9.327a2.013,2.013,0,0,1-.251,2.832Z" transform="translate(-25.36 -67.815)"/>
        <path id="Trazado_1058570" data-name="Trazado 1058570" d="M82.685,141.479a11.437,11.437,0,1,0-1.426,16.12,11.456,11.456,0,0,0,1.426-16.12ZM80.164,156.29a9.733,9.733,0,1,1,1.213-13.716,9.691,9.691,0,0,1-1.213,13.716Z" transform="translate(-55.366 -124.27)"/>
        <path id="Trazado_1058571" data-name="Trazado 1058571" d="M189.131,200.646a2.739,2.739,0,0,0-2.736,2.736v3.01a2.736,2.736,0,1,0,5.471,0v-3.01A2.739,2.739,0,0,0,189.131,200.646Zm1.029,5.746a1.029,1.029,0,1,1-2.058,0v-3.01a1.029,1.029,0,0,1,2.058,0Z" transform="translate(-165.187 -180.331)"/>
        <path id="Trazado_1058572" data-name="Trazado 1058572" d="M148.587,201.813H147.2a.853.853,0,1,0,0,1.707h.538v5.656a.853.853,0,1,0,1.707,0v-6.509A.853.853,0,0,0,148.587,201.813Z" transform="translate(-129.692 -181.365)"/>
        <path id="Trazado_1058573" data-name="Trazado 1058573" d="M94.263,200.646a2.739,2.739,0,0,0-2.736,2.736v3.01a2.736,2.736,0,1,0,5.471,0v-3.01A2.739,2.739,0,0,0,94.263,200.646Zm1.029,5.746a1.029,1.029,0,1,1-2.058,0v-3.01a1.029,1.029,0,0,1,2.058,0Z" transform="translate(-81.113 -180.331)"/>
        <path id="Trazado_1058574" data-name="Trazado 1058574" d="M311.164,214.271a.853.853,0,0,0,.853-.853v-5.259a.853.853,0,0,0-.853-.853h-1.135a.853.853,0,1,0,0,1.707h.282v4.406A.853.853,0,0,0,311.164,214.271Z" transform="translate(-273.999 -186.232)"/>
        <path id="Trazado_1058575" data-name="Trazado 1058575" d="M439.508,213.543a2.384,2.384,0,0,0,2.389-2.374v-2.432a2.389,2.389,0,0,0-4.778,0v2.432A2.384,2.384,0,0,0,439.508,213.543Zm-.682-4.806a.682.682,0,0,1,1.364,0v2.432a.682.682,0,0,1-1.364,0Z" transform="translate(-387.385 -185.397)"/>
        <path id="Trazado_1058576" data-name="Trazado 1058576" d="M400,207.306a.853.853,0,1,0,0,1.707h.282v4.406a.853.853,0,0,0,1.707,0v-5.259a.853.853,0,0,0-.853-.853Z" transform="translate(-353.729 -186.233)"/>
        <path id="Trazado_1058577" data-name="Trazado 1058577" d="M347.151,208.737v2.432a2.389,2.389,0,0,0,4.778,0v-2.432a2.389,2.389,0,0,0-4.778,0Zm3.071,0v2.432a.682.682,0,0,1-1.364,0v-2.432a.682.682,0,0,1,1.364,0Z" transform="translate(-307.653 -185.397)"/>
      </g>
    </g>
  </g>
</svg>
