<svg xmlns="http://www.w3.org/2000/svg" xmlns:xlink="http://www.w3.org/1999/xlink" width="113" height="113" viewBox="0 0 113 113">
  <defs>
    <filter id="Trazado_982547" x="0" y="0" width="113" height="113" filterUnits="userSpaceOnUse">
      <feOffset dy="3" input="SourceAlpha"/>
      <feGaussianBlur stdDeviation="3" result="blur"/>
      <feFlood flood-opacity="0.161"/>
      <feComposite operator="in" in2="blur"/>
      <feComposite in="SourceGraphic"/>
    </filter>
  </defs>
  <g id="Grupo_1226943" data-name="Grupo 1226943" transform="translate(-900.737 -573.323)">
    <g id="Grupo_1226585" data-name="Grupo 1226585" transform="translate(0.344 -2964)">
      <g id="Grupo_1226285" data-name="Grupo 1226285" transform="translate(-0.429 -6427.152)">
        <g id="Grupo_1225530" data-name="Grupo 1225530" transform="translate(0.313 8669.134)">
          <g id="Grupo_1225177" data-name="Grupo 1225177" transform="translate(0 -3445.654)">
            <g id="Grupo_1224648" data-name="Grupo 1224648" transform="translate(0 1927)">
              <g id="Grupo_1224293" data-name="Grupo 1224293" transform="translate(0 859.245)">
                <g id="Grupo_1224093" data-name="Grupo 1224093" transform="translate(226.51 -2620.317)">
                  <g id="Grupo_1223184" data-name="Grupo 1223184" transform="translate(683 4581.069)">
                    <g id="Grupo_1211216" data-name="Grupo 1211216" transform="translate(0)">
                      <g id="Grupo_1210737" data-name="Grupo 1210737">
                        <g id="Grupo_1210537" data-name="Grupo 1210537">
                          <g id="Grupo_1164202" data-name="Grupo 1164202">
                            <g id="Grupo_1158168" data-name="Grupo 1158168">
                              <g id="Grupo_1152576" data-name="Grupo 1152576">
                                <g id="Grupo_1148633" data-name="Grupo 1148633">
                                  <g id="Grupo_1148525" data-name="Grupo 1148525">
                                    <g transform="matrix(1, 0, 0, 1, -9, -6)" filter="url(#Trazado_982547)">
                                      <g id="Trazado_982547-2" data-name="Trazado 982547" transform="translate(9 6)" fill="#fdf6e4">
                                        <path d="M 47.49999618530273 93.5 C 41.28936767578125 93.5 35.26533126831055 92.28396606445312 29.59518241882324 89.88570404052734 C 24.11771583557129 87.56893157958984 19.19812965393066 84.251953125 14.97308921813965 80.02690124511719 C 10.74803638458252 75.80186462402344 7.431062698364258 70.88227844238281 5.114289283752441 65.40480804443359 C 2.716022968292236 59.73466110229492 1.499996185302734 53.71062469482422 1.499996185302734 47.49999618530273 C 1.499996185302734 41.28936767578125 2.716022968292236 35.26533126831055 5.114289283752441 29.59518241882324 C 7.431062698364258 24.11771583557129 10.74803638458252 19.19812965393066 14.97308921813965 14.97308921813965 C 19.19812965393066 10.74803638458252 24.11771583557129 7.431062698364258 29.59518241882324 5.114289283752441 C 35.26533126831055 2.716022968292236 41.28936767578125 1.499996185302734 47.49999618530273 1.499996185302734 C 53.71062469482422 1.499996185302734 59.73466110229492 2.716022968292236 65.40480804443359 5.114289283752441 C 70.88227844238281 7.431062698364258 75.80186462402344 10.74803638458252 80.02690124511719 14.97308921813965 C 84.251953125 19.19812965393066 87.56893157958984 24.11771583557129 89.88570404052734 29.59518241882324 C 92.28396606445312 35.26533126831055 93.5 41.28936767578125 93.5 47.49999618530273 C 93.5 53.71062469482422 92.28396606445312 59.73466110229492 89.88570404052734 65.40480804443359 C 87.56893157958984 70.88227844238281 84.251953125 75.80186462402344 80.02690124511719 80.02690124511719 C 75.80186462402344 84.251953125 70.88227844238281 87.56893157958984 65.40480804443359 89.88570404052734 C 59.73466110229492 92.28396606445312 53.71062469482422 93.5 47.49999618530273 93.5 Z" stroke="none"/>
                                        <path d="M 47.49999618530273 2.999992370605469 C 41.4912109375 2.999992370605469 35.66376495361328 4.1761474609375 30.17950439453125 6.495796203613281 C 24.88084411621094 8.736953735351562 20.12152099609375 11.94598388671875 16.03375244140625 16.03375244140625 C 11.94598388671875 20.12152099609375 8.736953735351562 24.88084411621094 6.495796203613281 30.17950439453125 C 4.1761474609375 35.66376495361328 2.999992370605469 41.4912109375 2.999992370605469 47.49999618530273 C 2.999992370605469 53.50878143310547 4.1761474609375 59.33622741699219 6.495796203613281 64.82048797607422 C 8.736953735351562 70.11914825439453 11.94598388671875 74.87847137451172 16.03375244140625 78.96623992919922 C 20.12152099609375 83.05400848388672 24.88084411621094 86.26304626464844 30.17950439453125 88.50419616699219 C 35.66376495361328 90.82384490966797 41.4912109375 92 47.49999618530273 92 C 53.50878143310547 92 59.33622741699219 90.82384490966797 64.82048797607422 88.50419616699219 C 70.11914825439453 86.26304626464844 74.87847137451172 83.05400848388672 78.96623992919922 78.96623992919922 C 83.05400848388672 74.87847137451172 86.26304626464844 70.11914825439453 88.50419616699219 64.82048797607422 C 90.82384490966797 59.33622741699219 92 53.50878143310547 92 47.49999618530273 C 92 41.4912109375 90.82384490966797 35.66376495361328 88.50419616699219 30.17950439453125 C 86.26304626464844 24.88084411621094 83.05400848388672 20.12152099609375 78.96623992919922 16.03375244140625 C 74.87847137451172 11.94598388671875 70.11914825439453 8.736953735351562 64.82048797607422 6.495796203613281 C 59.33622741699219 4.1761474609375 53.50878143310547 2.999992370605469 47.49999618530273 2.999992370605469 M 47.49999618530273 -7.62939453125e-06 C 73.7335205078125 -7.62939453125e-06 95 21.26647186279297 95 47.49999618530273 C 95 73.7335205078125 73.7335205078125 95 47.49999618530273 95 C 21.26647186279297 95 -7.62939453125e-06 73.7335205078125 -7.62939453125e-06 47.49999618530273 C -7.62939453125e-06 21.26647186279297 21.26647186279297 -7.62939453125e-06 47.49999618530273 -7.62939453125e-06 Z" stroke="none" fill="#f5b104"/>
                                      </g>
                                    </g>
                                  </g>
                                </g>
                              </g>
                            </g>
                          </g>
                        </g>
                      </g>
                    </g>
                  </g>
                </g>
              </g>
            </g>
          </g>
        </g>
      </g>
    </g>
    <g id="documentos_3_" data-name="documentos (3)" transform="translate(899.909 598.284)">
      <g id="Grupo_1226941" data-name="Grupo 1226941" transform="translate(33.241 0.831)">
        <path id="Trazado_1058578" data-name="Trazado 1058578" d="M424.893,136.5h-.008l-.331.195v5.741h5.031l.275-.234v-.735A4.981,4.981,0,0,0,424.893,136.5Z" transform="translate(-381.677 -122.116)" fill="#ffa90f"/>
        <path id="Trazado_1058579" data-name="Trazado 1058579" d="M156.133,8.256l-.355-.8H131.4A1.842,1.842,0,0,0,129.559,9.3v3.179l.766.628h20.437l6.709,6.522v8.305h4.775l.531-.388V14.457l-.828-.366Z" transform="translate(-119.569 -7.457)" fill="#62ddfc"/>
        <g id="Grupo_1226940" data-name="Grupo 1226940" transform="translate(9.99 0)">
          <path id="Trazado_1058580" data-name="Trazado 1058580" d="M135.272,9.3a1.842,1.842,0,0,1,1.842-1.842H131.4A1.842,1.842,0,0,0,129.559,9.3v3.179l.766.628h5.713l-.766-.628V9.3Z" transform="translate(-129.559 -7.457)" fill="#00d2fc"/>
        </g>
        <path id="Trazado_1058581" data-name="Trazado 1058581" d="M44.919,136.5h-.1a4.887,4.887,0,0,0-4.872,4.872v.83l.481.133h4.868v-5.522Z" transform="translate(-39.945 -122.116)" fill="#ffa90f"/>
        <path id="Trazado_1058582" data-name="Trazado 1058582" d="M364.741,7.457v5.158a1.842,1.842,0,0,0,1.842,1.842h5.158Z" transform="translate(-328.532 -7.457)" fill="#00d2fc"/>
        <path id="Trazado_1058583" data-name="Trazado 1058583" d="M111.212,53.553l-.429-1.055H86.406a1.842,1.842,0,0,0-1.842,1.842V67.565l.722.722H115.8l1.983-.722V59.5l-1.033-.482Z" transform="translate(-79.59 -47.477)" fill="#dbedff"/>
        <path id="Trazado_1058584" data-name="Trazado 1058584" d="M90.278,54.339A1.842,1.842,0,0,1,92.119,52.5H86.407a1.842,1.842,0,0,0-1.842,1.842V67.564l.722.722H91l-.722-.722Z" transform="translate(-79.591 -47.476)" fill="#b5dcff"/>
        <path id="Trazado_1058585" data-name="Trazado 1058585" d="M319.746,52.5v5.158a1.842,1.842,0,0,0,1.842,1.842h5.158Z" transform="translate(-288.553 -47.477)" fill="#b5dcff"/>
        <path id="Trazado_1058586" data-name="Trazado 1058586" d="M367.751,12.615V10.467l-3.01-3.01v5.158a1.842,1.842,0,0,0,1.842,1.842h3.01A1.842,1.842,0,0,1,367.751,12.615Z" transform="translate(-328.532 -7.457)" fill="#00c2fb"/>
        <path id="Trazado_1058587" data-name="Trazado 1058587" d="M322.756,57.656V55.508l-3.01-3.01v5.158a1.842,1.842,0,0,0,1.842,1.842h3.01A1.842,1.842,0,0,1,322.756,57.656Z" transform="translate(-288.553 -47.477)" fill="#8bcaff"/>
        <path id="Trazado_1058588" data-name="Trazado 1058588" d="M88.128,187.649H39.945v33.838a1.481,1.481,0,0,0,1.481,1.481H86.648a1.481,1.481,0,0,0,1.481-1.481Z" transform="translate(-39.945 -167.561)" fill="#ffd086"/>
        <path id="Trazado_1058589" data-name="Trazado 1058589" d="M47.046,221.487V187.649h-7.1v33.838a1.481,1.481,0,0,0,1.481,1.481h7.1A1.481,1.481,0,0,1,47.046,221.487Z" transform="translate(-39.945 -167.561)" fill="#ffc365"/>
        <path id="Trazado_1058590" data-name="Trazado 1058590" d="M274.737,320H256.994a.948.948,0,0,0-.948.948v13.967a.948.948,0,0,0,.948.948h17.744a.948.948,0,0,0,.948-.948V320.95A.948.948,0,0,0,274.737,320Z" transform="translate(-231.954 -285.159)" fill="#dbedff"/>
        <path id="Trazado_1058591" data-name="Trazado 1058591" d="M260.5,334.916V320.95a.948.948,0,0,1,.948-.948h-4.453a.948.948,0,0,0-.948.948v13.967a.948.948,0,0,0,.948.948h4.453A.948.948,0,0,1,260.5,334.916Z" transform="translate(-231.954 -285.159)" fill="#b5dcff"/>
      </g>
      <g id="Grupo_1226942" data-name="Grupo 1226942" transform="translate(32.4 0)">
        <path id="Trazado_1058592" data-name="Trazado 1058592" d="M37.374,14.435a5.716,5.716,0,0,0-4.974,5.66V54.763a2.319,2.319,0,0,0,2.317,2.317H79.939a2.32,2.32,0,0,0,2.317-2.317V39.629a.836.836,0,1,0-1.672,0V54.763a.645.645,0,0,1-.645.645H34.717a.645.645,0,0,1-.644-.645v-33H80.583V35.727a.836.836,0,0,0,1.672,0V20.189a5.811,5.811,0,0,0-4.974-5.743V7.836a.84.84,0,0,0-.245-.591l-7-7A.844.844,0,0,0,69.445,0H45.068A2.681,2.681,0,0,0,42.39,2.678V5.021H40.052A2.681,2.681,0,0,0,37.374,7.7Zm0,5.653h-3.3a4.043,4.043,0,0,1,3.3-3.963Zm39.907-3.946a4.138,4.138,0,0,1,3.3,3.946h-3.3Zm-7-13.287L74.426,7H71.287a1.007,1.007,0,0,1-1.006-1.006ZM44.063,2.678a1.007,1.007,0,0,1,1.006-1.006H68.609V5.994a2.681,2.681,0,0,0,2.678,2.678h4.322V20.088H72.265V12.857a.84.84,0,0,0-.245-.591l-7-7a.846.846,0,0,0-.591-.245H44.063ZM69.41,12.021H66.271a1.007,1.007,0,0,1-1.006-1.006V7.876ZM39.047,7.7a1.007,1.007,0,0,1,1.006-1.006H63.593v4.322a2.681,2.681,0,0,0,2.678,2.678h4.322v6.4H39.047Z" transform="translate(-32.4 0)"/>
        <path id="Trazado_1058593" data-name="Trazado 1058593" d="M296.234,425.126H284.417a.836.836,0,1,0,0,1.672h11.817a.836.836,0,1,0,0-1.672Z" transform="translate(-255.579 -377.732)"/>
        <path id="Trazado_1058594" data-name="Trazado 1058594" d="M296.234,397.5H284.417a.836.836,0,1,0,0,1.672h11.817a.836.836,0,1,0,0-1.672Z" transform="translate(-255.579 -353.185)"/>
        <path id="Trazado_1058595" data-name="Trazado 1058595" d="M296.234,369.873H284.417a.836.836,0,1,0,0,1.672h11.817a.836.836,0,0,0,0-1.672Z" transform="translate(-255.579 -328.638)"/>
        <path id="Trazado_1058596" data-name="Trazado 1058596" d="M296.234,342.246H284.417a.836.836,0,1,0,0,1.672h11.817a.836.836,0,1,0,0-1.672Z" transform="translate(-255.579 -304.091)"/>
        <path id="Trazado_1058597" data-name="Trazado 1058597" d="M142.427,149.617h-23a.836.836,0,1,0,0,1.672h23a.836.836,0,0,0,0-1.672Z" transform="translate(-108.981 -132.937)"/>
        <path id="Trazado_1058598" data-name="Trazado 1058598" d="M119.425,123.663h19.359a.836.836,0,0,0,0-1.672H119.425a.836.836,0,1,0,0,1.672Z" transform="translate(-108.98 -108.391)"/>
        <path id="Trazado_1058599" data-name="Trazado 1058599" d="M257.2,312.545h-6.921a1.786,1.786,0,0,0-1.784,1.784V328.3a1.786,1.786,0,0,0,1.784,1.784h17.744a1.786,1.786,0,0,0,1.784-1.784V314.329a1.786,1.786,0,0,0-1.784-1.784h-6.921a.836.836,0,1,0,0,1.672h6.921a.112.112,0,0,1,.111.111V328.3a.112.112,0,0,1-.111.111H250.284a.112.112,0,0,1-.111-.111V314.329a.112.112,0,0,1,.111-.111H257.2a.836.836,0,0,0,0-1.672Z" transform="translate(-224.408 -277.702)"/>
      </g>
    </g>
  </g>
</svg>
