<svg xmlns="http://www.w3.org/2000/svg" xmlns:xlink="http://www.w3.org/1999/xlink" width="113" height="113" viewBox="0 0 113 113">
  <defs>
    <filter id="Trazado_982547" x="0" y="0" width="113" height="113" filterUnits="userSpaceOnUse">
      <feOffset dy="3" input="SourceAlpha"/>
      <feGaussianBlur stdDeviation="3" result="blur"/>
      <feFlood flood-opacity="0.161"/>
      <feComposite operator="in" in2="blur"/>
      <feComposite in="SourceGraphic"/>
    </filter>
  </defs>
  <g id="Grupo_1226956" data-name="Grupo 1226956" transform="translate(-1216.46 -573.323)">
    <g id="Grupo_1226586" data-name="Grupo 1226586" transform="translate(0.344 -2964)">
      <g id="Grupo_1226287" data-name="Grupo 1226287" transform="translate(-0.429 -6427.152)">
        <g id="Grupo_1225531" data-name="Grupo 1225531" transform="translate(0.313 8669.134)">
          <g id="Grupo_1225179" data-name="Grupo 1225179" transform="translate(0 -3445.654)">
            <g id="Grupo_1224650" data-name="Grupo 1224650" transform="translate(0 1927)">
              <g id="Grupo_1224294" data-name="Grupo 1224294" transform="translate(0.723 859.245)">
                <g id="Grupo_1224094" data-name="Grupo 1224094" transform="translate(541.51 -2620.317)">
                  <g id="Grupo_1223184" data-name="Grupo 1223184" transform="translate(683 4581.069)">
                    <g id="Grupo_1211216" data-name="Grupo 1211216" transform="translate(0)">
                      <g id="Grupo_1210737" data-name="Grupo 1210737">
                        <g id="Grupo_1210537" data-name="Grupo 1210537">
                          <g id="Grupo_1164202" data-name="Grupo 1164202">
                            <g id="Grupo_1158168" data-name="Grupo 1158168">
                              <g id="Grupo_1152576" data-name="Grupo 1152576">
                                <g id="Grupo_1148633" data-name="Grupo 1148633">
                                  <g id="Grupo_1148525" data-name="Grupo 1148525">
                                    <g transform="matrix(1, 0, 0, 1, -9, -6)" filter="url(#Trazado_982547)">
                                      <g id="Trazado_982547-2" data-name="Trazado 982547" transform="translate(9 6)" fill="#fdf6e4">
                                        <path d="M 47.49999618530273 93.5 C 41.28936767578125 93.5 35.26533126831055 92.28396606445312 29.59518241882324 89.88570404052734 C 24.11771583557129 87.56893157958984 19.19812965393066 84.251953125 14.97308921813965 80.02690124511719 C 10.74803638458252 75.80186462402344 7.431062698364258 70.88227844238281 5.114289283752441 65.40480804443359 C 2.716022968292236 59.73466110229492 1.499996185302734 53.71062469482422 1.499996185302734 47.49999618530273 C 1.499996185302734 41.28936767578125 2.716022968292236 35.26533126831055 5.114289283752441 29.59518241882324 C 7.431062698364258 24.11771583557129 10.74803638458252 19.19812965393066 14.97308921813965 14.97308921813965 C 19.19812965393066 10.74803638458252 24.11771583557129 7.431062698364258 29.59518241882324 5.114289283752441 C 35.26533126831055 2.716022968292236 41.28936767578125 1.499996185302734 47.49999618530273 1.499996185302734 C 53.71062469482422 1.499996185302734 59.73466110229492 2.716022968292236 65.40480804443359 5.114289283752441 C 70.88227844238281 7.431062698364258 75.80186462402344 10.74803638458252 80.02690124511719 14.97308921813965 C 84.251953125 19.19812965393066 87.56893157958984 24.11771583557129 89.88570404052734 29.59518241882324 C 92.28396606445312 35.26533126831055 93.5 41.28936767578125 93.5 47.49999618530273 C 93.5 53.71062469482422 92.28396606445312 59.73466110229492 89.88570404052734 65.40480804443359 C 87.56893157958984 70.88227844238281 84.251953125 75.80186462402344 80.02690124511719 80.02690124511719 C 75.80186462402344 84.251953125 70.88227844238281 87.56893157958984 65.40480804443359 89.88570404052734 C 59.73466110229492 92.28396606445312 53.71062469482422 93.5 47.49999618530273 93.5 Z" stroke="none"/>
                                        <path d="M 47.49999618530273 2.999992370605469 C 41.4912109375 2.999992370605469 35.66376495361328 4.1761474609375 30.17950439453125 6.495796203613281 C 24.88084411621094 8.736953735351562 20.12152099609375 11.94598388671875 16.03375244140625 16.03375244140625 C 11.94598388671875 20.12152099609375 8.736953735351562 24.88084411621094 6.495796203613281 30.17950439453125 C 4.1761474609375 35.66376495361328 2.999992370605469 41.4912109375 2.999992370605469 47.49999618530273 C 2.999992370605469 53.50878143310547 4.1761474609375 59.33622741699219 6.495796203613281 64.82048797607422 C 8.736953735351562 70.11914825439453 11.94598388671875 74.87847137451172 16.03375244140625 78.96623992919922 C 20.12152099609375 83.05400848388672 24.88084411621094 86.26304626464844 30.17950439453125 88.50419616699219 C 35.66376495361328 90.82384490966797 41.4912109375 92 47.49999618530273 92 C 53.50878143310547 92 59.33622741699219 90.82384490966797 64.82048797607422 88.50419616699219 C 70.11914825439453 86.26304626464844 74.87847137451172 83.05400848388672 78.96623992919922 78.96623992919922 C 83.05400848388672 74.87847137451172 86.26304626464844 70.11914825439453 88.50419616699219 64.82048797607422 C 90.82384490966797 59.33622741699219 92 53.50878143310547 92 47.49999618530273 C 92 41.4912109375 90.82384490966797 35.66376495361328 88.50419616699219 30.17950439453125 C 86.26304626464844 24.88084411621094 83.05400848388672 20.12152099609375 78.96623992919922 16.03375244140625 C 74.87847137451172 11.94598388671875 70.11914825439453 8.736953735351562 64.82048797607422 6.495796203613281 C 59.33622741699219 4.1761474609375 53.50878143310547 2.999992370605469 47.49999618530273 2.999992370605469 M 47.49999618530273 -7.62939453125e-06 C 73.7335205078125 -7.62939453125e-06 95 21.26647186279297 95 47.49999618530273 C 95 73.7335205078125 73.7335205078125 95 47.49999618530273 95 C 21.26647186279297 95 -7.62939453125e-06 73.7335205078125 -7.62939453125e-06 47.49999618530273 C -7.62939453125e-06 21.26647186279297 21.26647186279297 -7.62939453125e-06 47.49999618530273 -7.62939453125e-06 Z" stroke="none" fill="#f5b104"/>
                                      </g>
                                    </g>
                                  </g>
                                </g>
                              </g>
                            </g>
                          </g>
                        </g>
                      </g>
                    </g>
                  </g>
                </g>
              </g>
            </g>
          </g>
        </g>
      </g>
    </g>
    <g id="operando_2_" data-name="operando (2)" transform="translate(1244.224 599.528)">
      <g id="Grupo_1226954" data-name="Grupo 1226954" transform="translate(1.911 1.911)">
        <g id="Grupo_1226944" data-name="Grupo 1226944" transform="translate(43.72 0)">
          <path id="Trazado_1058600" data-name="Trazado 1058600" d="M53.607,16.573l-.009.009a.443.443,0,0,0-.1-.128l-.647-.647a1.881,1.881,0,0,0-2.186-.346,1.741,1.741,0,0,1-.665.191V2H60.93V16.573Z" transform="translate(-50 -2)" fill="#e6e9ed"/>
        </g>
        <g id="Grupo_1226945" data-name="Grupo 1226945" transform="translate(21.86)">
          <path id="Trazado_1058601" data-name="Trazado 1058601" d="M36.93,9.287V15.28a1.844,1.844,0,0,0-1.029.528l-.647.647a.443.443,0,0,0-.1.128l-.009-.009H26V2H36.93Z" transform="translate(-26 -2)" fill="#e6e9ed"/>
        </g>
        <g id="Grupo_1226946" data-name="Grupo 1226946" transform="translate(0 0)">
          <path id="Trazado_1058602" data-name="Trazado 1058602" d="M12.93,9.287v7.287H2V2H12.93Z" transform="translate(-2 -2)" fill="#e6e9ed"/>
        </g>
        <g id="Grupo_1226947" data-name="Grupo 1226947" transform="translate(28.236 10.93)">
          <path id="Trazado_1058603" data-name="Trazado 1058603" d="M34.3,22.68a1.863,1.863,0,0,0,1.148-1.075l.137-.328a1.784,1.784,0,0,0,.146-.72,1.84,1.84,0,0,0-.2-.847,1.852,1.852,0,0,1,.246-2.059.443.443,0,0,1,.1-.128l.647-.647a1.844,1.844,0,0,1,1.029-.528,1.677,1.677,0,0,1,.3-.027,1.915,1.915,0,0,1,.856.209,1.85,1.85,0,0,0,1.567.055l.328-.137A1.863,1.863,0,0,0,41.68,15.3,1.9,1.9,0,0,1,43.475,14h.911a1.9,1.9,0,0,1,1.794,1.3,1.863,1.863,0,0,0,1.075,1.148l.328.137a1.784,1.784,0,0,0,.72.146,1.221,1.221,0,0,0,.182-.009,1.741,1.741,0,0,0,.665-.191,1.881,1.881,0,0,1,2.186.346l.647.647a.443.443,0,0,1,.1.128,1.8,1.8,0,0,1,.455,1.2,1.915,1.915,0,0,1-.209.856,1.85,1.85,0,0,0-.055,1.567l.137.328a1.863,1.863,0,0,0,1.148,1.075,1.9,1.9,0,0,1,1.3,1.794v.911a1.9,1.9,0,0,1-1.3,1.794,1.863,1.863,0,0,0-1.148,1.075l-.137.328a1.784,1.784,0,0,0-.146.72,1.84,1.84,0,0,0,.2.847,1.881,1.881,0,0,1-.346,2.186l-.647.647a1.885,1.885,0,0,1-1.33.556,1.915,1.915,0,0,1-.856-.209,1.85,1.85,0,0,0-1.567-.055l-.328.137a1.863,1.863,0,0,0-1.075,1.148,1.9,1.9,0,0,1-1.794,1.3h-.911a1.885,1.885,0,0,1-1.366-.583V30.085a5.467,5.467,0,1,0-3.643-5.155H33v-.455a1.9,1.9,0,0,1,1.3-1.794Z" transform="translate(-33 -14)" fill="#ffc729"/>
        </g>
        <g id="Grupo_1226948" data-name="Grupo 1226948" transform="translate(33.701 16.395)">
          <path id="Trazado_1058604" data-name="Trazado 1058604" d="M42.643,29.108A3.642,3.642,0,0,0,39,25.465a5.455,5.455,0,1,1,3.643,5.155Zm0-3.643a1.822,1.822,0,1,0,1.822-1.822A1.827,1.827,0,0,0,42.643,25.465Z" transform="translate(-39 -20)" fill="#fcd770"/>
        </g>
        <g id="Grupo_1226949" data-name="Grupo 1226949" transform="translate(0 47.364)">
          <path id="Trazado_1058605" data-name="Trazado 1058605" d="M40.255,54H3.822A1.835,1.835,0,0,0,2,55.822a5.469,5.469,0,0,0,5.465,5.465H36.612a5.473,5.473,0,0,0,5.465-5.465A1.827,1.827,0,0,0,40.255,54Z" transform="translate(-2 -54)" fill="#969faa"/>
        </g>
        <g id="Grupo_1226950" data-name="Grupo 1226950" transform="translate(14.573 47.364)">
          <path id="Trazado_1058606" data-name="Trazado 1058606" d="M28.93,54v1.822a1.827,1.827,0,0,1-1.822,1.822H19.822A1.827,1.827,0,0,1,18,55.822V54Z" transform="translate(-18 -54)" fill="#fcd770"/>
        </g>
        <g id="Grupo_1226951" data-name="Grupo 1226951" transform="translate(2.733 21.86)">
          <path id="Trazado_1058607" data-name="Trazado 1058607" d="M39.612,36.347V51.5H5V29.643A3.642,3.642,0,0,1,8.643,26H35.969a3.642,3.642,0,0,1,3.643,3.643v6.7Z" transform="translate(-5 -26)" fill="#ccd1d9"/>
        </g>
        <g id="Grupo_1226952" data-name="Grupo 1226952" transform="translate(6.376 25.504)">
          <path id="Trazado_1058608" data-name="Trazado 1058608" d="M36.325,30.911v16.4a.914.914,0,0,1-.911.911H9.911A.914.914,0,0,1,9,47.306v-16.4A.914.914,0,0,1,9.911,30h25.5A.914.914,0,0,1,36.325,30.911Z" transform="translate(-9 -30)" fill="#69d6f4"/>
        </g>
        <g id="Grupo_1226953" data-name="Grupo 1226953" transform="translate(10.019 29.147)">
          <path id="Trazado_1058609" data-name="Trazado 1058609" d="M29.4,37.643a3.643,3.643,0,1,1,0,7.287H16.643a3.643,3.643,0,1,1,0-7.287,3.714,3.714,0,0,1,1.157.2,5.465,5.465,0,0,1,10.438,0A3.714,3.714,0,0,1,29.4,37.643Z" transform="translate(-13 -34)" fill="#e6e9ed"/>
        </g>
      </g>
      <g id="Grupo_1226955" data-name="Grupo 1226955" transform="translate(1 1)">
        <path id="Trazado_1058610" data-name="Trazado 1058610" d="M35.325,29H9.822A1.824,1.824,0,0,0,8,30.822v16.4a1.824,1.824,0,0,0,1.822,1.822h25.5a1.824,1.824,0,0,0,1.822-1.822v-16.4A1.824,1.824,0,0,0,35.325,29ZM9.822,47.217v-16.4h25.5v16.4Z" transform="translate(-1.624 -3.496)"/>
        <path id="Trazado_1058611" data-name="Trazado 1058611" d="M28.714,36.687a6.38,6.38,0,0,0-11.568,0,4.552,4.552,0,1,0-.592,9.065H29.306a4.552,4.552,0,1,0-.592-9.065Zm.592,7.243H16.554a2.733,2.733,0,1,1,0-5.465,2.7,2.7,0,0,1,.864.157l.884.3.276-.892a4.555,4.555,0,0,1,8.7,0l.276.893.884-.3a2.676,2.676,0,0,1,.864-.158,2.733,2.733,0,1,1,0,5.465Z" transform="translate(-1.981 -3.853)"/>
        <path id="Trazado_1058612" data-name="Trazado 1058612" d="M57.472,1H44.72V8.287H35.612V1H22.86V8.287H13.752V1H1V17.4H13.752V10.108H22.86V17.4h8.726a2.793,2.793,0,0,0,.279,1.568.937.937,0,0,1,.035.8c-.051.117-.1.237-.147.355a.932.932,0,0,1-.59.543,2.8,2.8,0,0,0-1.888,2.2H8.287a4.559,4.559,0,0,0-4.554,4.554V48.364A2.736,2.736,0,0,0,1,51.1a6.383,6.383,0,0,0,6.376,6.376H36.523A6.383,6.383,0,0,0,42.9,51.1a2.736,2.736,0,0,0-2.733-2.733v-12.8a2.741,2.741,0,0,0,.457.047h.907a2.8,2.8,0,0,0,2.661-1.927.933.933,0,0,1,.541-.588c.12-.046.24-.095.358-.147a.935.935,0,0,1,.8.035,2.794,2.794,0,0,0,3.244-.519l.642-.641a2.794,2.794,0,0,0,.519-3.244.937.937,0,0,1-.035-.8c.051-.117.1-.237.147-.355a.932.932,0,0,1,.59-.543,2.8,2.8,0,0,0,1.926-2.661v-.907a2.8,2.8,0,0,0-1.927-2.661.933.933,0,0,1-.588-.541c-.046-.12-.095-.24-.147-.358a.938.938,0,0,1,.035-.8,2.791,2.791,0,0,0,.279-1.568h6.9ZM11.93,15.573H2.822V2.822H11.93Zm32.79-5.465v4.328a.934.934,0,0,1-.529-.581,2.8,2.8,0,0,0-2.661-1.926h-.907a2.8,2.8,0,0,0-2.661,1.927.931.931,0,0,1-.543.588c-.119.046-.238.095-.356.147a.935.935,0,0,1-.8-.035,2.807,2.807,0,0,0-.657-.227V10.108ZM24.682,2.822H33.79V14.537a2.776,2.776,0,0,0-.765.54l-.5.5H24.682ZM41.077,51.1a4.559,4.559,0,0,1-4.554,4.554H7.376A4.559,4.559,0,0,1,2.822,51.1a.912.912,0,0,1,.911-.911H15.573V51.1a2.736,2.736,0,0,0,2.733,2.733h7.287A2.736,2.736,0,0,0,28.325,51.1v-.911H40.166A.912.912,0,0,1,41.077,51.1ZM17.4,50.185H26.5V51.1a.912.912,0,0,1-.911.911H18.306A.912.912,0,0,1,17.4,51.1ZM5.554,48.364V27.414a2.736,2.736,0,0,1,2.733-2.733H35.612a2.736,2.736,0,0,1,2.733,2.733V48.364ZM40.007,26.285a2.732,2.732,0,1,0-1.662-2.514c0,.009,0,.016,0,.026a4.523,4.523,0,0,0-1.744-.821,4.586,4.586,0,1,1,3.563,5.248v-.81a4.49,4.49,0,0,0-.159-1.129Zm.159-2.514a.911.911,0,1,1,.911.911A.912.912,0,0,1,40.166,23.771Zm10.257-1.384a.977.977,0,0,1,.673.93v.907a.978.978,0,0,1-.674.93A2.748,2.748,0,0,0,48.7,26.769c-.038.1-.078.195-.119.29a2.75,2.75,0,0,0,.079,2.343.976.976,0,0,1-.181,1.133l-.642.642a.975.975,0,0,1-1.133.181,2.751,2.751,0,0,0-2.342-.079q-.143.061-.292.12a2.75,2.75,0,0,0-1.613,1.719.977.977,0,0,1-.93.673h-.907a.964.964,0,0,1-.457-.129V30.07a6.456,6.456,0,0,0,.911.077,6.376,6.376,0,1,0-6.3-7.287h-3.59a.97.97,0,0,1,.547-.473,2.747,2.747,0,0,0,1.719-1.614c.038-.1.078-.195.119-.29a2.75,2.75,0,0,0-.079-2.343.977.977,0,0,1,.181-1.134l.641-.641a.974.974,0,0,1,1.134-.181,2.748,2.748,0,0,0,2.342.079c.1-.042.194-.082.291-.119a2.756,2.756,0,0,0,1.614-1.719.975.975,0,0,1,.929-.674h.907a.978.978,0,0,1,.93.674,2.751,2.751,0,0,0,1.613,1.718c.1.038.195.078.291.119a2.753,2.753,0,0,0,2.343-.079.976.976,0,0,1,1.134.181l.641.641a.977.977,0,0,1,.181,1.134,2.748,2.748,0,0,0-.079,2.342q.061.143.12.292a2.748,2.748,0,0,0,1.719,1.613Zm5.227-6.814H49.625l-.5-.5a2.786,2.786,0,0,0-2.587-.746V2.822h9.108V15.573Z" transform="translate(-1 -1)"/>
        <path id="Trazado_1058613" data-name="Trazado 1058613" d="M5,5h5.465V6.822H5Z" transform="translate(-1.357 -1.357)"/>
        <path id="Trazado_1058614" data-name="Trazado 1058614" d="M5,9h5.465v1.822H5Z" transform="translate(-1.357 -1.713)"/>
        <path id="Trazado_1058615" data-name="Trazado 1058615" d="M5,13h5.465v1.822H5Z" transform="translate(-1.357 -2.07)"/>
        <path id="Trazado_1058616" data-name="Trazado 1058616" d="M29,5h5.465V6.822H29Z" transform="translate(-3.496 -1.357)"/>
        <path id="Trazado_1058617" data-name="Trazado 1058617" d="M29,9h5.465v1.822H29Z" transform="translate(-3.496 -1.713)"/>
        <path id="Trazado_1058618" data-name="Trazado 1058618" d="M29,13h5.465v1.822H29Z" transform="translate(-3.496 -2.07)"/>
        <path id="Trazado_1058619" data-name="Trazado 1058619" d="M53,5h5.465V6.822H53Z" transform="translate(-5.636 -1.357)"/>
        <path id="Trazado_1058620" data-name="Trazado 1058620" d="M53,9h5.465v1.822H53Z" transform="translate(-5.636 -1.713)"/>
        <path id="Trazado_1058621" data-name="Trazado 1058621" d="M53,13h5.465v1.822H53Z" transform="translate(-5.636 -2.07)"/>
      </g>
    </g>
  </g>
</svg>
