<svg xmlns="http://www.w3.org/2000/svg" xmlns:xlink="http://www.w3.org/1999/xlink" width="113" height="113" viewBox="0 0 113 113">
  <defs>
    <filter id="Trazado_982547" x="0" y="0" width="113" height="113" filterUnits="userSpaceOnUse">
      <feOffset dy="3" input="SourceAlpha"/>
      <feGaussianBlur stdDeviation="3" result="blur"/>
      <feFlood flood-opacity="0.161"/>
      <feComposite operator="in" in2="blur"/>
      <feComposite in="SourceGraphic"/>
    </filter>
  </defs>
  <g id="Grupo_1226964" data-name="Grupo 1226964" transform="translate(-355.49 -1555.751)">
    <g id="Grupo_1226749" data-name="Grupo 1226749" transform="translate(0 -58.384)">
      <g id="Grupo_1224582" data-name="Grupo 1224582" transform="translate(0 -5449.616)">
        <g id="Grupo_1224449" data-name="Grupo 1224449" transform="translate(364.49 7069.751)">
          <g id="Grupo_1224084" data-name="Grupo 1224084" transform="translate(0 0)">
            <g id="Grupo_1223183" data-name="Grupo 1223183">
              <g id="Grupo_1211217" data-name="Grupo 1211217">
                <g id="Grupo_1210736" data-name="Grupo 1210736">
                  <g id="Grupo_1210537" data-name="Grupo 1210537">
                    <g id="Grupo_1164202" data-name="Grupo 1164202">
                      <g id="Grupo_1158168" data-name="Grupo 1158168">
                        <g id="Grupo_1152576" data-name="Grupo 1152576">
                          <g id="Grupo_1148633" data-name="Grupo 1148633">
                            <g id="Grupo_1148525" data-name="Grupo 1148525">
                              <g transform="matrix(1, 0, 0, 1, -9, -6)" filter="url(#Trazado_982547)">
                                <g id="Trazado_982547-2" data-name="Trazado 982547" transform="translate(9 6)" fill="#fef9e5">
                                  <path d="M 47.49999618530273 93.5 C 41.28936767578125 93.5 35.26533126831055 92.28396606445312 29.59518241882324 89.88570404052734 C 24.11771583557129 87.56893157958984 19.19812965393066 84.251953125 14.97308921813965 80.02690124511719 C 10.74803638458252 75.80186462402344 7.431062698364258 70.88227844238281 5.114289283752441 65.40480804443359 C 2.716022968292236 59.73466110229492 1.499996185302734 53.71062469482422 1.499996185302734 47.49999618530273 C 1.499996185302734 41.28936767578125 2.716022968292236 35.26533126831055 5.114289283752441 29.59518241882324 C 7.431062698364258 24.11771583557129 10.74803638458252 19.19812965393066 14.97308921813965 14.97308921813965 C 19.19812965393066 10.74803638458252 24.11771583557129 7.431062698364258 29.59518241882324 5.114289283752441 C 35.26533126831055 2.716022968292236 41.28936767578125 1.499996185302734 47.49999618530273 1.499996185302734 C 53.71062469482422 1.499996185302734 59.73466110229492 2.716022968292236 65.40480804443359 5.114289283752441 C 70.88227844238281 7.431062698364258 75.80186462402344 10.74803638458252 80.02690124511719 14.97308921813965 C 84.251953125 19.19812965393066 87.56893157958984 24.11771583557129 89.88570404052734 29.59518241882324 C 92.28396606445312 35.26533126831055 93.5 41.28936767578125 93.5 47.49999618530273 C 93.5 53.71062469482422 92.28396606445312 59.73466110229492 89.88570404052734 65.40480804443359 C 87.56893157958984 70.88227844238281 84.251953125 75.80186462402344 80.02690124511719 80.02690124511719 C 75.80186462402344 84.251953125 70.88227844238281 87.56893157958984 65.40480804443359 89.88570404052734 C 59.73466110229492 92.28396606445312 53.71062469482422 93.5 47.49999618530273 93.5 Z" stroke="none"/>
                                  <path d="M 47.49999618530273 2.999992370605469 C 41.4912109375 2.999992370605469 35.66376495361328 4.1761474609375 30.17950439453125 6.495796203613281 C 24.88084411621094 8.736953735351562 20.12152099609375 11.94598388671875 16.03375244140625 16.03375244140625 C 11.94598388671875 20.12152099609375 8.736953735351562 24.88084411621094 6.495796203613281 30.17950439453125 C 4.1761474609375 35.66376495361328 2.999992370605469 41.4912109375 2.999992370605469 47.49999618530273 C 2.999992370605469 53.50878143310547 4.1761474609375 59.33622741699219 6.495796203613281 64.82048797607422 C 8.736953735351562 70.11914825439453 11.94598388671875 74.87847137451172 16.03375244140625 78.96623992919922 C 20.12152099609375 83.05400848388672 24.88084411621094 86.26304626464844 30.17950439453125 88.50419616699219 C 35.66376495361328 90.82384490966797 41.4912109375 92 47.49999618530273 92 C 53.50878143310547 92 59.33622741699219 90.82384490966797 64.82048797607422 88.50419616699219 C 70.11914825439453 86.26304626464844 74.87847137451172 83.05400848388672 78.96623992919922 78.96623992919922 C 83.05400848388672 74.87847137451172 86.26304626464844 70.11914825439453 88.50419616699219 64.82048797607422 C 90.82384490966797 59.33622741699219 92 53.50878143310547 92 47.49999618530273 C 92 41.4912109375 90.82384490966797 35.66376495361328 88.50419616699219 30.17950439453125 C 86.26304626464844 24.88084411621094 83.05400848388672 20.12152099609375 78.96623992919922 16.03375244140625 C 74.87847137451172 11.94598388671875 70.11914825439453 8.736953735351562 64.82048797607422 6.495796203613281 C 59.33622741699219 4.1761474609375 53.50878143310547 2.999992370605469 47.49999618530273 2.999992370605469 M 47.49999618530273 -7.62939453125e-06 C 73.7335205078125 -7.62939453125e-06 95 21.26647186279297 95 47.49999618530273 C 95 73.7335205078125 73.7335205078125 95 47.49999618530273 95 C 21.26647186279297 95 -7.62939453125e-06 73.7335205078125 -7.62939453125e-06 47.49999618530273 C -7.62939453125e-06 21.26647186279297 21.26647186279297 -7.62939453125e-06 47.49999618530273 -7.62939453125e-06 Z" stroke="none" fill="#f6c810"/>
                                </g>
                              </g>
                            </g>
                          </g>
                        </g>
                      </g>
                    </g>
                  </g>
                </g>
              </g>
            </g>
          </g>
        </g>
      </g>
    </g>
    <g id="pruebas-de-software_3_" data-name="pruebas-de-software (3)" transform="translate(381.582 1578.353)">
      <g id="Grupo_1226962" data-name="Grupo 1226962" transform="translate(1.255 0.905)">
        <path id="Trazado_1058622" data-name="Trazado 1058622" d="M69.687,362.874V367.1H10.4v-4.224l33.613-2.145Z" transform="translate(-10.4 -318.095)" fill="#756e78"/>
        <path id="Trazado_1058623" data-name="Trazado 1058623" d="M69.687,116.46v31.628H10.4V116.46H31.42s1.117,7.553,8.5,7.553,7.839-7.553,7.839-7.553Z" transform="translate(-10.4 -103.309)" fill="#b2e5fb"/>
        <path id="Trazado_1058624" data-name="Trazado 1058624" d="M469.505,370.819v4.224H465.1a3.96,3.96,0,0,0,1.06-2.588v-1.637l1.6-1.054Z" transform="translate(-410.218 -326.04)" fill="#655f66"/>
        <path id="Trazado_1058625" data-name="Trazado 1058625" d="M468.512,116.46v31.628h-3.346V119.9a5.016,5.016,0,0,0-1.2-3.44Z" transform="translate(-409.225 -103.309)" fill="#90d8f9"/>
        <path id="Trazado_1058626" data-name="Trazado 1058626" d="M180.388,420.167l-3.54.45a11.589,11.589,0,0,0-16.9,0l-3.576-.382,3.607-6.734h16.835Z" transform="translate(-138.755 -364.496)" fill="#cee0ea"/>
        <path id="Trazado_1058627" data-name="Trazado 1058627" d="M148.949,471.724l-2.519.241H116.6a.631.631,0,0,1-.6-.656v-3.153a.631.631,0,0,1,.6-.656h30.465l1.882.241a.631.631,0,0,1,.6.656v2.671A.631.631,0,0,1,148.949,471.724Z" transform="translate(-103.252 -411.979)" fill="#e6edf4"/>
        <path id="Trazado_1058628" data-name="Trazado 1058628" d="M370.615,468.156v3.154a.632.632,0,0,1-.6.656H367.13c.7,0,.757-.677.757-.989V467.5h2.124A.632.632,0,0,1,370.615,468.156Z" transform="translate(-324.073 -411.979)" fill="#cee0ea"/>
        <g id="Grupo_1226959" data-name="Grupo 1226959" transform="translate(17.145)">
          <circle id="Elipse_13552" data-name="Elipse 13552" cx="8.019" cy="8.019" r="8.019" transform="translate(4.334 4.8)" fill="#b2e5fb"/>
          <g id="Grupo_1226957" data-name="Grupo 1226957">
            <path id="Trazado_1058629" data-name="Trazado 1058629" d="M176.191,17.8l-.889-.071a.36.36,0,0,1-.348-.263,12.064,12.064,0,0,0-.868-2.693.36.36,0,0,1,.06-.432l.891-.891a.724.724,0,0,0,0-1.024L172.51,9.9a.723.723,0,0,0-1.025,0l-.886.886a.36.36,0,0,1-.432.06,10.476,10.476,0,0,0-2.449-1.017.36.36,0,0,1-.262-.348V8.224a.724.724,0,0,0-.724-.724H163.16a.724.724,0,0,0-.724.724V9.478a.36.36,0,0,1-.263.348,10.445,10.445,0,0,0-2.45,1.012.36.36,0,0,1-.432-.06l-.891-.89a.722.722,0,0,0-1.024,0l-2.526,2.526a.722.722,0,0,0,0,1.024l.886.887a.36.36,0,0,1,.06.432A10.468,10.468,0,0,0,154.78,17.2a.36.36,0,0,1-.348.262h-1.259a.724.724,0,0,0-.724.724v3.573a.724.724,0,0,0,.724.724h1.253a.36.36,0,0,1,.348.263,10.44,10.44,0,0,0,1.012,2.45.358.358,0,0,1-.048.417s.025.155.02.159l-.45.72a.726.726,0,0,0,0,1.025l2.158,2.158a.724.724,0,0,0,1.024,0l.887-.887a.36.36,0,0,1,.432-.06,11.716,11.716,0,0,0,2.588,1.083.36.36,0,0,1,.262.348v1.259a.724.724,0,0,0,.724.724l3.058.191a.724.724,0,0,0,.724-.724V30.361a.36.36,0,0,1,.263-.348,13.142,13.142,0,0,0,2.742-1.15.36.36,0,0,1,.432.06l.891.891a.723.723,0,0,0,1.025,0l2.217-2.248a.724.724,0,0,0,0-1.024l-.887-.887a.36.36,0,0,1-.06-.432,11.747,11.747,0,0,0,1.037-2.608.36.36,0,0,1,.348-.262h1.259a.724.724,0,0,0,.724-.724l-.241-3.1a.724.724,0,0,0-.724-.724Zm-11.254,8.593a6.407,6.407,0,1,1,6.407-6.407A6.407,6.407,0,0,1,164.937,26.394Z" transform="translate(-152.449 -7.5)" fill="#756e78"/>
          </g>
          <g id="Grupo_1226958" data-name="Grupo 1226958" transform="translate(2.175 7.275)">
            <path id="Trazado_1058630" data-name="Trazado 1058630" d="M193.266,71.206V74.78a.725.725,0,0,1-.724.724h-1.259a.359.359,0,0,0-.348.262,10.51,10.51,0,0,1-1.017,2.448.36.36,0,0,0,.059.432l.887.887a.724.724,0,0,1,0,1.024l-2.526,2.526a.723.723,0,0,1-1.025,0l-.891-.891a.36.36,0,0,0-.432-.06,10.433,10.433,0,0,1-2.449,1.013.358.358,0,0,0-.263.348v1.254a.725.725,0,0,1-.724.724h-3.573a.725.725,0,0,1-.724-.724V83.487a.359.359,0,0,0-.262-.348,10.51,10.51,0,0,1-2.448-1.017.36.36,0,0,0-.432.059l-.887.887a.724.724,0,0,1-1.024,0l-2.527-2.526a.726.726,0,0,1,0-1.025l.891-.89.012-.014c8.967,5.406,17.806-1.94,18.347-10.844a10.506,10.506,0,0,1,1.013,2.449.358.358,0,0,0,.348.263h1.254a.725.725,0,0,1,.724.724Z" transform="translate(-170.465 -67.77)" fill="#655f66"/>
          </g>
        </g>
        <g id="Grupo_1226960" data-name="Grupo 1226960" transform="translate(9.596 25.072)">
          <path id="Trazado_1058631" data-name="Trazado 1058631" d="M105.537,223.316a7.3,7.3,0,0,1-7.617,7.607c-2.915,0-4.873-1.415-6.819-3.369a8.093,8.093,0,0,1,11.132-11.133A9.158,9.158,0,0,1,105.537,223.316Z" transform="translate(-89.903 -215.224)" fill="#fe93d3"/>
          <path id="Trazado_1058632" data-name="Trazado 1058632" d="M114.816,232.044a8.092,8.092,0,0,1-14.986,4.238,8.092,8.092,0,0,0,11.132-11.132A8.086,8.086,0,0,1,114.816,232.044Z" transform="translate(-98.632 -223.952)" fill="#fe73c5"/>
        </g>
        <g id="Grupo_1226961" data-name="Grupo 1226961" transform="translate(33.507 25.072)">
          <path id="Trazado_1058633" data-name="Trazado 1058633" d="M303.692,223.316a7.466,7.466,0,0,1-7.84,7.59c-2.916,0-4.819-1.284-6.643-3.353a8.093,8.093,0,0,1,11.132-11.132A8.8,8.8,0,0,1,303.692,223.316Z" transform="translate(-288.012 -215.224)" fill="#66c6a6"/>
          <path id="Trazado_1058634" data-name="Trazado 1058634" d="M312.917,232.035a8.093,8.093,0,0,1-14.987,4.237,8.094,8.094,0,0,0,11.132-11.132A8.088,8.088,0,0,1,312.917,232.035Z" transform="translate(-296.733 -223.943)" fill="#50b29f"/>
        </g>
      </g>
      <g id="Grupo_1226963" data-name="Grupo 1226963" transform="translate(0 0)">
        <path id="Trazado_1058635" data-name="Trazado 1058635" d="M59.685,12.91H44.28V11.617a1.631,1.631,0,0,0-1.629-1.629H41.8a11.351,11.351,0,0,0-.78-1.887l.6-.6a1.631,1.631,0,0,0,0-2.3L39.1,2.667a1.629,1.629,0,0,0-2.3,0l-.6.6a11.365,11.365,0,0,0-1.885-.783V1.629A1.631,1.631,0,0,0,32.684,0H29.111a1.631,1.631,0,0,0-1.629,1.629v.846a11.352,11.352,0,0,0-1.887.78l-.6-.6a1.631,1.631,0,0,0-2.3,0L20.162,5.178a1.629,1.629,0,0,0,0,2.3l.6.6a11.353,11.353,0,0,0-.783,1.885h-.852A1.631,1.631,0,0,0,17.495,11.6V12.91H10.259a.905.905,0,1,0,0,1.81H17.5v.448A1.631,1.631,0,0,0,19.124,16.8h.846a11.351,11.351,0,0,0,.78,1.887l-.6.6a1.631,1.631,0,0,0,0,2.3l2.526,2.526a1.629,1.629,0,0,0,2.3,0l.6-.6a11.361,11.361,0,0,0,1.885.783v.852a1.631,1.631,0,0,0,1.629,1.629h3.573a1.631,1.631,0,0,0,1.629-1.629V24.31a11.351,11.351,0,0,0,1.887-.78l.6.6a1.631,1.631,0,0,0,2.3,0l2.526-2.526a1.629,1.629,0,0,0,0-2.3l-.6-.6a11.361,11.361,0,0,0,.783-1.885h.852a1.631,1.631,0,0,0,1.629-1.629V14.72h15.4a.3.3,0,0,1,.3.3V44.779H1.81V15.022a.3.3,0,0,1,.3-.3H6.035a.905.905,0,1,0,0-1.81H2.112A2.115,2.115,0,0,0,0,15.022v33.8A2.115,2.115,0,0,0,2.112,50.93h8.739a.905.905,0,1,0,0-1.81H2.112a.3.3,0,0,1-.3-.3V46.59H59.987v2.228a.3.3,0,0,1-.3.3H15.075a.905.905,0,1,0,0,1.81h5.863l-2.651,4.949H14.606A1.51,1.51,0,0,0,13.1,57.387v2.9A1.51,1.51,0,0,0,14.606,61.8h19.25a.905.905,0,1,0,0-1.81H14.907v-2.3h31.7v2.3H38.08a.905.905,0,1,0,0,1.81h8.833a1.51,1.51,0,0,0,1.509-1.509v-2.9a1.51,1.51,0,0,0-1.509-1.509h-3.4L40.86,50.93H59.685A2.115,2.115,0,0,0,61.8,48.818v-33.8a2.115,2.115,0,0,0-2.112-2.112Zm-17.216,2.1H41.112a.905.905,0,0,0-.879.689,9.555,9.555,0,0,1-1.118,2.69.905.905,0,0,0,.133,1.111l.957.957-2.27,2.27-.96-.96a.9.9,0,0,0-1.109-.134,9.556,9.556,0,0,1-2.692,1.112.905.905,0,0,0-.691.88v1.353H29.272V23.617a.905.905,0,0,0-.689-.879,9.555,9.555,0,0,1-2.69-1.118.906.906,0,0,0-1.111.133l-.957.957-2.27-2.27.96-.96a.905.905,0,0,0,.134-1.109,9.556,9.556,0,0,1-1.112-2.692.905.905,0,0,0-.88-.691H19.306V11.777h1.358a.905.905,0,0,0,.879-.689A9.555,9.555,0,0,1,22.66,8.4a.905.905,0,0,0-.133-1.111l-.957-.957,2.27-2.27.96.96a.905.905,0,0,0,1.109.134A9.558,9.558,0,0,1,28.6,4.043a.905.905,0,0,0,.691-.88V1.81H32.5V3.168a.905.905,0,0,0,.689.879,9.559,9.559,0,0,1,2.69,1.118.905.905,0,0,0,1.111-.133l.957-.957,2.27,2.27-.96.96a.905.905,0,0,0-.134,1.109,9.556,9.556,0,0,1,1.112,2.692.905.905,0,0,0,.88.691H42.47v3.211ZM24.887,55.879a10.714,10.714,0,0,1,12.023,0Zm16.57,0H39.731a12.5,12.5,0,0,0-17.664,0H20.341l2.651-4.949H38.806Z" transform="translate(0 0)"/>
        <path id="Trazado_1058636" data-name="Trazado 1058636" d="M202.635,50.375a7.312,7.312,0,1,0,7.312,7.312A7.321,7.321,0,0,0,202.635,50.375Zm0,12.814a5.5,5.5,0,1,1,5.5-5.5A5.508,5.508,0,0,1,202.635,63.189Z" transform="translate(-171.748 -44.295)"/>
        <path id="Trazado_1058637" data-name="Trazado 1058637" d="M100.4,216.722a9,9,0,1,0-9,9A9.007,9.007,0,0,0,100.4,216.722Zm-16.184,0a7.187,7.187,0,1,1,7.187,7.187A7.195,7.195,0,0,1,84.214,216.722Z" transform="translate(-72.458 -182.653)"/>
        <path id="Trazado_1058638" data-name="Trazado 1058638" d="M134.454,261.057a.905.905,0,0,0,1.28-1.28l-1.787-1.787,1.787-1.787a.905.905,0,0,0-1.28-1.28l-1.787,1.787-1.787-1.787a.905.905,0,1,0-1.28,1.28l1.787,1.787-1.787,1.787a.905.905,0,1,0,1.28,1.28l1.787-1.787Z" transform="translate(-113.724 -223.921)"/>
        <path id="Trazado_1058639" data-name="Trazado 1058639" d="M284.262,218.453a.905.905,0,0,0-1.758.435,9,9,0,1,0,.1-4.7.905.905,0,1,0,1.738.508,7.189,7.189,0,1,1-.076,3.753Z" transform="translate(-248.383 -182.649)"/>
        <path id="Trazado_1058640" data-name="Trazado 1058640" d="M325.263,261.338h.029a.905.905,0,0,0,.685-.348l4.153-5.33a.905.905,0,1,0-1.428-1.113l-3.485,4.472-1.82-2.049a.905.905,0,1,0-1.354,1.2l2.542,2.863A.906.906,0,0,0,325.263,261.338Z" transform="translate(-282.973 -223.516)"/>
      </g>
    </g>
  </g>
</svg>
