<svg xmlns="http://www.w3.org/2000/svg" xmlns:xlink="http://www.w3.org/1999/xlink" width="113" height="113" viewBox="0 0 113 113">
  <defs>
    <filter id="Trazado_982547" x="0" y="0" width="113" height="113" filterUnits="userSpaceOnUse">
      <feOffset dy="3" input="SourceAlpha"/>
      <feGaussianBlur stdDeviation="3" result="blur"/>
      <feFlood flood-opacity="0.161"/>
      <feComposite operator="in" in2="blur"/>
      <feComposite in="SourceGraphic"/>
    </filter>
  </defs>
  <g id="Grupo_1226967" data-name="Grupo 1226967" transform="translate(-3749 -1567.751)">
    <g id="Grupo_1226750" data-name="Grupo 1226750" transform="translate(3075 -46.384)">
      <g id="Grupo_1224583" data-name="Grupo 1224583" transform="translate(0 -5449.616)">
        <g id="Grupo_1224450" data-name="Grupo 1224450" transform="translate(683 7069.751)">
          <g id="Grupo_1224085" data-name="Grupo 1224085" transform="translate(0 0)">
            <g id="Grupo_1223184" data-name="Grupo 1223184">
              <g id="Grupo_1211216" data-name="Grupo 1211216">
                <g id="Grupo_1210737" data-name="Grupo 1210737">
                  <g id="Grupo_1210537" data-name="Grupo 1210537">
                    <g id="Grupo_1164202" data-name="Grupo 1164202">
                      <g id="Grupo_1158168" data-name="Grupo 1158168">
                        <g id="Grupo_1152576" data-name="Grupo 1152576">
                          <g id="Grupo_1148633" data-name="Grupo 1148633">
                            <g id="Grupo_1148525" data-name="Grupo 1148525">
                              <g transform="matrix(1, 0, 0, 1, -9, -6)" filter="url(#Trazado_982547)">
                                <g id="Trazado_982547-2" data-name="Trazado 982547" transform="translate(9 6)" fill="#fef9e5">
                                  <path d="M 47.49999618530273 93.5 C 41.28936767578125 93.5 35.26533126831055 92.28396606445312 29.59518241882324 89.88570404052734 C 24.11771583557129 87.56893157958984 19.19812965393066 84.251953125 14.97308921813965 80.02690124511719 C 10.74803638458252 75.80186462402344 7.431062698364258 70.88227844238281 5.114289283752441 65.40480804443359 C 2.716022968292236 59.73466110229492 1.499996185302734 53.71062469482422 1.499996185302734 47.49999618530273 C 1.499996185302734 41.28936767578125 2.716022968292236 35.26533126831055 5.114289283752441 29.59518241882324 C 7.431062698364258 24.11771583557129 10.74803638458252 19.19812965393066 14.97308921813965 14.97308921813965 C 19.19812965393066 10.74803638458252 24.11771583557129 7.431062698364258 29.59518241882324 5.114289283752441 C 35.26533126831055 2.716022968292236 41.28936767578125 1.499996185302734 47.49999618530273 1.499996185302734 C 53.71062469482422 1.499996185302734 59.73466110229492 2.716022968292236 65.40480804443359 5.114289283752441 C 70.88227844238281 7.431062698364258 75.80186462402344 10.74803638458252 80.02690124511719 14.97308921813965 C 84.251953125 19.19812965393066 87.56893157958984 24.11771583557129 89.88570404052734 29.59518241882324 C 92.28396606445312 35.26533126831055 93.5 41.28936767578125 93.5 47.49999618530273 C 93.5 53.71062469482422 92.28396606445312 59.73466110229492 89.88570404052734 65.40480804443359 C 87.56893157958984 70.88227844238281 84.251953125 75.80186462402344 80.02690124511719 80.02690124511719 C 75.80186462402344 84.251953125 70.88227844238281 87.56893157958984 65.40480804443359 89.88570404052734 C 59.73466110229492 92.28396606445312 53.71062469482422 93.5 47.49999618530273 93.5 Z" stroke="none"/>
                                  <path d="M 47.49999618530273 2.999992370605469 C 41.4912109375 2.999992370605469 35.66376495361328 4.1761474609375 30.17950439453125 6.495796203613281 C 24.88084411621094 8.736953735351562 20.12152099609375 11.94598388671875 16.03375244140625 16.03375244140625 C 11.94598388671875 20.12152099609375 8.736953735351562 24.88084411621094 6.495796203613281 30.17950439453125 C 4.1761474609375 35.66376495361328 2.999992370605469 41.4912109375 2.999992370605469 47.49999618530273 C 2.999992370605469 53.50878143310547 4.1761474609375 59.33622741699219 6.495796203613281 64.82048797607422 C 8.736953735351562 70.11914825439453 11.94598388671875 74.87847137451172 16.03375244140625 78.96623992919922 C 20.12152099609375 83.05400848388672 24.88084411621094 86.26304626464844 30.17950439453125 88.50419616699219 C 35.66376495361328 90.82384490966797 41.4912109375 92 47.49999618530273 92 C 53.50878143310547 92 59.33622741699219 90.82384490966797 64.82048797607422 88.50419616699219 C 70.11914825439453 86.26304626464844 74.87847137451172 83.05400848388672 78.96623992919922 78.96623992919922 C 83.05400848388672 74.87847137451172 86.26304626464844 70.11914825439453 88.50419616699219 64.82048797607422 C 90.82384490966797 59.33622741699219 92 53.50878143310547 92 47.49999618530273 C 92 41.4912109375 90.82384490966797 35.66376495361328 88.50419616699219 30.17950439453125 C 86.26304626464844 24.88084411621094 83.05400848388672 20.12152099609375 78.96623992919922 16.03375244140625 C 74.87847137451172 11.94598388671875 70.11914825439453 8.736953735351562 64.82048797607422 6.495796203613281 C 59.33622741699219 4.1761474609375 53.50878143310547 2.999992370605469 47.49999618530273 2.999992370605469 M 47.49999618530273 -7.62939453125e-06 C 73.7335205078125 -7.62939453125e-06 95 21.26647186279297 95 47.49999618530273 C 95 73.7335205078125 73.7335205078125 95 47.49999618530273 95 C 21.26647186279297 95 -7.62939453125e-06 73.7335205078125 -7.62939453125e-06 47.49999618530273 C -7.62939453125e-06 21.26647186279297 21.26647186279297 -7.62939453125e-06 47.49999618530273 -7.62939453125e-06 Z" stroke="none" fill="#f6c810"/>
                                </g>
                              </g>
                            </g>
                          </g>
                        </g>
                      </g>
                    </g>
                  </g>
                </g>
              </g>
            </g>
          </g>
        </g>
      </g>
    </g>
    <g id="datos" transform="translate(3778.565 1593.846)">
      <path id="Trazado_1058663" data-name="Trazado 1058663" d="M57.043,51.5H10.173a2.681,2.681,0,0,1-2.682-2.681V10.674a2.682,2.682,0,0,1,2.682-2.682h46.87a2.681,2.681,0,0,1,2.681,2.682V48.821A2.681,2.681,0,0,1,57.043,51.5Zm0,0" transform="translate(-6.704 -6.704)" fill="#ffd86e"/>
      <path id="Trazado_1058664" data-name="Trazado 1058664" d="M453.281,10.677V48.824a2.681,2.681,0,0,1-2.681,2.681h-3.276a2.681,2.681,0,0,0,2.681-2.681V10.677A2.681,2.681,0,0,0,447.324,8H450.6A2.681,2.681,0,0,1,453.281,10.677Zm0,0" transform="translate(-400.26 -6.708)" fill="#ffb509"/>
      <path id="Trazado_1058665" data-name="Trazado 1058665" d="M59.726,360.129H7.493v3.779a2.681,2.681,0,0,0,2.682,2.681h46.87a2.681,2.681,0,0,0,2.681-2.681Zm0,0" transform="translate(-6.705 -321.791)" fill="#838383"/>
      <path id="Trazado_1058666" data-name="Trazado 1058666" d="M453.281,360.129v3.779a2.681,2.681,0,0,1-2.681,2.681h-3.276a2.681,2.681,0,0,0,2.681-2.681v-3.779Zm0,0" transform="translate(-400.26 -321.791)" fill="#5a5a5a"/>
      <path id="Trazado_1058667" data-name="Trazado 1058667" d="M60.282,17.14H8.047V10.674a2.681,2.681,0,0,1,2.681-2.681H57.6a2.681,2.681,0,0,1,2.681,2.681Zm0,0" transform="translate(-7.201 -6.704)" fill="#acacac"/>
      <path id="Trazado_1058668" data-name="Trazado 1058668" d="M453.341,10.677v6.467h-3.336V10.677A2.681,2.681,0,0,0,447.324,8h3.335A2.681,2.681,0,0,1,453.341,10.677Zm0,0" transform="translate(-400.26 -6.708)" fill="#9c9c9c"/>
      <path id="Trazado_1058669" data-name="Trazado 1058669" d="M186.277,421.531h14.612v4.4H186.277Zm0,0" transform="translate(-166.678 -376.733)" fill="#5a5a5a"/>
      <path id="Trazado_1058670" data-name="Trazado 1058670" d="M160.887,467.711H136.807a.526.526,0,0,1-.526-.526v-1.7a2.092,2.092,0,0,1,2.092-2.092h20.949a2.091,2.091,0,0,1,2.091,2.092v1.7a.525.525,0,0,1-.526.526Zm0,0" transform="translate(-121.943 -414.188)" fill="#838383"/>
      <path id="Trazado_1058671" data-name="Trazado 1058671" d="M337.12,465.486v1.7a.526.526,0,0,1-.526.526h-1.855v-2.23a2.091,2.091,0,0,0-2.091-2.091h2.381A2.091,2.091,0,0,1,337.12,465.486Zm0,0" transform="translate(-297.649 -414.192)" fill="#5a5a5a"/>
      <path id="Trazado_1058672" data-name="Trazado 1058672" d="M295.477,275.613h17.072v3.236H295.477Zm0,0" transform="translate(-264.389 -246.167)" fill="#64dcfc"/>
      <path id="Trazado_1058673" data-name="Trazado 1058673" d="M295.477,357.273h17.072v3.236H295.477Zm0,0" transform="translate(-264.389 -319.236)" fill="#64dcfc"/>
      <path id="Trazado_1058674" data-name="Trazado 1058674" d="M438.551,275.613h2.018v3.236h-2.018Zm0,0" transform="translate(-392.41 -246.167)" fill="#00d1fc"/>
      <path id="Trazado_1058675" data-name="Trazado 1058675" d="M438.551,357.273h2.018v3.236h-2.018Zm0,0" transform="translate(-392.41 -319.236)" fill="#00d1fc"/>
      <g id="Grupo_1226966" data-name="Grupo 1226966" transform="translate(28.912 24.09)">
        <path id="Trazado_1058676" data-name="Trazado 1058676" d="M295.458,230.063h-19.9a.762.762,0,0,1-.762-.762v-3.832a.763.763,0,0,1,.762-.762h19.9a.763.763,0,0,1,.762.762V229.3A.762.762,0,0,1,295.458,230.063Zm0,0" transform="translate(-274.797 -224.707)" fill="#0396fd"/>
        <path id="Trazado_1058677" data-name="Trazado 1058677" d="M295.458,311.723h-19.9a.762.762,0,0,1-.762-.762v-3.832a.763.763,0,0,1,.762-.762h19.9a.763.763,0,0,1,.762.762v3.832A.762.762,0,0,1,295.458,311.723Zm0,0" transform="translate(-274.797 -297.775)" fill="#0396fd"/>
        <path id="Trazado_1058678" data-name="Trazado 1058678" d="M295.458,393.384h-19.9a.762.762,0,0,1-.762-.762V388.79a.762.762,0,0,1,.762-.762h19.9a.762.762,0,0,1,.762.762v3.832A.762.762,0,0,1,295.458,393.384Zm0,0" transform="translate(-274.797 -370.844)" fill="#0396fd"/>
      </g>
      <path id="Trazado_1058679" data-name="Trazado 1058679" d="M456.9,225.473V229.3a.762.762,0,0,1-.762.762h-1.768a.762.762,0,0,0,.762-.762v-3.832a.762.762,0,0,0-.762-.762h1.768A.762.762,0,0,1,456.9,225.473Zm0,0" transform="translate(-406.562 -200.621)" fill="#0077f0"/>
      <path id="Trazado_1058680" data-name="Trazado 1058680" d="M456.9,307.129v3.832a.761.761,0,0,1-.762.762h-1.768a.761.761,0,0,0,.762-.762v-3.832a.762.762,0,0,0-.762-.762h1.768A.762.762,0,0,1,456.9,307.129Zm0,0" transform="translate(-406.562 -273.686)" fill="#0077f0"/>
      <path id="Trazado_1058681" data-name="Trazado 1058681" d="M456.9,388.793v3.831a.762.762,0,0,1-.762.762h-1.768a.762.762,0,0,0,.762-.762v-3.831a.761.761,0,0,0-.762-.762h1.768A.761.761,0,0,1,456.9,388.793Zm0,0" transform="translate(-406.562 -346.757)" fill="#0077f0"/>
      <path id="Trazado_1058682" data-name="Trazado 1058682" d="M43.816,38.279a1.525,1.525,0,1,1-1.525-1.525A1.525,1.525,0,0,1,43.816,38.279Zm0,0" transform="translate(-36.477 -32.44)" fill="#ff6b81"/>
      <path id="Trazado_1058683" data-name="Trazado 1058683" d="M99.8,38.279a1.525,1.525,0,1,1-1.525-1.525A1.526,1.526,0,0,1,99.8,38.279Zm0,0" transform="translate(-86.571 -32.44)" fill="#ffd86e"/>
      <path id="Trazado_1058684" data-name="Trazado 1058684" d="M155.788,38.279a1.525,1.525,0,1,1-1.525-1.525A1.525,1.525,0,0,1,155.788,38.279Zm0,0" transform="translate(-136.668 -32.44)" fill="#80e0dc"/>
      <path id="Trazado_1058685" data-name="Trazado 1058685" d="M47.842,38.283a1.524,1.524,0,0,1-2.577,1.1,1.524,1.524,0,0,0,1.016-2.627h.036a1.524,1.524,0,0,1,1.524,1.526Zm0,0" transform="translate(-40.503 -32.443)" fill="#ff435f"/>
      <path id="Trazado_1058686" data-name="Trazado 1058686" d="M103.823,38.283a1.525,1.525,0,0,1-2.577,1.1,1.524,1.524,0,0,0,1.018-2.627h.035a1.525,1.525,0,0,1,1.525,1.526Zm0,0" transform="translate(-90.594 -32.443)" fill="#ffb509"/>
      <path id="Trazado_1058687" data-name="Trazado 1058687" d="M159.812,38.283a1.525,1.525,0,0,1-2.578,1.1,1.524,1.524,0,0,0,1.016-2.627h.036a1.525,1.525,0,0,1,1.526,1.526Zm0,0" transform="translate(-140.691 -32.443)" fill="#00a8b0"/>
      <path id="Trazado_1058688" data-name="Trazado 1058688" d="M35.976,133.56a.788.788,0,1,0,1.115-1.115l-1.914-1.914,1.914-1.914a.788.788,0,0,0-1.115-1.115L33.5,129.973a.788.788,0,0,0,0,1.115Zm0,0" transform="translate(-29.773 -113.433)"/>
      <path id="Trazado_1058689" data-name="Trazado 1058689" d="M115.076,130.527l-1.914,1.914a.788.788,0,1,0,1.115,1.115l2.472-2.472a.788.788,0,0,0,0-1.115l-2.472-2.472a.788.788,0,0,0-1.115,1.115Zm0,0" transform="translate(-101.049 -113.429)"/>
      <path id="Trazado_1058690" data-name="Trazado 1058690" d="M76.918,133.731a.788.788,0,0,0,1.022-.446l1.942-4.944a.788.788,0,1,0-1.467-.577l-1.942,4.944A.789.789,0,0,0,76.918,133.731Zm0,0" transform="translate(-68.378 -113.428)"/>
      <path id="Trazado_1058691" data-name="Trazado 1058691" d="M38.3,219.792h5.311a.788.788,0,0,0,0-1.577H38.3a.788.788,0,0,0,0,1.577Zm0,0" transform="translate(-33.569 -194.808)"/>
      <path id="Trazado_1058692" data-name="Trazado 1058692" d="M125.638,218.215H116.3a.788.788,0,0,0,0,1.577h9.338a.788.788,0,1,0,0-1.577Zm0,0" transform="translate(-103.359 -194.809)"/>
      <path id="Trazado_1058693" data-name="Trazado 1058693" d="M38.3,251.4h2.263a.788.788,0,0,0,0-1.577H38.3a.788.788,0,0,0,0,1.577Zm0,0" transform="translate(-33.569 -223.089)"/>
      <path id="Trazado_1058694" data-name="Trazado 1058694" d="M177.636,249.82a.788.788,0,0,0,0,1.577h1.378a.788.788,0,1,0,0-1.577Zm0,0" transform="translate(-158.241 -223.088)"/>
      <path id="Trazado_1058695" data-name="Trazado 1058695" d="M93.656,250.609a.788.788,0,0,0-.788-.788H86.1a.788.788,0,0,0,0,1.577h6.767A.789.789,0,0,0,93.656,250.609Zm0,0" transform="translate(-76.337 -223.089)"/>
      <path id="Trazado_1058696" data-name="Trazado 1058696" d="M213.7,250.609a.789.789,0,0,0,.788.789h2.581a.788.788,0,1,0,0-1.577h-2.581A.788.788,0,0,0,213.7,250.609Zm0,0" transform="translate(-191.219 -223.089)"/>
      <path id="Trazado_1058697" data-name="Trazado 1058697" d="M166.188,150.855h2.722a.788.788,0,1,0,0-1.577h-2.722a.788.788,0,1,0,0,1.577Zm0,0" transform="translate(-147.997 -133.124)"/>
      <path id="Trazado_1058698" data-name="Trazado 1058698" d="M221.035,150.855h16.609a.788.788,0,0,0,0-1.577H221.035a.788.788,0,1,0,0,1.577Zm0,0" transform="translate(-197.073 -133.124)"/>
      <path id="Trazado_1058699" data-name="Trazado 1058699" d="M297.7,182.246h-6.728a.788.788,0,0,0,0,1.577H297.7a.788.788,0,0,0,0-1.577Zm0,0" transform="translate(-259.653 -162.624)"/>
      <path id="Trazado_1058700" data-name="Trazado 1058700" d="M247.327,182.246h-2.313a.788.788,0,0,0,0,1.577h2.313a.788.788,0,0,0,0-1.577Zm0,0" transform="translate(-218.531 -162.624)"/>
      <path id="Trazado_1058701" data-name="Trazado 1058701" d="M166.188,183.823h5.666a.788.788,0,0,0,0-1.577h-5.666a.788.788,0,1,0,0,1.577Zm0,0" transform="translate(-147.997 -162.624)"/>
      <path id="Trazado_1058702" data-name="Trazado 1058702" d="M105.346,281.16h-5.311a.788.788,0,1,0,0,1.577h5.311a.788.788,0,0,0,0-1.577Zm0,0" transform="translate(-88.805 -251.131)"/>
      <path id="Trazado_1058703" data-name="Trazado 1058703" d="M42.384,281.16H38.3a.788.788,0,0,0,0,1.577h4.08a.788.788,0,0,0,0-1.577Zm0,0" transform="translate(-33.569 -251.131)"/>
      <path id="Trazado_1058704" data-name="Trazado 1058704" d="M183.016,281.16h-6.938a.788.788,0,0,0,0,1.577h6.938a.788.788,0,0,0,0-1.577Zm0,0" transform="translate(-156.847 -251.131)"/>
      <path id="Trazado_1058705" data-name="Trazado 1058705" d="M298.929,242.668h-3.794a.788.788,0,0,0,0,1.577h3.794a.788.788,0,0,0,0-1.577Zm0,0" transform="translate(-263.378 -216.689)"/>
      <path id="Trazado_1058706" data-name="Trazado 1058706" d="M393.765,244.245h5.356a.788.788,0,1,0,0-1.577h-5.356a.788.788,0,0,0,0,1.577Zm0,0" transform="translate(-351.631 -216.688)"/>
      <path id="Trazado_1058707" data-name="Trazado 1058707" d="M357.872,242.668h-1.227a.788.788,0,1,0,0,1.577h1.227a.788.788,0,0,0,0-1.577Zm0,0" transform="translate(-318.415 -216.689)"/>
      <path id="Trazado_1058708" data-name="Trazado 1058708" d="M295.136,325.905h3.794a.788.788,0,0,0,0-1.577h-3.794a.788.788,0,0,0,0,1.577Zm0,0" transform="translate(-263.379 -289.758)"/>
      <path id="Trazado_1058709" data-name="Trazado 1058709" d="M393.765,325.905h5.356a.788.788,0,1,0,0-1.577h-5.356a.788.788,0,0,0,0,1.577Zm0,0" transform="translate(-351.631 -289.758)"/>
      <path id="Trazado_1058710" data-name="Trazado 1058710" d="M356.648,325.905h1.227a.788.788,0,1,0,0-1.577h-1.227a.788.788,0,0,0,0,1.577Zm0,0" transform="translate(-318.419 -289.758)"/>
      <path id="Trazado_1058711" data-name="Trazado 1058711" d="M298.929,405.988h-3.794a.788.788,0,1,0,0,1.577h3.794a.788.788,0,1,0,0-1.577Zm0,0" transform="translate(-263.378 -362.825)"/>
      <path id="Trazado_1058712" data-name="Trazado 1058712" d="M399.12,405.988h-5.356a.788.788,0,1,0,0,1.577h5.356a.788.788,0,1,0,0-1.577Zm0,0" transform="translate(-351.63 -362.825)"/>
      <path id="Trazado_1058713" data-name="Trazado 1058713" d="M357.872,405.988h-1.227a.788.788,0,1,0,0,1.577h1.227a.788.788,0,0,0,0-1.577Zm0,0" transform="translate(-318.415 -362.825)"/>
      <path id="Trazado_1058714" data-name="Trazado 1058714" d="M50.4.5H3.47A3.474,3.474,0,0,0,0,3.97V42.117a3.474,3.474,0,0,0,3.47,3.47H6.436a.788.788,0,1,0,0-1.577H3.47a1.9,1.9,0,0,1-1.893-1.893V39.126H30.3v1.359h-.625a1.552,1.552,0,0,0-1.551,1.551V44.01H11.23a.788.788,0,1,0,0,1.577h7.58v2.828H16.43a2.883,2.883,0,0,0-2.88,2.88V53a1.315,1.315,0,0,0,1.314,1.314H38.945A1.315,1.315,0,0,0,40.259,53v-1.7a2.883,2.883,0,0,0-2.88-2.88H35v-1H49.573a1.552,1.552,0,0,0,1.55-1.551V45.5a3.475,3.475,0,0,0,2.685-3.379l.06-38.147A3.473,3.473,0,0,0,50.4.5ZM29.7,37.249V33.47H49.547v3.779Zm2.175-5.356V30.234h15.5v1.659Zm15.5,6.933v1.659h-15.5V38.826ZM20.387,45.586h7.737v.281a1.552,1.552,0,0,0,1.551,1.55h3.747v1H20.387Zm16.992,4.4a1.3,1.3,0,0,1,1.3,1.3v1.441H15.126V51.294a1.3,1.3,0,0,1,1.3-1.3ZM49.547,45.84H29.7V42.062H49.547Zm2.685-3.724a1.893,1.893,0,0,1-1.108,1.72v-1.8a1.552,1.552,0,0,0-1.551-1.55h-.625V39.126h3.284Zm0-4.567H51.1c.016-.089.026-4.106.026-4.106a1.552,1.552,0,0,0-1.551-1.551h-.625V30.234h.625a1.553,1.553,0,0,0,1.551-1.551V24.852A1.553,1.553,0,0,0,49.573,23.3H45.12a.788.788,0,0,0,0,1.577h4.427v3.779H29.7V24.878H40.214a.788.788,0,0,0,0-1.577H29.674a1.552,1.552,0,0,0-1.551,1.551v3.832a1.552,1.552,0,0,0,1.551,1.551H30.3v1.659h-.625a1.552,1.552,0,0,0-1.551,1.551s.01,4.017.026,4.106H1.576V11.224H52.232Zm0-27.9H1.634V3.969A1.9,1.9,0,0,1,3.527,2.077H50.339A1.9,1.9,0,0,1,52.232,3.97Zm0,0"/>
      <path id="Trazado_1058715" data-name="Trazado 1058715" d="M35.587,29.262A2.314,2.314,0,1,0,37.9,31.575,2.316,2.316,0,0,0,35.587,29.262Zm0,3.05a.737.737,0,1,1,.737-.737A.738.738,0,0,1,35.587,32.312Zm0,0" transform="translate(-29.773 -25.736)"/>
      <path id="Trazado_1058716" data-name="Trazado 1058716" d="M91.572,29.262a2.314,2.314,0,1,0,2.313,2.313A2.316,2.316,0,0,0,91.572,29.262Zm0,3.05a.737.737,0,1,1,.737-.737A.738.738,0,0,1,91.572,32.312Zm0,0" transform="translate(-79.867 -25.736)"/>
      <path id="Trazado_1058717" data-name="Trazado 1058717" d="M147.559,29.262a2.314,2.314,0,1,0,2.314,2.313A2.316,2.316,0,0,0,147.559,29.262Zm0,3.05a.737.737,0,1,1,.737-.737A.738.738,0,0,1,147.559,32.312Zm0,0" transform="translate(-129.964 -25.736)"/>
    </g>
  </g>
</svg>
