<svg xmlns="http://www.w3.org/2000/svg" xmlns:xlink="http://www.w3.org/1999/xlink" width="113" height="113" viewBox="0 0 113 113">
  <defs>
    <filter id="Trazado_982547" x="0" y="0" width="113" height="113" filterUnits="userSpaceOnUse">
      <feOffset dy="3" input="SourceAlpha"/>
      <feGaussianBlur stdDeviation="3" result="blur"/>
      <feFlood flood-opacity="0.161"/>
      <feComposite operator="in" in2="blur"/>
      <feComposite in="SourceGraphic"/>
    </filter>
  </defs>
  <g id="Grupo_1227088" data-name="Grupo 1227088" transform="translate(-815.166 -2143.954)">
    <g id="Grupo_1226626" data-name="Grupo 1226626" transform="translate(824.166 2149.954)">
      <g id="Grupo_1226374" data-name="Grupo 1226374" transform="translate(0)">
        <g id="Grupo_1211217" data-name="Grupo 1211217">
          <g id="Grupo_1210736" data-name="Grupo 1210736">
            <g id="Grupo_1210537" data-name="Grupo 1210537">
              <g id="Grupo_1164202" data-name="Grupo 1164202">
                <g id="Grupo_1158168" data-name="Grupo 1158168">
                  <g id="Grupo_1152576" data-name="Grupo 1152576">
                    <g id="Grupo_1148633" data-name="Grupo 1148633">
                      <g id="Grupo_1148525" data-name="Grupo 1148525">
                        <g transform="matrix(1, 0, 0, 1, -9, -6)" filter="url(#Trazado_982547)">
                          <g id="Trazado_982547-2" data-name="Trazado 982547" transform="translate(9 6)" fill="#fef9e5">
                            <path d="M 47.49999618530273 93.5 C 41.28936767578125 93.5 35.26533126831055 92.28396606445312 29.59518241882324 89.88570404052734 C 24.11771583557129 87.56893157958984 19.19812965393066 84.251953125 14.97308921813965 80.02690124511719 C 10.74803638458252 75.80186462402344 7.431062698364258 70.88227844238281 5.114289283752441 65.40480804443359 C 2.716022968292236 59.73466110229492 1.499996185302734 53.71062469482422 1.499996185302734 47.49999618530273 C 1.499996185302734 41.28936767578125 2.716022968292236 35.26533126831055 5.114289283752441 29.59518241882324 C 7.431062698364258 24.11771583557129 10.74803638458252 19.19812965393066 14.97308921813965 14.97308921813965 C 19.19812965393066 10.74803638458252 24.11771583557129 7.431062698364258 29.59518241882324 5.114289283752441 C 35.26533126831055 2.716022968292236 41.28936767578125 1.499996185302734 47.49999618530273 1.499996185302734 C 53.71062469482422 1.499996185302734 59.73466110229492 2.716022968292236 65.40480804443359 5.114289283752441 C 70.88227844238281 7.431062698364258 75.80186462402344 10.74803638458252 80.02690124511719 14.97308921813965 C 84.251953125 19.19812965393066 87.56893157958984 24.11771583557129 89.88570404052734 29.59518241882324 C 92.28396606445312 35.26533126831055 93.5 41.28936767578125 93.5 47.49999618530273 C 93.5 53.71062469482422 92.28396606445312 59.73466110229492 89.88570404052734 65.40480804443359 C 87.56893157958984 70.88227844238281 84.251953125 75.80186462402344 80.02690124511719 80.02690124511719 C 75.80186462402344 84.251953125 70.88227844238281 87.56893157958984 65.40480804443359 89.88570404052734 C 59.73466110229492 92.28396606445312 53.71062469482422 93.5 47.49999618530273 93.5 Z" stroke="none"/>
                            <path d="M 47.49999618530273 2.999992370605469 C 41.4912109375 2.999992370605469 35.66376495361328 4.1761474609375 30.17950439453125 6.495796203613281 C 24.88084411621094 8.736953735351562 20.12152099609375 11.94598388671875 16.03375244140625 16.03375244140625 C 11.94598388671875 20.12152099609375 8.736953735351562 24.88084411621094 6.495796203613281 30.17950439453125 C 4.1761474609375 35.66376495361328 2.999992370605469 41.4912109375 2.999992370605469 47.49999618530273 C 2.999992370605469 53.50878143310547 4.1761474609375 59.33622741699219 6.495796203613281 64.82048797607422 C 8.736953735351562 70.11914825439453 11.94598388671875 74.87847137451172 16.03375244140625 78.96623992919922 C 20.12152099609375 83.05400848388672 24.88084411621094 86.26304626464844 30.17950439453125 88.50419616699219 C 35.66376495361328 90.82384490966797 41.4912109375 92 47.49999618530273 92 C 53.50878143310547 92 59.33622741699219 90.82384490966797 64.82048797607422 88.50419616699219 C 70.11914825439453 86.26304626464844 74.87847137451172 83.05400848388672 78.96623992919922 78.96623992919922 C 83.05400848388672 74.87847137451172 86.26304626464844 70.11914825439453 88.50419616699219 64.82048797607422 C 90.82384490966797 59.33622741699219 92 53.50878143310547 92 47.49999618530273 C 92 41.4912109375 90.82384490966797 35.66376495361328 88.50419616699219 30.17950439453125 C 86.26304626464844 24.88084411621094 83.05400848388672 20.12152099609375 78.96623992919922 16.03375244140625 C 74.87847137451172 11.94598388671875 70.11914825439453 8.736953735351562 64.82048797607422 6.495796203613281 C 59.33622741699219 4.1761474609375 53.50878143310547 2.999992370605469 47.49999618530273 2.999992370605469 M 47.49999618530273 -7.62939453125e-06 C 73.7335205078125 -7.62939453125e-06 95 21.26647186279297 95 47.49999618530273 C 95 73.7335205078125 73.7335205078125 95 47.49999618530273 95 C 21.26647186279297 95 -7.62939453125e-06 73.7335205078125 -7.62939453125e-06 47.49999618530273 C -7.62939453125e-06 21.26647186279297 21.26647186279297 -7.62939453125e-06 47.49999618530273 -7.62939453125e-06 Z" stroke="none" fill="#f6c810"/>
                          </g>
                        </g>
                      </g>
                    </g>
                  </g>
                </g>
              </g>
            </g>
          </g>
        </g>
      </g>
    </g>
    <g id="modelado-de-datos" transform="translate(842.847 2160.174)">
      <g id="Grupo_1227071" data-name="Grupo 1227071" transform="translate(0.844 10.377)">
        <g id="Grupo_1227060" data-name="Grupo 1227060" transform="translate(0 40.745)">
          <g id="Grupo_1227058" data-name="Grupo 1227058">
            <path id="Trazado_1059015" data-name="Trazado 1059015" d="M14.938,378.965H8.063a.563.563,0,0,0-.563.563v11.933a.563.563,0,0,0,.563.563h8.891a.563.563,0,0,0,.563-.563v-9.918a.563.563,0,0,0-.165-.4l-2.016-2.016a.563.563,0,0,0-.4-.165Z" transform="translate(-7.5 -378.965)" fill="#ffd15b"/>
          </g>
          <g id="Grupo_1227059" data-name="Grupo 1227059" transform="translate(3.895 0)">
            <path id="Trazado_1059016" data-name="Trazado 1059016" d="M48.053,381.145l-2.016-2.016a.563.563,0,0,0-.4-.165H42.1a.563.563,0,0,1,.4.165l2.016,2.016a.563.563,0,0,1,.165.4v9.918a.563.563,0,0,1-.563.563h3.544a.563.563,0,0,0,.563-.563v-9.918A.562.562,0,0,0,48.053,381.145Z" transform="translate(-42.096 -378.965)" fill="#ffc344"/>
          </g>
        </g>
        <g id="Grupo_1227067" data-name="Grupo 1227067" transform="translate(45.934 0)">
          <g id="Grupo_1227063" data-name="Grupo 1227063" transform="translate(0 40.745)">
            <g id="Grupo_1227061" data-name="Grupo 1227061">
              <path id="Trazado_1059017" data-name="Trazado 1059017" d="M422.961,378.965h-6.875a.563.563,0,0,0-.563.563v11.933a.563.563,0,0,0,.563.563h8.891a.563.563,0,0,0,.563-.563v-9.918a.563.563,0,0,0-.165-.4l-2.016-2.016A.563.563,0,0,0,422.961,378.965Z" transform="translate(-415.523 -378.965)" fill="#ffd15b"/>
            </g>
            <g id="Grupo_1227062" data-name="Grupo 1227062" transform="translate(3.892 0)">
              <path id="Trazado_1059018" data-name="Trazado 1059018" d="M456.057,381.145l-2.016-2.016a.563.563,0,0,0-.4-.165H450.1a.563.563,0,0,1,.4.165l2.016,2.016a.563.563,0,0,1,.165.4v9.918a.563.563,0,0,1-.563.563h3.546a.563.563,0,0,0,.563-.563v-9.918A.563.563,0,0,0,456.057,381.145Z" transform="translate(-450.097 -378.965)" fill="#ffc344"/>
            </g>
          </g>
          <g id="Grupo_1227066" data-name="Grupo 1227066">
            <g id="Grupo_1227064" data-name="Grupo 1227064">
              <path id="Trazado_1059019" data-name="Trazado 1059019" d="M422.961,17.033h-6.875a.563.563,0,0,0-.563.563V29.529a.563.563,0,0,0,.563.563h8.891a.563.563,0,0,0,.563-.563V19.611a.563.563,0,0,0-.165-.4L423.359,17.2A.563.563,0,0,0,422.961,17.033Z" transform="translate(-415.523 -17.033)" fill="#ffd15b"/>
            </g>
            <g id="Grupo_1227065" data-name="Grupo 1227065" transform="translate(3.892 0)">
              <path id="Trazado_1059020" data-name="Trazado 1059020" d="M456.057,19.214,454.041,17.2a.563.563,0,0,0-.4-.165H450.1a.563.563,0,0,1,.4.165l2.016,2.016a.563.563,0,0,1,.165.4V29.53a.563.563,0,0,1-.563.563h3.546a.563.563,0,0,0,.563-.563V19.612A.563.563,0,0,0,456.057,19.214Z" transform="translate(-450.097 -17.034)" fill="#ffc344"/>
            </g>
          </g>
        </g>
        <g id="Grupo_1227070" data-name="Grupo 1227070" transform="translate(0 0)">
          <g id="Grupo_1227068" data-name="Grupo 1227068">
            <path id="Trazado_1059021" data-name="Trazado 1059021" d="M14.938,17.033H8.063A.563.563,0,0,0,7.5,17.6V29.529a.563.563,0,0,0,.563.563h8.891a.563.563,0,0,0,.563-.563V19.611a.563.563,0,0,0-.165-.4L15.336,17.2a.563.563,0,0,0-.4-.165Z" transform="translate(-7.5 -17.033)" fill="#ffd15b"/>
          </g>
          <g id="Grupo_1227069" data-name="Grupo 1227069" transform="translate(3.895 0)">
            <path id="Trazado_1059022" data-name="Trazado 1059022" d="M48.053,19.214,46.038,17.2a.563.563,0,0,0-.4-.165H42.1a.563.563,0,0,1,.4.165l2.016,2.016a.563.563,0,0,1,.165.4V29.53a.563.563,0,0,1-.563.563h3.544a.563.563,0,0,0,.563-.563V19.612A.563.563,0,0,0,48.053,19.214Z" transform="translate(-42.096 -17.034)" fill="#ffc344"/>
          </g>
        </g>
      </g>
      <g id="Grupo_1227076" data-name="Grupo 1227076" transform="translate(16.999 26.118)">
        <g id="Grupo_1227072" data-name="Grupo 1227072" transform="translate(0 4.896)">
          <path id="Trazado_1059023" data-name="Trazado 1059023" d="M151,200.343v16.3a1.126,1.126,0,0,0,1.126,1.126h21.39a1.126,1.126,0,0,0,1.126-1.126v-16.3Z" transform="translate(-151 -200.343)" fill="#f9f3f1"/>
        </g>
        <g id="Grupo_1227073" data-name="Grupo 1227073" transform="translate(19.138 4.896)">
          <path id="Trazado_1059024" data-name="Trazado 1059024" d="M322.126,200.343v16.3A1.126,1.126,0,0,1,321,217.77h3.377a1.126,1.126,0,0,0,1.126-1.126v-16.3Z" transform="translate(-321 -200.343)" fill="#f3eae6"/>
        </g>
        <g id="Grupo_1227074" data-name="Grupo 1227074" transform="translate(0 0)">
          <path id="Trazado_1059025" data-name="Trazado 1059025" d="M174.641,161.863H151v-3.883a1.126,1.126,0,0,1,1.126-1.126h21.39a1.126,1.126,0,0,1,1.126,1.126Z" transform="translate(-151 -156.855)" fill="#26a6fe"/>
        </g>
        <g id="Grupo_1227075" data-name="Grupo 1227075" transform="translate(19.138)">
          <path id="Trazado_1059026" data-name="Trazado 1059026" d="M324.377,156.854H321a1.126,1.126,0,0,1,1.126,1.126v3.883H325.5V157.98A1.126,1.126,0,0,0,324.377,156.854Z" transform="translate(-321 -156.854)" fill="#0593fc"/>
        </g>
      </g>
      <g id="Grupo_1227081" data-name="Grupo 1227081" transform="translate(51.214 28.694)">
        <g id="Grupo_1227077" data-name="Grupo 1227077" transform="translate(0 0)">
          <path id="Trazado_1059027" data-name="Trazado 1059027" d="M459.945,185.315H455.49a.563.563,0,0,1-.563-.563V180.3a.563.563,0,0,1,.563-.563h4.455a.563.563,0,0,1,.563.563v4.455A.563.563,0,0,1,459.945,185.315Z" transform="translate(-454.927 -179.734)" fill="#ffe177"/>
        </g>
        <g id="Grupo_1227078" data-name="Grupo 1227078" transform="translate(2.662)">
          <path id="Trazado_1059028" data-name="Trazado 1059028" d="M480.929,179.734h-2.356a.563.563,0,0,1,.563.563v4.455a.563.563,0,0,1-.563.563h2.356a.563.563,0,0,0,.563-.563V180.3A.563.563,0,0,0,480.929,179.734Z" transform="translate(-478.573 -179.734)" fill="#ffd15b"/>
        </g>
        <g id="Grupo_1227079" data-name="Grupo 1227079" transform="translate(0 11.591)">
          <path id="Trazado_1059029" data-name="Trazado 1059029" d="M459.945,288.274H455.49a.563.563,0,0,1-.563-.563v-4.455a.563.563,0,0,1,.563-.563h4.455a.563.563,0,0,1,.563.563v4.455A.563.563,0,0,1,459.945,288.274Z" transform="translate(-454.927 -282.693)" fill="#ffe177"/>
        </g>
        <g id="Grupo_1227080" data-name="Grupo 1227080" transform="translate(2.662 11.591)">
          <path id="Trazado_1059030" data-name="Trazado 1059030" d="M480.929,282.693h-2.356a.563.563,0,0,1,.563.563v4.455a.563.563,0,0,1-.563.563h2.356a.563.563,0,0,0,.563-.563v-4.455A.563.563,0,0,0,480.929,282.693Z" transform="translate(-478.573 -282.693)" fill="#ffd15b"/>
        </g>
      </g>
      <g id="Grupo_1227086" data-name="Grupo 1227086" transform="translate(0.844 28.694)">
        <g id="Grupo_1227082" data-name="Grupo 1227082" transform="translate(0 0)">
          <path id="Trazado_1059031" data-name="Trazado 1059031" d="M12.518,185.315H8.063a.563.563,0,0,1-.563-.563V180.3a.563.563,0,0,1,.563-.563h4.455a.563.563,0,0,1,.563.563v4.455A.563.563,0,0,1,12.518,185.315Z" transform="translate(-7.5 -179.734)" fill="#ffe177"/>
        </g>
        <g id="Grupo_1227083" data-name="Grupo 1227083" transform="translate(2.71)">
          <path id="Trazado_1059032" data-name="Trazado 1059032" d="M33.881,179.734H31.573a.563.563,0,0,1,.563.563v4.455a.563.563,0,0,1-.563.563h2.308a.563.563,0,0,0,.563-.563V180.3A.563.563,0,0,0,33.881,179.734Z" transform="translate(-31.573 -179.734)" fill="#ffd15b"/>
        </g>
        <g id="Grupo_1227084" data-name="Grupo 1227084" transform="translate(0 11.591)">
          <path id="Trazado_1059033" data-name="Trazado 1059033" d="M12.518,288.274H8.063a.563.563,0,0,1-.563-.563v-4.455a.563.563,0,0,1,.563-.563h4.455a.563.563,0,0,1,.563.563v4.455A.563.563,0,0,1,12.518,288.274Z" transform="translate(-7.5 -282.693)" fill="#ffe177"/>
        </g>
        <g id="Grupo_1227085" data-name="Grupo 1227085" transform="translate(2.71 11.591)">
          <path id="Trazado_1059034" data-name="Trazado 1059034" d="M33.881,282.693H31.573a.563.563,0,0,1,.563.563v4.455a.563.563,0,0,1-.563.563h2.308a.563.563,0,0,0,.563-.563v-4.455A.563.563,0,0,0,33.881,282.693Z" transform="translate(-31.573 -282.693)" fill="#ffd15b"/>
        </g>
      </g>
      <g id="Grupo_1227087" data-name="Grupo 1227087" transform="translate(0 9.533)">
        <path id="Trazado_1059035" data-name="Trazado 1059035" d="M29.317,405.608a.844.844,0,1,0,0,1.689h3.606a.844.844,0,1,0,0-1.689Z" transform="translate(-25.268 -361.019)"/>
        <path id="Trazado_1059036" data-name="Trazado 1059036" d="M32.923,431.593H29.317a.844.844,0,0,0,0,1.689h3.606a.844.844,0,0,0,0-1.689Z" transform="translate(-25.268 -384.079)"/>
        <path id="Trazado_1059037" data-name="Trazado 1059037" d="M31.043,457.578H29.317a.844.844,0,1,0,0,1.689h1.725a.844.844,0,1,0,0-1.689Z" transform="translate(-25.268 -407.138)"/>
        <path id="Trazado_1059038" data-name="Trazado 1059038" d="M440.946,405.608H437.34a.844.844,0,1,0,0,1.689h3.606a.844.844,0,0,0,0-1.689Z" transform="translate(-387.357 -361.019)"/>
        <path id="Trazado_1059039" data-name="Trazado 1059039" d="M440.946,431.593H437.34a.844.844,0,0,0,0,1.689h3.606a.844.844,0,0,0,0-1.689Z" transform="translate(-387.357 -384.079)"/>
        <path id="Trazado_1059040" data-name="Trazado 1059040" d="M439.066,457.578H437.34a.844.844,0,1,0,0,1.689h1.725a.844.844,0,1,0,0-1.689Z" transform="translate(-387.357 -407.138)"/>
        <path id="Trazado_1059041" data-name="Trazado 1059041" d="M437.34,45.366h3.606a.844.844,0,0,0,0-1.689H437.34a.844.844,0,0,0,0,1.689Z" transform="translate(-387.357 -39.833)"/>
        <path id="Trazado_1059042" data-name="Trazado 1059042" d="M437.34,71.35h3.606a.844.844,0,0,0,0-1.689H437.34a.844.844,0,1,0,0,1.689Z" transform="translate(-387.357 -62.892)"/>
        <path id="Trazado_1059043" data-name="Trazado 1059043" d="M437.34,97.335h1.725a.844.844,0,0,0,0-1.689H437.34a.844.844,0,0,0,0,1.689Z" transform="translate(-387.357 -85.952)"/>
        <path id="Trazado_1059044" data-name="Trazado 1059044" d="M32.923,43.677H29.317a.844.844,0,0,0,0,1.689h3.606a.844.844,0,0,0,0-1.689Z" transform="translate(-25.268 -39.833)"/>
        <path id="Trazado_1059045" data-name="Trazado 1059045" d="M32.923,69.661H29.317a.844.844,0,1,0,0,1.689h3.606a.844.844,0,1,0,0-1.689Z" transform="translate(-25.268 -62.892)"/>
        <path id="Trazado_1059046" data-name="Trazado 1059046" d="M31.043,95.646H29.317a.844.844,0,0,0,0,1.689h1.725a.844.844,0,0,0,0-1.689Z" transform="translate(-25.268 -85.952)"/>
        <path id="Trazado_1059047" data-name="Trazado 1059047" d="M175.3,314.8h10.588a.844.844,0,0,0,0-1.689H175.3a.844.844,0,1,0,0,1.689Z" transform="translate(-154.814 -278.933)"/>
        <path id="Trazado_1059048" data-name="Trazado 1059048" d="M298.669,313.109h-3.325a.844.844,0,0,0,0,1.689h3.325a.844.844,0,0,0,0-1.689Z" transform="translate(-261.346 -278.933)"/>
        <path id="Trazado_1059049" data-name="Trazado 1059049" d="M177.5,225.51a.844.844,0,0,0-.844.844v4.081H175.3a.844.844,0,0,0,0,1.689h16.839a.844.844,0,1,0,0-1.689h-1.354v-2.071a.844.844,0,0,0-1.689,0v2.071h-2.459v-6.091a.844.844,0,0,0-1.689,0v6.091h-2.458V227.36a.844.844,0,0,0-1.689,0v3.076H178.34v-4.081A.844.844,0,0,0,177.5,225.51Z" transform="translate(-154.814 -199.412)"/>
        <path id="Trazado_1059050" data-name="Trazado 1059050" d="M57.227,11.962,55.212,9.946a1.4,1.4,0,0,0-1-.412H47.341a1.409,1.409,0,0,0-1.407,1.407v5.032H34.515a2.536,2.536,0,0,0-2.533,2.533v6.768H25.657V18.506a2.536,2.536,0,0,0-2.533-2.533H18.575a.844.844,0,0,0,0,1.689h4.549a.845.845,0,0,1,.844.844v6.768H18.125a1.972,1.972,0,0,0-1.97,1.97V47.316a1.972,1.972,0,0,0,1.97,1.97h5.844v6.768a.845.845,0,0,1-.844.844H11.705V53.7a1.4,1.4,0,0,0-.412-1L9.278,50.692a1.4,1.4,0,0,0-1-.412H1.407A1.409,1.409,0,0,0,0,51.686V63.62a1.409,1.409,0,0,0,1.407,1.407H10.3a1.409,1.409,0,0,0,1.407-1.407V58.588H23.124a2.536,2.536,0,0,0,2.533-2.533V49.286H26.85a.844.844,0,0,0,0-1.689H18.125a.282.282,0,0,1-.281-.281V31.972H39.8V47.316a.282.282,0,0,1-.281.281H30.79a.844.844,0,0,0,0,1.689h1.192v6.768a2.536,2.536,0,0,0,2.533,2.533H45.934V63.62a1.409,1.409,0,0,0,1.407,1.407h8.891a1.409,1.409,0,0,0,1.407-1.407V53.7a1.4,1.4,0,0,0-.412-1l-2.016-2.016a1.4,1.4,0,0,0-.995-.412H47.341a1.409,1.409,0,0,0-1.407,1.407V56.9H34.515a.845.845,0,0,1-.844-.844V49.286h5.844a1.972,1.972,0,0,0,1.97-1.97V27.245a1.972,1.972,0,0,0-1.97-1.97H33.671V18.506a.845.845,0,0,1,.844-.844H45.934v.368a.844.844,0,0,0,1.689,0V11.223H54.1l1.851,1.851v9.52H47.623V21.97a.844.844,0,1,0-1.689,0v.9a1.409,1.409,0,0,0,1.407,1.407h8.891a1.409,1.409,0,0,0,1.407-1.407V12.957a1.4,1.4,0,0,0-.412-1ZM10.017,63.338H1.689V51.968H8.166l1.851,1.851v9.52Zm37.606-11.37H54.1l1.851,1.851v9.52H47.623ZM21,30.283H17.843V27.245a.282.282,0,0,1,.281-.281H21Zm18.519-3.32a.282.282,0,0,1,.281.281v3.038H22.684v-3.32Z" transform="translate(0 -9.534)"/>
        <path id="Trazado_1059051" data-name="Trazado 1059051" d="M453.289,172.234h-4.455a1.409,1.409,0,0,0-1.407,1.407V178.1a1.409,1.409,0,0,0,1.407,1.407h4.455A1.409,1.409,0,0,0,454.7,178.1v-4.455A1.409,1.409,0,0,0,453.289,172.234Zm-.281,5.581h-3.892v-3.892h3.892Z" transform="translate(-397.057 -153.918)"/>
        <path id="Trazado_1059052" data-name="Trazado 1059052" d="M453.289,275.193h-4.455a1.409,1.409,0,0,0-1.407,1.407v4.455a1.409,1.409,0,0,0,1.407,1.407h4.455a1.409,1.409,0,0,0,1.407-1.407V276.6A1.409,1.409,0,0,0,453.289,275.193Zm-.281,5.581h-3.892v-3.892h3.892Z" transform="translate(-397.057 -245.286)"/>
        <path id="Trazado_1059053" data-name="Trazado 1059053" d="M1.407,24.281H10.3a1.409,1.409,0,0,0,1.407-1.407V17.661h2.93a.844.844,0,0,0,0-1.689h-2.93V12.956a1.4,1.4,0,0,0-.412-1L9.278,9.945a1.4,1.4,0,0,0-1-.412H1.407A1.409,1.409,0,0,0,0,10.94V22.874a1.409,1.409,0,0,0,1.407,1.407Zm.281-13.059H8.166l1.851,1.851v9.52H1.689Z" transform="translate(0 -9.533)"/>
        <path id="Trazado_1059054" data-name="Trazado 1059054" d="M1.407,179.5H5.862A1.409,1.409,0,0,0,7.269,178.1v-4.455a1.409,1.409,0,0,0-1.407-1.407H1.407A1.409,1.409,0,0,0,0,173.641V178.1A1.409,1.409,0,0,0,1.407,179.5Zm.281-5.581H5.581v3.892H1.689Z" transform="translate(0 -153.918)"/>
        <path id="Trazado_1059055" data-name="Trazado 1059055" d="M1.407,282.462H5.862a1.409,1.409,0,0,0,1.407-1.407V276.6a1.409,1.409,0,0,0-1.407-1.407H1.407A1.409,1.409,0,0,0,0,276.6v4.455a1.409,1.409,0,0,0,1.407,1.407Zm.281-5.581H5.581v3.892H1.689Z" transform="translate(0 -245.286)"/>
      </g>
    </g>
  </g>
</svg>
