<svg xmlns="http://www.w3.org/2000/svg" xmlns:xlink="http://www.w3.org/1999/xlink" width="113" height="113" viewBox="0 0 113 113">
  <defs>
    <filter id="Trazado_982547" x="0" y="0" width="113" height="113" filterUnits="userSpaceOnUse">
      <feOffset dy="3" input="SourceAlpha"/>
      <feGaussianBlur stdDeviation="3" result="blur"/>
      <feFlood flood-opacity="0.161"/>
      <feComposite operator="in" in2="blur"/>
      <feComposite in="SourceGraphic"/>
    </filter>
  </defs>
  <g id="Grupo_1227108" data-name="Grupo 1227108" transform="translate(-8224.676 -2149.216)">
    <g id="Grupo_1227050" data-name="Grupo 1227050" transform="translate(8233.676 2155.216)">
      <g id="Grupo_1226375" data-name="Grupo 1226375" transform="translate(0)">
        <g id="Grupo_1211216" data-name="Grupo 1211216">
          <g id="Grupo_1210737" data-name="Grupo 1210737">
            <g id="Grupo_1210537" data-name="Grupo 1210537">
              <g id="Grupo_1164202" data-name="Grupo 1164202">
                <g id="Grupo_1158168" data-name="Grupo 1158168">
                  <g id="Grupo_1152576" data-name="Grupo 1152576">
                    <g id="Grupo_1148633" data-name="Grupo 1148633">
                      <g id="Grupo_1148525" data-name="Grupo 1148525">
                        <g transform="matrix(1, 0, 0, 1, -9, -6)" filter="url(#Trazado_982547)">
                          <g id="Trazado_982547-2" data-name="Trazado 982547" transform="translate(9 6)" fill="#fef9e5">
                            <path d="M 47.49999618530273 93.5 C 41.28936767578125 93.5 35.26533126831055 92.28396606445312 29.59518241882324 89.88570404052734 C 24.11771583557129 87.56893157958984 19.19812965393066 84.251953125 14.97308921813965 80.02690124511719 C 10.74803638458252 75.80186462402344 7.431062698364258 70.88227844238281 5.114289283752441 65.40480804443359 C 2.716022968292236 59.73466110229492 1.499996185302734 53.71062469482422 1.499996185302734 47.49999618530273 C 1.499996185302734 41.28936767578125 2.716022968292236 35.26533126831055 5.114289283752441 29.59518241882324 C 7.431062698364258 24.11771583557129 10.74803638458252 19.19812965393066 14.97308921813965 14.97308921813965 C 19.19812965393066 10.74803638458252 24.11771583557129 7.431062698364258 29.59518241882324 5.114289283752441 C 35.26533126831055 2.716022968292236 41.28936767578125 1.499996185302734 47.49999618530273 1.499996185302734 C 53.71062469482422 1.499996185302734 59.73466110229492 2.716022968292236 65.40480804443359 5.114289283752441 C 70.88227844238281 7.431062698364258 75.80186462402344 10.74803638458252 80.02690124511719 14.97308921813965 C 84.251953125 19.19812965393066 87.56893157958984 24.11771583557129 89.88570404052734 29.59518241882324 C 92.28396606445312 35.26533126831055 93.5 41.28936767578125 93.5 47.49999618530273 C 93.5 53.71062469482422 92.28396606445312 59.73466110229492 89.88570404052734 65.40480804443359 C 87.56893157958984 70.88227844238281 84.251953125 75.80186462402344 80.02690124511719 80.02690124511719 C 75.80186462402344 84.251953125 70.88227844238281 87.56893157958984 65.40480804443359 89.88570404052734 C 59.73466110229492 92.28396606445312 53.71062469482422 93.5 47.49999618530273 93.5 Z" stroke="none"/>
                            <path d="M 47.49999618530273 2.999992370605469 C 41.4912109375 2.999992370605469 35.66376495361328 4.1761474609375 30.17950439453125 6.495796203613281 C 24.88084411621094 8.736953735351562 20.12152099609375 11.94598388671875 16.03375244140625 16.03375244140625 C 11.94598388671875 20.12152099609375 8.736953735351562 24.88084411621094 6.495796203613281 30.17950439453125 C 4.1761474609375 35.66376495361328 2.999992370605469 41.4912109375 2.999992370605469 47.49999618530273 C 2.999992370605469 53.50878143310547 4.1761474609375 59.33622741699219 6.495796203613281 64.82048797607422 C 8.736953735351562 70.11914825439453 11.94598388671875 74.87847137451172 16.03375244140625 78.96623992919922 C 20.12152099609375 83.05400848388672 24.88084411621094 86.26304626464844 30.17950439453125 88.50419616699219 C 35.66376495361328 90.82384490966797 41.4912109375 92 47.49999618530273 92 C 53.50878143310547 92 59.33622741699219 90.82384490966797 64.82048797607422 88.50419616699219 C 70.11914825439453 86.26304626464844 74.87847137451172 83.05400848388672 78.96623992919922 78.96623992919922 C 83.05400848388672 74.87847137451172 86.26304626464844 70.11914825439453 88.50419616699219 64.82048797607422 C 90.82384490966797 59.33622741699219 92 53.50878143310547 92 47.49999618530273 C 92 41.4912109375 90.82384490966797 35.66376495361328 88.50419616699219 30.17950439453125 C 86.26304626464844 24.88084411621094 83.05400848388672 20.12152099609375 78.96623992919922 16.03375244140625 C 74.87847137451172 11.94598388671875 70.11914825439453 8.736953735351562 64.82048797607422 6.495796203613281 C 59.33622741699219 4.1761474609375 53.50878143310547 2.999992370605469 47.49999618530273 2.999992370605469 M 47.49999618530273 -7.62939453125e-06 C 73.7335205078125 -7.62939453125e-06 95 21.26647186279297 95 47.49999618530273 C 95 73.7335205078125 73.7335205078125 95 47.49999618530273 95 C 21.26647186279297 95 -7.62939453125e-06 73.7335205078125 -7.62939453125e-06 47.49999618530273 C -7.62939453125e-06 21.26647186279297 21.26647186279297 -7.62939453125e-06 47.49999618530273 -7.62939453125e-06 Z" stroke="none" fill="#f6c810"/>
                          </g>
                        </g>
                      </g>
                    </g>
                  </g>
                </g>
              </g>
            </g>
          </g>
        </g>
      </g>
    </g>
    <g id="Layer_1" transform="translate(8014.468 1628.381)">
      <g id="Grupo_1227093" data-name="Grupo 1227093" transform="translate(238.2 550.6)">
        <path id="Trazado_1059098" data-name="Trazado 1059098" d="M708.8,1816H751.45v14.484H708.8Z" transform="translate(-700.774 -1794.419)" fill="#ecc19c" fill-rule="evenodd"/>
        <path id="Trazado_1059099" data-name="Trazado 1059099" d="M292.672,598.069H241.723a3.528,3.528,0,0,1-3.523-3.523V554.123a3.528,3.528,0,0,1,3.523-3.523h50.948a3.528,3.528,0,0,1,3.523,3.523v40.419A3.526,3.526,0,0,1,292.672,598.069ZM241.723,552.59a1.534,1.534,0,0,0-1.533,1.533v40.419a1.534,1.534,0,0,0,1.533,1.533h50.948a1.534,1.534,0,0,0,1.533-1.533V554.123a1.534,1.534,0,0,0-1.533-1.533Z" transform="translate(-238.2 -550.6)" fill-rule="evenodd"/>
        <path id="Trazado_1059100" data-name="Trazado 1059100" d="M295.2,1149.292h-56a1,1,0,1,1,0-1.992h56a1,1,0,1,1,0,1.992Z" transform="translate(-238.2 -1137.124)" fill-rule="evenodd"/>
        <path id="Trazado_1059101" data-name="Trazado 1059101" d="M492.214,731.028a3.114,3.114,0,1,1,3.114-3.114A3.117,3.117,0,0,1,492.214,731.028Zm0-4.238a1.124,1.124,0,1,0,1.124,1.124A1.125,1.125,0,0,0,492.214,726.79Z" transform="translate(-484.821 -721.829)" fill-rule="evenodd"/>
        <path id="Trazado_1059102" data-name="Trazado 1059102" d="M943.116,731.028a3.114,3.114,0,1,1,3.112-3.114A3.119,3.119,0,0,1,943.116,731.028Zm0-4.238a1.124,1.124,0,1,0,1.124,1.124A1.125,1.125,0,0,0,943.116,726.79Z" transform="translate(-928.031 -721.829)" fill-rule="evenodd"/>
        <path id="Trazado_1059103" data-name="Trazado 1059103" d="M1394.114,731.028a3.114,3.114,0,1,1,3.114-3.114A3.117,3.117,0,0,1,1394.114,731.028Zm0-4.238a1.124,1.124,0,1,0,1.124,1.124A1.125,1.125,0,0,0,1394.114,726.79Z" transform="translate(-1371.34 -721.829)" fill-rule="evenodd"/>
        <path id="Trazado_1059104" data-name="Trazado 1059104" d="M1899.512,850.892H1875.7a1,1,0,0,1,0-1.992h23.816a1,1,0,1,1,0,1.992Z" transform="translate(-1846.791 -843.813)" fill-rule="evenodd"/>
        <path id="Trazado_1059105" data-name="Trazado 1059105" d="M637.636,1717.668H593a1,1,0,0,1-1-1V1700.2a1,1,0,0,1,1-1h44.64a1,1,0,0,1,1,1v16.476A1,1,0,0,1,637.636,1717.668Zm-43.644-1.99h42.65v-14.486h-42.65Z" transform="translate(-585.966 -1679.612)" fill-rule="evenodd"/>
      </g>
      <g id="Grupo_1227106" data-name="Grupo 1227106" transform="translate(251.632 575.218)">
        <g id="Grupo_1227094" data-name="Grupo 1227094" transform="translate(7.828 0)">
          <path id="Trazado_1059106" data-name="Trazado 1059106" d="M1491.511,1996.092H1485.8a1,1,0,1,1,0-1.992h5.715a1,1,0,1,1,0,1.992Z" transform="translate(-1484.8 -1994.1)" fill-rule="evenodd"/>
        </g>
        <g id="Grupo_1227105" data-name="Grupo 1227105" transform="translate(0 0)">
          <g id="Grupo_1227095" data-name="Grupo 1227095" transform="translate(25.819 0)">
            <path id="Trazado_1059107" data-name="Trazado 1059107" d="M2543.063,1999.834H2540.7a1,1,0,0,1,0-1.992h2.367c.358,0,.662-.4.662-.875s-.3-.875-.662-.875H2540.7a1,1,0,0,1,0-1.992h2.367a2.876,2.876,0,0,1,0,5.734Z" transform="translate(-2539.7 -1994.1)" fill-rule="evenodd"/>
          </g>
          <g id="Grupo_1227104" data-name="Grupo 1227104">
            <g id="Grupo_1227100" data-name="Grupo 1227100">
              <g id="Grupo_1227098" data-name="Grupo 1227098">
                <g id="Grupo_1227096" data-name="Grupo 1227096">
                  <path id="Trazado_1059108" data-name="Trazado 1059108" d="M1026.8,2002.51a1,1,0,0,1-1-1V1995.1a1,1,0,0,1,1.992,0v6.418A1,1,0,0,1,1026.8,2002.51Z" transform="translate(-1025.8 -1994.1)" fill-rule="evenodd"/>
                </g>
                <g id="Grupo_1227097" data-name="Grupo 1227097" transform="translate(0 3.21)">
                  <path id="Trazado_1059109" data-name="Trazado 1059109" d="M1031.344,2184.292H1026.8a1,1,0,0,1,0-1.992h4.548a1,1,0,0,1,0,1.992Z" transform="translate(-1025.8 -2182.3)" fill-rule="evenodd"/>
                </g>
              </g>
              <g id="Grupo_1227099" data-name="Grupo 1227099" transform="translate(4.548)">
                <path id="Trazado_1059110" data-name="Trazado 1059110" d="M1293.5,2002.51a1,1,0,0,1-1-1V1995.1a1,1,0,0,1,1.992,0v6.418A1,1,0,0,1,1293.5,2002.51Z" transform="translate(-1292.5 -1994.1)" fill-rule="evenodd"/>
              </g>
            </g>
            <g id="Grupo_1227101" data-name="Grupo 1227101" transform="translate(25.82)">
              <path id="Trazado_1059111" data-name="Trazado 1059111" d="M2540.8,2002.51a1,1,0,0,1-1-1V1995.1a1,1,0,0,1,1.992,0v6.418A1,1,0,0,1,2540.8,2002.51Z" transform="translate(-2539.8 -1994.1)" fill-rule="evenodd"/>
            </g>
            <g id="Grupo_1227102" data-name="Grupo 1227102" transform="translate(10.688)">
              <path id="Trazado_1059112" data-name="Trazado 1059112" d="M1653.5,2002.51a1,1,0,0,1-1-1V1995.1a1,1,0,0,1,1.992,0v6.418A1,1,0,0,1,1653.5,2002.51Z" transform="translate(-1652.5 -1994.1)" fill-rule="evenodd"/>
            </g>
            <g id="Grupo_1227103" data-name="Grupo 1227103" transform="translate(19.682)">
              <path id="Trazado_1059113" data-name="Trazado 1059113" d="M2180.9,2002.51a1,1,0,0,1-1-1V1995.1a1,1,0,0,1,1.992,0v6.418A1,1,0,0,1,2180.9,2002.51Z" transform="translate(-2179.9 -1994.1)" fill-rule="evenodd"/>
            </g>
          </g>
        </g>
      </g>
      <g id="Grupo_1227107" data-name="Grupo 1227107" transform="translate(268.458 575.218)">
        <path id="Trazado_1059114" data-name="Trazado 1059114" d="M2019.111,1996.092H2013.4a1,1,0,0,1,0-1.992h5.715a1,1,0,1,1,0,1.992Z" transform="translate(-2012.4 -1994.1)" fill-rule="evenodd"/>
      </g>
      <path id="Trazado_1059115" data-name="Trazado 1059115" d="M405.632,672.389H381.815a1,1,0,0,1,0-1.992h23.816a1,1,0,0,1,0,1.992Zm3.283,3.1v-6.655a1.534,1.534,0,0,0-1.533-1.533H356.434a1.534,1.534,0,0,0-1.533,1.533v6.653h54.015ZM378.8,671.395a3.114,3.114,0,1,1-3.114-3.114A3.117,3.117,0,0,1,378.8,671.395Zm-7.69,0a3.115,3.115,0,1,1-3.116-3.114A3.118,3.118,0,0,1,371.109,671.395Zm-7.692,0a3.114,3.114,0,1,1-3.114-3.114A3.117,3.117,0,0,1,363.417,671.395Z" transform="translate(-114.71 -114.71)" fill="#ff826e" fill-rule="evenodd"/>
      <path id="Trazado_1059116" data-name="Trazado 1059116" d="M404.579,1289.989h-44.64a1,1,0,0,1-1-1v-16.476a1,1,0,0,1,1-1h44.64a1,1,0,0,1,1,1v16.476A1,1,0,0,1,404.579,1289.989Zm4.335,5.887V1264.1H354.9v31.776a1.534,1.534,0,0,0,1.533,1.533h50.948A1.534,1.534,0,0,0,408.914,1295.876Z" transform="translate(-114.71 -701.332)" fill="#f0f0f0" fill-rule="evenodd"/>
      <path id="Trazado_1059117" data-name="Trazado 1059117" d="M607.948,842.624a1.124,1.124,0,1,0-1.124,1.124A1.124,1.124,0,0,0,607.948,842.624Z" transform="translate(-361.232 -285.939)" fill="#ef7385" fill-rule="evenodd"/>
      <path id="Trazado_1059118" data-name="Trazado 1059118" d="M1059.048,842.624a1.124,1.124,0,1,0-1.124,1.124A1.126,1.126,0,0,0,1059.048,842.624Z" transform="translate(-804.639 -285.939)" fill="#ef7385" fill-rule="evenodd"/>
      <path id="Trazado_1059119" data-name="Trazado 1059119" d="M1509.948,842.624a1.124,1.124,0,1,0-1.124,1.124A1.125,1.125,0,0,0,1509.948,842.624Z" transform="translate(-1247.849 -285.939)" fill="#ef7385" fill-rule="evenodd"/>
    </g>
  </g>
</svg>
