<svg xmlns="http://www.w3.org/2000/svg" xmlns:xlink="http://www.w3.org/1999/xlink" width="113" height="113" viewBox="0 0 113 113">
  <defs>
    <filter id="Trazado_982547" x="0" y="0" width="113" height="113" filterUnits="userSpaceOnUse">
      <feOffset dy="3" input="SourceAlpha"/>
      <feGaussianBlur stdDeviation="3" result="blur"/>
      <feFlood flood-opacity="0.161"/>
      <feComposite operator="in" in2="blur"/>
      <feComposite in="SourceGraphic"/>
    </filter>
  </defs>
  <g id="Grupo_1227118" data-name="Grupo 1227118" transform="translate(-8551.676 -2149.216)">
    <g id="Grupo_1227052" data-name="Grupo 1227052" transform="translate(8560.676 2155.216)">
      <g id="Grupo_1226375" data-name="Grupo 1226375" transform="translate(0)">
        <g id="Grupo_1211216" data-name="Grupo 1211216">
          <g id="Grupo_1210737" data-name="Grupo 1210737">
            <g id="Grupo_1210537" data-name="Grupo 1210537">
              <g id="Grupo_1164202" data-name="Grupo 1164202">
                <g id="Grupo_1158168" data-name="Grupo 1158168">
                  <g id="Grupo_1152576" data-name="Grupo 1152576">
                    <g id="Grupo_1148633" data-name="Grupo 1148633">
                      <g id="Grupo_1148525" data-name="Grupo 1148525">
                        <g transform="matrix(1, 0, 0, 1, -9, -6)" filter="url(#Trazado_982547)">
                          <g id="Trazado_982547-2" data-name="Trazado 982547" transform="translate(9 6)" fill="#fef9e5">
                            <path d="M 47.49999618530273 93.5 C 41.28936767578125 93.5 35.26533126831055 92.28396606445312 29.59518241882324 89.88570404052734 C 24.11771583557129 87.56893157958984 19.19812965393066 84.251953125 14.97308921813965 80.02690124511719 C 10.74803638458252 75.80186462402344 7.431062698364258 70.88227844238281 5.114289283752441 65.40480804443359 C 2.716022968292236 59.73466110229492 1.499996185302734 53.71062469482422 1.499996185302734 47.49999618530273 C 1.499996185302734 41.28936767578125 2.716022968292236 35.26533126831055 5.114289283752441 29.59518241882324 C 7.431062698364258 24.11771583557129 10.74803638458252 19.19812965393066 14.97308921813965 14.97308921813965 C 19.19812965393066 10.74803638458252 24.11771583557129 7.431062698364258 29.59518241882324 5.114289283752441 C 35.26533126831055 2.716022968292236 41.28936767578125 1.499996185302734 47.49999618530273 1.499996185302734 C 53.71062469482422 1.499996185302734 59.73466110229492 2.716022968292236 65.40480804443359 5.114289283752441 C 70.88227844238281 7.431062698364258 75.80186462402344 10.74803638458252 80.02690124511719 14.97308921813965 C 84.251953125 19.19812965393066 87.56893157958984 24.11771583557129 89.88570404052734 29.59518241882324 C 92.28396606445312 35.26533126831055 93.5 41.28936767578125 93.5 47.49999618530273 C 93.5 53.71062469482422 92.28396606445312 59.73466110229492 89.88570404052734 65.40480804443359 C 87.56893157958984 70.88227844238281 84.251953125 75.80186462402344 80.02690124511719 80.02690124511719 C 75.80186462402344 84.251953125 70.88227844238281 87.56893157958984 65.40480804443359 89.88570404052734 C 59.73466110229492 92.28396606445312 53.71062469482422 93.5 47.49999618530273 93.5 Z" stroke="none"/>
                            <path d="M 47.49999618530273 2.999992370605469 C 41.4912109375 2.999992370605469 35.66376495361328 4.1761474609375 30.17950439453125 6.495796203613281 C 24.88084411621094 8.736953735351562 20.12152099609375 11.94598388671875 16.03375244140625 16.03375244140625 C 11.94598388671875 20.12152099609375 8.736953735351562 24.88084411621094 6.495796203613281 30.17950439453125 C 4.1761474609375 35.66376495361328 2.999992370605469 41.4912109375 2.999992370605469 47.49999618530273 C 2.999992370605469 53.50878143310547 4.1761474609375 59.33622741699219 6.495796203613281 64.82048797607422 C 8.736953735351562 70.11914825439453 11.94598388671875 74.87847137451172 16.03375244140625 78.96623992919922 C 20.12152099609375 83.05400848388672 24.88084411621094 86.26304626464844 30.17950439453125 88.50419616699219 C 35.66376495361328 90.82384490966797 41.4912109375 92 47.49999618530273 92 C 53.50878143310547 92 59.33622741699219 90.82384490966797 64.82048797607422 88.50419616699219 C 70.11914825439453 86.26304626464844 74.87847137451172 83.05400848388672 78.96623992919922 78.96623992919922 C 83.05400848388672 74.87847137451172 86.26304626464844 70.11914825439453 88.50419616699219 64.82048797607422 C 90.82384490966797 59.33622741699219 92 53.50878143310547 92 47.49999618530273 C 92 41.4912109375 90.82384490966797 35.66376495361328 88.50419616699219 30.17950439453125 C 86.26304626464844 24.88084411621094 83.05400848388672 20.12152099609375 78.96623992919922 16.03375244140625 C 74.87847137451172 11.94598388671875 70.11914825439453 8.736953735351562 64.82048797607422 6.495796203613281 C 59.33622741699219 4.1761474609375 53.50878143310547 2.999992370605469 47.49999618530273 2.999992370605469 M 47.49999618530273 -7.62939453125e-06 C 73.7335205078125 -7.62939453125e-06 95 21.26647186279297 95 47.49999618530273 C 95 73.7335205078125 73.7335205078125 95 47.49999618530273 95 C 21.26647186279297 95 -7.62939453125e-06 73.7335205078125 -7.62939453125e-06 47.49999618530273 C -7.62939453125e-06 21.26647186279297 21.26647186279297 -7.62939453125e-06 47.49999618530273 -7.62939453125e-06 Z" stroke="none" fill="#f6c810"/>
                          </g>
                        </g>
                      </g>
                    </g>
                  </g>
                </g>
              </g>
            </g>
          </g>
        </g>
      </g>
    </g>
    <g id="pruebas-de-software_4_" data-name="pruebas-de-software (4)" transform="translate(8579.691 2171)">
      <g id="Grupo_1227116" data-name="Grupo 1227116" transform="translate(1.157 0.834)">
        <path id="Trazado_1059132" data-name="Trazado 1059132" d="M65.054,362.706V366.6H10.4v-3.894l30.987-1.977Z" transform="translate(-10.4 -321.426)" fill="#756e78"/>
        <path id="Trazado_1059133" data-name="Trazado 1059133" d="M65.054,116.46v29.156H10.4V116.46H29.778s1.03,6.962,7.838,6.962,7.227-6.962,7.227-6.962Z" transform="translate(-10.4 -104.336)" fill="#b2e5fb"/>
        <path id="Trazado_1059134" data-name="Trazado 1059134" d="M469.161,370.737v3.894H465.1a3.651,3.651,0,0,0,.977-2.386v-1.509l1.471-.972Z" transform="translate(-414.507 -329.457)" fill="#655f66"/>
        <path id="Trazado_1059135" data-name="Trazado 1059135" d="M468.157,116.46v29.156h-3.084V119.631a4.624,4.624,0,0,0-1.1-3.171Z" transform="translate(-413.503 -104.336)" fill="#90d8f9"/>
        <path id="Trazado_1059136" data-name="Trazado 1059136" d="M178.511,419.646l-3.263.414a10.684,10.684,0,0,0-15.577,0l-3.3-.353L159.7,413.5h15.519Z" transform="translate(-140.132 -368.326)" fill="#cee0ea"/>
        <path id="Trazado_1059137" data-name="Trazado 1059137" d="M146.374,471.394l-2.322.223h-27.5a.582.582,0,0,1-.556-.6V468.1a.582.582,0,0,1,.556-.6h28.085l1.735.223a.582.582,0,0,1,.556.6v2.462A.582.582,0,0,1,146.374,471.394Z" transform="translate(-104.248 -416.317)" fill="#e6edf4"/>
        <path id="Trazado_1059138" data-name="Trazado 1059138" d="M370.342,468.1v2.907a.582.582,0,0,1-.556.6H367.13c.646,0,.7-.624.7-.912v-3.2h1.958A.582.582,0,0,1,370.342,468.1Z" transform="translate(-327.438 -416.317)" fill="#cee0ea"/>
        <g id="Grupo_1227113" data-name="Grupo 1227113" transform="translate(15.805)">
          <circle id="Elipse_13567" data-name="Elipse 13567" cx="7.392" cy="7.392" r="7.392" transform="translate(3.996 4.425)" fill="#b2e5fb"/>
          <g id="Grupo_1227111" data-name="Grupo 1227111">
            <path id="Trazado_1059139" data-name="Trazado 1059139" d="M174.335,17l-.819-.065a.332.332,0,0,1-.321-.242,11.122,11.122,0,0,0-.8-2.483.332.332,0,0,1,.056-.4l.821-.821a.667.667,0,0,0,0-.944l-2.329-2.329a.667.667,0,0,0-.945,0l-.816.816a.332.332,0,0,1-.4.056,9.657,9.657,0,0,0-2.258-.937.332.332,0,0,1-.242-.321V8.168a.668.668,0,0,0-.668-.668h-3.294a.668.668,0,0,0-.668.668V9.323a.331.331,0,0,1-.242.321,9.628,9.628,0,0,0-2.258.933.332.332,0,0,1-.4-.056l-.821-.82a.666.666,0,0,0-.944,0l-2.329,2.329a.666.666,0,0,0,0,.944l.817.817a.332.332,0,0,1,.055.4,9.65,9.65,0,0,0-.937,2.256.332.332,0,0,1-.321.242h-1.161a.668.668,0,0,0-.668.668v3.294a.668.668,0,0,0,.668.668h1.155a.332.332,0,0,1,.321.243,9.625,9.625,0,0,0,.933,2.259.33.33,0,0,1-.045.385s.023.143.019.147l-.415.664a.669.669,0,0,0,0,.945l1.99,1.99a.668.668,0,0,0,.944,0l.817-.817a.332.332,0,0,1,.4-.055,10.8,10.8,0,0,0,2.385,1,.332.332,0,0,1,.242.321v1.161a.668.668,0,0,0,.668.668l2.819.176a.668.668,0,0,0,.668-.668V28.575a.332.332,0,0,1,.242-.321,12.114,12.114,0,0,0,2.527-1.06.332.332,0,0,1,.4.056l.821.821a.667.667,0,0,0,.945,0L172.993,26a.667.667,0,0,0,0-.944l-.817-.817a.332.332,0,0,1-.055-.4,10.83,10.83,0,0,0,.956-2.4.332.332,0,0,1,.321-.242h1.161a.668.668,0,0,0,.668-.668L175,17.664A.668.668,0,0,0,174.335,17Zm-10.375,7.922a5.907,5.907,0,1,1,5.906-5.906A5.906,5.906,0,0,1,163.961,24.918Z" transform="translate(-152.449 -7.5)" fill="#756e78"/>
          </g>
          <g id="Grupo_1227112" data-name="Grupo 1227112" transform="translate(2.005 6.706)">
            <path id="Trazado_1059140" data-name="Trazado 1059140" d="M191.484,70.938v3.295a.668.668,0,0,1-.668.668h-1.161a.331.331,0,0,0-.32.241A9.689,9.689,0,0,1,188.4,77.4a.332.332,0,0,0,.055.4l.818.818a.668.668,0,0,1,0,.944l-2.329,2.329a.667.667,0,0,1-.945,0l-.821-.821a.332.332,0,0,0-.4-.056,9.618,9.618,0,0,1-2.258.934.33.33,0,0,0-.243.32V83.42a.668.668,0,0,1-.668.668h-3.294a.668.668,0,0,1-.668-.668V82.259a.331.331,0,0,0-.241-.32A9.689,9.689,0,0,1,175.15,81a.332.332,0,0,0-.4.055l-.818.818a.668.668,0,0,1-.944,0l-2.33-2.329a.669.669,0,0,1,0-.945l.821-.82.011-.013c8.266,4.983,16.414-1.789,16.914-10a9.684,9.684,0,0,1,.934,2.258.33.33,0,0,0,.32.243h1.156a.668.668,0,0,1,.668.668Z" transform="translate(-170.465 -67.77)" fill="#655f66"/>
          </g>
        </g>
        <g id="Grupo_1227114" data-name="Grupo 1227114" transform="translate(8.846 23.113)">
          <path id="Trazado_1059141" data-name="Trazado 1059141" d="M104.315,222.684a6.727,6.727,0,0,1-7.022,7.013c-2.687,0-4.492-1.3-6.286-3.106a7.461,7.461,0,0,1,10.262-10.263A8.442,8.442,0,0,1,104.315,222.684Z" transform="translate(-89.903 -215.224)" fill="#fe93d3"/>
          <path id="Trazado_1059142" data-name="Trazado 1059142" d="M113.645,231.506a7.46,7.46,0,0,1-13.815,3.907,7.46,7.46,0,0,0,10.262-10.262,7.454,7.454,0,0,1,3.553,6.356Z" transform="translate(-98.725 -224.046)" fill="#fe73c5"/>
        </g>
        <g id="Grupo_1227115" data-name="Grupo 1227115" transform="translate(30.889 23.113)">
          <path id="Trazado_1059143" data-name="Trazado 1059143" d="M302.467,222.684a6.882,6.882,0,0,1-7.228,7c-2.688,0-4.443-1.184-6.124-3.091a7.461,7.461,0,0,1,10.262-10.262A8.113,8.113,0,0,1,302.467,222.684Z" transform="translate(-288.012 -215.224)" fill="#66c6a6"/>
          <path id="Trazado_1059144" data-name="Trazado 1059144" d="M311.746,231.5A7.46,7.46,0,0,1,297.93,235.4a7.461,7.461,0,0,0,10.262-10.262A7.456,7.456,0,0,1,311.746,231.5Z" transform="translate(-296.826 -224.037)" fill="#50b29f"/>
        </g>
      </g>
      <g id="Grupo_1227117" data-name="Grupo 1227117" transform="translate(0 0)">
        <path id="Trazado_1059145" data-name="Trazado 1059145" d="M55.022,11.9H40.82V10.709a1.5,1.5,0,0,0-1.5-1.5h-.78a10.464,10.464,0,0,0-.719-1.739l.556-.556a1.5,1.5,0,0,0,0-2.124L36.046,2.458a1.5,1.5,0,0,0-2.124,0l-.551.551a10.477,10.477,0,0,0-1.738-.722V1.5A1.5,1.5,0,0,0,30.13,0H26.837a1.5,1.5,0,0,0-1.5,1.5v.78A10.465,10.465,0,0,0,23.6,3l-.556-.556a1.5,1.5,0,0,0-2.124,0L18.586,4.774a1.5,1.5,0,0,0,0,2.124l.551.551a10.466,10.466,0,0,0-.722,1.738H17.63a1.5,1.5,0,0,0-1.5,1.5V11.9H9.458a.835.835,0,0,0,0,1.669h6.67v.413a1.5,1.5,0,0,0,1.5,1.5h.78a10.464,10.464,0,0,0,.719,1.739l-.556.556a1.5,1.5,0,0,0,0,2.124L20.9,22.234a1.5,1.5,0,0,0,2.124,0l.551-.551a10.473,10.473,0,0,0,1.738.722v.786a1.5,1.5,0,0,0,1.5,1.5h3.294a1.5,1.5,0,0,0,1.5-1.5v-.78a10.464,10.464,0,0,0,1.739-.719l.556.556a1.5,1.5,0,0,0,2.124,0l2.329-2.329a1.5,1.5,0,0,0,0-2.124l-.551-.551a10.473,10.473,0,0,0,.722-1.738h.786a1.5,1.5,0,0,0,1.5-1.5V13.57h14.2a.279.279,0,0,1,.278.278V41.28H1.669V13.848a.279.279,0,0,1,.278-.278H5.563a.835.835,0,0,0,0-1.669H1.947A1.949,1.949,0,0,0,0,13.848V45A1.949,1.949,0,0,0,1.947,46.95H10a.835.835,0,1,0,0-1.669H1.947A.279.279,0,0,1,1.669,45V42.949H55.3V45a.279.279,0,0,1-.278.278H13.9a.835.835,0,0,0,0,1.669h5.4l-2.444,4.562H13.464A1.392,1.392,0,0,0,12.074,52.9v2.675a1.392,1.392,0,0,0,1.391,1.391H31.21a.835.835,0,0,0,0-1.669H13.743V53.181H42.969V55.3H35.1a.835.835,0,0,0,0,1.669h8.143a1.392,1.392,0,0,0,1.391-1.391V52.9a1.392,1.392,0,0,0-1.391-1.391H40.111L37.667,46.95H55.022A1.949,1.949,0,0,0,56.969,45V13.848A1.949,1.949,0,0,0,55.022,11.9Zm-15.87,1.934H37.9a.834.834,0,0,0-.81.635,8.808,8.808,0,0,1-1.03,2.479.834.834,0,0,0,.123,1.024l.882.882-2.093,2.093-.885-.885a.834.834,0,0,0-1.022-.124,8.809,8.809,0,0,1-2.481,1.025.835.835,0,0,0-.637.811v1.247h-2.96V21.771a.834.834,0,0,0-.635-.81,8.808,8.808,0,0,1-2.479-1.03.835.835,0,0,0-1.024.123l-.882.882-2.093-2.093.885-.885a.834.834,0,0,0,.124-1.022,8.809,8.809,0,0,1-1.025-2.481.835.835,0,0,0-.811-.637H17.8v-2.96h1.252a.834.834,0,0,0,.81-.635,8.808,8.808,0,0,1,1.03-2.479.834.834,0,0,0-.123-1.024l-.882-.882,2.093-2.093.885.885a.834.834,0,0,0,1.022.124,8.811,8.811,0,0,1,2.481-1.025A.835.835,0,0,0,27,2.916V1.669h2.96V2.921a.834.834,0,0,0,.635.81,8.812,8.812,0,0,1,2.479,1.03A.834.834,0,0,0,34.1,4.638l.882-.882L37.077,5.85l-.885.885a.834.834,0,0,0-.124,1.022,8.81,8.81,0,0,1,1.025,2.481.835.835,0,0,0,.811.637h1.247v2.96ZM22.942,51.512a9.877,9.877,0,0,1,11.084,0Zm15.275,0H36.626a11.52,11.52,0,0,0-16.284,0H18.752L21.2,46.95H35.774Z" transform="translate(0 0)"/>
        <path id="Trazado_1059146" data-name="Trazado 1059146" d="M202.064,50.375a6.741,6.741,0,1,0,6.741,6.741A6.749,6.749,0,0,0,202.064,50.375Zm0,11.813a5.072,5.072,0,1,1,5.072-5.072A5.078,5.078,0,0,1,202.064,62.188Z" transform="translate(-173.59 -44.77)"/>
        <path id="Trazado_1059147" data-name="Trazado 1059147" d="M98.992,216.019a8.294,8.294,0,1,0-8.294,8.294A8.3,8.3,0,0,0,98.992,216.019Zm-14.919,0a6.625,6.625,0,1,1,6.625,6.625A6.633,6.633,0,0,1,84.073,216.019Z" transform="translate(-73.235 -184.612)"/>
        <path id="Trazado_1059148" data-name="Trazado 1059148" d="M134.054,260.557a.834.834,0,0,0,1.18-1.18l-1.648-1.648,1.648-1.648a.834.834,0,0,0-1.18-1.18l-1.648,1.648-1.648-1.648a.834.834,0,0,0-1.18,1.18l1.648,1.648-1.648,1.648a.834.834,0,1,0,1.18,1.18l1.648-1.648Z" transform="translate(-114.944 -226.322)"/>
        <path id="Trazado_1059149" data-name="Trazado 1059149" d="M284.122,217.615a.835.835,0,0,0-1.62.4,8.293,8.293,0,1,0,.088-4.329.835.835,0,0,0,1.6.468,6.627,6.627,0,1,1-.07,3.46Z" transform="translate(-251.047 -184.608)"/>
        <path id="Trazado_1059150" data-name="Trazado 1059150" d="M324.993,260.78h.027a.835.835,0,0,0,.631-.321l3.829-4.914a.835.835,0,0,0-1.317-1.026l-3.213,4.123-1.678-1.889a.835.835,0,1,0-1.248,1.108l2.344,2.639A.835.835,0,0,0,324.993,260.78Z" transform="translate(-286.008 -225.913)"/>
      </g>
    </g>
  </g>
</svg>
