<svg xmlns="http://www.w3.org/2000/svg" xmlns:xlink="http://www.w3.org/1999/xlink" width="108" height="108" viewBox="0 0 108 108">
  <defs>
    <filter id="Trazado_904820" x="0" y="0" width="108" height="108" filterUnits="userSpaceOnUse">
      <feOffset dy="3" input="SourceAlpha"/>
      <feGaussianBlur stdDeviation="3" result="blur"/>
      <feFlood flood-opacity="0.161"/>
      <feComposite operator="in" in2="blur"/>
      <feComposite in="SourceGraphic"/>
    </filter>
  </defs>
  <g id="Grupo_1210302" data-name="Grupo 1210302" transform="translate(9 6)">
    <g id="Grupo_1173585" data-name="Grupo 1173585" transform="translate(0 0)">
      <g id="Grupo_1173428" data-name="Grupo 1173428">
        <g id="Grupo_1171958" data-name="Grupo 1171958">
          <g id="Grupo_1167341" data-name="Grupo 1167341">
            <g id="Grupo_1166792" data-name="Grupo 1166792">
              <g transform="matrix(1, 0, 0, 1, -9, -6)" filter="url(#Trazado_904820)">
                <g id="Trazado_904820-2" data-name="Trazado 904820" transform="translate(9 6)" fill="#e5fdfa">
                  <path d="M 44.99996948242188 88.50001525878906 C 39.12684631347656 88.50001525878906 33.43020629882812 87.35009002685547 28.06828117370605 85.08217620849609 C 22.88851928710938 82.89132690429688 18.23629379272461 79.75460052490234 14.2408447265625 75.75914764404297 C 10.24540710449219 71.76370239257812 7.108694553375244 67.11147308349609 4.917831897735596 61.93171310424805 C 2.649931907653809 56.56977462768555 1.500007033348083 50.87313461303711 1.500007033348083 45.0000114440918 C 1.500007033348083 39.12688827514648 2.649931907653809 33.43023681640625 4.917831897735596 28.06831169128418 C 7.108694553375244 22.88853645324707 10.24540710449219 18.2363109588623 14.2408447265625 14.2408618927002 C 18.23629379272461 10.24542427062988 22.88850784301758 7.108698844909668 28.06828117370605 4.917836666107178 C 33.43020629882812 2.649936437606812 39.12684631347656 1.500011444091797 44.99996948242188 1.500011444091797 C 50.87309265136719 1.500011444091797 56.56973266601562 2.649936437606812 61.93165588378906 4.917836666107178 C 67.11143493652344 7.108698844909668 71.76364135742188 10.24542427062988 75.75909423828125 14.2408618927002 C 79.75454711914062 18.2363109588623 82.89125823974609 22.88853645324707 85.08212280273438 28.06831169128418 C 87.35002136230469 33.43023681640625 88.49994659423828 39.12688827514648 88.49994659423828 45.0000114440918 C 88.49994659423828 50.87313461303711 87.35002136230469 56.56977462768555 85.08212280273438 61.93171310424805 C 82.89125823974609 67.11147308349609 79.75454711914062 71.76370239257812 75.75909423828125 75.75914764404297 C 71.76364135742188 79.75460052490234 67.11143493652344 82.89132690429688 61.93165588378906 85.08217620849609 C 56.56973266601562 87.35009002685547 50.87309265136719 88.50001525878906 44.99996948242188 88.50001525878906 Z" stroke="none"/>
                  <path d="M 44.99996948242188 3.000007629394531 C 39.32868194580078 3.000007629394531 33.82863998413086 4.110069274902344 28.65261077880859 6.299354553222656 C 23.65164184570312 8.414581298828125 19.15968322753906 11.44335174560547 15.30149841308594 15.30152893066406 C 11.44332885742188 19.15969848632812 8.414566040039062 23.65167236328125 6.299324035644531 28.65264129638672 C 4.110054016113281 33.82866668701172 3 39.3287239074707 3 45.0000114440918 C 3 50.67129898071289 4.110054016113281 56.17134094238281 6.299324035644531 61.34738159179688 C 8.414566040039062 66.34835815429688 11.44332885742188 70.84030914306641 15.30149841308594 74.69849395751953 C 19.15968322753906 78.55667114257812 23.65164184570312 81.58544158935547 28.65261077880859 83.70066833496094 C 33.82863998413086 85.88995361328125 39.32868194580078 87.00001525878906 44.99996948242188 87.00001525878906 C 50.67125701904297 87.00001525878906 56.17129898071289 85.88995361328125 61.34732818603516 83.70066833496094 C 66.34829711914062 81.58544158935547 70.84025573730469 78.55667114257812 74.69844055175781 74.69849395751953 C 78.55661010742188 70.84030914306641 81.58537292480469 66.34835815429688 83.70061492919922 61.34738159179688 C 85.88988494873047 56.17134094238281 86.99993896484375 50.67129898071289 86.99993896484375 45.0000114440918 C 86.99993896484375 39.3287239074707 85.88988494873047 33.82866668701172 83.70061492919922 28.65264129638672 C 81.58537292480469 23.65167236328125 78.55661010742188 19.15969848632812 74.69844055175781 15.30152893066406 C 70.84025573730469 11.44335174560547 66.34829711914062 8.414581298828125 61.34732818603516 6.299354553222656 C 56.17129898071289 4.110069274902344 50.67125701904297 3.000007629394531 44.99996948242188 3.000007629394531 M 44.99996948242188 7.62939453125e-06 C 69.85276794433594 7.62939453125e-06 89.99993896484375 20.14719390869141 89.99993896484375 45.0000114440918 C 89.99993896484375 69.85281372070312 69.85276794433594 90.00001525878906 44.99996948242188 90.00001525878906 C 20.14717102050781 90.00001525878906 0 69.85281372070312 0 45.0000114440918 C 0 20.14719390869141 20.14717102050781 7.62939453125e-06 44.99996948242188 7.62939453125e-06 Z" stroke="none" fill="#098576"/>
                </g>
              </g>
            </g>
          </g>
        </g>
      </g>
    </g>
    <g id="programador_3_" data-name="programador (3)" transform="translate(17.013 17.051)">
      <path id="Trazado_1058976" data-name="Trazado 1058976" d="M130.145,223.846v6.339l6.981.219v0l.008,0v-6.579A8.366,8.366,0,0,1,130.145,223.846Z" transform="translate(-115.898 -199.381)" fill="#eab883"/>
      <path id="Trazado_1058977" data-name="Trazado 1058977" d="M133.421,224.831a8.08,8.08,0,0,1-3.276-.749v6.339l4.008.126-.507-1.4C133.283,228.143,133.475,227.594,133.421,224.831Z" transform="translate(-115.898 -199.617)" fill="#dda36f"/>
      <path id="Trazado_1058978" data-name="Trazado 1058978" d="M140.914,268.772a5,5,0,0,1-5.862-.035l-.045-.033V275.7h6V268.7Z" transform="translate(-120.23 -239.368)" fill="#efefef"/>
      <path id="Trazado_1058979" data-name="Trazado 1058979" d="M139.946,274.337l-1.678-4.639a5.206,5.206,0,0,1-3.26-.993V275.7h3.3C138.877,275.278,139.946,274.337,139.946,274.337Z" transform="translate(-120.23 -239.369)" fill="#ddd"/>
      <path id="Trazado_1058980" data-name="Trazado 1058980" d="M41.253,286.841l-2.88-17.9a3.934,3.934,0,0,0-3-3.053h0L32.153,265l-.392-.231-6.449,5.781,0,0a.963.963,0,0,1-1.8,0l0,0-6.449-5.781-.392.231-3.216.89h0a3.934,3.934,0,0,0-3,3.053l-2.88,17.9a3.473,3.473,0,0,0,3.405,4.1h26.87A3.473,3.473,0,0,0,41.253,286.841Z" transform="translate(-6.664 -235.861)" fill="#70b5e8"/>
      <g id="Grupo_1227053" data-name="Grupo 1227053" transform="translate(0.859 26.638)">
        <path id="Trazado_1058981" data-name="Trazado 1058981" d="M10.842,293.327l2.88-19.428a3.775,3.775,0,0,1,.915-1.852l-1.18.327h0a3.934,3.934,0,0,0-3,3.053l-2.88,17.9a3.473,3.473,0,0,0,3.406,4.1h3.269A3.473,3.473,0,0,1,10.842,293.327Z" transform="translate(-7.524 -268.984)" fill="#52a5d8"/>
        <path id="Trazado_1058982" data-name="Trazado 1058982" d="M98.167,252.035l-6.841-5.55,4.238-2.5v1.328Z" transform="translate(-82.177 -243.985)" fill="#52a5d8"/>
        <path id="Trazado_1058983" data-name="Trazado 1058983" d="M170.455,252.035l6.841-5.55-4.253-2.5v1.328Z" transform="translate(-152.667 -243.985)" fill="#52a5d8"/>
      </g>
      <path id="Trazado_1058984" data-name="Trazado 1058984" d="M109.137,415.283v3.986h8.455v-3.986A2.359,2.359,0,0,1,119.379,413a4.791,4.791,0,0,1-2.279-3.388.984.984,0,0,0-.962-.787h-5.61a.985.985,0,0,0-.962.788,4.8,4.8,0,0,1-2.258,3.377A2.36,2.36,0,0,1,109.137,415.283Z" transform="translate(-95.555 -364.189)" fill="#a4d9f4"/>
      <path id="Trazado_1058985" data-name="Trazado 1058985" d="M111.962,419.269v-3.892a2.517,2.517,0,0,0-.477-1.477,2.058,2.058,0,0,1,.019-2.357,6.438,6.438,0,0,0,.919-2.266,1.069,1.069,0,0,1,.215-.454h-2.11a.985.985,0,0,0-.962.788,4.8,4.8,0,0,1-2.258,3.377,2.36,2.36,0,0,1,1.829,2.3v3.986Z" transform="translate(-95.556 -364.189)" fill="#84c7ef"/>
      <g id="Grupo_1227054" data-name="Grupo 1227054" transform="translate(12.982 50.515)">
        <path id="Trazado_1058986" data-name="Trazado 1058986" d="M167,462.688h-.215a4.578,4.578,0,0,0-4.565,4.565H167v-4.565Z" transform="translate(-157.455 -462.688)" fill="#eab883"/>
        <path id="Trazado_1058987" data-name="Trazado 1058987" d="M118.563,462.688v4.565h4.766a4.578,4.578,0,0,0-4.565-4.565Z" transform="translate(-118.563 -462.688)" fill="#eab883"/>
      </g>
      <g id="Grupo_1227055" data-name="Grupo 1227055" transform="translate(12.982 52.797)">
        <path id="Trazado_1058988" data-name="Trazado 1058988" d="M162.222,485.877H167v-2.283h-4.163A4.525,4.525,0,0,0,162.222,485.877Z" transform="translate(-157.455 -483.594)" fill="#dda36f"/>
        <path id="Trazado_1058989" data-name="Trazado 1058989" d="M118.563,483.594v2.283h4.767a4.526,4.526,0,0,0-.617-2.283Z" transform="translate(-118.563 -483.594)" fill="#dda36f"/>
      </g>
      <path id="Trazado_1058990" data-name="Trazado 1058990" d="M83.006,10.5a1.276,1.276,0,0,1-.725-.444c-2.84-3.54-10.394-3.246-14.321.681-3.619,3.619-1.617,9.393-1.617,9.393H86.354C88.1,12.79,84.348,10.795,83.006,10.5Z" transform="translate(-58.569 -6.757)" fill="#93482b"/>
      <path id="Trazado_1058991" data-name="Trazado 1058991" d="M72.923,10.74a11.105,11.105,0,0,1,5.558-2.885A11.814,11.814,0,0,0,67.959,10.74c-3.619,3.619-1.617,9.393-1.617,9.393h4.964S69.3,14.359,72.923,10.74Z" transform="translate(-58.569 -6.759)" fill="#843d26"/>
      <g id="Grupo_1227056" data-name="Grupo 1227056" transform="translate(6.809 12.387)">
        <path id="Trazado_1058992" data-name="Trazado 1058992" d="M63,113.941l0,0a1.977,1.977,0,0,0,0,3.408l0,0a2.924,2.924,0,0,0,1.629.479v-4.36h0A2.924,2.924,0,0,0,63,113.941Z" transform="translate(-62.018 -113.462)" fill="#eab883"/>
        <path id="Trazado_1058993" data-name="Trazado 1058993" d="M240.7,113.943l0,0a2.136,2.136,0,0,1,.944,1.371l0,.009c.006.032.011.065.015.1,0,.009,0,.018,0,.027,0,.028.006.056.008.084s0,.05,0,.075,0,.025,0,.038v.005c0,.013,0,.025,0,.038s0,.05,0,.075,0,.056-.008.084c0,.009,0,.018,0,.027,0,.033-.009.065-.015.1l0,.009a2.135,2.135,0,0,1-.944,1.371l0,0a2.924,2.924,0,0,1-1.629.479v-4.36A2.953,2.953,0,0,1,240.7,113.943Z" transform="translate(-219.744 -113.464)" fill="#eab883"/>
      </g>
      <g id="Grupo_1227057" data-name="Grupo 1227057" transform="translate(6.808 13.587)">
        <path id="Trazado_1058994" data-name="Trazado 1058994" d="M62.987,125.169a2.313,2.313,0,0,1-.695-.723,1.959,1.959,0,0,0,.695,2.684l0,0a2.924,2.924,0,0,0,1.629.479v-1.961a2.923,2.923,0,0,1-1.629-.479Z" transform="translate(-62.013 -124.446)" fill="#dda36f"/>
        <path id="Trazado_1058995" data-name="Trazado 1058995" d="M241.679,125.385c0-.025,0-.05,0-.075s0-.056-.008-.084c0-.009,0-.018,0-.027q-.006-.049-.015-.1l0-.009a1.927,1.927,0,0,0-.249-.648,2.31,2.31,0,0,1-.695.723l0,0a2.924,2.924,0,0,1-1.629.479v1.961a2.924,2.924,0,0,0,1.629-.479l0,0a2.135,2.135,0,0,0,.944-1.371l0-.009c.006-.032.011-.065.015-.1,0-.009,0-.018,0-.027,0-.028.006-.056.008-.084s0-.05,0-.075,0-.025,0-.038v-.005C241.68,125.41,241.679,125.4,241.679,125.385Z" transform="translate(-219.743 -124.445)" fill="#dda36f"/>
      </g>
      <path id="Trazado_1058996" data-name="Trazado 1058996" d="M102.421,103.309V100.5a3.6,3.6,0,0,1-3.326-1.3.743.743,0,0,0-1.021-.152c-1.979,1.435-7.557,3.654-12.4,1.449v1.6h-.009a34.246,34.246,0,0,0,.235,5.44,8.375,8.375,0,0,0,16.522-1.937c0-.948,0-1.7,0-2.3h0Z" transform="translate(-76.268 -88.114)" fill="#f7cf9c"/>
      <path id="Trazado_1058997" data-name="Trazado 1058997" d="M89.144,120.506a34.246,34.246,0,0,1-.235-5.44h.009v-.737a10.4,10.4,0,0,1-3.246-.867v1.6h-.009a34.26,34.26,0,0,0,.235,5.44,8.311,8.311,0,0,0,9.685,6.28A8.415,8.415,0,0,1,89.144,120.506Z" transform="translate(-76.268 -101.075)" fill="#eab883"/>
      <path id="Trazado_1058998" data-name="Trazado 1058998" d="M258.346,229.264c-29.512,0-27.547-.057-27.951.162a1.345,1.345,0,0,0-.7,1.183v21.5a1.345,1.345,0,0,0,1.346,1.345h27.31a1.345,1.345,0,0,0,1.346-1.345v-21.5A1.525,1.525,0,0,0,258.346,229.264Z" transform="translate(-204.576 -204.228)" fill="#efefef"/>
      <path id="Trazado_1058999" data-name="Trazado 1058999" d="M234.371,252.12v-21.5a1.345,1.345,0,0,1,1.345-1.346c-4.741.054-4.8-.123-5.322.162a1.345,1.345,0,0,0-.7,1.183v21.5a1.345,1.345,0,0,0,1.346,1.345h4.68A1.346,1.346,0,0,1,234.371,252.12Z" transform="translate(-204.576 -204.238)" fill="#ddd"/>
      <path id="Trazado_1059000" data-name="Trazado 1059000" d="M318.376,79.936H300.888a1.314,1.314,0,0,0-1.31,1.31v8.842a1.314,1.314,0,0,0,1.31,1.31h15.394a1.439,1.439,0,0,1,.968.374l1.276,1.159a.694.694,0,0,0,1.161-.514V81.246A1.314,1.314,0,0,0,318.376,79.936Z" transform="translate(-266.833 -71.209)" fill="#ffb70d"/>
      <path id="Trazado_1059001" data-name="Trazado 1059001" d="M303.218,90.088V81.246a1.314,1.314,0,0,1,1.31-1.31h-3.639a1.314,1.314,0,0,0-1.31,1.31v8.842a1.314,1.314,0,0,0,1.31,1.31h3.639A1.314,1.314,0,0,1,303.218,90.088Z" transform="translate(-266.834 -71.209)" fill="#f4a403"/>
      <circle id="Elipse_13562" data-name="Elipse 13562" cx="1.776" cy="1.776" r="1.776" transform="translate(38.319 29.429)" fill="#ccc"/>
      <path id="Trazado_1059002" data-name="Trazado 1059002" d="M352.392,269.56a1.775,1.775,0,1,0,1.536,2.661A1.774,1.774,0,0,1,352.392,269.56Z" transform="translate(-312.296 -240.13)" fill="#bcbbb8"/>
      <path id="Trazado_1059003" data-name="Trazado 1059003" d="M345.978,355.072V338.425a0,0,0,0,0,0,0h-6.142a0,0,0,0,0,0,0v16.647Z" transform="translate(-302.691 -301.474)" fill="#ddd"/>
      <path id="Trazado_1059004" data-name="Trazado 1059004" d="M342.9,338.425a0,0,0,0,1,0,0h-3.074a0,0,0,0,0,0,0v16.647H342.9Z" transform="translate(-302.691 -301.474)" fill="#ccc"/>
      <path id="Trazado_1059005" data-name="Trazado 1059005" d="M325.622,478.84h0a1.482,1.482,0,0,0-1.482-1.482h-8.619a1.482,1.482,0,0,0-1.482,1.482h0a1.482,1.482,0,0,0,1.482,1.482h8.619A1.482,1.482,0,0,0,325.622,478.84Z" transform="translate(-279.716 -425.242)" fill="#efefef"/>
      <path id="Trazado_1059006" data-name="Trazado 1059006" d="M318.447,478.84h0a1.482,1.482,0,0,1,1.482-1.482h-4.406a1.482,1.482,0,0,0-1.482,1.482h0a1.482,1.482,0,0,0,1.482,1.482h4.406A1.482,1.482,0,0,1,318.447,478.84Z" transform="translate(-279.717 -425.242)" fill="#ddd"/>
      <path id="Trazado_1059007" data-name="Trazado 1059007" d="M343.117,264.643a2.595,2.595,0,1,0,2.595-2.595A2.6,2.6,0,0,0,343.117,264.643Zm3.552,0a.957.957,0,1,1-.957-.957A.958.958,0,0,1,346.669,264.643Z" transform="translate(-305.619 -233.438)"/>
      <path id="Trazado_1059008" data-name="Trazado 1059008" d="M254.32,410.5a.819.819,0,1,0,0,1.637h2.52a.819.819,0,1,0,0-1.637Z" transform="translate(-225.787 -365.686)"/>
      <path id="Trazado_1059009" data-name="Trazado 1059009" d="M303.351,410.744a.826.826,0,0,0-.739-.224.818.818,0,0,0-.153.047.842.842,0,0,0-.142.075.8.8,0,0,0-.226.226.842.842,0,0,0-.122.295.815.815,0,0,0,.49.916.817.817,0,0,0,1.069-1.069A1.092,1.092,0,0,0,303.351,410.744Z" transform="translate(-268.95 -365.687)"/>
      <path id="Trazado_1059010" data-name="Trazado 1059010" d="M336.312,105.009a.819.819,0,0,0-1.158,0l-2.021,2.021a.819.819,0,0,0,0,1.158l2.021,2.021a.819.819,0,0,0,1.158-1.158l-1.442-1.442,1.442-1.442A.819.819,0,0,0,336.312,105.009Z" transform="translate(-296.511 -93.331)"/>
      <path id="Trazado_1059011" data-name="Trazado 1059011" d="M414.052,110.448c.586,0,.634-.4,2.6-2.26a.819.819,0,0,0,0-1.158l-2.021-2.021a.819.819,0,0,0-1.158,1.158l1.442,1.442-1.442,1.442A.82.82,0,0,0,414.052,110.448Z" transform="translate(-368.079 -93.331)"/>
      <path id="Trazado_1059012" data-name="Trazado 1059012" d="M373.435,96.911l-2.269,6.235a.819.819,0,1,0,1.539.56l2.269-6.235a.819.819,0,1,0-1.539-.56Z" transform="translate(-330.56 -85.851)"/>
      <path id="Trazado_1059013" data-name="Trazado 1059013" d="M53.768,24.218c-28.46.092-27.44-.229-28.342.262a2.164,2.164,0,0,0-1.132,1.9V27.54l-2.241-1.363V25.6a9.018,9.018,0,0,0,4.9-8.108V17.48A3.63,3.63,0,0,0,28.141,17a.812.812,0,0,0,.084-.05,2.883,2.883,0,0,0,1.334-2.31,2.756,2.756,0,0,0-.883-2.09c.649-3.055.431-5.479-.655-7.207a5.382,5.382,0,0,0-3.427-2.4.46.46,0,0,1-.262-.156C22.025-.088,16.9-.848,12.417,1.02a.819.819,0,1,0,.629,1.512C16.821.96,21.218,1.522,23.055,3.812a2.1,2.1,0,0,0,1.189.731,3.755,3.755,0,0,1,2.391,1.67c.8,1.269.977,3.116.539,5.5a3.475,3.475,0,0,0-1.247-.118,2.761,2.761,0,0,1-2.475-1.008,1.56,1.56,0,0,0-2.145-.308c-1.821,1.32-7,3.379-11.472,1.413a.81.81,0,0,0-.436-.119.534.534,0,0,0-.069,0,3.86,3.86,0,0,0-1.05.158,7.437,7.437,0,0,1,1.8-7.291h0A.819.819,0,1,0,8.943,3.256C6.379,5.714,5.862,9.25,6.808,12.587c-1.692,1.692-.723,4.384,1.79,4.9a13.138,13.138,0,0,0,.218,2.133,9.088,9.088,0,0,0,1.969,3.861,9.367,9.367,0,0,0,2.642,2.142v.547L9.684,28.378l-3.173.879a4.679,4.679,0,0,0-3.528,3.664l-.005.03L.1,50.851A4.357,4.357,0,0,0,4.4,55.9H31.182a4.262,4.262,0,0,0,2.733-.99,2.3,2.3,0,0,0,1.888.99h8.619a2.3,2.3,0,0,0,0-4.6H44.1V50.047h3.284a.819.819,0,0,0,0-1.637H44.1V37.657a.819.819,0,0,0-.4-1.53H36.626a.819.819,0,0,0-.307,1.577V48.409c-10.885,0-10.031.048-10.233-.154-.223-.223-.154,1.1-.154-21.873a.526.526,0,0,1,.527-.527c29.094.022,27.34-.056,27.56.063a.527.527,0,0,1,.276.464v21.5a.527.527,0,0,1-.276.464c-.2.111-.14.042-2.81.063a.819.819,0,1,0,0,1.637c2.436-.067,3.2.259,4.089-.634a2.15,2.15,0,0,0,.634-1.53v-21.5A2.164,2.164,0,0,0,53.768,24.218ZM21.962,49.709a5.386,5.386,0,0,0-4.215,2.522,5.387,5.387,0,0,0-4.2-2.521,2.372,2.372,0,0,0-.6-.753,6.091,6.091,0,0,0,1.858-3.5h5.878a6.085,6.085,0,0,0,1.865,3.51A2.37,2.37,0,0,0,21.962,49.709ZM17.608,34.383l-1.325-3.421a5.773,5.773,0,0,0,2.973,0L17.91,34.388a.147.147,0,0,1-.15.1C17.65,34.49,17.636,34.451,17.608,34.383Zm2.807-8.107v1.746l-.309.786a4.168,4.168,0,0,1-4.656,0l-.387-1V26.306A9.155,9.155,0,0,0,20.416,26.276Zm3.67,3.054-3.532,2.813c1.54-3.915,1.52-3.763,1.5-4.049Zm2.868-13.556V13.361A1.236,1.236,0,0,1,26.954,15.774ZM8.568,13.361c-.011.639-.021,1.507-.012,2.407A1.234,1.234,0,0,1,8.568,13.361Zm3.458,9.052c-2.25-2.621-1.76-5.031-1.821-8.834a14.781,14.781,0,0,0,12-1.933,4.277,4.277,0,0,0,3.111,1.586c0,.4,0,1.891,0,4.262A7.566,7.566,0,0,1,12.026,22.413Zm1.407,5.654c.029.229.114.3,1.54,4.045l-3.535-2.868ZM6.521,29.255q-.034.012-.068.027A.584.584,0,0,1,6.521,29.255ZM1.715,51.111,4.593,33.228c.509-2.5,2.849-2.389,5.226-3.188l2.79,2.263v5.259a.819.819,0,0,0,1.637,0v-3.93l1.944,1.577a1.8,1.8,0,0,0,3.137,0l1.946-1.55v3.9a.819.819,0,0,0,1.637,0v-5.2l1.382-1.1C24.3,49,24.277,47.865,24.312,48.15a3.1,3.1,0,0,1-1.534-1.54,5.816,5.816,0,0,1-.56-2.017.819.819,0,0,0-.818-.777H14.094a.821.821,0,0,0-.818.775,5.817,5.817,0,0,1-.56,2.02c-1.21,2.4-3.406,1.661-4.268,1.8l1.565-10.578a.819.819,0,1,0-1.62-.24L6.794,48.41H5.95a.819.819,0,1,0,0,1.637h5.492a.721.721,0,0,1,.72.718v3.5H4.4A2.719,2.719,0,0,1,1.715,51.111ZM13.8,54.261V51.385a3.757,3.757,0,0,1,3.039,2.877Zm7.909-2.879v2.879H18.656A3.757,3.757,0,0,1,21.708,51.382ZM45.085,53.6a.664.664,0,0,1-.663.663H35.8a.663.663,0,1,1,0-1.326h8.619A.664.664,0,0,1,45.085,53.6Zm-7.129-2.3V37.767h4.51V51.3Zm-1.637,0a5.32,5.32,0,0,0-.879.032c-.024-.344-.058-.443-.188-1.283h1.067Zm-2.726-1.251.187,1.165a2.632,2.632,0,0,1-2.6,3.05H23.346v-3.5a.721.721,0,0,1,.72-.718Z" transform="translate(0 0)"/>
      <path id="Trazado_1059014" data-name="Trazado 1059014" d="M294.188,85.536h15.394c.406,0,.488.287,1.693,1.321a1.513,1.513,0,0,0,2.531-1.12V81.006a.819.819,0,1,0-1.637,0v4.45c-.792-.609-1.313-1.557-2.586-1.557H294.188a.5.5,0,0,1-.491-.491V74.566a.5.5,0,0,1,.491-.491h17.489a.5.5,0,0,1,.491.491v2.62a.819.819,0,1,0,1.637,0v-2.62a2.131,2.131,0,0,0-2.129-2.129H294.188a2.131,2.131,0,0,0-2.129,2.129v8.842A2.131,2.131,0,0,0,294.188,85.536Z" transform="translate(-260.135 -64.529)"/>
    </g>
  </g>
</svg>
