<svg xmlns="http://www.w3.org/2000/svg" xmlns:xlink="http://www.w3.org/1999/xlink" width="108" height="108" viewBox="0 0 108 108">
  <defs>
    <filter id="Trazado_904820" x="0" y="0" width="108" height="108" filterUnits="userSpaceOnUse">
      <feOffset dy="3" input="SourceAlpha"/>
      <feGaussianBlur stdDeviation="3" result="blur"/>
      <feFlood flood-opacity="0.161"/>
      <feComposite operator="in" in2="blur"/>
      <feComposite in="SourceGraphic"/>
    </filter>
  </defs>
  <g id="Grupo_1226987" data-name="Grupo 1226987" transform="translate(-200 -328.892)">
    <g id="Grupo_1226914" data-name="Grupo 1226914" transform="translate(209 334.892)">
      <g id="Grupo_1173585" data-name="Grupo 1173585" transform="translate(0 0)">
        <g id="Grupo_1173428" data-name="Grupo 1173428">
          <g id="Grupo_1171958" data-name="Grupo 1171958">
            <g id="Grupo_1167341" data-name="Grupo 1167341">
              <g id="Grupo_1166792" data-name="Grupo 1166792">
                <g transform="matrix(1, 0, 0, 1, -9, -6)" filter="url(#Trazado_904820)">
                  <g id="Trazado_904820-2" data-name="Trazado 904820" transform="translate(9 6)" fill="#fef9e5">
                    <path d="M 44.99999618530273 88.50000762939453 C 39.12687301635742 88.50000762939453 33.43022155761719 87.35008239746094 28.06829643249512 85.08216857910156 C 22.88852119445801 82.89131927490234 18.23629570007324 79.75459289550781 14.24084663391113 75.75914764404297 C 10.24540901184082 71.76369476318359 7.108683586120605 67.11147308349609 4.917821407318115 61.93170928955078 C 2.649921178817749 56.56977081298828 1.499996185302734 50.87313079833984 1.499996185302734 45.00000762939453 C 1.499996185302734 39.12688446044922 2.649921178817749 33.43023300170898 4.917821407318115 28.06830787658691 C 7.108683586120605 22.8885326385498 10.24540901184082 18.23630714416504 14.24084663391113 14.24085807800293 C 18.23629570007324 10.24542045593262 22.88852119445801 7.108695030212402 28.06829643249512 4.917832851409912 C 33.43022155761719 2.649932622909546 39.12687301635742 1.500007629394531 44.99999618530273 1.500007629394531 C 50.87311935424805 1.500007629394531 56.56977081298828 2.649932622909546 61.93169784545898 4.917832851409912 C 67.11147308349609 7.108695030212402 71.76369476318359 10.24542045593262 75.75914764404297 14.24085807800293 C 79.75458526611328 18.23630714416504 82.89131164550781 22.8885326385498 85.08216857910156 28.06830787658691 C 87.35007476806641 33.43023300170898 88.5 39.12688446044922 88.5 45.00000762939453 C 88.5 50.87313079833984 87.35007476806641 56.56977081298828 85.08216857910156 61.93170928955078 C 82.89131164550781 67.11147308349609 79.75458526611328 71.76369476318359 75.75914764404297 75.75914764404297 C 71.76369476318359 79.75459289550781 67.11147308349609 82.89131927490234 61.93169784545898 85.08216857910156 C 56.56977081298828 87.35008239746094 50.87311935424805 88.50000762939453 44.99999618530273 88.50000762939453 Z" stroke="none"/>
                    <path d="M 44.99999618530273 3.000007629394531 C 39.32870864868164 3.000007629394531 33.82865142822266 4.110061645507812 28.65262603759766 6.299346923828125 C 23.65165710449219 8.414581298828125 19.15968322753906 11.44335174560547 15.301513671875 15.30152130126953 C 11.44333648681641 19.15969085693359 8.414566040039062 23.65166473388672 6.299339294433594 28.65263748168945 C 4.110054016113281 33.82866287231445 2.999992370605469 39.32872009277344 2.999992370605469 45.00000762939453 C 2.999992370605469 50.67129516601562 4.110054016113281 56.17133712768555 6.299339294433594 61.34738159179688 C 8.414566040039062 66.34835052490234 11.44333648681641 70.84030914306641 15.301513671875 74.69849395751953 C 19.15968322753906 78.55666351318359 23.65165710449219 81.58543395996094 28.65262603759766 83.70066833496094 C 33.82865142822266 85.88995361328125 39.32870864868164 87.00000762939453 44.99999618530273 87.00000762939453 C 50.67128372192383 87.00000762939453 56.17134094238281 85.88995361328125 61.34736633300781 83.70066833496094 C 66.34834289550781 81.58543395996094 70.84030914306641 78.55666351318359 74.69847869873047 74.69849395751953 C 78.55665588378906 70.84030914306641 81.58542633056641 66.34835052490234 83.70065307617188 61.34738159179688 C 85.88993835449219 56.17133712768555 87 50.67129516601562 87 45.00000762939453 C 87 39.32872009277344 85.88993835449219 33.82866287231445 83.70065307617188 28.65263748168945 C 81.58542633056641 23.65166473388672 78.55665588378906 19.15969085693359 74.69847869873047 15.30152130126953 C 70.84030914306641 11.44335174560547 66.34834289550781 8.414581298828125 61.34736633300781 6.299346923828125 C 56.17134094238281 4.110061645507812 50.67128372192383 3.000007629394531 44.99999618530273 3.000007629394531 M 44.99999618530273 7.62939453125e-06 C 69.85281372070312 7.62939453125e-06 90 20.14719390869141 90 45.00000762939453 C 90 69.85280609130859 69.85281372070312 90.00000762939453 44.99999618530273 90.00000762939453 C 20.14717864990234 90.00000762939453 -7.62939453125e-06 69.85280609130859 -7.62939453125e-06 45.00000762939453 C -7.62939453125e-06 20.14719390869141 20.14717864990234 7.62939453125e-06 44.99999618530273 7.62939453125e-06 Z" stroke="none" fill="#866d08"/>
                  </g>
                </g>
              </g>
            </g>
          </g>
        </g>
      </g>
    </g>
    <g id="programacion-de-computadoras" transform="translate(225.615 313.145)">
      <g id="Grupo_1226985" data-name="Grupo 1226985" transform="translate(1.109 46.504)">
        <path id="Trazado_1058796" data-name="Trazado 1058796" d="M189.427,421.04H170.458a4.435,4.435,0,0,1,4.435-4.435h10.1A4.435,4.435,0,0,1,189.427,421.04Z" transform="translate(-152.667 -376.555)" fill="#c1b0b5"/>
        <path id="Trazado_1058797" data-name="Trazado 1058797" d="M10,309.654v3.37a2.217,2.217,0,0,0,2.218,2.218H62.334a2.217,2.217,0,0,0,2.218-2.218v-3.37Z" transform="translate(-10 -281.462)" fill="#c1b0b5"/>
        <path id="Trazado_1058798" data-name="Trazado 1058798" d="M64.552,57.613a2.218,2.218,0,0,0-2.218-2.218H12.218A2.218,2.218,0,0,0,10,57.613V83.587H64.552Z" transform="translate(-10 -55.395)" fill="#fff"/>
        <path id="Trazado_1058799" data-name="Trazado 1058799" d="M217.569,360.047h8.522v6.271h-8.522Z" transform="translate(-194.554 -326.268)" fill="#c1b0b5"/>
        <path id="Trazado_1058800" data-name="Trazado 1058800" d="M142.17,118.111h-29.9A1.109,1.109,0,0,1,111.159,117V100.7a1.109,1.109,0,0,1,1.109-1.109h29.9a1.109,1.109,0,0,1,1.109,1.109V117a1.109,1.109,0,0,1-1.109,1.109Z" transform="translate(-99.943 -94.687)" fill="#ffda8f"/>
      </g>
      <g id="Grupo_1226986" data-name="Grupo 1226986" transform="translate(0 45.395)">
        <path id="Trazado_1058801" data-name="Trazado 1058801" d="M53.443,45.4H3.326A3.33,3.33,0,0,0,0,48.721V78.066a3.33,3.33,0,0,0,3.326,3.326H23.015v4.063a5.55,5.55,0,0,0-5.224,5.534A1.109,1.109,0,0,0,18.9,92.1H37.869a1.109,1.109,0,0,0,1.109-1.109,5.55,5.55,0,0,0-5.224-5.534V81.392H39.34a1.109,1.109,0,0,0,0-2.218H3.326a1.11,1.11,0,0,1-1.109-1.109V75.8H54.552v2.261a1.11,1.11,0,0,1-1.109,1.109h-4a1.109,1.109,0,0,0,0,2.218h4a3.33,3.33,0,0,0,3.326-3.326V48.721A3.33,3.33,0,0,0,53.443,45.4ZM36.571,89.88H20.2a3.332,3.332,0,0,1,3.136-2.218h10.1A3.332,3.332,0,0,1,36.571,89.88Zm-5.034-8.489v4.053h-6.3V81.392ZM2.218,73.587V48.721a1.11,1.11,0,0,1,1.109-1.109H53.443a1.11,1.11,0,0,1,1.109,1.109V73.587H2.218Z" transform="translate(0 -45.395)"/>
        <path id="Trazado_1058802" data-name="Trazado 1058802" d="M133.278,89.586h-29.9a2.22,2.22,0,0,0-2.218,2.218V108.11a2.22,2.22,0,0,0,2.218,2.218h29.9a2.22,2.22,0,0,0,2.218-2.218V91.8A2.22,2.22,0,0,0,133.278,89.586Zm0,18.524h-29.9V91.8h29.9V108.11Z" transform="translate(-89.943 -84.686)"/>
        <path id="Trazado_1058803" data-name="Trazado 1058803" d="M228.53,145.34a1.109,1.109,0,0,0-1.53.344l-3.488,5.514a1.109,1.109,0,1,0,1.874,1.185l3.488-5.514A1.108,1.108,0,0,0,228.53,145.34Z" transform="translate(-198.577 -134.105)"/>
        <path id="Trazado_1058804" data-name="Trazado 1058804" d="M171.791,145.479a1.109,1.109,0,0,0-1.568.029l-2.658,2.757a1.109,1.109,0,0,0,0,1.539l2.658,2.757a1.109,1.109,0,0,0,1.6-1.539l-1.916-1.987,1.916-1.988A1.109,1.109,0,0,0,171.791,145.479Z" transform="translate(-148.711 -134.106)"/>
        <path id="Trazado_1058805" data-name="Trazado 1058805" d="M290.7,145.509a1.109,1.109,0,0,0-1.6,1.539l1.916,1.988-1.916,1.987a1.109,1.109,0,0,0,1.6,1.539l2.657-2.757a1.109,1.109,0,0,0,0-1.539Z" transform="translate(-256.771 -134.107)"/>
        <circle id="Elipse_13554" data-name="Elipse 13554" cx="1.109" cy="1.109" r="1.109" transform="translate(43.275 33.779)"/>
      </g>
    </g>
  </g>
</svg>
