<svg xmlns="http://www.w3.org/2000/svg" xmlns:xlink="http://www.w3.org/1999/xlink" width="113" height="113" viewBox="0 0 113 113">
  <defs>
    <filter id="Trazado_982547" x="0" y="0" width="113" height="113" filterUnits="userSpaceOnUse">
      <feOffset dy="3" input="SourceAlpha"/>
      <feGaussianBlur stdDeviation="3" result="blur"/>
      <feFlood flood-opacity="0.161"/>
      <feComposite operator="in" in2="blur"/>
      <feComposite in="SourceGraphic"/>
    </filter>
  </defs>
  <g id="Grupo_1227110" data-name="Grupo 1227110" transform="translate(-8224.676 -2502.216)">
    <g id="Grupo_1227051" data-name="Grupo 1227051" transform="translate(8233.676 2508.216)">
      <g id="Grupo_1226375" data-name="Grupo 1226375" transform="translate(0)">
        <g id="Grupo_1211216" data-name="Grupo 1211216">
          <g id="Grupo_1210737" data-name="Grupo 1210737">
            <g id="Grupo_1210537" data-name="Grupo 1210537">
              <g id="Grupo_1164202" data-name="Grupo 1164202">
                <g id="Grupo_1158168" data-name="Grupo 1158168">
                  <g id="Grupo_1152576" data-name="Grupo 1152576">
                    <g id="Grupo_1148633" data-name="Grupo 1148633">
                      <g id="Grupo_1148525" data-name="Grupo 1148525">
                        <g transform="matrix(1, 0, 0, 1, -9, -6)" filter="url(#Trazado_982547)">
                          <g id="Trazado_982547-2" data-name="Trazado 982547" transform="translate(9 6)" fill="#fef9e5">
                            <path d="M 47.49999618530273 93.5 C 41.28936767578125 93.5 35.26533126831055 92.28396606445312 29.59518241882324 89.88570404052734 C 24.11771583557129 87.56893157958984 19.19812965393066 84.251953125 14.97308921813965 80.02690124511719 C 10.74803638458252 75.80186462402344 7.431062698364258 70.88227844238281 5.114289283752441 65.40480804443359 C 2.716022968292236 59.73466110229492 1.499996185302734 53.71062469482422 1.499996185302734 47.49999618530273 C 1.499996185302734 41.28936767578125 2.716022968292236 35.26533126831055 5.114289283752441 29.59518241882324 C 7.431062698364258 24.11771583557129 10.74803638458252 19.19812965393066 14.97308921813965 14.97308921813965 C 19.19812965393066 10.74803638458252 24.11771583557129 7.431062698364258 29.59518241882324 5.114289283752441 C 35.26533126831055 2.716022968292236 41.28936767578125 1.499996185302734 47.49999618530273 1.499996185302734 C 53.71062469482422 1.499996185302734 59.73466110229492 2.716022968292236 65.40480804443359 5.114289283752441 C 70.88227844238281 7.431062698364258 75.80186462402344 10.74803638458252 80.02690124511719 14.97308921813965 C 84.251953125 19.19812965393066 87.56893157958984 24.11771583557129 89.88570404052734 29.59518241882324 C 92.28396606445312 35.26533126831055 93.5 41.28936767578125 93.5 47.49999618530273 C 93.5 53.71062469482422 92.28396606445312 59.73466110229492 89.88570404052734 65.40480804443359 C 87.56893157958984 70.88227844238281 84.251953125 75.80186462402344 80.02690124511719 80.02690124511719 C 75.80186462402344 84.251953125 70.88227844238281 87.56893157958984 65.40480804443359 89.88570404052734 C 59.73466110229492 92.28396606445312 53.71062469482422 93.5 47.49999618530273 93.5 Z" stroke="none"/>
                            <path d="M 47.49999618530273 2.999992370605469 C 41.4912109375 2.999992370605469 35.66376495361328 4.1761474609375 30.17950439453125 6.495796203613281 C 24.88084411621094 8.736953735351562 20.12152099609375 11.94598388671875 16.03375244140625 16.03375244140625 C 11.94598388671875 20.12152099609375 8.736953735351562 24.88084411621094 6.495796203613281 30.17950439453125 C 4.1761474609375 35.66376495361328 2.999992370605469 41.4912109375 2.999992370605469 47.49999618530273 C 2.999992370605469 53.50878143310547 4.1761474609375 59.33622741699219 6.495796203613281 64.82048797607422 C 8.736953735351562 70.11914825439453 11.94598388671875 74.87847137451172 16.03375244140625 78.96623992919922 C 20.12152099609375 83.05400848388672 24.88084411621094 86.26304626464844 30.17950439453125 88.50419616699219 C 35.66376495361328 90.82384490966797 41.4912109375 92 47.49999618530273 92 C 53.50878143310547 92 59.33622741699219 90.82384490966797 64.82048797607422 88.50419616699219 C 70.11914825439453 86.26304626464844 74.87847137451172 83.05400848388672 78.96623992919922 78.96623992919922 C 83.05400848388672 74.87847137451172 86.26304626464844 70.11914825439453 88.50419616699219 64.82048797607422 C 90.82384490966797 59.33622741699219 92 53.50878143310547 92 47.49999618530273 C 92 41.4912109375 90.82384490966797 35.66376495361328 88.50419616699219 30.17950439453125 C 86.26304626464844 24.88084411621094 83.05400848388672 20.12152099609375 78.96623992919922 16.03375244140625 C 74.87847137451172 11.94598388671875 70.11914825439453 8.736953735351562 64.82048797607422 6.495796203613281 C 59.33622741699219 4.1761474609375 53.50878143310547 2.999992370605469 47.49999618530273 2.999992370605469 M 47.49999618530273 -7.62939453125e-06 C 73.7335205078125 -7.62939453125e-06 95 21.26647186279297 95 47.49999618530273 C 95 73.7335205078125 73.7335205078125 95 47.49999618530273 95 C 21.26647186279297 95 -7.62939453125e-06 73.7335205078125 -7.62939453125e-06 47.49999618530273 C -7.62939453125e-06 21.26647186279297 21.26647186279297 -7.62939453125e-06 47.49999618530273 -7.62939453125e-06 Z" stroke="none" fill="#f6c810"/>
                          </g>
                        </g>
                      </g>
                    </g>
                  </g>
                </g>
              </g>
            </g>
          </g>
        </g>
      </g>
    </g>
    <g id="exito" transform="translate(8251.014 2525.554)">
      <circle id="Elipse_13563" data-name="Elipse 13563" cx="10" cy="10" r="10" transform="translate(38 38)" fill="#67cc6d"/>
      <g id="Grupo_1227109" data-name="Grupo 1227109" transform="translate(1.941 1.941)">
        <circle id="Elipse_13564" data-name="Elipse 13564" cx="8.5" cy="8.5" r="8.5" transform="translate(0.06 0.059)" fill="#ff7375"/>
        <circle id="Elipse_13565" data-name="Elipse 13565" cx="8.5" cy="8.5" r="8.5" transform="translate(39.06 0.059)" fill="#ff7375"/>
        <circle id="Elipse_13566" data-name="Elipse 13566" cx="8.5" cy="8.5" r="8.5" transform="translate(0.06 39.059)" fill="#ff7375"/>
      </g>
      <path id="Trazado_1059120" data-name="Trazado 1059120" d="M10.407,19.814A9.407,9.407,0,1,0,1,10.407a9.407,9.407,0,0,0,9.407,9.407Zm0-16.933a7.526,7.526,0,1,1-7.526,7.526,7.526,7.526,0,0,1,7.526-7.526Z" transform="translate(0 0)"/>
      <path id="Trazado_1059121" data-name="Trazado 1059121" d="M50.288,39A11.288,11.288,0,1,0,61.577,50.288,11.288,11.288,0,0,0,50.288,39Zm0,20.7A9.407,9.407,0,1,1,59.7,50.288,9.407,9.407,0,0,1,50.288,59.7Z" transform="translate(-2.253 -2.253)"/>
      <path id="Trazado_1059122" data-name="Trazado 1059122" d="M8.086,14.737l2.662-2.662,2.662,2.662,1.326-1.326-2.662-2.662,2.662-2.662L13.411,6.76,10.749,9.422,8.086,6.76,6.76,8.086l2.662,2.662L6.76,13.411Z" transform="translate(-0.342 -0.342)"/>
      <path id="Trazado_1059123" data-name="Trazado 1059123" d="M52.407,1a9.407,9.407,0,1,0,9.407,9.407A9.407,9.407,0,0,0,52.407,1Zm0,16.933a7.526,7.526,0,1,1,7.526-7.526A7.526,7.526,0,0,1,52.407,17.933Z" transform="translate(-2.491)"/>
      <path id="Trazado_1059124" data-name="Trazado 1059124" d="M55.411,6.76,52.749,9.422,50.086,6.76,48.76,8.086l2.662,2.662L48.76,13.411l1.326,1.326,2.662-2.662,2.662,2.662,1.326-1.326-2.662-2.662,2.662-2.662Z" transform="translate(-2.832 -0.342)"/>
      <path id="Trazado_1059125" data-name="Trazado 1059125" d="M10.407,61.814A9.407,9.407,0,1,0,1,52.407,9.407,9.407,0,0,0,10.407,61.814Zm0-16.933a7.526,7.526,0,1,1-7.526,7.526,7.526,7.526,0,0,1,7.526-7.526Z" transform="translate(0 -2.491)"/>
      <path id="Trazado_1059126" data-name="Trazado 1059126" d="M8.086,56.737l2.662-2.662,2.662,2.662,1.326-1.326-2.662-2.662,2.662-2.662L13.411,48.76l-2.662,2.662L8.086,48.76,6.76,50.086l2.662,2.662L6.76,55.411Z" transform="translate(-0.342 -2.832)"/>
      <path id="Trazado_1059127" data-name="Trazado 1059127" d="M48.311,52.911l-1.994-1.994L45,52.243l2.662,2.662a.941.941,0,0,0,1.326,0l7.3-7.319L54.971,46.26Z" transform="translate(-2.609 -2.684)"/>
      <path id="Trazado_1059128" data-name="Trazado 1059128" d="M23,10h1.881v1.881H23Z" transform="translate(-1.305 -0.534)"/>
      <path id="Trazado_1059129" data-name="Trazado 1059129" d="M27,10H40.17v1.881H27Z" transform="translate(-1.542 -0.534)"/>
      <path id="Trazado_1059130" data-name="Trazado 1059130" d="M51.391,23.941V23H49.509v.941a6.585,6.585,0,0,1-6.585,6.585H18.466A8.466,8.466,0,0,0,10,38.992v.941h1.881v-.941a6.585,6.585,0,0,1,6.585-6.585H42.924A8.466,8.466,0,0,0,51.391,23.941Z" transform="translate(-0.534 -1.305)"/>
      <path id="Trazado_1059131" data-name="Trazado 1059131" d="M31.062,56.808l4.7-3.292a.941.941,0,0,0,0-1.543l-4.7-3.292-1.072,1.543,2.258,1.58H23v1.881h9.247l-2.258,1.58Z" transform="translate(-1.305 -2.828)"/>
    </g>
  </g>
</svg>
