<svg xmlns="http://www.w3.org/2000/svg" xmlns:xlink="http://www.w3.org/1999/xlink" width="113" height="113" viewBox="0 0 113 113">
  <defs>
    <filter id="Trazado_982547" x="0" y="0" width="113" height="113" filterUnits="userSpaceOnUse">
      <feOffset dy="3" input="SourceAlpha"/>
      <feGaussianBlur stdDeviation="3" result="blur"/>
      <feFlood flood-opacity="0.161"/>
      <feComposite operator="in" in2="blur"/>
      <feComposite in="SourceGraphic"/>
    </filter>
  </defs>
  <g id="Grupo_1226974" data-name="Grupo 1226974" transform="translate(-3749 -1948.751)">
    <g id="Grupo_1226752" data-name="Grupo 1226752" transform="translate(3075 334.616)">
      <g id="Grupo_1224583" data-name="Grupo 1224583" transform="translate(0 -5449.616)">
        <g id="Grupo_1224450" data-name="Grupo 1224450" transform="translate(683 7069.751)">
          <g id="Grupo_1224085" data-name="Grupo 1224085" transform="translate(0 0)">
            <g id="Grupo_1223184" data-name="Grupo 1223184">
              <g id="Grupo_1211216" data-name="Grupo 1211216">
                <g id="Grupo_1210737" data-name="Grupo 1210737">
                  <g id="Grupo_1210537" data-name="Grupo 1210537">
                    <g id="Grupo_1164202" data-name="Grupo 1164202">
                      <g id="Grupo_1158168" data-name="Grupo 1158168">
                        <g id="Grupo_1152576" data-name="Grupo 1152576">
                          <g id="Grupo_1148633" data-name="Grupo 1148633">
                            <g id="Grupo_1148525" data-name="Grupo 1148525">
                              <g transform="matrix(1, 0, 0, 1, -9, -6)" filter="url(#Trazado_982547)">
                                <g id="Trazado_982547-2" data-name="Trazado 982547" transform="translate(9 6)" fill="#fef9e5">
                                  <path d="M 47.49999618530273 93.5 C 41.28936767578125 93.5 35.26533126831055 92.28396606445312 29.59518241882324 89.88570404052734 C 24.11771583557129 87.56893157958984 19.19812965393066 84.251953125 14.97308921813965 80.02690124511719 C 10.74803638458252 75.80186462402344 7.431062698364258 70.88227844238281 5.114289283752441 65.40480804443359 C 2.716022968292236 59.73466110229492 1.499996185302734 53.71062469482422 1.499996185302734 47.49999618530273 C 1.499996185302734 41.28936767578125 2.716022968292236 35.26533126831055 5.114289283752441 29.59518241882324 C 7.431062698364258 24.11771583557129 10.74803638458252 19.19812965393066 14.97308921813965 14.97308921813965 C 19.19812965393066 10.74803638458252 24.11771583557129 7.431062698364258 29.59518241882324 5.114289283752441 C 35.26533126831055 2.716022968292236 41.28936767578125 1.499996185302734 47.49999618530273 1.499996185302734 C 53.71062469482422 1.499996185302734 59.73466110229492 2.716022968292236 65.40480804443359 5.114289283752441 C 70.88227844238281 7.431062698364258 75.80186462402344 10.74803638458252 80.02690124511719 14.97308921813965 C 84.251953125 19.19812965393066 87.56893157958984 24.11771583557129 89.88570404052734 29.59518241882324 C 92.28396606445312 35.26533126831055 93.5 41.28936767578125 93.5 47.49999618530273 C 93.5 53.71062469482422 92.28396606445312 59.73466110229492 89.88570404052734 65.40480804443359 C 87.56893157958984 70.88227844238281 84.251953125 75.80186462402344 80.02690124511719 80.02690124511719 C 75.80186462402344 84.251953125 70.88227844238281 87.56893157958984 65.40480804443359 89.88570404052734 C 59.73466110229492 92.28396606445312 53.71062469482422 93.5 47.49999618530273 93.5 Z" stroke="none"/>
                                  <path d="M 47.49999618530273 2.999992370605469 C 41.4912109375 2.999992370605469 35.66376495361328 4.1761474609375 30.17950439453125 6.495796203613281 C 24.88084411621094 8.736953735351562 20.12152099609375 11.94598388671875 16.03375244140625 16.03375244140625 C 11.94598388671875 20.12152099609375 8.736953735351562 24.88084411621094 6.495796203613281 30.17950439453125 C 4.1761474609375 35.66376495361328 2.999992370605469 41.4912109375 2.999992370605469 47.49999618530273 C 2.999992370605469 53.50878143310547 4.1761474609375 59.33622741699219 6.495796203613281 64.82048797607422 C 8.736953735351562 70.11914825439453 11.94598388671875 74.87847137451172 16.03375244140625 78.96623992919922 C 20.12152099609375 83.05400848388672 24.88084411621094 86.26304626464844 30.17950439453125 88.50419616699219 C 35.66376495361328 90.82384490966797 41.4912109375 92 47.49999618530273 92 C 53.50878143310547 92 59.33622741699219 90.82384490966797 64.82048797607422 88.50419616699219 C 70.11914825439453 86.26304626464844 74.87847137451172 83.05400848388672 78.96623992919922 78.96623992919922 C 83.05400848388672 74.87847137451172 86.26304626464844 70.11914825439453 88.50419616699219 64.82048797607422 C 90.82384490966797 59.33622741699219 92 53.50878143310547 92 47.49999618530273 C 92 41.4912109375 90.82384490966797 35.66376495361328 88.50419616699219 30.17950439453125 C 86.26304626464844 24.88084411621094 83.05400848388672 20.12152099609375 78.96623992919922 16.03375244140625 C 74.87847137451172 11.94598388671875 70.11914825439453 8.736953735351562 64.82048797607422 6.495796203613281 C 59.33622741699219 4.1761474609375 53.50878143310547 2.999992370605469 47.49999618530273 2.999992370605469 M 47.49999618530273 -7.62939453125e-06 C 73.7335205078125 -7.62939453125e-06 95 21.26647186279297 95 47.49999618530273 C 95 73.7335205078125 73.7335205078125 95 47.49999618530273 95 C 21.26647186279297 95 -7.62939453125e-06 73.7335205078125 -7.62939453125e-06 47.49999618530273 C -7.62939453125e-06 21.26647186279297 21.26647186279297 -7.62939453125e-06 47.49999618530273 -7.62939453125e-06 Z" stroke="none" fill="#f6c810"/>
                                </g>
                              </g>
                            </g>
                          </g>
                        </g>
                      </g>
                    </g>
                  </g>
                </g>
              </g>
            </g>
          </g>
        </g>
      </g>
    </g>
    <g id="lista-de-verificacion_12_" data-name="lista-de-verificacion (12)" transform="translate(3768.501 1965.253)">
      <g id="Grupo_1226970" data-name="Grupo 1226970" transform="translate(8.935 15.484)">
        <path id="Trazado_1058749" data-name="Trazado 1058749" d="M72.126,74.339v32.273H16V74.339A2.338,2.338,0,0,1,18.339,72H69.788A2.338,2.338,0,0,1,72.126,74.339Z" transform="translate(-16 -72)" fill="#78b9eb"/>
        <path id="Trazado_1058750" data-name="Trazado 1058750" d="M72.126,368v3.274a2.338,2.338,0,0,1-2.339,2.339H18.339A2.338,2.338,0,0,1,16,371.274V368Z" transform="translate(-16 -333.389)" fill="#d8d7da"/>
        <path id="Trazado_1058751" data-name="Trazado 1058751" d="M144,472h26.192v2.806H144Z" transform="translate(-129.033 -425.228)" fill="#d8d7da"/>
        <path id="Trazado_1058752" data-name="Trazado 1058752" d="M200.838,422.548H184L185.871,416h13.1Z" transform="translate(-164.356 -375.776)" fill="#acabb1"/>
      </g>
      <g id="Grupo_1226972" data-name="Grupo 1226972" transform="translate(22.032 8.935)">
        <path id="Trazado_1058753" data-name="Trazado 1058753" d="M128,16h29.934V53.418H128Z" transform="translate(-128 -16)" fill="#a0815c"/>
        <path id="Trazado_1058754" data-name="Trazado 1058754" d="M170.709,40h5.613V71.8H152V40h5.613" transform="translate(-149.194 -37.194)" fill="#ffeb99"/>
        <path id="Trazado_1058755" data-name="Trazado 1058755" d="M200,16h13.1v4.209a1.4,1.4,0,0,1-1.4,1.4H201.4a1.4,1.4,0,0,1-1.4-1.4Z" transform="translate(-191.581 -16)" fill="#ffda44"/>
        <g id="Grupo_1226971" data-name="Grupo 1226971" transform="translate(5.613 9.354)">
          <path id="Trazado_1058756" data-name="Trazado 1058756" d="M176,96h7.484v7.484H176Z" transform="translate(-176 -96)" fill="#91cc04"/>
          <path id="Trazado_1058757" data-name="Trazado 1058757" d="M176,200h7.484v7.484H176Z" transform="translate(-176 -187.839)" fill="#91cc04"/>
        </g>
      </g>
      <g id="Grupo_1226973" data-name="Grupo 1226973" transform="translate(8 8)">
        <path id="Trazado_1058758" data-name="Trazado 1058758" d="M62.723,14.548H52.9V8.935A.935.935,0,0,0,51.966,8H22.032a.935.935,0,0,0-.935.935v5.613H11.274A3.278,3.278,0,0,0,8,17.822V53.369a3.278,3.278,0,0,0,3.274,3.274H29.21L27.875,61.32H23.9a.935.935,0,0,0-.935.935v2.806A.935.935,0,0,0,23.9,66H50.095a.935.935,0,0,0,.935-.935V62.256a.935.935,0,0,0-.935-.935H46.123l-1.335-4.677H62.723A3.278,3.278,0,0,0,66,53.369V17.822A3.278,3.278,0,0,0,62.723,14.548ZM31.386,9.871H42.611v3.274a.468.468,0,0,1-.468.468H31.854a.468.468,0,0,1-.468-.468Zm.468,5.613h10.29a2.341,2.341,0,0,0,2.339-2.339v-.468h3.742V42.611H25.773V12.677h3.742v.468a2.341,2.341,0,0,0,2.339,2.339ZM22.967,9.871h6.548v.935H24.838a.935.935,0,0,0-.935.935v31.8a.935.935,0,0,0,.935.935H49.159a.935.935,0,0,0,.935-.935v-31.8a.935.935,0,0,0-.935-.935H44.482V9.871H51.03V45.418H22.967Zm26.192,53.32v.935H24.838v-.935ZM29.82,61.32l1.335-4.677H42.842l1.335,4.677Zm34.306-7.951a1.4,1.4,0,0,1-1.4,1.4H11.274a1.4,1.4,0,0,1-1.4-1.4V51.03H64.126Zm0-4.209H9.871V17.822a1.4,1.4,0,0,1,1.4-1.4H21.1V46.353a.935.935,0,0,0,.935.935H51.966a.935.935,0,0,0,.935-.935V16.419h9.822a1.4,1.4,0,0,1,1.4,1.4Z" transform="translate(-8 -8)"/>
        <path id="Trazado_1058759" data-name="Trazado 1058759" d="M168,88.935v7.484a.935.935,0,0,0,.935.935h7.484a.935.935,0,0,0,.935-.935v-4.1l1.354-.677a.935.935,0,1,0-.837-1.673l-.517.259V88.935a.935.935,0,0,0-.935-.935h-7.484A.935.935,0,0,0,168,88.935Zm1.871.935h5.613v1.293l-2.622,1.311-.459-.459a.935.935,0,0,0-1.323,1.323l.935.935a.935.935,0,0,0,1.08.175l2.388-1.194v2.228h-5.613Z" transform="translate(-149.291 -78.646)"/>
        <path id="Trazado_1058760" data-name="Trazado 1058760" d="M177.871,193.97l-.517.259v-1.293a.935.935,0,0,0-.935-.935h-7.484a.935.935,0,0,0-.935.935v7.484a.935.935,0,0,0,.935.935h7.484a.935.935,0,0,0,.935-.935v-4.1l1.354-.677a.935.935,0,1,0-.837-1.673Zm-2.388,5.514h-5.613v-5.613h5.613v1.293l-2.622,1.311-.459-.459a.935.935,0,0,0-1.323,1.323l.935.935a.935.935,0,0,0,1.08.175l2.388-1.194Z" transform="translate(-149.291 -170.485)"/>
        <path id="Trazado_1058761" data-name="Trazado 1058761" d="M272.935,97.871h6.548a.935.935,0,0,0,0-1.871h-6.548a.935.935,0,1,0,0,1.871Z" transform="translate(-241.13 -85.71)"/>
        <path id="Trazado_1058762" data-name="Trazado 1058762" d="M272.935,121.871h6.548a.935.935,0,0,0,0-1.871h-6.548a.935.935,0,1,0,0,1.871Z" transform="translate(-241.13 -106.904)"/>
        <path id="Trazado_1058763" data-name="Trazado 1058763" d="M272.935,145.871h4.677a.935.935,0,1,0,0-1.871h-4.677a.935.935,0,1,0,0,1.871Z" transform="translate(-241.13 -128.098)"/>
        <path id="Trazado_1058764" data-name="Trazado 1058764" d="M272.935,201.871h6.548a.935.935,0,0,0,0-1.871h-6.548a.935.935,0,1,0,0,1.871Z" transform="translate(-241.13 -177.549)"/>
        <path id="Trazado_1058765" data-name="Trazado 1058765" d="M272.935,225.871h6.548a.935.935,0,0,0,0-1.871h-6.548a.935.935,0,1,0,0,1.871Z" transform="translate(-241.13 -198.743)"/>
        <path id="Trazado_1058766" data-name="Trazado 1058766" d="M272.935,249.871h4.677a.935.935,0,1,0,0-1.871h-4.677a.935.935,0,1,0,0,1.871Z" transform="translate(-241.13 -219.937)"/>
      </g>
    </g>
  </g>
</svg>
