<svg xmlns="http://www.w3.org/2000/svg" xmlns:xlink="http://www.w3.org/1999/xlink" width="113" height="113" viewBox="0 0 113 113">
  <defs>
    <filter id="Trazado_982547" x="0" y="0" width="113" height="113" filterUnits="userSpaceOnUse">
      <feOffset dy="3" input="SourceAlpha"/>
      <feGaussianBlur stdDeviation="3" result="blur"/>
      <feFlood flood-opacity="0.161"/>
      <feComposite operator="in" in2="blur"/>
      <feComposite in="SourceGraphic"/>
    </filter>
  </defs>
  <g id="Grupo_1227040" data-name="Grupo 1227040" transform="translate(-6264.49 -4710.367)">
    <g id="Grupo_1227018" data-name="Grupo 1227018" transform="translate(6273.49 4716.367)">
      <g id="Grupo_1224577" data-name="Grupo 1224577" transform="translate(0 0)">
        <g id="Grupo_1224450" data-name="Grupo 1224450" transform="translate(0)">
          <g id="Grupo_1224085" data-name="Grupo 1224085">
            <g id="Grupo_1223184" data-name="Grupo 1223184">
              <g id="Grupo_1211216" data-name="Grupo 1211216">
                <g id="Grupo_1210737" data-name="Grupo 1210737">
                  <g id="Grupo_1210537" data-name="Grupo 1210537">
                    <g id="Grupo_1164202" data-name="Grupo 1164202">
                      <g id="Grupo_1158168" data-name="Grupo 1158168">
                        <g id="Grupo_1152576" data-name="Grupo 1152576">
                          <g id="Grupo_1148633" data-name="Grupo 1148633">
                            <g id="Grupo_1148525" data-name="Grupo 1148525">
                              <g transform="matrix(1, 0, 0, 1, -9, -6)" filter="url(#Trazado_982547)">
                                <g id="Trazado_982547-2" data-name="Trazado 982547" transform="translate(9 6)" fill="#fef9e5">
                                  <path d="M 47.49999618530273 93.5 C 41.28936767578125 93.5 35.26533126831055 92.28396606445312 29.59518241882324 89.88570404052734 C 24.11771583557129 87.56893157958984 19.19812965393066 84.251953125 14.97308921813965 80.02690124511719 C 10.74803638458252 75.80186462402344 7.431062698364258 70.88227844238281 5.114289283752441 65.40480804443359 C 2.716022968292236 59.73466110229492 1.499996185302734 53.71062469482422 1.499996185302734 47.49999618530273 C 1.499996185302734 41.28936767578125 2.716022968292236 35.26533126831055 5.114289283752441 29.59518241882324 C 7.431062698364258 24.11771583557129 10.74803638458252 19.19812965393066 14.97308921813965 14.97308921813965 C 19.19812965393066 10.74803638458252 24.11771583557129 7.431062698364258 29.59518241882324 5.114289283752441 C 35.26533126831055 2.716022968292236 41.28936767578125 1.499996185302734 47.49999618530273 1.499996185302734 C 53.71062469482422 1.499996185302734 59.73466110229492 2.716022968292236 65.40480804443359 5.114289283752441 C 70.88227844238281 7.431062698364258 75.80186462402344 10.74803638458252 80.02690124511719 14.97308921813965 C 84.251953125 19.19812965393066 87.56893157958984 24.11771583557129 89.88570404052734 29.59518241882324 C 92.28396606445312 35.26533126831055 93.5 41.28936767578125 93.5 47.49999618530273 C 93.5 53.71062469482422 92.28396606445312 59.73466110229492 89.88570404052734 65.40480804443359 C 87.56893157958984 70.88227844238281 84.251953125 75.80186462402344 80.02690124511719 80.02690124511719 C 75.80186462402344 84.251953125 70.88227844238281 87.56893157958984 65.40480804443359 89.88570404052734 C 59.73466110229492 92.28396606445312 53.71062469482422 93.5 47.49999618530273 93.5 Z" stroke="none"/>
                                  <path d="M 47.49999618530273 2.999992370605469 C 41.4912109375 2.999992370605469 35.66376495361328 4.1761474609375 30.17950439453125 6.495796203613281 C 24.88084411621094 8.736953735351562 20.12152099609375 11.94598388671875 16.03375244140625 16.03375244140625 C 11.94598388671875 20.12152099609375 8.736953735351562 24.88084411621094 6.495796203613281 30.17950439453125 C 4.1761474609375 35.66376495361328 2.999992370605469 41.4912109375 2.999992370605469 47.49999618530273 C 2.999992370605469 53.50878143310547 4.1761474609375 59.33622741699219 6.495796203613281 64.82048797607422 C 8.736953735351562 70.11914825439453 11.94598388671875 74.87847137451172 16.03375244140625 78.96623992919922 C 20.12152099609375 83.05400848388672 24.88084411621094 86.26304626464844 30.17950439453125 88.50419616699219 C 35.66376495361328 90.82384490966797 41.4912109375 92 47.49999618530273 92 C 53.50878143310547 92 59.33622741699219 90.82384490966797 64.82048797607422 88.50419616699219 C 70.11914825439453 86.26304626464844 74.87847137451172 83.05400848388672 78.96623992919922 78.96623992919922 C 83.05400848388672 74.87847137451172 86.26304626464844 70.11914825439453 88.50419616699219 64.82048797607422 C 90.82384490966797 59.33622741699219 92 53.50878143310547 92 47.49999618530273 C 92 41.4912109375 90.82384490966797 35.66376495361328 88.50419616699219 30.17950439453125 C 86.26304626464844 24.88084411621094 83.05400848388672 20.12152099609375 78.96623992919922 16.03375244140625 C 74.87847137451172 11.94598388671875 70.11914825439453 8.736953735351562 64.82048797607422 6.495796203613281 C 59.33622741699219 4.1761474609375 53.50878143310547 2.999992370605469 47.49999618530273 2.999992370605469 M 47.49999618530273 -7.62939453125e-06 C 73.7335205078125 -7.62939453125e-06 95 21.26647186279297 95 47.49999618530273 C 95 73.7335205078125 73.7335205078125 95 47.49999618530273 95 C 21.26647186279297 95 -7.62939453125e-06 73.7335205078125 -7.62939453125e-06 47.49999618530273 C -7.62939453125e-06 21.26647186279297 21.26647186279297 -7.62939453125e-06 47.49999618530273 -7.62939453125e-06 Z" stroke="none" fill="#f6c810"/>
                                </g>
                              </g>
                            </g>
                          </g>
                        </g>
                      </g>
                    </g>
                  </g>
                </g>
              </g>
            </g>
          </g>
        </g>
      </g>
    </g>
    <g id="prueba_3_" data-name="prueba (3)" transform="translate(6274.35 4720.089)">
      <path id="Trazado_1058910" data-name="Trazado 1058910" d="M44.872,33.259a9.184,9.184,0,0,0-.7-1.652l2.052-2.052-3.7-3.7L40.467,27.9a9.184,9.184,0,0,0-1.652-.7V24H33.259v3.2a9.184,9.184,0,0,0-1.652.7l-2.052-2.052-3.7,3.7L27.9,31.608a9.184,9.184,0,0,0-.7,1.652H24v5.556h3.2a9.184,9.184,0,0,0,.7,1.652l-2.052,2.052,3.7,3.7,2.052-2.052a9.183,9.183,0,0,0,1.652.7v3.2h5.556v-3.2a9.184,9.184,0,0,0,1.652-.7l2.052,2.052,3.7-3.7L44.17,40.467a9.184,9.184,0,0,0,.7-1.652h3.2V33.259Z" transform="translate(-7.074 -7.074)" fill="#3397e8"/>
      <circle id="Elipse_13560" data-name="Elipse 13560" cx="6.602" cy="6.602" r="6.602" transform="translate(22.602 22.602)" fill="#e9eef2"/>
      <circle id="Elipse_13561" data-name="Elipse 13561" cx="2.829" cy="2.829" r="2.829" transform="translate(26.374 26.374)" fill="#2978b8"/>
      <path id="Trazado_1058911" data-name="Trazado 1058911" d="M173.037,77.7a3.7,3.7,0,0,0,3.7-3.7V24H136V77.7Z" transform="translate(-106.111 -7.074)" fill="#e9eef2"/>
      <path id="Trazado_1058912" data-name="Trazado 1058912" d="M104,408h37.037v5.556a3.7,3.7,0,0,0,3.7,3.7H107.7a3.7,3.7,0,0,1-3.7-3.7Z" transform="translate(-77.815 -346.629)" fill="#dadcde"/>
      <path id="Trazado_1058913" data-name="Trazado 1058913" d="M184,328h3.7v3.7H184Z" transform="translate(-148.555 -275.889)" fill="#dadcde"/>
      <path id="Trazado_1058914" data-name="Trazado 1058914" d="M248,168h7.407v3.7H248Z" transform="translate(-205.148 -134.407)" fill="#3dc285"/>
      <path id="Trazado_1058915" data-name="Trazado 1058915" d="M248,248h7.407v3.7H248Z" transform="translate(-205.148 -205.148)" fill="#eb423f"/>
      <path id="Trazado_1058916" data-name="Trazado 1058916" d="M248,328h7.407v3.7H248Z" transform="translate(-205.148 -275.889)" fill="#dadcde"/>
      <path id="Trazado_1058917" data-name="Trazado 1058917" d="M47.666,281.639a7.408,7.408,0,0,0-1.909-3.289L32.389,264.982a3.353,3.353,0,0,0-4.742,0l-2.666,2.666a3.353,3.353,0,0,0,0,4.742L38.35,285.758a7.407,7.407,0,0,0,3.289,1.909l8.287,2.26Z" transform="translate(-7.074 -219.296)" fill="#fbe9d8"/>
      <path id="Trazado_1058918" data-name="Trazado 1058918" d="M197.72,441.952l5.82,1.588-1.588-5.82Z" transform="translate(-160.687 -372.909)" fill="#414649"/>
      <path id="Trazado_1058919" data-name="Trazado 1058919" d="M56,303.407l10.646,10.646,0,0,7.407-7.407,0,0L63.407,296Z" transform="translate(-35.37 -247.592)" fill="#3397e8"/>
      <path id="Trazado_1058920" data-name="Trazado 1058920" d="M0,0H3.928V15.714H0Z" transform="translate(22.476 53.035) rotate(-45)" fill="#2978b8"/>
      <path id="Trazado_1058921" data-name="Trazado 1058921" d="M27.648,264.982l-2.666,2.666a3.353,3.353,0,0,0,0,4.742l2.722,2.722,7.407-7.407-2.722-2.722a3.353,3.353,0,0,0-4.742,0Z" transform="translate(-7.074 -219.296)" fill="#eb423f"/>
      <path id="Trazado_1058922" data-name="Trazado 1058922" d="M0,0H10.476V2.619H0Z" transform="translate(18.773 53.96) rotate(-45)" fill="#ffd33a"/>
      <path id="Trazado_1058923" data-name="Trazado 1058923" d="M70.63,16H26.185a.926.926,0,0,0-.926.926v2.547q-.274.107-.543.23l-1.58-1.58a.926.926,0,0,0-1.31,0l-3.7,3.7a.926.926,0,0,0,0,1.31l1.581,1.58q-.123.268-.231.543H16.926a.926.926,0,0,0-.926.926v5.556a.926.926,0,0,0,.926.926h2.547q.107.275.23.543l-1.58,1.58a.926.926,0,0,0,0,1.31l3.7,3.7a.926.926,0,0,0,1.31,0l1.58-1.58q.268.123.543.23V41a.926.926,0,0,0,.926.926h2.778v6.1L25.97,45.031a4.279,4.279,0,0,0-6.052,0L17.253,47.7a4.279,4.279,0,0,0,0,6.052l8.006,8.006v5.172a4.635,4.635,0,0,0,4.63,4.63H66.926a4.635,4.635,0,0,0,4.63-4.63v-50A.926.926,0,0,0,70.63,16ZM28.963,34.519a5.556,5.556,0,0,1,0-11.111v1.852a3.7,3.7,0,1,0,0,7.407Zm0-3.7a1.852,1.852,0,0,1,0-3.7Zm-1.852,9.259V37.8a.926.926,0,0,0-.649-.884,8.27,8.27,0,0,1-1.485-.631.926.926,0,0,0-1.1.158l-1.4,1.4-2.394-2.394,1.4-1.4a.926.926,0,0,0,.158-1.1,8.262,8.262,0,0,1-.631-1.485.926.926,0,0,0-.884-.649H17.852v-3.7h2.277a.926.926,0,0,0,.884-.649,8.263,8.263,0,0,1,.631-1.485.926.926,0,0,0-.158-1.1l-1.4-1.4,2.394-2.394,1.4,1.4a.926.926,0,0,0,1.1.158,8.27,8.27,0,0,1,1.485-.631.926.926,0,0,0,.649-.883V17.852h1.852v3.7a7.407,7.407,0,0,0,0,14.815v3.7Zm7.675,16.391.009.009,2.582,2.582-1.006,1.005-9.339-9.339,1.006-1.006Zm6.747,12.845-2.718-.741,1.976-1.976Zm-1.3-4.775-3.472,3.472-1.95-.531a6.5,6.5,0,0,1-2.172-1.061l6-6A6.5,6.5,0,0,1,39.7,62.586ZM20.087,53.963l6.1-6.1.542.542-6.1,6.1Zm5.635-1.931,9.339,9.339-1.468,1.468L24.254,53.5Zm-7.159-3.026,2.665-2.665a2.427,2.427,0,0,1,3.432,0l.215.215-6.1,6.1-.215-.215a2.427,2.427,0,0,1,0-3.433Zm4.382,5.8,9.339,9.339-1.005,1.006-9.339-9.339Zm4.167,12.117v-3.32l3.51,3.51a8.344,8.344,0,0,0,3.7,2.147l1.617.441H29.889a2.781,2.781,0,0,1-2.778-2.778ZM43.559,69.7,41.539,62.3H62.3v4.63a4.606,4.606,0,0,0,.928,2.778ZM69.7,66.926a2.778,2.778,0,1,1-5.556,0V61.371a.926.926,0,0,0-.926-.926H47.482v-3.7H50.26a.926.926,0,0,0,.926-.926v-3.7a.926.926,0,0,0-.926-.926H47.482v-3.7H50.26a.926.926,0,0,0,.926-.926v-3.7a.926.926,0,0,0-.926-.926H47.482v-3.7H50.26a.926.926,0,0,0,.926-.926v-3.7a.926.926,0,0,0-.926-.926H42.852a.926.926,0,0,0-.926.926v3.7a.926.926,0,0,0,.926.926H45.63v3.7H42.852a.926.926,0,0,0-.926.926v3.7a.926.926,0,0,0,.926.926H45.63v3.7H42.852a.926.926,0,0,0-.926.926v3.7a.926.926,0,0,0,.926.926H45.63v3.7H40.836a8.343,8.343,0,0,0-1.5-2.045L37.68,56.741h1.469a.926.926,0,0,0,.926-.926v-3.7a.926.926,0,0,0-.926-.926h-3.7a.926.926,0,0,0-.926.926V53.58l-3.7-3.7V17.852H69.7ZM43.778,54.889V53.037h5.556v1.852Zm5.556-11.111V45.63H43.778V43.778Zm-5.556-7.407V34.519h5.556v1.852ZM36.371,54.889V53.037h1.852v1.852Z" transform="translate(0)"/>
      <path id="Trazado_1058924" data-name="Trazado 1058924" d="M177.023,165.043a.926.926,0,0,0,.745.508q.042,0,.083,0a.926.926,0,0,0,.741-.37l2.778-3.7a.926.926,0,1,0-1.481-1.111l-1.879,2.505-.256-.512a.926.926,0,1,0-1.656.828Z" transform="translate(-141.481 -127.333)"/>
      <path id="Trazado_1058925" data-name="Trazado 1058925" d="M176.271,245.284a.926.926,0,0,0,1.31,0l1.2-1.2,1.2,1.2a.926.926,0,1,0,1.31-1.31l-1.2-1.2,1.2-1.2a.926.926,0,0,0-1.31-1.31l-1.2,1.2-1.2-1.2a.926.926,0,0,0-1.31,1.31l1.2,1.2-1.2,1.2A.926.926,0,0,0,176.271,245.284Z" transform="translate(-141.481 -198.074)"/>
      <path id="Trazado_1058926" data-name="Trazado 1058926" d="M256.926,57.259h3.7a.926.926,0,0,0,0-1.852h-2.778V53.556h2.778a.926.926,0,1,0,0-1.852h-2.778V49.852h2.778a.926.926,0,0,0,0-1.852h-3.7a.926.926,0,0,0-.926.926v7.407A.926.926,0,0,0,256.926,57.259Z" transform="translate(-212.222 -28.296)"/>
      <path id="Trazado_1058927" data-name="Trazado 1058927" d="M322.778,55.407h-1.852a.926.926,0,0,0,0,1.852h1.852a2.778,2.778,0,0,0,0-5.556.926.926,0,1,1,0-1.852h1.852a.926.926,0,1,0,0-1.852h-1.852a2.778,2.778,0,1,0,0,5.556.926.926,0,0,1,0,1.852Z" transform="translate(-268.814 -28.296)"/>
      <path id="Trazado_1058928" data-name="Trazado 1058928" d="M192.926,49.852h.926v6.482a.926.926,0,1,0,1.852,0V49.852h.926a.926.926,0,0,0,0-1.852h-3.7a.926.926,0,1,0,0,1.852Z" transform="translate(-155.629 -28.296)"/>
      <path id="Trazado_1058929" data-name="Trazado 1058929" d="M384.926,49.852h.926v6.482a.926.926,0,1,0,1.852,0V49.852h.926a.926.926,0,0,0,0-1.852h-3.7a.926.926,0,0,0,0,1.852Z" transform="translate(-325.407 -28.296)"/>
      <path id="Trazado_1058930" data-name="Trazado 1058930" d="M348.037,192H336.926a.926.926,0,0,0,0,1.852h11.111a.926.926,0,0,0,0-1.852Z" transform="translate(-282.963 -155.629)"/>
      <path id="Trazado_1058931" data-name="Trazado 1058931" d="M404.63,240h-3.7a.926.926,0,0,0,0,1.852h3.7a.926.926,0,0,0,0-1.852Z" transform="translate(-339.555 -198.074)"/>
      <path id="Trazado_1058932" data-name="Trazado 1058932" d="M354.778,241.852a.926.926,0,0,0,0-1.852h-1.852a.926.926,0,0,0,0,1.852Z" transform="translate(-297.111 -198.074)"/>
      <path id="Trazado_1058933" data-name="Trazado 1058933" d="M404.63,320h-3.7a.926.926,0,1,0,0,1.852h3.7a.926.926,0,0,0,0-1.852Z" transform="translate(-339.555 -268.814)"/>
      <path id="Trazado_1058934" data-name="Trazado 1058934" d="M354.778,321.852a.926.926,0,0,0,0-1.852h-1.852a.926.926,0,0,0,0,1.852Z" transform="translate(-297.111 -268.814)"/>
      <path id="Trazado_1058935" data-name="Trazado 1058935" d="M400,160.926a.926.926,0,0,0,.926.926h3.7a.926.926,0,0,0,0-1.852h-3.7A.926.926,0,0,0,400,160.926Z" transform="translate(-339.555 -127.333)"/>
      <path id="Trazado_1058936" data-name="Trazado 1058936" d="M352,160.926a.926.926,0,0,0,.926.926h1.852a.926.926,0,1,0,0-1.852h-1.852A.926.926,0,0,0,352,160.926Z" transform="translate(-297.111 -127.333)"/>
      <path id="Trazado_1058937" data-name="Trazado 1058937" d="M348.037,272H336.926a.926.926,0,0,0,0,1.852h11.111a.926.926,0,0,0,0-1.852Z" transform="translate(-282.963 -226.37)"/>
      <path id="Trazado_1058938" data-name="Trazado 1058938" d="M348.037,352H336.926a.926.926,0,1,0,0,1.852h11.111a.926.926,0,1,0,0-1.852Z" transform="translate(-282.963 -297.111)"/>
    </g>
  </g>
</svg>
