<svg xmlns="http://www.w3.org/2000/svg" xmlns:xlink="http://www.w3.org/1999/xlink" width="113" height="113" viewBox="0 0 113 113">
  <defs>
    <filter id="Trazado_982547" x="0" y="0" width="113" height="113" filterUnits="userSpaceOnUse">
      <feOffset dy="3" input="SourceAlpha"/>
      <feGaussianBlur stdDeviation="3" result="blur"/>
      <feFlood flood-opacity="0.161"/>
      <feComposite operator="in" in2="blur"/>
      <feComposite in="SourceGraphic"/>
    </filter>
  </defs>
  <g id="Grupo_1227048" data-name="Grupo 1227048" transform="translate(-6264.49 -5044.367)">
    <g id="Grupo_1227019" data-name="Grupo 1227019" transform="translate(6273.49 5050.367)">
      <g id="Grupo_1224577" data-name="Grupo 1224577" transform="translate(0 0)">
        <g id="Grupo_1224450" data-name="Grupo 1224450" transform="translate(0)">
          <g id="Grupo_1224085" data-name="Grupo 1224085">
            <g id="Grupo_1223184" data-name="Grupo 1223184">
              <g id="Grupo_1211216" data-name="Grupo 1211216">
                <g id="Grupo_1210737" data-name="Grupo 1210737">
                  <g id="Grupo_1210537" data-name="Grupo 1210537">
                    <g id="Grupo_1164202" data-name="Grupo 1164202">
                      <g id="Grupo_1158168" data-name="Grupo 1158168">
                        <g id="Grupo_1152576" data-name="Grupo 1152576">
                          <g id="Grupo_1148633" data-name="Grupo 1148633">
                            <g id="Grupo_1148525" data-name="Grupo 1148525">
                              <g transform="matrix(1, 0, 0, 1, -9, -6)" filter="url(#Trazado_982547)">
                                <g id="Trazado_982547-2" data-name="Trazado 982547" transform="translate(9 6)" fill="#fef9e5">
                                  <path d="M 47.49999618530273 93.5 C 41.28936767578125 93.5 35.26533126831055 92.28396606445312 29.59518241882324 89.88570404052734 C 24.11771583557129 87.56893157958984 19.19812965393066 84.251953125 14.97308921813965 80.02690124511719 C 10.74803638458252 75.80186462402344 7.431062698364258 70.88227844238281 5.114289283752441 65.40480804443359 C 2.716022968292236 59.73466110229492 1.499996185302734 53.71062469482422 1.499996185302734 47.49999618530273 C 1.499996185302734 41.28936767578125 2.716022968292236 35.26533126831055 5.114289283752441 29.59518241882324 C 7.431062698364258 24.11771583557129 10.74803638458252 19.19812965393066 14.97308921813965 14.97308921813965 C 19.19812965393066 10.74803638458252 24.11771583557129 7.431062698364258 29.59518241882324 5.114289283752441 C 35.26533126831055 2.716022968292236 41.28936767578125 1.499996185302734 47.49999618530273 1.499996185302734 C 53.71062469482422 1.499996185302734 59.73466110229492 2.716022968292236 65.40480804443359 5.114289283752441 C 70.88227844238281 7.431062698364258 75.80186462402344 10.74803638458252 80.02690124511719 14.97308921813965 C 84.251953125 19.19812965393066 87.56893157958984 24.11771583557129 89.88570404052734 29.59518241882324 C 92.28396606445312 35.26533126831055 93.5 41.28936767578125 93.5 47.49999618530273 C 93.5 53.71062469482422 92.28396606445312 59.73466110229492 89.88570404052734 65.40480804443359 C 87.56893157958984 70.88227844238281 84.251953125 75.80186462402344 80.02690124511719 80.02690124511719 C 75.80186462402344 84.251953125 70.88227844238281 87.56893157958984 65.40480804443359 89.88570404052734 C 59.73466110229492 92.28396606445312 53.71062469482422 93.5 47.49999618530273 93.5 Z" stroke="none"/>
                                  <path d="M 47.49999618530273 2.999992370605469 C 41.4912109375 2.999992370605469 35.66376495361328 4.1761474609375 30.17950439453125 6.495796203613281 C 24.88084411621094 8.736953735351562 20.12152099609375 11.94598388671875 16.03375244140625 16.03375244140625 C 11.94598388671875 20.12152099609375 8.736953735351562 24.88084411621094 6.495796203613281 30.17950439453125 C 4.1761474609375 35.66376495361328 2.999992370605469 41.4912109375 2.999992370605469 47.49999618530273 C 2.999992370605469 53.50878143310547 4.1761474609375 59.33622741699219 6.495796203613281 64.82048797607422 C 8.736953735351562 70.11914825439453 11.94598388671875 74.87847137451172 16.03375244140625 78.96623992919922 C 20.12152099609375 83.05400848388672 24.88084411621094 86.26304626464844 30.17950439453125 88.50419616699219 C 35.66376495361328 90.82384490966797 41.4912109375 92 47.49999618530273 92 C 53.50878143310547 92 59.33622741699219 90.82384490966797 64.82048797607422 88.50419616699219 C 70.11914825439453 86.26304626464844 74.87847137451172 83.05400848388672 78.96623992919922 78.96623992919922 C 83.05400848388672 74.87847137451172 86.26304626464844 70.11914825439453 88.50419616699219 64.82048797607422 C 90.82384490966797 59.33622741699219 92 53.50878143310547 92 47.49999618530273 C 92 41.4912109375 90.82384490966797 35.66376495361328 88.50419616699219 30.17950439453125 C 86.26304626464844 24.88084411621094 83.05400848388672 20.12152099609375 78.96623992919922 16.03375244140625 C 74.87847137451172 11.94598388671875 70.11914825439453 8.736953735351562 64.82048797607422 6.495796203613281 C 59.33622741699219 4.1761474609375 53.50878143310547 2.999992370605469 47.49999618530273 2.999992370605469 M 47.49999618530273 -7.62939453125e-06 C 73.7335205078125 -7.62939453125e-06 95 21.26647186279297 95 47.49999618530273 C 95 73.7335205078125 73.7335205078125 95 47.49999618530273 95 C 21.26647186279297 95 -7.62939453125e-06 73.7335205078125 -7.62939453125e-06 47.49999618530273 C -7.62939453125e-06 21.26647186279297 21.26647186279297 -7.62939453125e-06 47.49999618530273 -7.62939453125e-06 Z" stroke="none" fill="#f6c810"/>
                                </g>
                              </g>
                            </g>
                          </g>
                        </g>
                      </g>
                    </g>
                  </g>
                </g>
              </g>
            </g>
          </g>
        </g>
      </g>
    </g>
    <g id="pruebas_4_" data-name="pruebas (4)" transform="translate(6292.436 5065.344)">
      <g id="Grupo_1227046" data-name="Grupo 1227046" transform="translate(0.844 0.837)">
        <g id="Grupo_1227041" data-name="Grupo 1227041" transform="translate(0 13.91)">
          <path id="Trazado_1058939" data-name="Trazado 1058939" d="M92.258,136.651v28.681l-23.5,1.854-23.5-1.854V136.651a4.4,4.4,0,0,1,4.405-4.405H87.853A4.4,4.4,0,0,1,92.258,136.651Z" transform="translate(-41.051 -132.246)" fill="#f9f6f9"/>
          <path id="Trazado_1058940" data-name="Trazado 1058940" d="M92.258,412.011V413.9l-23.5,1.854-23.5-1.854v-1.891Z" transform="translate(-41.05 -380.816)" fill="#dddaec"/>
          <path id="Trazado_1058941" data-name="Trazado 1058941" d="M46.722,165.989l-1.458-.653V136.655a4.4,4.4,0,0,1,4.4-4.405h2.226a4.4,4.4,0,0,0-4.405,4.405v28.681Z" transform="translate(-41.053 -132.25)" fill="#dddaec"/>
          <path id="Trazado_1058942" data-name="Trazado 1058942" d="M58.709,428.975h-47a4.211,4.211,0,1,0,0,8.422h47a4.211,4.211,0,1,0,0-8.422Z" transform="translate(-7.501 -395.888)" fill="#f9f6f9"/>
          <path id="Trazado_1058943" data-name="Trazado 1058943" d="M62.24,435.465a4.206,4.206,0,0,1-3.538,1.928h-47a4.211,4.211,0,1,1,0-8.422h1.356a4.211,4.211,0,0,0,3.538,6.494H62.24Z" transform="translate(-7.495 -395.885)" fill="#dddaec"/>
          <path id="Trazado_1058944" data-name="Trazado 1058944" d="M83.262,192.788V172.482a2.237,2.237,0,0,1,2.237-2.237h34.048a2.237,2.237,0,0,1,2.237,2.237v20.306a2.069,2.069,0,0,1-2.069,2.069H85.331A2.069,2.069,0,0,1,83.262,192.788Z" transform="translate(-74.814 -166.008)" fill="#9dc6fb"/>
          <path id="Trazado_1058945" data-name="Trazado 1058945" d="M88.584,194.859H85.33a2.068,2.068,0,0,1-2.068-2.068V172.485a2.237,2.237,0,0,1,2.237-2.237h3.254a2.237,2.237,0,0,0-2.237,2.237v20.306A2.069,2.069,0,0,0,88.584,194.859Z" transform="translate(-74.814 -166.011)" fill="#80b4fb"/>
          <path id="Trazado_1058946" data-name="Trazado 1058946" d="M191.965,432.682h-9.9a3.708,3.708,0,0,1-3.708-3.708h17.315A3.708,3.708,0,0,1,191.965,432.682Z" transform="translate(-159.306 -395.887)" fill="#cacaca"/>
        </g>
        <g id="Grupo_1227043" data-name="Grupo 1227043" transform="translate(15.165)">
          <path id="Trazado_1058947" data-name="Trazado 1058947" d="M166.941,21.672l-1.333-.552a9.549,9.549,0,0,0,0-2.154l1.332-.551a2.666,2.666,0,1,0-2.04-4.925l-1.331.551a9.553,9.553,0,0,0-1.524-1.522l.552-1.332a2.666,2.666,0,1,0-4.925-2.04l-.552,1.333a9.542,9.542,0,0,0-2.154,0l-.552-1.332a2.666,2.666,0,1,0-4.925,2.04l.552,1.331a9.553,9.553,0,0,0-1.523,1.524l-1.333-.552a2.665,2.665,0,1,0-2.04,4.925l1.332.552a9.575,9.575,0,0,0,0,2.154l-1.331.552a2.665,2.665,0,1,0,2.04,4.925l1.332-.552.019.023,0,0a9.5,9.5,0,0,0,1.5,1.5l-.552,1.333a2.664,2.664,0,0,0,3.567,3.445h0a2.651,2.651,0,0,0,1.357-1.405l.552-1.332a9.575,9.575,0,0,0,2.154,0l.551,1.331A2.666,2.666,0,1,0,162.6,28.9l-.551-1.332a9.567,9.567,0,0,0,1.523-1.523l1.332.552a2.666,2.666,0,1,0,2.04-4.925Zm-10.9,2.848a4.477,4.477,0,1,1,4.477-4.477A4.477,4.477,0,0,1,156.043,24.52Z" transform="translate(-143.499 -7.499)" fill="#4a80aa"/>
          <g id="Grupo_1227042" data-name="Grupo 1227042" transform="translate(0 0)">
            <path id="Trazado_1058948" data-name="Trazado 1058948" d="M265.932,10.478a9.549,9.549,0,0,1,2.154,0l.552-1.333A2.656,2.656,0,0,1,270,7.741l-.084-.037a2.664,2.664,0,0,0-3.483,1.443l-.524,1.265Z" transform="translate(-252.255 -7.5)" fill="#407093"/>
            <path id="Trazado_1058949" data-name="Trazado 1058949" d="M145.914,71.263a2.665,2.665,0,0,1,1.443-3.483l1.331-.552a9.576,9.576,0,0,1,0-2.154l-1.332-.552a2.665,2.665,0,0,1-.082-4.889l-.087-.036a2.665,2.665,0,1,0-2.04,4.925l1.332.552a9.576,9.576,0,0,0,0,2.154l-1.331.552a2.666,2.666,0,1,0,2.04,4.925l.088-.036A2.657,2.657,0,0,1,145.914,71.263Z" transform="translate(-143.501 -53.607)" fill="#407093"/>
            <path id="Trazado_1058950" data-name="Trazado 1058950" d="M268.637,207.11l-.551-1.331a9.575,9.575,0,0,1-2.154,0l-.028.068.524,1.265a2.665,2.665,0,0,0,3.483,1.443l.085-.037a2.655,2.655,0,0,1-1.359-1.406Z" transform="translate(-252.255 -183.669)" fill="#407093"/>
            <path id="Trazado_1058951" data-name="Trazado 1058951" d="M193.041,180.127a2.665,2.665,0,0,1-3.567-3.445l.552-1.333a9.5,9.5,0,0,1-1.5-1.5l0,0a.212.212,0,0,0-.019-.023h2.209a9.529,9.529,0,0,0,1.524,1.523l-.552,1.333A2.666,2.666,0,0,0,193.041,180.127Z" transform="translate(-183.484 -155.281)" fill="#407093"/>
            <path id="Trazado_1058952" data-name="Trazado 1058952" d="M193.041,7.746a2.665,2.665,0,0,0-3.567,3.445l.552,1.333a9.5,9.5,0,0,0-1.5,1.5l0,0a.211.211,0,0,1-.019.023h2.209a9.529,9.529,0,0,1,1.524-1.522l-.552-1.333A2.666,2.666,0,0,1,193.041,7.746Z" transform="translate(-183.484 -7.504)" fill="#407093"/>
          </g>
        </g>
        <g id="Grupo_1227044" data-name="Grupo 1227044" transform="translate(31.61 27.549)">
          <path id="Trazado_1058953" data-name="Trazado 1058953" d="M296.063,265.8a1.9,1.9,0,0,1-1.5-.737l-3.183-4.106a1.9,1.9,0,1,1,3.009-2.333l1.429,1.843,2.788-4.937a1.9,1.9,0,0,1,3.315,1.872l-4.2,7.43a1.9,1.9,0,0,1-1.519.963Q296.132,265.8,296.063,265.8Z" transform="translate(-290.977 -254.56)" fill="#a2e19f"/>
        </g>
        <g id="Grupo_1227045" data-name="Grupo 1227045" transform="translate(14.452 28.675)">
          <path id="Trazado_1058954" data-name="Trazado 1058954" d="M144.96,269.709l1.665-1.665a1.982,1.982,0,0,0-2.8-2.8l-1.665,1.665-1.665-1.665a1.982,1.982,0,0,0-2.8,2.8l1.665,1.665-1.665,1.665a1.982,1.982,0,0,0,2.8,2.8l1.665-1.665,1.665,1.665a1.982,1.982,0,1,0,2.8-2.8Z" transform="translate(-137.107 -264.659)" fill="#e28086"/>
        </g>
      </g>
      <g id="Grupo_1227047" data-name="Grupo 1227047" transform="translate(0.01 0.001)">
        <path id="Trazado_1058955" data-name="Trazado 1058955" d="M55.62,48.475a5.016,5.016,0,0,0-2.732-1.408V19.152a5.247,5.247,0,0,0-5.242-5.241H39a10.435,10.435,0,0,0,0-1.068l.769-.318a3.506,3.506,0,0,0,1.9-4.576c-.007-.017-.014-.033-.023-.05a.836.836,0,0,0-1.515.709,1.832,1.832,0,0,1-1,2.371l-1.331.551a.836.836,0,0,0-.511.866,8.786,8.786,0,0,1,0,1.967.836.836,0,0,0,.511.867l1.333.552a1.829,1.829,0,1,1-1.4,3.38L36.4,18.611a.836.836,0,0,0-.974.252,8.792,8.792,0,0,1-1.391,1.392.836.836,0,0,0-.251.974l.552,1.331a1.829,1.829,0,0,1-3.38,1.4L30.4,22.628a.835.835,0,0,0-.866-.511,8.772,8.772,0,0,1-1.967,0,.836.836,0,0,0-.867.511l-.552,1.333a1.829,1.829,0,0,1-3.38-1.4l.552-1.332a.836.836,0,0,0-.252-.974,8.725,8.725,0,0,1-1.39-1.389.836.836,0,0,0-.974-.252l-1.333.551a1.829,1.829,0,0,1-1.4-3.38l1.331-.551a.836.836,0,0,0,.511-.866,8.788,8.788,0,0,1,0-1.967.836.836,0,0,0-.511-.867l-1.333-.552a1.829,1.829,0,1,1,1.4-3.38l1.332.552a.837.837,0,0,0,.974-.252,8.752,8.752,0,0,1,1.39-1.391.836.836,0,0,0,.252-.974L22.772,4.2a1.829,1.829,0,0,1,3.38-1.4L26.7,4.135a.835.835,0,0,0,.866.511,8.779,8.779,0,0,1,1.967,0,.838.838,0,0,0,.867-.511L30.955,2.8a1.829,1.829,0,0,1,3.38,1.4l-.552,1.332a.836.836,0,0,0,.252.974A8.731,8.731,0,0,1,35.425,7.9a.836.836,0,0,0,.974.252L37.733,7.6a1.828,1.828,0,0,1,.465-.124.836.836,0,1,0-.218-1.658,3.5,3.5,0,0,0-.888.238l-.77.318a10.4,10.4,0,0,0-.761-.76l.319-.769a3.5,3.5,0,1,0-6.47-2.68l-.319.769a10.424,10.424,0,0,0-1.076,0L27.7,2.164a3.5,3.5,0,1,0-6.47,2.681l.318.768a10.442,10.442,0,0,0-.76.761l-.769-.319a3.5,3.5,0,1,0-2.68,6.47l.769.319a10.521,10.521,0,0,0,0,1.067H9.462A5.247,5.247,0,0,0,4.22,19.152V47.068a5.047,5.047,0,0,0,.836,10.024h47a5.047,5.047,0,0,0,3.568-8.617Zm-36.943-27.5a3.478,3.478,0,0,0,1.339-.268l.77-.318a10.4,10.4,0,0,0,.761.76l-.319.769A3.5,3.5,0,1,0,27.7,24.6l.319-.769a10.455,10.455,0,0,0,1.076,0l.319.769a3.5,3.5,0,1,0,6.47-2.681l-.319-.768a10.482,10.482,0,0,0,.76-.761l.769.318a3.507,3.507,0,0,0,3.94-.886h4.547a1.4,1.4,0,0,1,1.4,1.4V41.528a1.234,1.234,0,0,1-1.232,1.232H11.362a1.234,1.234,0,0,1-1.232-1.232V21.222a1.4,1.4,0,0,1,1.4-1.4h4.549a3.49,3.49,0,0,0,2.6,1.154ZM52.052,55.419h-47a3.375,3.375,0,0,1,0-6.749h5.73a.836.836,0,0,0,0-1.673H5.893V19.152a3.573,3.573,0,0,1,3.569-3.568H15.73a3.51,3.51,0,0,0-.49,2.565H11.53a3.077,3.077,0,0,0-3.073,3.073V41.528a2.908,2.908,0,0,0,2.9,2.9H45.746a2.908,2.908,0,0,0,2.9-2.9V21.222a3.077,3.077,0,0,0-3.073-3.073H41.867a3.511,3.511,0,0,0-.489-2.565h6.269a3.573,3.573,0,0,1,3.569,3.568V47H14.109a.836.836,0,0,0,0,1.673h5.029A4.551,4.551,0,0,0,23.6,52.378h9.9a4.551,4.551,0,0,0,4.466-3.708H52.052a3.375,3.375,0,0,1,0,6.749Zm-15.8-6.749A2.877,2.877,0,0,1,33.5,50.705H23.6a2.877,2.877,0,0,1-2.747-2.035Z" transform="translate(-0.01 -0.001)"/>
        <path id="Trazado_1058956" data-name="Trazado 1058956" d="M213.659,72.353a5.313,5.313,0,1,0,5.313,5.313A5.319,5.319,0,0,0,213.659,72.353Zm0,1.672a3.639,3.639,0,0,1,3.6,4.171h-7.2a3.639,3.639,0,0,1,3.6-4.171Zm0,7.281a3.636,3.636,0,0,1-2.9-1.438h5.792a3.636,3.636,0,0,1-2.9,1.438Z" transform="translate(-185.115 -64.285)"/>
        <path id="Trazado_1058957" data-name="Trazado 1058957" d="M287.23,258.92a2.758,2.758,0,0,0,2.165,1.061q.1,0,.2-.007a2.734,2.734,0,0,0,2.187-1.385l4.2-7.43a2.74,2.74,0,0,0-4.771-2.695l-2.17,3.842-.658-.849a2.74,2.74,0,1,0-4.331,3.357ZM285.153,253a1.068,1.068,0,0,1,1.057-.933,1.1,1.1,0,0,1,.136.009,1.06,1.06,0,0,1,.709.4l1.429,1.843a.836.836,0,0,0,1.389-.1l2.788-4.937a1.067,1.067,0,1,1,1.859,1.05l-4.2,7.43a1.065,1.065,0,0,1-.851.54,1.076,1.076,0,0,1-.922-.41l-3.183-4.106A1.06,1.06,0,0,1,285.153,253Z" transform="translate(-251.864 -219.522)"/>
        <path id="Trazado_1058958" data-name="Trazado 1058958" d="M130.446,261.976l1.074,1.074-1.074,1.074a2.818,2.818,0,0,0,3.986,3.986l1.074-1.074,1.074,1.074a2.818,2.818,0,1,0,3.986-3.986l-1.074-1.074,1.074-1.074a2.818,2.818,0,0,0-3.986-3.986l-1.074,1.074-1.074-1.074a2.818,2.818,0,0,0-3.986,3.986Zm1.183-2.8a1.146,1.146,0,0,1,1.621,0l1.665,1.665a.836.836,0,0,0,1.183,0l1.665-1.665a1.146,1.146,0,0,1,1.62,1.62l-1.665,1.665a.836.836,0,0,0,0,1.183l1.665,1.665a1.146,1.146,0,1,1-1.62,1.621l-1.665-1.665a.836.836,0,0,0-1.183,0l-1.665,1.665a1.146,1.146,0,0,1-1.62-1.621l1.665-1.665a.836.836,0,0,0,0-1.183l-1.665-1.665A1.147,1.147,0,0,1,131.629,259.173Z" transform="translate(-115.169 -228.49)"/>
      </g>
    </g>
  </g>
</svg>
