<svg xmlns="http://www.w3.org/2000/svg" xmlns:xlink="http://www.w3.org/1999/xlink" width="113" height="113" viewBox="0 0 113 113">
  <defs>
    <filter id="Trazado_982547" x="0" y="0" width="113" height="113" filterUnits="userSpaceOnUse">
      <feOffset dy="3" input="SourceAlpha"/>
      <feGaussianBlur stdDeviation="3" result="blur"/>
      <feFlood flood-opacity="0.161"/>
      <feComposite operator="in" in2="blur"/>
      <feComposite in="SourceGraphic"/>
    </filter>
  </defs>
  <g id="Grupo_1227004" data-name="Grupo 1227004" transform="translate(-271.228 -706.323)">
    <g id="Grupo_1226918" data-name="Grupo 1226918" transform="translate(0.344 -2831)">
      <g id="Grupo_1226282" data-name="Grupo 1226282" transform="translate(-0.429 -6427.152)">
        <g id="Grupo_1225528" data-name="Grupo 1225528" transform="translate(0.313 8669.134)">
          <g id="Grupo_1225173" data-name="Grupo 1225173" transform="translate(0 -3445.654)">
            <g id="Grupo_1224643" data-name="Grupo 1224643" transform="translate(0 1927)">
              <g id="Grupo_1224291" data-name="Grupo 1224291" transform="translate(0 859.245)">
                <g id="Grupo_1224091" data-name="Grupo 1224091" transform="translate(-84.49 -2620.317)">
                  <g id="Grupo_1223183" data-name="Grupo 1223183" transform="translate(364.49 4581.069)">
                    <g id="Grupo_1211217" data-name="Grupo 1211217" transform="translate(0)">
                      <g id="Grupo_1210736" data-name="Grupo 1210736">
                        <g id="Grupo_1210537" data-name="Grupo 1210537">
                          <g id="Grupo_1164202" data-name="Grupo 1164202">
                            <g id="Grupo_1158168" data-name="Grupo 1158168">
                              <g id="Grupo_1152576" data-name="Grupo 1152576">
                                <g id="Grupo_1148633" data-name="Grupo 1148633">
                                  <g id="Grupo_1148525" data-name="Grupo 1148525">
                                    <g transform="matrix(1, 0, 0, 1, -9, -6)" filter="url(#Trazado_982547)">
                                      <g id="Trazado_982547-2" data-name="Trazado 982547" transform="translate(9 6)" fill="#fdf6e4">
                                        <path d="M 47.49999618530273 93.5 C 41.28936767578125 93.5 35.26533126831055 92.28396606445312 29.59518241882324 89.88570404052734 C 24.11771583557129 87.56893157958984 19.19812965393066 84.251953125 14.97308921813965 80.02690124511719 C 10.74803638458252 75.80186462402344 7.431062698364258 70.88227844238281 5.114289283752441 65.40480804443359 C 2.716022968292236 59.73466110229492 1.499996185302734 53.71062469482422 1.499996185302734 47.49999618530273 C 1.499996185302734 41.28936767578125 2.716022968292236 35.26533126831055 5.114289283752441 29.59518241882324 C 7.431062698364258 24.11771583557129 10.74803638458252 19.19812965393066 14.97308921813965 14.97308921813965 C 19.19812965393066 10.74803638458252 24.11771583557129 7.431062698364258 29.59518241882324 5.114289283752441 C 35.26533126831055 2.716022968292236 41.28936767578125 1.499996185302734 47.49999618530273 1.499996185302734 C 53.71062469482422 1.499996185302734 59.73466110229492 2.716022968292236 65.40480804443359 5.114289283752441 C 70.88227844238281 7.431062698364258 75.80186462402344 10.74803638458252 80.02690124511719 14.97308921813965 C 84.251953125 19.19812965393066 87.56893157958984 24.11771583557129 89.88570404052734 29.59518241882324 C 92.28396606445312 35.26533126831055 93.5 41.28936767578125 93.5 47.49999618530273 C 93.5 53.71062469482422 92.28396606445312 59.73466110229492 89.88570404052734 65.40480804443359 C 87.56893157958984 70.88227844238281 84.251953125 75.80186462402344 80.02690124511719 80.02690124511719 C 75.80186462402344 84.251953125 70.88227844238281 87.56893157958984 65.40480804443359 89.88570404052734 C 59.73466110229492 92.28396606445312 53.71062469482422 93.5 47.49999618530273 93.5 Z" stroke="none"/>
                                        <path d="M 47.49999618530273 2.999992370605469 C 41.4912109375 2.999992370605469 35.66376495361328 4.1761474609375 30.17950439453125 6.495796203613281 C 24.88084411621094 8.736953735351562 20.12152099609375 11.94598388671875 16.03375244140625 16.03375244140625 C 11.94598388671875 20.12152099609375 8.736953735351562 24.88084411621094 6.495796203613281 30.17950439453125 C 4.1761474609375 35.66376495361328 2.999992370605469 41.4912109375 2.999992370605469 47.49999618530273 C 2.999992370605469 53.50878143310547 4.1761474609375 59.33622741699219 6.495796203613281 64.82048797607422 C 8.736953735351562 70.11914825439453 11.94598388671875 74.87847137451172 16.03375244140625 78.96623992919922 C 20.12152099609375 83.05400848388672 24.88084411621094 86.26304626464844 30.17950439453125 88.50419616699219 C 35.66376495361328 90.82384490966797 41.4912109375 92 47.49999618530273 92 C 53.50878143310547 92 59.33622741699219 90.82384490966797 64.82048797607422 88.50419616699219 C 70.11914825439453 86.26304626464844 74.87847137451172 83.05400848388672 78.96623992919922 78.96623992919922 C 83.05400848388672 74.87847137451172 86.26304626464844 70.11914825439453 88.50419616699219 64.82048797607422 C 90.82384490966797 59.33622741699219 92 53.50878143310547 92 47.49999618530273 C 92 41.4912109375 90.82384490966797 35.66376495361328 88.50419616699219 30.17950439453125 C 86.26304626464844 24.88084411621094 83.05400848388672 20.12152099609375 78.96623992919922 16.03375244140625 C 74.87847137451172 11.94598388671875 70.11914825439453 8.736953735351562 64.82048797607422 6.495796203613281 C 59.33622741699219 4.1761474609375 53.50878143310547 2.999992370605469 47.49999618530273 2.999992370605469 M 47.49999618530273 -7.62939453125e-06 C 73.7335205078125 -7.62939453125e-06 95 21.26647186279297 95 47.49999618530273 C 95 73.7335205078125 73.7335205078125 95 47.49999618530273 95 C 21.26647186279297 95 -7.62939453125e-06 73.7335205078125 -7.62939453125e-06 47.49999618530273 C -7.62939453125e-06 21.26647186279297 21.26647186279297 -7.62939453125e-06 47.49999618530273 -7.62939453125e-06 Z" stroke="none" fill="#f5b104"/>
                                      </g>
                                    </g>
                                  </g>
                                </g>
                              </g>
                            </g>
                          </g>
                        </g>
                      </g>
                    </g>
                  </g>
                </g>
              </g>
            </g>
          </g>
        </g>
      </g>
    </g>
    <g id="relacional_4_" data-name="relacional (4)" transform="translate(298.805 730.411)">
      <g id="Grupo_1227002" data-name="Grupo 1227002" transform="translate(1.917 1.917)">
        <g id="Grupo_1226988" data-name="Grupo 1226988" transform="translate(0 7.332)">
          <path id="Trazado_1058806" data-name="Trazado 1058806" d="M2,19.166V10H24v9.166A1.838,1.838,0,0,1,22.164,21H3.833A1.838,1.838,0,0,1,2,19.166Z" transform="translate(-2 -10)" fill="#e6e9ed"/>
        </g>
        <g id="Grupo_1226989" data-name="Grupo 1226989" transform="translate(0 31.163)">
          <path id="Trazado_1058807" data-name="Trazado 1058807" d="M24,36v9.166A1.838,1.838,0,0,1,22.164,47H3.833A1.838,1.838,0,0,1,2,45.166V36Z" transform="translate(-2 -36)" fill="#e6e9ed"/>
        </g>
        <g id="Grupo_1226990" data-name="Grupo 1226990" transform="translate(32.079 43.994)">
          <path id="Trazado_1058808" data-name="Trazado 1058808" d="M59,50v9.166A1.838,1.838,0,0,1,57.164,61H38.833A1.838,1.838,0,0,1,37,59.166V50Z" transform="translate(-37 -50)" fill="#e6e9ed"/>
        </g>
        <g id="Grupo_1226991" data-name="Grupo 1226991">
          <path id="Trazado_1058809" data-name="Trazado 1058809" d="M2,9.332v-5.5A1.838,1.838,0,0,1,3.833,2H22.164A1.838,1.838,0,0,1,24,3.833v5.5Z" transform="translate(-2 -2)" fill="#5cd6b3"/>
        </g>
        <g id="Grupo_1226992" data-name="Grupo 1226992" transform="translate(0 23.83)">
          <path id="Trazado_1058810" data-name="Trazado 1058810" d="M24,33.5v1.833H2v-5.5A1.838,1.838,0,0,1,3.833,28H22.164A1.838,1.838,0,0,1,24,29.833Z" transform="translate(-2 -28)" fill="#5cd6b3"/>
        </g>
        <g id="Grupo_1226993" data-name="Grupo 1226993" transform="translate(32.079 36.662)">
          <path id="Trazado_1058811" data-name="Trazado 1058811" d="M37,49.332v-5.5A1.838,1.838,0,0,1,38.833,42H57.164A1.838,1.838,0,0,1,59,43.833v5.5Z" transform="translate(-37 -42)" fill="#5cd6b3"/>
        </g>
        <g id="Grupo_1226994" data-name="Grupo 1226994" transform="translate(14.665 10.999)">
          <path id="Trazado_1058812" data-name="Trazado 1058812" d="M18,14h3.666v3.666H18Z" transform="translate(-18 -14)" fill="#ff826e"/>
        </g>
        <g id="Grupo_1226995" data-name="Grupo 1226995" transform="translate(35.745 47.661)">
          <circle id="Elipse_13555" data-name="Elipse 13555" cx="1.5" cy="1.5" r="1.5" transform="translate(0.338 0.423)" fill="#ff826e"/>
        </g>
        <g id="Grupo_1226996" data-name="Grupo 1226996" transform="translate(31.163 13.748)">
          <path id="Trazado_1058813" data-name="Trazado 1058813" d="M59.83,17v5.5c0,1.521-5.334,2.75-11.915,2.75S36,24.021,36,22.5V17c0,1.521,5.334,2.75,11.915,2.75S59.83,18.521,59.83,17Z" transform="translate(-36 -17)" fill="#fcd770"/>
        </g>
        <g id="Grupo_1226997" data-name="Grupo 1226997" transform="translate(31.163 2.75)">
          <path id="Trazado_1058814" data-name="Trazado 1058814" d="M59.83,5v5.5c0,1.521-5.334,2.75-11.915,2.75S36,12.021,36,10.5V5c0,1.521,5.334,2.75,11.915,2.75S59.83,6.521,59.83,5Z" transform="translate(-36 -5)" fill="#fcd770"/>
        </g>
        <g id="Grupo_1226998" data-name="Grupo 1226998" transform="translate(31.163 8.249)">
          <path id="Trazado_1058815" data-name="Trazado 1058815" d="M36,11c0,1.521,5.334,2.75,11.915,2.75S59.83,12.521,59.83,11v5.5c0,1.521-5.334,2.75-11.915,2.75S36,18.021,36,16.5V11Z" transform="translate(-36 -11)" fill="#ffeaa7"/>
        </g>
        <g id="Grupo_1226999" data-name="Grupo 1226999" transform="translate(31.163)">
          <ellipse id="Elipse_13556" data-name="Elipse 13556" cx="12" cy="2.5" rx="12" ry="2.5" transform="translate(-0.079 0.083)" fill="#ffeaa7"/>
        </g>
        <g id="Grupo_1227000" data-name="Grupo 1227000" transform="translate(9.166 45.828)">
          <ellipse id="Elipse_13557" data-name="Elipse 13557" cx="2" cy="1.5" rx="2" ry="1.5" transform="translate(-0.082 0.256)" fill="#ff826e"/>
        </g>
        <g id="Grupo_1227001" data-name="Grupo 1227001" transform="translate(41.245 27.497)">
          <circle id="Elipse_13558" data-name="Elipse 13558" cx="2" cy="2" r="2" transform="translate(-0.161 -0.413)" fill="#ff826e"/>
        </g>
      </g>
      <g id="Grupo_1227003" data-name="Grupo 1227003" transform="translate(1 1)">
        <path id="Trazado_1058816" data-name="Trazado 1058816" d="M44.994,1c-1.313,0-12.832.1-12.832,3.666v5.5H24.83V3.75A2.753,2.753,0,0,0,22.081,1H3.75A2.753,2.753,0,0,0,1,3.75V18.414a2.753,2.753,0,0,0,2.75,2.75H12V24.83H3.75A2.753,2.753,0,0,0,1,27.58V42.245a2.753,2.753,0,0,0,2.75,2.75H12v2a2.743,2.743,0,1,0,3.5,3.5H33.079v4.583a2.753,2.753,0,0,0,2.75,2.75H54.16a2.753,2.753,0,0,0,2.75-2.75V40.412a2.753,2.753,0,0,0-2.75-2.75H45.911V33.827a2.734,2.734,0,0,0,0-5.162V24.819c3.073-.068,11.915-.533,11.915-3.655V4.666C57.826,1.1,46.308,1,44.994,1Zm11,9.095c-.445.695-4.428,1.9-11,1.9s-10.554-1.209-11-1.9V6.748c3.306,1.527,10.015,1.585,11,1.585s7.693-.058,11-1.585Zm0,5.5c-.445.695-4.428,1.9-11,1.9s-10.554-1.209-11-1.9V12.247c3.306,1.527,10.015,1.585,11,1.585s7.693-.058,11-1.585Zm-11-12.761c6.352,0,10.292,1.13,10.948,1.833-.656.7-4.6,1.833-10.948,1.833S34.7,5.369,34.046,4.666C34.7,3.963,38.643,2.833,44.994,2.833Zm-41.245,0H22.081A.917.917,0,0,1,23,3.75V8.332H2.833V3.75A.917.917,0,0,1,3.75,2.833ZM2.833,18.414V10.166H23v8.249a.917.917,0,0,1-.917.917H3.75A.917.917,0,0,1,2.833,18.414Zm11,2.75h8.249a2.753,2.753,0,0,0,2.75-2.75V12h7.332v9.166c0,3.122,8.842,3.587,11.915,3.655v3.846a2.747,2.747,0,0,0-1.664,1.664H24.83V27.58a2.753,2.753,0,0,0-2.75-2.75H13.832ZM3.75,26.663H22.081A.917.917,0,0,1,23,27.58v4.583H2.833V27.58A.917.917,0,0,1,3.75,26.663ZM2.833,42.245V34H23v8.249a.917.917,0,0,1-.917.917H3.75A.917.917,0,0,1,2.833,42.245Zm10.082,8.249a.917.917,0,1,1,.917-.917A.917.917,0,0,1,12.915,50.494Zm41.245,5.5H35.829a.917.917,0,0,1-.917-.917V46.828H55.077v8.249A.917.917,0,0,1,54.16,55.993Zm.917-15.581v4.583H34.912V40.412a.917.917,0,0,1,.917-.917H54.16A.917.917,0,0,1,55.077,40.412Zm-19.248-2.75a2.753,2.753,0,0,0-2.75,2.75v8.249H15.5A2.747,2.747,0,0,0,13.832,47v-2h8.249a2.753,2.753,0,0,0,2.75-2.75V32.163H42.413a2.747,2.747,0,0,0,1.664,1.664v3.835Zm9.166-5.5a.917.917,0,1,1,.917-.917A.917.917,0,0,1,44.994,32.163Zm0-9.166c-6.544,0-10.527-1.2-11-1.9V17.746c3.306,1.527,10.015,1.585,11,1.585s7.693-.058,11-1.585V21.1C55.521,21.8,51.539,23,44.994,23Z" transform="translate(-1 -1)"/>
        <path id="Trazado_1058817" data-name="Trazado 1058817" d="M13,5h1.833V6.833H13Z" transform="translate(-2.001 -1.334)"/>
        <path id="Trazado_1058818" data-name="Trazado 1058818" d="M9,5h1.833V6.833H9Z" transform="translate(-1.668 -1.334)"/>
        <path id="Trazado_1058819" data-name="Trazado 1058819" d="M5,5H6.833V6.833H5Z" transform="translate(-1.334 -1.334)"/>
        <path id="Trazado_1058820" data-name="Trazado 1058820" d="M13,31h1.833v1.833H13Z" transform="translate(-2.001 -3.503)"/>
        <path id="Trazado_1058821" data-name="Trazado 1058821" d="M5,31H6.833v1.833H5Z" transform="translate(-1.334 -3.503)"/>
        <path id="Trazado_1058822" data-name="Trazado 1058822" d="M9,31h1.833v1.833H9Z" transform="translate(-1.668 -3.503)"/>
        <path id="Trazado_1058823" data-name="Trazado 1058823" d="M44,45h1.833v1.833H44Z" transform="translate(-4.588 -4.672)"/>
        <path id="Trazado_1058824" data-name="Trazado 1058824" d="M48,45h1.833v1.833H48Z" transform="translate(-4.922 -4.672)"/>
        <path id="Trazado_1058825" data-name="Trazado 1058825" d="M40,45h1.833v1.833H40Z" transform="translate(-4.255 -4.672)"/>
        <path id="Trazado_1058826" data-name="Trazado 1058826" d="M42.75,53a2.75,2.75,0,1,0,2.75,2.75A2.753,2.753,0,0,0,42.75,53Zm0,3.666a.917.917,0,1,1,.917-.917A.917.917,0,0,1,42.75,56.666Z" transform="translate(-4.255 -5.339)"/>
        <path id="Trazado_1058827" data-name="Trazado 1058827" d="M48,53h9.166v1.833H48Z" transform="translate(-4.922 -5.339)"/>
        <path id="Trazado_1058828" data-name="Trazado 1058828" d="M48,57h5.5v1.833H48Z" transform="translate(-4.922 -5.673)"/>
        <path id="Trazado_1058829" data-name="Trazado 1058829" d="M56,57h1.833v1.833H56Z" transform="translate(-5.59 -5.673)"/>
        <path id="Trazado_1058830" data-name="Trazado 1058830" d="M5,39H6.833v1.833H5Z" transform="translate(-1.334 -4.171)"/>
        <path id="Trazado_1058831" data-name="Trazado 1058831" d="M9,39H21.832v1.833H9Z" transform="translate(-1.668 -4.171)"/>
        <path id="Trazado_1058832" data-name="Trazado 1058832" d="M5,43H21.5v1.833H5Z" transform="translate(-1.334 -4.505)"/>
        <path id="Trazado_1058833" data-name="Trazado 1058833" d="M17,18.5h5.5V13H17Zm1.833-3.666h1.833v1.833H18.833Z" transform="translate(-2.335 -2.001)"/>
        <path id="Trazado_1058834" data-name="Trazado 1058834" d="M5,13h9.166v1.833H5Z" transform="translate(-1.334 -2.001)"/>
        <path id="Trazado_1058835" data-name="Trazado 1058835" d="M5,17h5.5v1.833H5Z" transform="translate(-1.334 -2.335)"/>
        <path id="Trazado_1058836" data-name="Trazado 1058836" d="M13,17h1.833v1.833H13Z" transform="translate(-2.001 -2.335)"/>
      </g>
    </g>
  </g>
</svg>
