<svg xmlns="http://www.w3.org/2000/svg" xmlns:xlink="http://www.w3.org/1999/xlink" width="113" height="113" viewBox="0 0 113 113">
  <defs>
    <filter id="Trazado_982547" x="0" y="0" width="113" height="113" filterUnits="userSpaceOnUse">
      <feOffset dy="3" input="SourceAlpha"/>
      <feGaussianBlur stdDeviation="3" result="blur"/>
      <feFlood flood-opacity="0.161"/>
      <feComposite operator="in" in2="blur"/>
      <feComposite in="SourceGraphic"/>
    </filter>
  </defs>
  <g id="Grupo_1227123" data-name="Grupo 1227123" transform="translate(-352.834 -3242.032)">
    <g id="Grupo_1226939" data-name="Grupo 1226939" transform="translate(361.834 3248.032)">
      <g id="Grupo_1226374" data-name="Grupo 1226374" transform="translate(0)">
        <g id="Grupo_1211217" data-name="Grupo 1211217">
          <g id="Grupo_1210736" data-name="Grupo 1210736">
            <g id="Grupo_1210537" data-name="Grupo 1210537">
              <g id="Grupo_1164202" data-name="Grupo 1164202">
                <g id="Grupo_1158168" data-name="Grupo 1158168">
                  <g id="Grupo_1152576" data-name="Grupo 1152576">
                    <g id="Grupo_1148633" data-name="Grupo 1148633">
                      <g id="Grupo_1148525" data-name="Grupo 1148525">
                        <g transform="matrix(1, 0, 0, 1, -9, -6)" filter="url(#Trazado_982547)">
                          <g id="Trazado_982547-2" data-name="Trazado 982547" transform="translate(9 6)" fill="#fef9e5">
                            <path d="M 47.49999237060547 93.49999237060547 C 41.28937911987305 93.49999237060547 35.26532745361328 92.28396606445312 29.59519195556641 89.88569641113281 C 24.11772537231445 87.56892395019531 19.19813919067383 84.251953125 14.97309875488281 80.02690124511719 C 10.74804592132568 75.80185699462891 7.431072235107422 70.88227081298828 5.114298820495605 65.40480804443359 C 2.716032266616821 59.73465728759766 1.500005722045898 53.71060562133789 1.500005722045898 47.49999237060547 C 1.500005722045898 41.28937911987305 2.716032266616821 35.26532745361328 5.114298820495605 29.59517860412598 C 7.431072235107422 24.11771202087402 10.74804592132568 19.1981258392334 14.97309875488281 14.97308540344238 C 19.19813919067383 10.74804592132568 24.11772537231445 7.431072235107422 29.59519195556641 5.114298820495605 C 35.26532745361328 2.716032266616821 41.28937911987305 1.500005722045898 47.49999237060547 1.500005722045898 C 53.71062088012695 1.500005722045898 59.73465728759766 2.716032266616821 65.40480804443359 5.114298820495605 C 70.88227081298828 7.431072235107422 75.80185699462891 10.74804592132568 80.02690124511719 14.97308540344238 C 84.251953125 19.1981258392334 87.56892395019531 24.11771202087402 89.88569641113281 29.59517860412598 C 92.28396606445312 35.26532745361328 93.49999237060547 41.28937911987305 93.49999237060547 47.49999237060547 C 93.49999237060547 53.71062088012695 92.28396606445312 59.73465728759766 89.88569641113281 65.40480804443359 C 87.56892395019531 70.88227081298828 84.251953125 75.80185699462891 80.02690124511719 80.02690124511719 C 75.80185699462891 84.251953125 70.88227081298828 87.56892395019531 65.40480804443359 89.88569641113281 C 59.73465728759766 92.28396606445312 53.71062088012695 93.49999237060547 47.49999237060547 93.49999237060547 Z" stroke="none"/>
                            <path d="M 47.49999237060547 2.999992370605469 C 41.49120712280273 2.999992370605469 35.66376113891602 4.1761474609375 30.17951202392578 6.49578857421875 C 24.88083648681641 8.736946105957031 20.12151336669922 11.94597625732422 16.03374481201172 16.03374481201172 C 11.94597625732422 20.12151336669922 8.736946105957031 24.88083648681641 6.49578857421875 30.17949676513672 C 4.1761474609375 35.66376113891602 2.999992370605469 41.49120712280273 2.999992370605469 47.49999237060547 C 2.999992370605469 53.5087776184082 4.1761474609375 59.33622360229492 6.49578857421875 64.82046508789062 C 8.736946105957031 70.11914825439453 11.94597625732422 74.87847137451172 16.03374481201172 78.96623992919922 C 20.12151336669922 83.05400848388672 24.88083648681641 86.26303863525391 30.17951202392578 88.50418090820312 C 35.66376113891602 90.82382202148438 41.49120712280273 91.99997711181641 47.49999237060547 91.99997711181641 C 53.5087776184082 91.99997711181641 59.33622360229492 90.82382202148438 64.82046508789062 88.50418090820312 C 70.11914825439453 86.26303863525391 74.87847137451172 83.05400848388672 78.96623992919922 78.96623992919922 C 83.05400848388672 74.87847137451172 86.26303863525391 70.11914825439453 88.50418090820312 64.82046508789062 C 90.82382202148438 59.33622360229492 91.99997711181641 53.5087776184082 91.99997711181641 47.49999237060547 C 91.99997711181641 41.49120712280273 90.82382202148438 35.66376113891602 88.50418090820312 30.17949676513672 C 86.26303863525391 24.88083648681641 83.05400848388672 20.12151336669922 78.96623992919922 16.03374481201172 C 74.87847137451172 11.94597625732422 70.11914825439453 8.736946105957031 64.82046508789062 6.49578857421875 C 59.33622360229492 4.1761474609375 53.5087776184082 2.999992370605469 47.49999237060547 2.999992370605469 M 47.49999237060547 -7.62939453125e-06 C 73.73351287841797 -7.62939453125e-06 94.99997711181641 21.26647186279297 94.99997711181641 47.49999237060547 C 94.99997711181641 73.73351287841797 73.73351287841797 94.99997711181641 47.49999237060547 94.99997711181641 C 21.26648712158203 94.99997711181641 -7.62939453125e-06 73.73351287841797 -7.62939453125e-06 47.49999237060547 C -7.62939453125e-06 21.26647186279297 21.26648712158203 -7.62939453125e-06 47.49999237060547 -7.62939453125e-06 Z" stroke="none" fill="#f6c810"/>
                          </g>
                        </g>
                      </g>
                    </g>
                  </g>
                </g>
              </g>
            </g>
          </g>
        </g>
      </g>
    </g>
    <g id="funcion_3_" data-name="funcion (3)" transform="translate(382.456 3243.599)">
      <path id="Trazado_1059177" data-name="Trazado 1059177" d="M58,35.495H9.175A1.675,1.675,0,0,0,7.5,37.17v7.706H59.68V37.17A1.675,1.675,0,0,0,58,35.495Z" transform="translate(-6.713 -6.713)" fill="#ffe177"/>
      <path id="Trazado_1059178" data-name="Trazado 1059178" d="M462.59,35.495h-3.045a1.675,1.675,0,0,1,1.675,1.675v7.706h3.045V37.17A1.675,1.675,0,0,0,462.59,35.495Z" transform="translate(-411.297 -6.713)" fill="#ffd15b"/>
      <path id="Trazado_1059179" data-name="Trazado 1059179" d="M26.04,79.124l-.854-1.849a.95.95,0,0,0-.863-.552H15.66a.95.95,0,0,0-.863.552l-.854,1.849a.95.95,0,0,1-.863.552H7.5v37.345A1.675,1.675,0,0,0,9.175,118.7H58a1.675,1.675,0,0,0,1.675-1.675V79.676H26.9a.95.95,0,0,1-.863-.552Z" transform="translate(-6.713 -43.612)" fill="#f5f8f9"/>
      <g id="Grupo_1227120" data-name="Grupo 1227120" transform="translate(48.248 36.064)">
        <path id="Trazado_1059180" data-name="Trazado 1059180" d="M461.22,104.853V142.2a1.675,1.675,0,0,1-1.675,1.675h3.045a1.675,1.675,0,0,0,1.675-1.675V104.853Z" transform="translate(-459.545 -104.853)" fill="#e8edf2"/>
      </g>
      <g id="Grupo_1227121" data-name="Grupo 1227121" transform="translate(38.276 40.977)">
        <path id="Trazado_1059181" data-name="Trazado 1059181" d="M373.875,156.082h-8.262a1.049,1.049,0,0,1-1.049-1.049v-2.34a1.049,1.049,0,0,1,1.049-1.049h8.262a1.049,1.049,0,0,1,1.049,1.049v2.34A1.049,1.049,0,0,1,373.875,156.082Z" transform="translate(-364.564 -151.644)" fill="#ffe177"/>
        <path id="Trazado_1059182" data-name="Trazado 1059182" d="M433.454,151.643h-2.322a1.049,1.049,0,0,1,1.049,1.049v2.34a1.049,1.049,0,0,1-1.049,1.049h2.322a1.049,1.049,0,0,0,1.049-1.049v-2.34A1.049,1.049,0,0,0,433.454,151.643Z" transform="translate(-424.143 -151.643)" fill="#ffd15b"/>
      </g>
      <g id="Grupo_1227122" data-name="Grupo 1227122" transform="translate(0 27.995)">
        <path id="Trazado_1059183" data-name="Trazado 1059183" d="M51.292,28H7.421a.787.787,0,0,0,0,1.575H51.292a.889.889,0,0,1,.888.888v4.819H20.19a.164.164,0,0,1-.148-.094l-.853-1.849a1.743,1.743,0,0,0-1.578-1.009H8.947a1.743,1.743,0,0,0-1.578,1.009l-.854,1.849a.163.163,0,0,1-.148.095H1.575V30.458a.889.889,0,0,1,.888-.888H4.376a.787.787,0,0,0,0-1.575H2.463A2.465,2.465,0,0,0,0,30.458V73.409a2.465,2.465,0,0,0,2.463,2.463h48.83a2.465,2.465,0,0,0,2.463-2.463V68.587a.787.787,0,0,0-1.575,0v4.822a.889.889,0,0,1-.888.888H2.463a.889.889,0,0,1-.888-.888V36.852H6.368a1.743,1.743,0,0,0,1.578-1.009L8.8,33.993a.163.163,0,0,1,.148-.095h8.664a.164.164,0,0,1,.148.094l.853,1.849a1.743,1.743,0,0,0,1.578,1.009H52.18V65.542a.787.787,0,0,0,1.575,0V30.458A2.465,2.465,0,0,0,51.292,28Z" transform="translate(0 -27.995)"/>
        <path id="Trazado_1059184" data-name="Trazado 1059184" d="M359.813,64.249a.787.787,0,0,0,0-1.575h-.763a.787.787,0,1,0,0,1.575Z" transform="translate(-320.649 -59.033)"/>
        <path id="Trazado_1059185" data-name="Trazado 1059185" d="M395.813,64.249a.787.787,0,1,0,0-1.575h-.763a.787.787,0,0,0,0,1.575Z" transform="translate(-352.869 -59.033)"/>
        <path id="Trazado_1059186" data-name="Trazado 1059186" d="M431.813,64.249a.787.787,0,0,0,0-1.575h-.763a.787.787,0,1,0,0,1.575Z" transform="translate(-385.09 -59.033)"/>
        <path id="Trazado_1059187" data-name="Trazado 1059187" d="M43.362,134.087a.787.787,0,0,0-1.1.193l-1.743,2.487a.787.787,0,0,0,0,.9l1.743,2.487a.787.787,0,1,0,1.29-.9l-1.426-2.035,1.426-2.035A.787.787,0,0,0,43.362,134.087Z" transform="translate(-36.141 -122.821)"/>
        <path id="Trazado_1059188" data-name="Trazado 1059188" d="M120.66,140.354a.787.787,0,0,0,1.1-.193l1.743-2.487a.787.787,0,0,0,0-.9l-1.743-2.487a.787.787,0,1,0-1.29.9l1.426,2.035-1.426,2.035A.787.787,0,0,0,120.66,140.354Z" transform="translate(-107.691 -122.823)"/>
        <path id="Trazado_1059189" data-name="Trazado 1059189" d="M81.2,135.156a.787.787,0,0,0-1.052.366l-2.291,4.736a.787.787,0,1,0,1.418.686l2.291-4.736A.787.787,0,0,0,81.2,135.156Z" transform="translate(-69.613 -123.835)"/>
        <path id="Trazado_1059190" data-name="Trazado 1059190" d="M203.891,134.733a.787.787,0,0,0-.787-.787H190.828a.787.787,0,1,0,0,1.575H203.1A.787.787,0,0,0,203.891,134.733Z" transform="translate(-170.089 -122.822)"/>
        <path id="Trazado_1059191" data-name="Trazado 1059191" d="M369,145.979a1.838,1.838,0,0,0-1.836-1.836H358.9a1.839,1.839,0,0,0-1.837,1.836v2.34a1.839,1.839,0,0,0,1.837,1.837h2.609a.787.787,0,1,0,0-1.575H358.9a.262.262,0,0,1-.262-.262v-2.34a.262.262,0,0,1,.262-.262h8.262a.262.262,0,0,1,.262.262v2.34a.262.262,0,0,1-.262.262h-2.609a.787.787,0,0,0,0,1.575h2.609A1.839,1.839,0,0,0,369,148.32Z" transform="translate(-319.577 -131.949)"/>
        <path id="Trazado_1059192" data-name="Trazado 1059192" d="M33.9,217.835a.788.788,0,0,0,.267.591l.912.8a.129.129,0,0,1,.044.1,2.988,2.988,0,0,0,2.985,2.985.787.787,0,0,0,0-1.575,1.412,1.412,0,0,1-1.41-1.41,1.705,1.705,0,0,0-.577-1.278l-.242-.214.242-.214a1.705,1.705,0,0,0,.577-1.278,1.412,1.412,0,0,1,1.41-1.41.787.787,0,0,0,0-1.575,2.988,2.988,0,0,0-2.985,2.985.13.13,0,0,1-.044.1l-.912.8A.787.787,0,0,0,33.9,217.835Z" transform="translate(-30.345 -193.897)"/>
        <path id="Trazado_1059193" data-name="Trazado 1059193" d="M432.72,376.053a1.412,1.412,0,0,1-1.41,1.41.787.787,0,1,0,0,1.575,2.988,2.988,0,0,0,2.985-2.985.129.129,0,0,1,.044-.1l.912-.8a.787.787,0,0,0,0-1.181l-.912-.8a.129.129,0,0,1-.044-.1,2.988,2.988,0,0,0-2.985-2.985.787.787,0,1,0,0,1.575,1.412,1.412,0,0,1,1.41,1.41,1.7,1.7,0,0,0,.577,1.278l.243.214-.242.214A1.7,1.7,0,0,0,432.72,376.053Z" transform="translate(-385.322 -334.168)"/>
        <path id="Trazado_1059194" data-name="Trazado 1059194" d="M89.466,239.029h.809a.787.787,0,1,0,0-1.575h-.809a.787.787,0,0,0,0,1.575Z" transform="translate(-79.369 -215.463)"/>
        <path id="Trazado_1059195" data-name="Trazado 1059195" d="M137.593,238.241a.787.787,0,0,0,.787.787h5.009a.787.787,0,1,0,0-1.575H138.38A.787.787,0,0,0,137.593,238.241Z" transform="translate(-123.147 -215.463)"/>
        <path id="Trazado_1059196" data-name="Trazado 1059196" d="M234.4,239.029a.787.787,0,0,0,0-1.575H227.3a.787.787,0,1,0,0,1.575Z" transform="translate(-202.727 -215.463)"/>
        <path id="Trazado_1059197" data-name="Trazado 1059197" d="M335.422,238.241a.787.787,0,0,0,.787.787h2.909a.787.787,0,1,0,0-1.575h-2.909A.787.787,0,0,0,335.422,238.241Z" transform="translate(-300.206 -215.463)"/>
        <path id="Trazado_1059198" data-name="Trazado 1059198" d="M410.132,237.454h-5.009a.787.787,0,0,0,0,1.575h5.009a.787.787,0,1,0,0-1.575Z" transform="translate(-361.885 -215.463)"/>
        <path id="Trazado_1059199" data-name="Trazado 1059199" d="M88.679,275.3a.787.787,0,0,0,.787.787h3.959a.787.787,0,0,0,0-1.575H89.466A.787.787,0,0,0,88.679,275.3Z" transform="translate(-79.369 -248.629)"/>
        <path id="Trazado_1059200" data-name="Trazado 1059200" d="M176.277,275.3a.787.787,0,0,0-.787-.787H168.38a.787.787,0,0,0,0,1.575h7.109A.787.787,0,0,0,176.277,275.3Z" transform="translate(-149.997 -248.629)"/>
        <path id="Trazado_1059201" data-name="Trazado 1059201" d="M280.991,275.3a.787.787,0,0,0-.787-.787h-2.909a.787.787,0,0,0,0,1.575H280.2A.787.787,0,0,0,280.991,275.3Z" transform="translate(-247.477 -248.629)"/>
        <path id="Trazado_1059202" data-name="Trazado 1059202" d="M351.218,274.511h-5.009a.787.787,0,1,0,0,1.575h5.009a.787.787,0,0,0,0-1.575Z" transform="translate(-309.156 -248.629)"/>
        <path id="Trazado_1059203" data-name="Trazado 1059203" d="M436.983,274.511h-1.859a.787.787,0,0,0,0,1.575h1.859a.787.787,0,1,0,0-1.575Z" transform="translate(-388.735 -248.629)"/>
        <path id="Trazado_1059204" data-name="Trazado 1059204" d="M49.466,313.144h7.109a.787.787,0,0,0,0-1.575H49.466a.787.787,0,0,0,0,1.575Z" transform="translate(-43.568 -281.797)"/>
        <path id="Trazado_1059205" data-name="Trazado 1059205" d="M162.077,312.356a.787.787,0,0,0-.787-.787H158.38a.787.787,0,0,0,0,1.575h2.909A.787.787,0,0,0,162.077,312.356Z" transform="translate(-141.047 -281.797)"/>
        <path id="Trazado_1059206" data-name="Trazado 1059206" d="M227.3,313.144H234.4a.787.787,0,0,0,0-1.575H227.3a.787.787,0,1,0,0,1.575Z" transform="translate(-202.727 -281.797)"/>
        <path id="Trazado_1059207" data-name="Trazado 1059207" d="M336.209,313.144h2.909a.787.787,0,1,0,0-1.575h-2.909a.787.787,0,0,0,0,1.575Z" transform="translate(-300.206 -281.797)"/>
        <path id="Trazado_1059208" data-name="Trazado 1059208" d="M405.123,313.144h5.009a.787.787,0,1,0,0-1.575h-5.009a.787.787,0,0,0,0,1.575Z" transform="translate(-361.885 -281.797)"/>
        <path id="Trazado_1059209" data-name="Trazado 1059209" d="M49.466,350.2h1.859a.787.787,0,0,0,0-1.575H49.466a.787.787,0,0,0,0,1.575Z" transform="translate(-43.568 -314.962)"/>
        <path id="Trazado_1059210" data-name="Trazado 1059210" d="M114.177,349.412a.787.787,0,0,0-.787-.787H108.38a.787.787,0,1,0,0,1.575h5.009A.787.787,0,0,0,114.177,349.412Z" transform="translate(-96.297 -314.962)"/>
        <path id="Trazado_1059211" data-name="Trazado 1059211" d="M206.241,349.412a.787.787,0,0,0-.787-.787H197.3a.787.787,0,0,0,0,1.575h8.159A.787.787,0,0,0,206.241,349.412Z" transform="translate(-175.877 -314.962)"/>
        <path id="Trazado_1059212" data-name="Trazado 1059212" d="M318.069,350.2a.787.787,0,1,0,0-1.575h-1.859a.787.787,0,0,0,0,1.575Z" transform="translate(-282.306 -314.962)"/>
        <path id="Trazado_1059213" data-name="Trazado 1059213" d="M384.069,349.412a.787.787,0,0,0-.787-.787h-8.159a.787.787,0,0,0,0,1.575h8.159A.787.787,0,0,0,384.069,349.412Z" transform="translate(-335.034 -314.962)"/>
        <path id="Trazado_1059214" data-name="Trazado 1059214" d="M49.466,387.257h7.109a.787.787,0,1,0,0-1.575H49.466a.787.787,0,1,0,0,1.575Z" transform="translate(-43.568 -348.128)"/>
        <path id="Trazado_1059215" data-name="Trazado 1059215" d="M164.439,387.257a.787.787,0,1,0,0-1.575H158.38a.787.787,0,1,0,0,1.575Z" transform="translate(-141.047 -348.128)"/>
        <path id="Trazado_1059216" data-name="Trazado 1059216" d="M257.294,387.257h3.959a.787.787,0,0,0,0-1.575h-3.959a.787.787,0,1,0,0,1.575Z" transform="translate(-229.576 -348.128)"/>
        <path id="Trazado_1059217" data-name="Trazado 1059217" d="M343.318,385.682h-7.109a.787.787,0,0,0,0,1.575h7.109a.787.787,0,0,0,0-1.575Z" transform="translate(-300.206 -348.128)"/>
        <path id="Trazado_1059218" data-name="Trazado 1059218" d="M49.466,424.314H59.725a.787.787,0,1,0,0-1.575H49.466a.787.787,0,1,0,0,1.575Z" transform="translate(-43.568 -381.295)"/>
        <path id="Trazado_1059219" data-name="Trazado 1059219" d="M188.38,424.314h5.009a.787.787,0,1,0,0-1.575H188.38a.787.787,0,0,0,0,1.575Z" transform="translate(-167.898 -381.295)"/>
        <path id="Trazado_1059220" data-name="Trazado 1059220" d="M277.294,424.314H280.2a.787.787,0,1,0,0-1.575h-2.909a.787.787,0,1,0,0,1.575Z" transform="translate(-247.477 -381.295)"/>
        <path id="Trazado_1059221" data-name="Trazado 1059221" d="M352.268,422.739h-6.059a.787.787,0,1,0,0,1.575h6.059a.787.787,0,1,0,0-1.575Z" transform="translate(-309.156 -381.295)"/>
      </g>
    </g>
  </g>
</svg>
