<svg xmlns="http://www.w3.org/2000/svg" xmlns:xlink="http://www.w3.org/1999/xlink" width="113" height="113" viewBox="0 0 113 113">
  <defs>
    <filter id="Trazado_982547" x="0" y="0" width="113" height="113" filterUnits="userSpaceOnUse">
      <feOffset dy="3" input="SourceAlpha"/>
      <feGaussianBlur stdDeviation="3" result="blur"/>
      <feFlood flood-opacity="0.161"/>
      <feComposite operator="in" in2="blur"/>
      <feComposite in="SourceGraphic"/>
    </filter>
  </defs>
  <g id="Grupo_1227013" data-name="Grupo 1227013" transform="translate(-1216.46 -706.323)">
    <g id="Grupo_1226916" data-name="Grupo 1226916" transform="translate(0.344 -2831)">
      <g id="Grupo_1226287" data-name="Grupo 1226287" transform="translate(-0.429 -6427.152)">
        <g id="Grupo_1225531" data-name="Grupo 1225531" transform="translate(0.313 8669.134)">
          <g id="Grupo_1225179" data-name="Grupo 1225179" transform="translate(0 -3445.654)">
            <g id="Grupo_1224650" data-name="Grupo 1224650" transform="translate(0 1927)">
              <g id="Grupo_1224294" data-name="Grupo 1224294" transform="translate(0.723 859.245)">
                <g id="Grupo_1224094" data-name="Grupo 1224094" transform="translate(541.51 -2620.317)">
                  <g id="Grupo_1223184" data-name="Grupo 1223184" transform="translate(683 4581.069)">
                    <g id="Grupo_1211216" data-name="Grupo 1211216" transform="translate(0)">
                      <g id="Grupo_1210737" data-name="Grupo 1210737">
                        <g id="Grupo_1210537" data-name="Grupo 1210537">
                          <g id="Grupo_1164202" data-name="Grupo 1164202">
                            <g id="Grupo_1158168" data-name="Grupo 1158168">
                              <g id="Grupo_1152576" data-name="Grupo 1152576">
                                <g id="Grupo_1148633" data-name="Grupo 1148633">
                                  <g id="Grupo_1148525" data-name="Grupo 1148525">
                                    <g transform="matrix(1, 0, 0, 1, -9, -6)" filter="url(#Trazado_982547)">
                                      <g id="Trazado_982547-2" data-name="Trazado 982547" transform="translate(9 6)" fill="#fdf6e4">
                                        <path d="M 47.49999618530273 93.5 C 41.28936767578125 93.5 35.26533126831055 92.28396606445312 29.59518241882324 89.88570404052734 C 24.11771583557129 87.56893157958984 19.19812965393066 84.251953125 14.97308921813965 80.02690124511719 C 10.74803638458252 75.80186462402344 7.431062698364258 70.88227844238281 5.114289283752441 65.40480804443359 C 2.716022968292236 59.73466110229492 1.499996185302734 53.71062469482422 1.499996185302734 47.49999618530273 C 1.499996185302734 41.28936767578125 2.716022968292236 35.26533126831055 5.114289283752441 29.59518241882324 C 7.431062698364258 24.11771583557129 10.74803638458252 19.19812965393066 14.97308921813965 14.97308921813965 C 19.19812965393066 10.74803638458252 24.11771583557129 7.431062698364258 29.59518241882324 5.114289283752441 C 35.26533126831055 2.716022968292236 41.28936767578125 1.499996185302734 47.49999618530273 1.499996185302734 C 53.71062469482422 1.499996185302734 59.73466110229492 2.716022968292236 65.40480804443359 5.114289283752441 C 70.88227844238281 7.431062698364258 75.80186462402344 10.74803638458252 80.02690124511719 14.97308921813965 C 84.251953125 19.19812965393066 87.56893157958984 24.11771583557129 89.88570404052734 29.59518241882324 C 92.28396606445312 35.26533126831055 93.5 41.28936767578125 93.5 47.49999618530273 C 93.5 53.71062469482422 92.28396606445312 59.73466110229492 89.88570404052734 65.40480804443359 C 87.56893157958984 70.88227844238281 84.251953125 75.80186462402344 80.02690124511719 80.02690124511719 C 75.80186462402344 84.251953125 70.88227844238281 87.56893157958984 65.40480804443359 89.88570404052734 C 59.73466110229492 92.28396606445312 53.71062469482422 93.5 47.49999618530273 93.5 Z" stroke="none"/>
                                        <path d="M 47.49999618530273 2.999992370605469 C 41.4912109375 2.999992370605469 35.66376495361328 4.1761474609375 30.17950439453125 6.495796203613281 C 24.88084411621094 8.736953735351562 20.12152099609375 11.94598388671875 16.03375244140625 16.03375244140625 C 11.94598388671875 20.12152099609375 8.736953735351562 24.88084411621094 6.495796203613281 30.17950439453125 C 4.1761474609375 35.66376495361328 2.999992370605469 41.4912109375 2.999992370605469 47.49999618530273 C 2.999992370605469 53.50878143310547 4.1761474609375 59.33622741699219 6.495796203613281 64.82048797607422 C 8.736953735351562 70.11914825439453 11.94598388671875 74.87847137451172 16.03375244140625 78.96623992919922 C 20.12152099609375 83.05400848388672 24.88084411621094 86.26304626464844 30.17950439453125 88.50419616699219 C 35.66376495361328 90.82384490966797 41.4912109375 92 47.49999618530273 92 C 53.50878143310547 92 59.33622741699219 90.82384490966797 64.82048797607422 88.50419616699219 C 70.11914825439453 86.26304626464844 74.87847137451172 83.05400848388672 78.96623992919922 78.96623992919922 C 83.05400848388672 74.87847137451172 86.26304626464844 70.11914825439453 88.50419616699219 64.82048797607422 C 90.82384490966797 59.33622741699219 92 53.50878143310547 92 47.49999618530273 C 92 41.4912109375 90.82384490966797 35.66376495361328 88.50419616699219 30.17950439453125 C 86.26304626464844 24.88084411621094 83.05400848388672 20.12152099609375 78.96623992919922 16.03375244140625 C 74.87847137451172 11.94598388671875 70.11914825439453 8.736953735351562 64.82048797607422 6.495796203613281 C 59.33622741699219 4.1761474609375 53.50878143310547 2.999992370605469 47.49999618530273 2.999992370605469 M 47.49999618530273 -7.62939453125e-06 C 73.7335205078125 -7.62939453125e-06 95 21.26647186279297 95 47.49999618530273 C 95 73.7335205078125 73.7335205078125 95 47.49999618530273 95 C 21.26647186279297 95 -7.62939453125e-06 73.7335205078125 -7.62939453125e-06 47.49999618530273 C -7.62939453125e-06 21.26647186279297 21.26647186279297 -7.62939453125e-06 47.49999618530273 -7.62939453125e-06 Z" stroke="none" fill="#f5b104"/>
                                      </g>
                                    </g>
                                  </g>
                                </g>
                              </g>
                            </g>
                          </g>
                        </g>
                      </g>
                    </g>
                  </g>
                </g>
              </g>
            </g>
          </g>
        </g>
      </g>
    </g>
    <g id="gestion-de-archivos" transform="translate(1244.481 730.851)">
      <g id="Grupo_1227012" data-name="Grupo 1227012" transform="translate(0.911 0.905)">
        <g id="Grupo_1227008" data-name="Grupo 1227008" transform="translate(31.138 0)">
          <path id="Trazado_1058865" data-name="Trazado 1058865" d="M283.792,8h20.023a.631.631,0,0,1,.462.191l3.667,3.667a.631.631,0,0,1,.191.462V39.745a.654.654,0,0,1-.653.653h-23.69a.654.654,0,0,1-.653-.653V8.654A.654.654,0,0,1,283.792,8Z" transform="translate(-283.139 -8.001)" fill="#eceff1" fill-rule="evenodd"/>
          <path id="Trazado_1058866" data-name="Trazado 1058866" d="M393.571,8h8.178a.631.631,0,0,1,.462.191l3.667,3.667a.631.631,0,0,1,.191.462V39.745a.654.654,0,0,1-.653.653H393.571Z" transform="translate(-381.073 -8.001)" fill="#d1d1d6" fill-rule="evenodd"/>
          <path id="Trazado_1058867" data-name="Trazado 1058867" d="M468.219,8.5a.654.654,0,0,1,.191.135l3.667,3.667a.655.655,0,0,1,.135.191h-3.667a.327.327,0,0,1-.327-.327Z" transform="translate(-447.273 -8.444)" fill="#a79ba7" fill-rule="evenodd"/>
        </g>
        <g id="Grupo_1227009" data-name="Grupo 1227009" transform="translate(0)">
          <path id="Trazado_1058868" data-name="Trazado 1058868" d="M20.572,11.1a7.732,7.732,0,0,1,2.03.842l2.541-1.84,2.033,2.033-1.84,2.541a7.737,7.737,0,0,1,.842,2.03l3.1.5v2.875l-3.1.5a7.732,7.732,0,0,1-.842,2.03l1.84,2.541-2.033,2.033L22.6,25.335a7.738,7.738,0,0,1-2.03.842l-.5,3.1H17.2l-.5-3.1a7.732,7.732,0,0,1-2.03-.842l-2.541,1.84L10.1,25.141l1.84-2.541a7.738,7.738,0,0,1-.842-2.03l-3.1-.5V17.2l3.1-.5a7.737,7.737,0,0,1,.842-2.03L10.1,12.133,12.135,10.1l2.541,1.84a7.735,7.735,0,0,1,2.03-.842L17.2,8h2.875Zm-1.933,3.291a4.248,4.248,0,1,0,4.248,4.248A4.249,4.249,0,0,0,18.639,14.388Z" transform="translate(-8.003 -8.001)" fill="#837683" fill-rule="evenodd"/>
          <path id="Trazado_1058869" data-name="Trazado 1058869" d="M103.914,11.1a7.732,7.732,0,0,1,2.03.842l2.541-1.84,2.033,2.033-1.84,2.541a7.738,7.738,0,0,1,.842,2.03l3.1.5v2.875l-3.1.5a7.733,7.733,0,0,1-.842,2.03l1.84,2.541-2.033,2.033-2.541-1.84a7.737,7.737,0,0,1-2.03.842l-.5,3.1h-1.438V22.886a4.248,4.248,0,1,0,0-8.5V8h1.438Z" transform="translate(-91.345 -8.001)" fill="#685e68" fill-rule="evenodd"/>
        </g>
        <g id="Grupo_1227011" data-name="Grupo 1227011" transform="translate(0 34.519)">
          <path id="Trazado_1058870" data-name="Trazado 1058870" d="M10.23,313.01h6.518a2.471,2.471,0,0,1,2.19,1.264l2.86,4.946h9.679a2.231,2.231,0,0,1,2.227,2.227V332.4a2.232,2.232,0,0,1-2.227,2.227H10.23A2.231,2.231,0,0,1,8,332.4V315.237A2.231,2.231,0,0,1,10.23,313.01Z" transform="translate(-8.003 -313.01)" fill="#ffe177" fill-rule="evenodd"/>
          <g id="Grupo_1227010" data-name="Grupo 1227010" transform="translate(0)">
            <path id="Trazado_1058871" data-name="Trazado 1058871" d="M199.549,367.874h.769a2.231,2.231,0,0,1,2.227,2.227v10.952a2.232,2.232,0,0,1-2.227,2.227h-1.927a2.231,2.231,0,0,0,1.158-1.952V367.9C199.549,367.894,199.549,367.884,199.549,367.874Z" transform="translate(-176.844 -361.665)" fill="#ffd064" fill-rule="evenodd"/>
            <path id="Trazado_1058872" data-name="Trazado 1058872" d="M21.8,319.219l-2.86-4.946a2.471,2.471,0,0,0-2.19-1.264H10.23A2.231,2.231,0,0,0,8,315.237v3.982Z" transform="translate(-8.003 -313.01)" fill="#ffd064" fill-rule="evenodd"/>
          </g>
        </g>
      </g>
      <path id="Trazado_1058873" data-name="Trazado 1058873" d="M29.1,11.542a.9.9,0,0,1-.9.905H25.936a.905.905,0,1,1,0-1.811H28.2A.9.9,0,0,1,29.1,11.542ZM43.713,49.38a.906.906,0,0,1-.908.905H40.542a.905.905,0,0,1,0-1.81h2.264A.906.906,0,0,1,43.713,49.38Zm4.949-2.263V49.38a.9.9,0,0,1-.9.905H45.5a.905.905,0,1,1,0-1.81h1.356V47.117a.9.9,0,1,1,1.81,0Zm0-9.9v2.264a.9.9,0,1,1-1.81,0V37.214a.9.9,0,1,1,1.81,0Zm-9.9,12.166a.9.9,0,0,1-.9.905H35.593a.905.905,0,1,1,0-1.81h2.263a.9.9,0,0,1,.9.9Zm-4.949,0a.906.906,0,0,1-.908.905H30.639a.905.905,0,0,1,0-1.81H32.9a.906.906,0,0,1,.908.9Zm14.852-7.215v2.263a.9.9,0,1,1-1.81,0V42.166a.9.9,0,1,1,1.81,0Zm-36.2-14.4a.9.9,0,1,1-1.81,0V25.5a.9.9,0,1,1,1.81,0Zm0,2.688v2.263a.9.9,0,1,1-1.81,0V30.452a.9.9,0,1,1,1.81,0ZM1.816,10.876,4.149,10.5a.909.909,0,0,0,.737-.669A6.852,6.852,0,0,1,5.627,8.04a.907.907,0,0,0-.043-.993L4.2,5.132l.94-.942L7.053,5.577a.907.907,0,0,0,.993.045A6.813,6.813,0,0,1,9.84,4.879a.909.909,0,0,0,.667-.734l.374-2.335H12.21l.374,2.335a.908.908,0,0,0,.673.734,6.8,6.8,0,0,1,1.794.743.906.906,0,0,0,.993-.045L17.954,4.19l.945.942L17.511,7.047a.9.9,0,0,0-.043.993,6.856,6.856,0,0,1,.742,1.793.9.9,0,0,0,.731.669l2.338.374v1.331l-2.338.374a.9.9,0,0,0-.731.669,6.852,6.852,0,0,1-.742,1.793.9.9,0,0,0,.043.993L18.9,17.951l-.94.942-1.917-1.387a.906.906,0,0,0-.993-.045,6.814,6.814,0,0,1-1.794.743.908.908,0,0,0-.673.734l-.374,2.335H10.881l-.374-2.334A.908.908,0,0,0,9.84,18.2a6.834,6.834,0,0,1-1.794-.744.906.906,0,0,0-.993.045L5.136,18.893l-.94-.942,1.388-1.915a.906.906,0,0,0,.043-.992,6.86,6.86,0,0,1-.742-1.793.909.909,0,0,0-.737-.669l-2.333-.374V10.876Zm-1.046,3,2.53.405a9,9,0,0,0,.481,1.158L2.275,17.515a.9.9,0,0,0,.1,1.171L4.4,20.719a.91.91,0,0,0,1.175.093l2.077-1.5a8.686,8.686,0,0,0,1.158.48l.406,2.533a.9.9,0,0,0,.9.762h2.872a.913.913,0,0,0,.9-.762l.4-2.533a8.885,8.885,0,0,0,1.164-.48l2.077,1.5a.9.9,0,0,0,1.169-.093l2.034-2.033a.9.9,0,0,0,.091-1.171l-1.5-2.078a8.3,8.3,0,0,0,.475-1.158l2.536-.405a.908.908,0,0,0,.763-.894V10.1a.908.908,0,0,0-.763-.894L19.791,8.8a8.314,8.314,0,0,0-.475-1.158l1.5-2.078A.9.9,0,0,0,20.725,4.4L18.691,2.364a.9.9,0,0,0-1.169-.093l-2.077,1.5a8.681,8.681,0,0,0-1.164-.48l-.4-2.533a.914.914,0,0,0-.9-.762H10.112a.905.905,0,0,0-.9.762L8.809,3.3a8.608,8.608,0,0,0-1.158.48L5.574,2.27A.91.91,0,0,0,4.4,2.364L2.371,4.4a.9.9,0,0,0-.1,1.171L3.78,7.647A9.078,9.078,0,0,0,3.3,8.8L.769,9.21a.9.9,0,0,0-.763.894v2.875a.9.9,0,0,0,.763.894ZM11.548,8.2a3.343,3.343,0,1,0,3.342,3.343A3.343,3.343,0,0,0,11.548,8.2Zm0,8.5a5.154,5.154,0,1,0-5.157-5.154A5.159,5.159,0,0,0,11.548,16.7ZM25.706,54.813a1.324,1.324,0,0,1-1.324,1.322H3.14a1.324,1.324,0,0,1-1.324-1.322V42.539H24.382a1.323,1.323,0,0,1,1.324,1.322V54.813ZM3.14,36.33H9.658a1.569,1.569,0,0,1,1.4.811l2.077,3.587H1.816V37.652A1.324,1.324,0,0,1,3.14,36.33Zm21.242,4.4H15.226l-2.595-4.493A3.357,3.357,0,0,0,9.658,34.52H3.14A3.135,3.135,0,0,0,.006,37.653v17.16A3.136,3.136,0,0,0,3.14,57.945H24.382a3.136,3.136,0,0,0,3.134-3.133V43.861a3.136,3.136,0,0,0-3.134-3.133ZM36.244,6.571a.906.906,0,0,1,.908-.905H47.77a.906.906,0,1,1,0,1.811H37.152a.906.906,0,0,1-.908-.906Zm16.608,21.8a.906.906,0,0,1-.908.906H37.152a.905.905,0,1,1,0-1.811H51.945a.906.906,0,0,1,.908.9Zm0-4.359a.906.906,0,0,1-.908.905H37.152a.905.905,0,1,1,0-1.811H51.945A.906.906,0,0,1,52.853,24.011Zm0-4.36a.906.906,0,0,1-.908.905H37.152a.905.905,0,1,1,0-1.811H51.945A.906.906,0,0,1,52.853,19.651Zm0-4.36a.906.906,0,0,1-.908.905H37.152a.905.905,0,1,1,0-1.811H51.945A.906.906,0,0,1,52.853,15.291Zm0-4.36a.906.906,0,0,1-.908.905H37.152a.905.905,0,1,1,0-1.811H51.945A.906.906,0,0,1,52.853,10.931ZM32.956,32.4H56.141V5.861H53a.906.906,0,0,1-.908-.905V1.811H32.956ZM53.9,3.091l.961.959H53.9Zm3.785,1.224L53.637.265A.908.908,0,0,0,53,0H32.048a.9.9,0,0,0-.9.905V33.3a.9.9,0,0,0,.9.9h25a.906.906,0,0,0,.908-.9V4.955a.9.9,0,0,0-.267-.64Z" transform="translate(0)" fill-rule="evenodd"/>
    </g>
  </g>
</svg>
