<svg xmlns="http://www.w3.org/2000/svg" xmlns:xlink="http://www.w3.org/1999/xlink" width="113" height="113" viewBox="0 0 113 113">
  <defs>
    <filter id="Trazado_982547" x="0" y="0" width="113" height="113" filterUnits="userSpaceOnUse">
      <feOffset dy="3" input="SourceAlpha"/>
      <feGaussianBlur stdDeviation="3" result="blur"/>
      <feFlood flood-opacity="0.161"/>
      <feComposite operator="in" in2="blur"/>
      <feComposite in="SourceGraphic"/>
    </filter>
  </defs>
  <g id="Grupo_1227160" data-name="Grupo 1227160" transform="translate(-10784.344 -3251.067)">
    <g id="Grupo_1227089" data-name="Grupo 1227089" transform="translate(10793.344 3257.067)">
      <g id="Grupo_1226375" data-name="Grupo 1226375" transform="translate(0)">
        <g id="Grupo_1211216" data-name="Grupo 1211216">
          <g id="Grupo_1210737" data-name="Grupo 1210737">
            <g id="Grupo_1210537" data-name="Grupo 1210537">
              <g id="Grupo_1164202" data-name="Grupo 1164202">
                <g id="Grupo_1158168" data-name="Grupo 1158168">
                  <g id="Grupo_1152576" data-name="Grupo 1152576">
                    <g id="Grupo_1148633" data-name="Grupo 1148633">
                      <g id="Grupo_1148525" data-name="Grupo 1148525">
                        <g transform="matrix(1, 0, 0, 1, -9, -6)" filter="url(#Trazado_982547)">
                          <g id="Trazado_982547-2" data-name="Trazado 982547" transform="translate(9 6)" fill="#fef9e5">
                            <path d="M 47.49999237060547 93.49999237060547 C 41.28937911987305 93.49999237060547 35.26532745361328 92.28396606445312 29.59519195556641 89.88569641113281 C 24.11772537231445 87.56892395019531 19.19813919067383 84.251953125 14.97309875488281 80.02690124511719 C 10.74804592132568 75.80185699462891 7.431072235107422 70.88227081298828 5.114298820495605 65.40480804443359 C 2.716032266616821 59.73465728759766 1.500005722045898 53.71060562133789 1.500005722045898 47.49999237060547 C 1.500005722045898 41.28937911987305 2.716032266616821 35.26532745361328 5.114298820495605 29.59517860412598 C 7.431072235107422 24.11771202087402 10.74804592132568 19.1981258392334 14.97309875488281 14.97308540344238 C 19.19813919067383 10.74804592132568 24.11772537231445 7.431072235107422 29.59519195556641 5.114298820495605 C 35.26532745361328 2.716032266616821 41.28937911987305 1.500005722045898 47.49999237060547 1.500005722045898 C 53.71062088012695 1.500005722045898 59.73465728759766 2.716032266616821 65.40480804443359 5.114298820495605 C 70.88227081298828 7.431072235107422 75.80185699462891 10.74804592132568 80.02690124511719 14.97308540344238 C 84.251953125 19.1981258392334 87.56892395019531 24.11771202087402 89.88569641113281 29.59517860412598 C 92.28396606445312 35.26532745361328 93.49999237060547 41.28937911987305 93.49999237060547 47.49999237060547 C 93.49999237060547 53.71062088012695 92.28396606445312 59.73465728759766 89.88569641113281 65.40480804443359 C 87.56892395019531 70.88227081298828 84.251953125 75.80185699462891 80.02690124511719 80.02690124511719 C 75.80185699462891 84.251953125 70.88227081298828 87.56892395019531 65.40480804443359 89.88569641113281 C 59.73465728759766 92.28396606445312 53.71062088012695 93.49999237060547 47.49999237060547 93.49999237060547 Z" stroke="none"/>
                            <path d="M 47.49999237060547 2.999992370605469 C 41.49120712280273 2.999992370605469 35.66376113891602 4.1761474609375 30.17951202392578 6.49578857421875 C 24.88083648681641 8.736946105957031 20.12151336669922 11.94597625732422 16.03374481201172 16.03374481201172 C 11.94597625732422 20.12151336669922 8.736946105957031 24.88083648681641 6.49578857421875 30.17949676513672 C 4.1761474609375 35.66376113891602 2.999992370605469 41.49120712280273 2.999992370605469 47.49999237060547 C 2.999992370605469 53.5087776184082 4.1761474609375 59.33622360229492 6.49578857421875 64.82046508789062 C 8.736946105957031 70.11914825439453 11.94597625732422 74.87847137451172 16.03374481201172 78.96623992919922 C 20.12151336669922 83.05400848388672 24.88083648681641 86.26303863525391 30.17951202392578 88.50418090820312 C 35.66376113891602 90.82382202148438 41.49120712280273 91.99997711181641 47.49999237060547 91.99997711181641 C 53.5087776184082 91.99997711181641 59.33622360229492 90.82382202148438 64.82046508789062 88.50418090820312 C 70.11914825439453 86.26303863525391 74.87847137451172 83.05400848388672 78.96623992919922 78.96623992919922 C 83.05400848388672 74.87847137451172 86.26303863525391 70.11914825439453 88.50418090820312 64.82046508789062 C 90.82382202148438 59.33622360229492 91.99997711181641 53.5087776184082 91.99997711181641 47.49999237060547 C 91.99997711181641 41.49120712280273 90.82382202148438 35.66376113891602 88.50418090820312 30.17949676513672 C 86.26303863525391 24.88083648681641 83.05400848388672 20.12151336669922 78.96623992919922 16.03374481201172 C 74.87847137451172 11.94597625732422 70.11914825439453 8.736946105957031 64.82046508789062 6.49578857421875 C 59.33622360229492 4.1761474609375 53.5087776184082 2.999992370605469 47.49999237060547 2.999992370605469 M 47.49999237060547 -7.62939453125e-06 C 73.73351287841797 -7.62939453125e-06 94.99997711181641 21.26647186279297 94.99997711181641 47.49999237060547 C 94.99997711181641 73.73351287841797 73.73351287841797 94.99997711181641 47.49999237060547 94.99997711181641 C 21.26648712158203 94.99997711181641 -7.62939453125e-06 73.73351287841797 -7.62939453125e-06 47.49999237060547 C -7.62939453125e-06 21.26647186279297 21.26648712158203 -7.62939453125e-06 47.49999237060547 -7.62939453125e-06 Z" stroke="none" fill="#f6c810"/>
                          </g>
                        </g>
                      </g>
                    </g>
                  </g>
                </g>
              </g>
            </g>
          </g>
        </g>
      </g>
    </g>
    <g id="pruebas_5_" data-name="pruebas (5)" transform="translate(10811.744 3271)">
      <path id="Trazado_1059239" data-name="Trazado 1059239" d="M6,21H53.135V52.725H6Z" transform="translate(-0.468 -1.871)" fill="#8892a0"/>
      <path id="Trazado_1059240" data-name="Trazado 1059240" d="M9,24H50.7V50.287H9Z" transform="translate(-0.748 -2.152)" fill="#c7e2fc"/>
      <path id="Trazado_1059241" data-name="Trazado 1059241" d="M9,24V41.741a26.38,26.38,0,0,0,14.05,4.014c13.152,0,24-9.487,25.618-21.755Z" transform="translate(-0.748 -2.152)" fill="#ebf7fe"/>
      <path id="Trazado_1059242" data-name="Trazado 1059242" d="M56.386,56H2v3.626a1.812,1.812,0,0,0,1.813,1.813H54.573a1.812,1.812,0,0,0,1.813-1.813Z" transform="translate(-0.094 -5.146)" fill="#4d5d7a"/>
      <path id="Trazado_1059243" data-name="Trazado 1059243" d="M13,35H25.69V47.69H13Z" transform="translate(-1.123 -3.181)" fill="#c66b60"/>
      <path id="Trazado_1059244" data-name="Trazado 1059244" d="M13,17H25.69V29.69H13Z" transform="translate(-1.123 -1.497)" fill="#78b75b"/>
      <g id="Grupo_1227148" data-name="Grupo 1227148" transform="translate(13.871 17.741)">
        <path id="Trazado_1059245" data-name="Trazado 1059245" d="M18.644,28.108h.038a.906.906,0,0,0,.731-.425l4.532-7.252-1.536-.962L18.576,25.6,16.65,23.032,15.2,24.12l2.719,3.626a.906.906,0,0,0,.725.363Z" transform="translate(-15.2 -19.469)" fill="#fff"/>
        <path id="Trazado_1059246" data-name="Trazado 1059246" d="M22.545,37.293,19.56,40.278l-2.985-2.985-1.282,1.282,2.985,2.985-2.985,2.985,1.282,1.282,2.985-2.985,2.985,2.985,1.282-1.282L20.841,41.56l2.985-2.985Z" transform="translate(-15.209 -21.137)" fill="#fff"/>
      </g>
      <g id="Grupo_1227149" data-name="Grupo 1227149" transform="translate(35.445 25.474)">
        <path id="Trazado_1059247" data-name="Trazado 1059247" d="M49.877,33.439a5.439,5.439,0,1,0-5.439,5.439A5.438,5.438,0,0,0,49.877,33.439Zm-8.158,0a2.719,2.719,0,1,1,2.719,2.719A2.719,2.719,0,0,1,41.719,33.439Z" transform="translate(-39 -28)" fill="#8892a0"/>
      </g>
      <path id="Trazado_1059248" data-name="Trazado 1059248" d="M46.158,21.942h3.626V19.919a8.106,8.106,0,0,0,2.524-1.048L53.739,20.3,56.3,17.739l-1.431-1.431a8.106,8.106,0,0,0,1.048-2.524h2.022V10.158H55.919a8.106,8.106,0,0,0-1.048-2.524L56.3,6.2,53.739,3.639,52.308,5.07a8.106,8.106,0,0,0-2.524-1.048V2H46.158V4.022A8.106,8.106,0,0,0,43.634,5.07L42.2,3.639,39.639,6.2,41.07,7.634a8.106,8.106,0,0,0-1.048,2.524H38v3.626h2.022a8.106,8.106,0,0,0,1.048,2.524l-1.431,1.431L42.2,20.3l1.431-1.431a8.106,8.106,0,0,0,2.524,1.048Zm-3.626-9.971a5.439,5.439,0,1,1,5.439,5.439A5.438,5.438,0,0,1,42.532,11.971Z" transform="translate(-3.462 -0.094)" fill="#4d5d7a"/>
      <g id="Grupo_1227150" data-name="Grupo 1227150" transform="translate(33.632 30.006)">
        <path id="Trazado_1059249" data-name="Trazado 1059249" d="M37,33h1.813v1.813H37Z" transform="translate(-37 -33)" fill="#8892a0"/>
      </g>
      <g id="Grupo_1227151" data-name="Grupo 1227151" transform="translate(46.322 30.006)">
        <path id="Trazado_1059250" data-name="Trazado 1059250" d="M51,33h1.813v1.813H51Z" transform="translate(-51 -33)" fill="#8892a0"/>
      </g>
      <g id="Grupo_1227152" data-name="Grupo 1227152" transform="translate(39.977 36.351)">
        <path id="Trazado_1059251" data-name="Trazado 1059251" d="M44,40h1.813v1.813H44Z" transform="translate(-44 -40)" fill="#8892a0"/>
      </g>
      <g id="Grupo_1227153" data-name="Grupo 1227153" transform="translate(39.977 23.661)">
        <path id="Trazado_1059252" data-name="Trazado 1059252" d="M44,26h1.813v1.813H44Z" transform="translate(-44 -26)" fill="#8892a0"/>
      </g>
      <g id="Grupo_1227154" data-name="Grupo 1227154" transform="translate(43.859 33.899)">
        <path id="Trazado_1059253" data-name="Trazado 1059253" d="M0,0H1.813V2.124H0Z" transform="translate(0 1.282) rotate(-45)" fill="#8892a0"/>
      </g>
      <g id="Grupo_1227155" data-name="Grupo 1227155" transform="translate(35.109 25.145)">
        <path id="Trazado_1059254" data-name="Trazado 1059254" d="M0,0H1.813V2.124H0Z" transform="translate(0 1.282) rotate(-45)" fill="#8892a0"/>
      </g>
      <g id="Grupo_1227156" data-name="Grupo 1227156" transform="translate(43.862 25.153)">
        <path id="Trazado_1059255" data-name="Trazado 1059255" d="M0,0H2.124V1.813H0Z" transform="translate(0 1.502) rotate(-45)" fill="#8892a0"/>
      </g>
      <g id="Grupo_1227157" data-name="Grupo 1227157" transform="translate(35.108 33.906)">
        <path id="Trazado_1059256" data-name="Trazado 1059256" d="M0,0H2.124V1.813H0Z" transform="translate(0 1.502) rotate(-45)" fill="#8892a0"/>
      </g>
      <g id="Grupo_1227159" data-name="Grupo 1227159" transform="translate(34.538 24.567)">
        <g id="Grupo_1227158" data-name="Grupo 1227158">
          <path id="Trazado_1059257" data-name="Trazado 1059257" d="M38,33.345a6.345,6.345,0,1,1,6.345,6.345A6.353,6.353,0,0,1,38,33.345Zm10.877,0a4.532,4.532,0,1,0-4.532,4.532A4.537,4.537,0,0,0,48.877,33.345Z" transform="translate(-38 -27)" fill="#4d5d7a"/>
        </g>
      </g>
      <path id="Trazado_1059258" data-name="Trazado 1059258" d="M56.293,51.351H53.573V22.345H51.761V51.351H6.439V21.439h4.532v.906H8.252a.906.906,0,0,0-.906.906V49.538a.906.906,0,0,0,.906.906h41.7a.906.906,0,0,0,.906-.906V23.252H49.041v25.38H9.158V24.158h1.813V29.6a.906.906,0,0,0,.906.906h12.69a.906.906,0,0,0,.906-.906V24.158h8.158V22.345H25.474v-.906h8.158V19.626H25.474V16.906A.906.906,0,0,0,24.567,16H11.877a.906.906,0,0,0-.906.906v2.719H5.532a.906.906,0,0,0-.906.906V51.351H1.906A.906.906,0,0,0,1,52.258v3.626A2.723,2.723,0,0,0,3.719,58.6H54.48A2.723,2.723,0,0,0,57.2,55.883V52.258A.906.906,0,0,0,56.293,51.351ZM12.784,17.813H23.661V28.69H12.784Zm42.6,38.07a.907.907,0,0,1-.906.906H3.719a.907.907,0,0,1-.906-.906V53.164H55.386Z" transform="translate(0 -1.403)"/>
      <path id="Trazado_1059259" data-name="Trazado 1059259" d="M57.848,14.6a.906.906,0,0,0,.906-.906V10.064a.906.906,0,0,0-.906-.906H56.519a8.871,8.871,0,0,0-.61-1.468l.941-.941a.905.905,0,0,0,0-1.282L54.287,2.9A.905.905,0,0,0,53,2.9l-.941.941a8.87,8.87,0,0,0-1.468-.61V1.906A.906.906,0,0,0,49.69,1H46.064a.906.906,0,0,0-.906.906V3.235a8.87,8.87,0,0,0-1.468.61L42.75,2.9a.905.905,0,0,0-1.282,0L38.9,5.468a.905.905,0,0,0,0,1.282l.941.941a8.87,8.87,0,0,0-.61,1.468H37.906a.906.906,0,0,0-.906.906V13.69a.906.906,0,0,0,.906.906h1.329a8.87,8.87,0,0,0,.61,1.468L38.9,17a.905.905,0,0,0,0,1.282l2.563,2.563a.905.905,0,0,0,1.282,0l.941-.941a9.015,9.015,0,0,0,1.468.61v1.329a.906.906,0,0,0,.906.906H49.69a.906.906,0,0,0,.906-.906V20.519a8.87,8.87,0,0,0,1.468-.61L53,20.85a.905.905,0,0,0,1.282,0l2.563-2.563a.905.905,0,0,0,0-1.282l-.941-.941a9.015,9.015,0,0,0,.61-1.468Zm-2.021-1.813a.907.907,0,0,0-.884.705,7.219,7.219,0,0,1-.931,2.243.906.906,0,0,0,.126,1.124l.79.79-1.282,1.282-.79-.79a.905.905,0,0,0-1.124-.126,7.219,7.219,0,0,1-2.243.931.907.907,0,0,0-.706.885v1.115H46.971V19.827a.907.907,0,0,0-.705-.884,7.219,7.219,0,0,1-2.243-.931.905.905,0,0,0-1.124.126l-.79.79-1.282-1.282.79-.79a.906.906,0,0,0,.126-1.124,7.219,7.219,0,0,1-.931-2.243.907.907,0,0,0-.885-.706H38.813V10.971h1.115a.907.907,0,0,0,.884-.705,7.219,7.219,0,0,1,.931-2.243A.906.906,0,0,0,41.616,6.9l-.79-.79,1.282-1.282.79.79a.9.9,0,0,0,1.124.126,7.219,7.219,0,0,1,2.243-.931.907.907,0,0,0,.706-.885V2.813h1.813V3.928a.907.907,0,0,0,.705.884,7.219,7.219,0,0,1,2.243.931.9.9,0,0,0,1.124-.126l.79-.79,1.282,1.282-.79.79a.906.906,0,0,0-.126,1.124,7.219,7.219,0,0,1,.931,2.243.907.907,0,0,0,.885.706h1.115v1.813Z" transform="translate(-3.368)"/>
      <path id="Trazado_1059260" data-name="Trazado 1059260" d="M48.345,6a6.345,6.345,0,1,0,6.345,6.345A6.353,6.353,0,0,0,48.345,6Zm0,10.877a4.532,4.532,0,1,1,4.532-4.532A4.537,4.537,0,0,1,48.345,16.877Z" transform="translate(-3.836 -0.468)"/>
      <path id="Trazado_1059261" data-name="Trazado 1059261" d="M51.5,34.158V32.345h-.979a6.3,6.3,0,0,0-1.2-2.886l.694-.694-1.282-1.282-.694.694a6.3,6.3,0,0,0-2.886-1.2V26H43.345v.979a6.3,6.3,0,0,0-2.886,1.2l-.694-.694-1.282,1.282.694.694a6.3,6.3,0,0,0-1.2,2.886H37v1.813h.979a6.3,6.3,0,0,0,1.2,2.886l-.694.694,1.282,1.282.694-.694a6.306,6.306,0,0,0,2.886,1.2V40.5h1.813v-.979a6.3,6.3,0,0,0,2.886-1.2l.694.694,1.282-1.282-.694-.694a6.306,6.306,0,0,0,1.2-2.886Zm-2.719-.906a4.532,4.532,0,1,1-4.532-4.532A4.537,4.537,0,0,1,48.784,33.252Z" transform="translate(-3.368 -2.339)"/>
      <path id="Trazado_1059262" data-name="Trazado 1059262" d="M44.626,30a3.626,3.626,0,1,0,3.626,3.626A3.629,3.629,0,0,0,44.626,30Zm0,5.439a1.813,1.813,0,1,1,1.813-1.813A1.815,1.815,0,0,1,44.626,35.439Z" transform="translate(-3.742 -2.713)"/>
      <path id="Trazado_1059263" data-name="Trazado 1059263" d="M25.6,34H12.906a.906.906,0,0,0-.906.906V47.6a.906.906,0,0,0,.906.906H25.6A.906.906,0,0,0,26.5,47.6V34.906A.906.906,0,0,0,25.6,34ZM24.69,46.69H13.813V35.813H24.69Z" transform="translate(-1.029 -3.088)"/>
      <path id="Trazado_1059264" data-name="Trazado 1059264" d="M18.576,25.6,16.65,23.032,15.2,24.12l2.719,3.626a.906.906,0,0,0,.725.363h.038a.906.906,0,0,0,.731-.425l4.532-7.252-1.536-.962Z" transform="translate(-1.329 -1.728)"/>
      <path id="Trazado_1059265" data-name="Trazado 1059265" d="M16.575,45.826l2.985-2.985,2.985,2.985,1.282-1.282L20.841,41.56l2.985-2.985-1.282-1.282L19.56,40.278l-2.985-2.985-1.282,1.282,2.985,2.985-2.985,2.985Z" transform="translate(-1.337 -3.396)"/>
    </g>
  </g>
</svg>
