<svg xmlns="http://www.w3.org/2000/svg" xmlns:xlink="http://www.w3.org/1999/xlink" width="113" height="113" viewBox="0 0 113 113">
  <defs>
    <filter id="Trazado_982547" x="0" y="0" width="113" height="113" filterUnits="userSpaceOnUse">
      <feOffset dy="3" input="SourceAlpha"/>
      <feGaussianBlur stdDeviation="3" result="blur"/>
      <feFlood flood-opacity="0.161"/>
      <feComposite operator="in" in2="blur"/>
      <feComposite in="SourceGraphic"/>
    </filter>
  </defs>
  <g id="Grupo_1227092" data-name="Grupo 1227092" transform="translate(-1133.676 -2143.954)">
    <g id="Grupo_1226627" data-name="Grupo 1226627" transform="translate(1142.676 2149.954)">
      <g id="Grupo_1226375" data-name="Grupo 1226375" transform="translate(0)">
        <g id="Grupo_1211216" data-name="Grupo 1211216">
          <g id="Grupo_1210737" data-name="Grupo 1210737">
            <g id="Grupo_1210537" data-name="Grupo 1210537">
              <g id="Grupo_1164202" data-name="Grupo 1164202">
                <g id="Grupo_1158168" data-name="Grupo 1158168">
                  <g id="Grupo_1152576" data-name="Grupo 1152576">
                    <g id="Grupo_1148633" data-name="Grupo 1148633">
                      <g id="Grupo_1148525" data-name="Grupo 1148525">
                        <g transform="matrix(1, 0, 0, 1, -9, -6)" filter="url(#Trazado_982547)">
                          <g id="Trazado_982547-2" data-name="Trazado 982547" transform="translate(9 6)" fill="#fef9e5">
                            <path d="M 47.49999618530273 93.5 C 41.28936767578125 93.5 35.26533126831055 92.28396606445312 29.59518241882324 89.88570404052734 C 24.11771583557129 87.56893157958984 19.19812965393066 84.251953125 14.97308921813965 80.02690124511719 C 10.74803638458252 75.80186462402344 7.431062698364258 70.88227844238281 5.114289283752441 65.40480804443359 C 2.716022968292236 59.73466110229492 1.499996185302734 53.71062469482422 1.499996185302734 47.49999618530273 C 1.499996185302734 41.28936767578125 2.716022968292236 35.26533126831055 5.114289283752441 29.59518241882324 C 7.431062698364258 24.11771583557129 10.74803638458252 19.19812965393066 14.97308921813965 14.97308921813965 C 19.19812965393066 10.74803638458252 24.11771583557129 7.431062698364258 29.59518241882324 5.114289283752441 C 35.26533126831055 2.716022968292236 41.28936767578125 1.499996185302734 47.49999618530273 1.499996185302734 C 53.71062469482422 1.499996185302734 59.73466110229492 2.716022968292236 65.40480804443359 5.114289283752441 C 70.88227844238281 7.431062698364258 75.80186462402344 10.74803638458252 80.02690124511719 14.97308921813965 C 84.251953125 19.19812965393066 87.56893157958984 24.11771583557129 89.88570404052734 29.59518241882324 C 92.28396606445312 35.26533126831055 93.5 41.28936767578125 93.5 47.49999618530273 C 93.5 53.71062469482422 92.28396606445312 59.73466110229492 89.88570404052734 65.40480804443359 C 87.56893157958984 70.88227844238281 84.251953125 75.80186462402344 80.02690124511719 80.02690124511719 C 75.80186462402344 84.251953125 70.88227844238281 87.56893157958984 65.40480804443359 89.88570404052734 C 59.73466110229492 92.28396606445312 53.71062469482422 93.5 47.49999618530273 93.5 Z" stroke="none"/>
                            <path d="M 47.49999618530273 2.999992370605469 C 41.4912109375 2.999992370605469 35.66376495361328 4.1761474609375 30.17950439453125 6.495796203613281 C 24.88084411621094 8.736953735351562 20.12152099609375 11.94598388671875 16.03375244140625 16.03375244140625 C 11.94598388671875 20.12152099609375 8.736953735351562 24.88084411621094 6.495796203613281 30.17950439453125 C 4.1761474609375 35.66376495361328 2.999992370605469 41.4912109375 2.999992370605469 47.49999618530273 C 2.999992370605469 53.50878143310547 4.1761474609375 59.33622741699219 6.495796203613281 64.82048797607422 C 8.736953735351562 70.11914825439453 11.94598388671875 74.87847137451172 16.03375244140625 78.96623992919922 C 20.12152099609375 83.05400848388672 24.88084411621094 86.26304626464844 30.17950439453125 88.50419616699219 C 35.66376495361328 90.82384490966797 41.4912109375 92 47.49999618530273 92 C 53.50878143310547 92 59.33622741699219 90.82384490966797 64.82048797607422 88.50419616699219 C 70.11914825439453 86.26304626464844 74.87847137451172 83.05400848388672 78.96623992919922 78.96623992919922 C 83.05400848388672 74.87847137451172 86.26304626464844 70.11914825439453 88.50419616699219 64.82048797607422 C 90.82384490966797 59.33622741699219 92 53.50878143310547 92 47.49999618530273 C 92 41.4912109375 90.82384490966797 35.66376495361328 88.50419616699219 30.17950439453125 C 86.26304626464844 24.88084411621094 83.05400848388672 20.12152099609375 78.96623992919922 16.03375244140625 C 74.87847137451172 11.94598388671875 70.11914825439453 8.736953735351562 64.82048797607422 6.495796203613281 C 59.33622741699219 4.1761474609375 53.50878143310547 2.999992370605469 47.49999618530273 2.999992370605469 M 47.49999618530273 -7.62939453125e-06 C 73.7335205078125 -7.62939453125e-06 95 21.26647186279297 95 47.49999618530273 C 95 73.7335205078125 73.7335205078125 95 47.49999618530273 95 C 21.26647186279297 95 -7.62939453125e-06 73.7335205078125 -7.62939453125e-06 47.49999618530273 C -7.62939453125e-06 21.26647186279297 21.26647186279297 -7.62939453125e-06 47.49999618530273 -7.62939453125e-06 Z" stroke="none" fill="#f6c810"/>
                          </g>
                        </g>
                      </g>
                    </g>
                  </g>
                </g>
              </g>
            </g>
          </g>
        </g>
      </g>
    </g>
    <g id="computer" transform="translate(1161.016 2167.804)">
      <path id="Trazado_1059056" data-name="Trazado 1059056" d="M56.457,16.843V42.65H3V16.843A1.849,1.849,0,0,1,4.843,15h49.77A1.849,1.849,0,0,1,56.457,16.843Z" transform="translate(-0.078 -1.018)" fill="#57a4ff"/>
      <path id="Trazado_1059057" data-name="Trazado 1059057" d="M56.457,16.843V42.65H3V38.964H41.71A11.06,11.06,0,0,0,52.77,27.9V16.843A1.849,1.849,0,0,0,50.927,15h3.687A1.849,1.849,0,0,1,56.457,16.843Z" transform="translate(-0.078 -1.018)" fill="#2488ff"/>
      <path id="Trazado_1059058" data-name="Trazado 1059058" d="M53,27h3.687V39.9H53Z" transform="translate(-3.995 -1.958)" fill="#ff7956"/>
      <path id="Trazado_1059059" data-name="Trazado 1059059" d="M45,29h3.687V40.06H45Z" transform="translate(-3.368 -2.115)" fill="#ffde55"/>
      <path id="Trazado_1059060" data-name="Trazado 1059060" d="M42.12,60.687H20L22.765,57h16.59Z" transform="translate(-1.41 -4.308)" fill="#c6c5ca"/>
      <path id="Trazado_1059061" data-name="Trazado 1059061" d="M37,33h3.687v7.373H37Z" transform="translate(-2.741 -2.428)" fill="#00ddc2"/>
      <path id="Trazado_1059062" data-name="Trazado 1059062" d="M38.636,6.318A8.262,8.262,0,0,1,40.3,11.3a7.615,7.615,0,0,1-.055.922H32V3a8.288,8.288,0,0,1,6.636,3.318Z" transform="translate(-2.35 -0.078)" fill="#ff7956"/>
      <path id="Trazado_1059063" data-name="Trazado 1059063" d="M25.6,17.323A8.293,8.293,0,0,1,31.3,3v9.217h8.24a7.771,7.771,0,0,1-.424,1.843A8.289,8.289,0,0,1,25.6,17.323Z" transform="translate(-1.645 -0.078)" fill="#ffde55"/>
      <path id="Trazado_1059064" data-name="Trazado 1059064" d="M39.535,15.8a7.771,7.771,0,0,1-.424,1.843A8.293,8.293,0,0,1,23,14.883a8.566,8.566,0,0,1,.111-1.383,8.466,8.466,0,0,0,.369,1.383,8.145,8.145,0,0,0,2.12,3.263A8.281,8.281,0,0,0,38.715,15.8Z" transform="translate(-1.645 -0.901)" fill="#2488ff"/>
      <path id="Trazado_1059065" data-name="Trazado 1059065" d="M37.9,56.53H25L25.922,51h11.06Z" transform="translate(-1.801 -3.838)" fill="#57a4ff"/>
      <path id="Trazado_1059066" data-name="Trazado 1059066" d="M56.457,45v3.687a1.849,1.849,0,0,1-1.843,1.843H4.843A1.849,1.849,0,0,1,3,48.687V45Z" transform="translate(-0.078 -3.368)" fill="#c6c5ca"/>
      <path id="Trazado_1059067" data-name="Trazado 1059067" d="M26,51H37.06v2.765H26Z" transform="translate(-1.88 -3.838)" fill="#2488ff"/>
      <path id="Trazado_1059068" data-name="Trazado 1059068" d="M11.608,23.608h4.608A4.608,4.608,0,1,1,11.608,19Z" transform="translate(-0.392 -1.332)" fill="#ffde55"/>
      <path id="Trazado_1059069" data-name="Trazado 1059069" d="M37,33h3.687v7.373H37Z" transform="translate(-2.741 -2.428)" fill="#00d7df"/>
      <path id="Trazado_1059070" data-name="Trazado 1059070" d="M53,27h3.687v1.843H53Z" transform="translate(-3.995 -1.958)" fill="#ff5023"/>
      <path id="Trazado_1059071" data-name="Trazado 1059071" d="M45,29h3.687v1.843H45Z" transform="translate(-3.368 -2.115)" fill="#ebbf00"/>
      <path id="Trazado_1059072" data-name="Trazado 1059072" d="M37,33h3.687v1.843H37Z" transform="translate(-2.741 -2.428)" fill="#009698"/>
      <path id="Trazado_1059073" data-name="Trazado 1059073" d="M54.535,13.06H38.683a9.4,9.4,0,0,0,.184-1.843,9.184,9.184,0,0,0-1.336-4.756l3.484-2.618h7.069V2H40.71a.907.907,0,0,0-.553.184l-3.733,2.8a9.177,9.177,0,0,0-13.549,0l-3.733-2.8A.907.907,0,0,0,18.59,2H11.217V3.843h7.069L21.77,6.461a9.184,9.184,0,0,0-1.336,4.756,9.4,9.4,0,0,0,.184,1.843H4.765A2.773,2.773,0,0,0,2,15.825V45.319a2.773,2.773,0,0,0,2.765,2.765H23.2V51.77H20.434a.935.935,0,0,0-.737.369l-2.765,3.687a.922.922,0,0,0,.737,1.475H41.632a.922.922,0,0,0,.737-1.475L39.6,52.139a.935.935,0,0,0-.737-.369H36.1V48.084H54.535A2.773,2.773,0,0,0,57.3,45.319V15.825a2.773,2.773,0,0,0-2.765-2.765ZM30.572,3.908a7.353,7.353,0,0,1,4.369,2.184L32.784,7.714,33.89,9.189l2.157-1.622a7.323,7.323,0,0,1,.977,3.65H30.572ZM23.254,7.567l2.157,1.622,1.106-1.475L24.36,6.092a7.353,7.353,0,0,1,4.369-2.184v8.231a.922.922,0,0,0,.922.922h7.134a7.369,7.369,0,1,1-13.53-5.493ZM38.406,53.614l1.383,1.843H19.512l1.383-1.843ZM25.042,51.77V48.084h9.217V51.77Zm30.415-6.452a.922.922,0,0,1-.922.922H4.765a.922.922,0,0,1-.922-.922V42.554H55.457Zm0-4.608H3.843V15.825a.922.922,0,0,1,.922-.922H21.208a9.209,9.209,0,0,0,16.885,0H54.535a.922.922,0,0,1,.922.922Z" transform="translate(0 0)"/>
      <path id="Trazado_1059074" data-name="Trazado 1059074" d="M54,2h3.687V3.843H54Z" transform="translate(-4.073 0)"/>
      <path id="Trazado_1059075" data-name="Trazado 1059075" d="M44,6h1.843V7.843H44Z" transform="translate(-3.29 -0.313)"/>
      <path id="Trazado_1059076" data-name="Trazado 1059076" d="M48,6h9.217V7.843H48Z" transform="translate(-3.603 -0.313)"/>
      <path id="Trazado_1059077" data-name="Trazado 1059077" d="M44,10h7.373v1.843H44Z" transform="translate(-3.29 -0.627)"/>
      <path id="Trazado_1059078" data-name="Trazado 1059078" d="M54,10h3.687v1.843H54Z" transform="translate(-4.073 -0.627)"/>
      <path id="Trazado_1059079" data-name="Trazado 1059079" d="M6,2H9.687V3.843H6Z" transform="translate(-0.313 0)"/>
      <path id="Trazado_1059080" data-name="Trazado 1059080" d="M18,6h1.843V7.843H18Z" transform="translate(-1.253 -0.313)"/>
      <path id="Trazado_1059081" data-name="Trazado 1059081" d="M6,6h9.217V7.843H6Z" transform="translate(-0.313 -0.313)"/>
      <path id="Trazado_1059082" data-name="Trazado 1059082" d="M12,10h7.373v1.843H12Z" transform="translate(-0.783 -0.627)"/>
      <path id="Trazado_1059083" data-name="Trazado 1059083" d="M6,10H9.687v1.843H6Z" transform="translate(-0.313 -0.627)"/>
      <path id="Trazado_1059084" data-name="Trazado 1059084" d="M6,32h4.608v1.843H6Z" transform="translate(-0.313 -2.35)"/>
      <path id="Trazado_1059085" data-name="Trazado 1059085" d="M13,32H30.512v1.843H13Z" transform="translate(-0.862 -2.35)"/>
      <path id="Trazado_1059086" data-name="Trazado 1059086" d="M6,36H20.747v1.843H6Z" transform="translate(-0.313 -2.663)"/>
      <path id="Trazado_1059087" data-name="Trazado 1059087" d="M24,36h7.373v1.843H24Z" transform="translate(-1.723 -2.663)"/>
      <path id="Trazado_1059088" data-name="Trazado 1059088" d="M6,40h9.217v1.843H6Z" transform="translate(-0.313 -2.976)"/>
      <path id="Trazado_1059089" data-name="Trazado 1059089" d="M18,40H30.9v1.843H18Z" transform="translate(-1.253 -2.976)"/>
      <path id="Trazado_1059090" data-name="Trazado 1059090" d="M36.922,41.217h3.687a.922.922,0,0,0,.922-.922V32.922A.922.922,0,0,0,40.608,32H36.922a.922.922,0,0,0-.922.922V40.3A.922.922,0,0,0,36.922,41.217Zm.922-7.373h1.843v5.53H37.843Z" transform="translate(-2.663 -2.35)"/>
      <path id="Trazado_1059091" data-name="Trazado 1059091" d="M48.608,28H44.922a.922.922,0,0,0-.922.922v11.06a.922.922,0,0,0,.922.922h3.687a.922.922,0,0,0,.922-.922V28.922A.922.922,0,0,0,48.608,28Zm-.922,11.06H45.843V29.843h1.843Z" transform="translate(-3.29 -2.036)"/>
      <path id="Trazado_1059092" data-name="Trazado 1059092" d="M56.608,26H52.922a.922.922,0,0,0-.922.922v12.9a.922.922,0,0,0,.922.922h3.687a.922.922,0,0,0,.922-.922v-12.9A.922.922,0,0,0,56.608,26Zm-.922,12.9H53.843V27.843h1.843Z" transform="translate(-3.916 -1.88)"/>
      <path id="Trazado_1059093" data-name="Trazado 1059093" d="M11.53,29.06a5.536,5.536,0,0,0,5.53-5.53.922.922,0,0,0-.922-.922H12.452V18.922A.922.922,0,0,0,11.53,18a5.53,5.53,0,1,0,0,11.06Zm-.922-9.1V23.53a.922.922,0,0,0,.922.922H15.1a3.687,3.687,0,1,1-4.491-4.492Z" transform="translate(-0.313 -1.253)"/>
      <path id="Trazado_1059094" data-name="Trazado 1059094" d="M20,24h1.843v1.843H20Z" transform="translate(-1.41 -1.723)"/>
      <path id="Trazado_1059095" data-name="Trazado 1059095" d="M24,24h7.373v1.843H24Z" transform="translate(-1.723 -1.723)"/>
      <path id="Trazado_1059096" data-name="Trazado 1059096" d="M20,28H31.06v1.843H20Z" transform="translate(-1.41 -2.036)"/>
      <path id="Trazado_1059097" data-name="Trazado 1059097" d="M41.438,28.55l1.583-3.177h4.96a.922.922,0,0,0,.709-.332l4.332-5.2h3.254V18H52.59a.922.922,0,0,0-.709.332l-4.332,5.2h-5.1a.922.922,0,0,0-.83.51l-1.583,3.177H36V29.06h4.608a.922.922,0,0,0,.83-.51Z" transform="translate(-2.663 -1.253)"/>
    </g>
  </g>
</svg>
