<svg xmlns="http://www.w3.org/2000/svg" xmlns:xlink="http://www.w3.org/1999/xlink" width="113" height="113" viewBox="0 0 113 113">
  <defs>
    <filter id="Trazado_982547" x="0" y="0" width="113" height="113" filterUnits="userSpaceOnUse">
      <feOffset dy="3" input="SourceAlpha"/>
      <feGaussianBlur stdDeviation="3" result="blur"/>
      <feFlood flood-opacity="0.161"/>
      <feComposite operator="in" in2="blur"/>
      <feComposite in="SourceGraphic"/>
    </filter>
  </defs>
  <g id="Grupo_1226965" data-name="Grupo 1226965" transform="translate(-674 -1555.751)">
    <g id="Grupo_1226748" data-name="Grupo 1226748" transform="translate(0 -58.384)">
      <g id="Grupo_1224583" data-name="Grupo 1224583" transform="translate(0 -5449.616)">
        <g id="Grupo_1224450" data-name="Grupo 1224450" transform="translate(683 7069.751)">
          <g id="Grupo_1224085" data-name="Grupo 1224085" transform="translate(0 0)">
            <g id="Grupo_1223184" data-name="Grupo 1223184">
              <g id="Grupo_1211216" data-name="Grupo 1211216">
                <g id="Grupo_1210737" data-name="Grupo 1210737">
                  <g id="Grupo_1210537" data-name="Grupo 1210537">
                    <g id="Grupo_1164202" data-name="Grupo 1164202">
                      <g id="Grupo_1158168" data-name="Grupo 1158168">
                        <g id="Grupo_1152576" data-name="Grupo 1152576">
                          <g id="Grupo_1148633" data-name="Grupo 1148633">
                            <g id="Grupo_1148525" data-name="Grupo 1148525">
                              <g transform="matrix(1, 0, 0, 1, -9, -6)" filter="url(#Trazado_982547)">
                                <g id="Trazado_982547-2" data-name="Trazado 982547" transform="translate(9 6)" fill="#fef9e5">
                                  <path d="M 47.49999618530273 93.5 C 41.28936767578125 93.5 35.26533126831055 92.28396606445312 29.59518241882324 89.88570404052734 C 24.11771583557129 87.56893157958984 19.19812965393066 84.251953125 14.97308921813965 80.02690124511719 C 10.74803638458252 75.80186462402344 7.431062698364258 70.88227844238281 5.114289283752441 65.40480804443359 C 2.716022968292236 59.73466110229492 1.499996185302734 53.71062469482422 1.499996185302734 47.49999618530273 C 1.499996185302734 41.28936767578125 2.716022968292236 35.26533126831055 5.114289283752441 29.59518241882324 C 7.431062698364258 24.11771583557129 10.74803638458252 19.19812965393066 14.97308921813965 14.97308921813965 C 19.19812965393066 10.74803638458252 24.11771583557129 7.431062698364258 29.59518241882324 5.114289283752441 C 35.26533126831055 2.716022968292236 41.28936767578125 1.499996185302734 47.49999618530273 1.499996185302734 C 53.71062469482422 1.499996185302734 59.73466110229492 2.716022968292236 65.40480804443359 5.114289283752441 C 70.88227844238281 7.431062698364258 75.80186462402344 10.74803638458252 80.02690124511719 14.97308921813965 C 84.251953125 19.19812965393066 87.56893157958984 24.11771583557129 89.88570404052734 29.59518241882324 C 92.28396606445312 35.26533126831055 93.5 41.28936767578125 93.5 47.49999618530273 C 93.5 53.71062469482422 92.28396606445312 59.73466110229492 89.88570404052734 65.40480804443359 C 87.56893157958984 70.88227844238281 84.251953125 75.80186462402344 80.02690124511719 80.02690124511719 C 75.80186462402344 84.251953125 70.88227844238281 87.56893157958984 65.40480804443359 89.88570404052734 C 59.73466110229492 92.28396606445312 53.71062469482422 93.5 47.49999618530273 93.5 Z" stroke="none"/>
                                  <path d="M 47.49999618530273 2.999992370605469 C 41.4912109375 2.999992370605469 35.66376495361328 4.1761474609375 30.17950439453125 6.495796203613281 C 24.88084411621094 8.736953735351562 20.12152099609375 11.94598388671875 16.03375244140625 16.03375244140625 C 11.94598388671875 20.12152099609375 8.736953735351562 24.88084411621094 6.495796203613281 30.17950439453125 C 4.1761474609375 35.66376495361328 2.999992370605469 41.4912109375 2.999992370605469 47.49999618530273 C 2.999992370605469 53.50878143310547 4.1761474609375 59.33622741699219 6.495796203613281 64.82048797607422 C 8.736953735351562 70.11914825439453 11.94598388671875 74.87847137451172 16.03375244140625 78.96623992919922 C 20.12152099609375 83.05400848388672 24.88084411621094 86.26304626464844 30.17950439453125 88.50419616699219 C 35.66376495361328 90.82384490966797 41.4912109375 92 47.49999618530273 92 C 53.50878143310547 92 59.33622741699219 90.82384490966797 64.82048797607422 88.50419616699219 C 70.11914825439453 86.26304626464844 74.87847137451172 83.05400848388672 78.96623992919922 78.96623992919922 C 83.05400848388672 74.87847137451172 86.26304626464844 70.11914825439453 88.50419616699219 64.82048797607422 C 90.82384490966797 59.33622741699219 92 53.50878143310547 92 47.49999618530273 C 92 41.4912109375 90.82384490966797 35.66376495361328 88.50419616699219 30.17950439453125 C 86.26304626464844 24.88084411621094 83.05400848388672 20.12152099609375 78.96623992919922 16.03375244140625 C 74.87847137451172 11.94598388671875 70.11914825439453 8.736953735351562 64.82048797607422 6.495796203613281 C 59.33622741699219 4.1761474609375 53.50878143310547 2.999992370605469 47.49999618530273 2.999992370605469 M 47.49999618530273 -7.62939453125e-06 C 73.7335205078125 -7.62939453125e-06 95 21.26647186279297 95 47.49999618530273 C 95 73.7335205078125 73.7335205078125 95 47.49999618530273 95 C 21.26647186279297 95 -7.62939453125e-06 73.7335205078125 -7.62939453125e-06 47.49999618530273 C -7.62939453125e-06 21.26647186279297 21.26647186279297 -7.62939453125e-06 47.49999618530273 -7.62939453125e-06 Z" stroke="none" fill="#f6c810"/>
                                </g>
                              </g>
                            </g>
                          </g>
                        </g>
                      </g>
                    </g>
                  </g>
                </g>
              </g>
            </g>
          </g>
        </g>
      </g>
    </g>
    <g id="carpeta_6_" data-name="carpeta (6)" transform="translate(688.147 1581.173)">
      <path id="Trazado_1058641" data-name="Trazado 1058641" d="M134.467,251.5h-15.1a1.758,1.758,0,0,1-1.243-.515l-2.229-2.229a2.637,2.637,0,0,0-1.865-.772h-7.7a2.638,2.638,0,0,0-2.638,2.638v22.86a2.638,2.638,0,0,0,2.638,2.638h28.135a2.638,2.638,0,0,0,2.638-2.638V254.138A2.638,2.638,0,0,0,134.467,251.5Z" transform="translate(-78.048 -220.784)" fill="#ffe09f"/>
      <path id="Trazado_1058642" data-name="Trazado 1058642" d="M136.943,273.481H110.728a4.4,4.4,0,0,1-4.4-4.4v-21.1a2.638,2.638,0,0,0-2.638,2.638v22.86a2.638,2.638,0,0,0,2.638,2.638h28.135a2.638,2.638,0,0,0,2.638-2.638h-.161Z" transform="translate(-78.047 -220.785)" fill="#f6d190"/>
      <path id="Trazado_1058643" data-name="Trazado 1058643" d="M141.046,331.411l6.047-18.14a.879.879,0,0,0-.834-1.157H115.969a2.638,2.638,0,0,0-2.5,1.8l-6.021,18.063a2.63,2.63,0,0,0,2.226,1.235h28.871A2.638,2.638,0,0,0,141.046,331.411Z" transform="translate(-81.388 -277.88)" fill="#ecbd83"/>
      <path id="Trazado_1058644" data-name="Trazado 1058644" d="M31.445,7.5H24.411a.879.879,0,0,0-.879.879V22.447a.879.879,0,0,0,.879.879H34.962a.879.879,0,0,0,.879-.879V11.9Z" transform="translate(-6.677 -6.677)" fill="#eceaec"/>
      <circle id="Elipse_13553" data-name="Elipse 13553" cx="1.758" cy="1.758" r="1.758" transform="translate(40.594 20.165)" fill="#b6b1b7"/>
      <path id="Trazado_1058645" data-name="Trazado 1058645" d="M26.17,18.051V7.5H24.411a.879.879,0,0,0-.879.879V22.447a.879.879,0,0,0,.879.879H34.962a.879.879,0,0,0,.879-.879V20.688H28.807A2.638,2.638,0,0,1,26.17,18.051Z" transform="translate(-6.677 -6.677)" fill="#dad8db"/>
      <path id="Trazado_1058646" data-name="Trazado 1058646" d="M95.677,11.017a.879.879,0,0,0,.879.879h3.517l-4.4-4.4Z" transform="translate(-70.909 -6.677)" fill="#dad8db"/>
      <path id="Trazado_1058647" data-name="Trazado 1058647" d="M114.067,437.63a4.4,4.4,0,0,1-4.4-4.4v-.879l-2.226,6.678a2.63,2.63,0,0,0,2.226,1.235h28.871a2.638,2.638,0,0,0,2.5-1.8l.278-.834Z" transform="translate(-81.387 -384.934)" fill="#e2a975"/>
      <path id="Trazado_1058648" data-name="Trazado 1058648" d="M207.8,7.5h-7.034a.879.879,0,0,0-.879.879V22.447a.879.879,0,0,0,.879.879h10.551a.879.879,0,0,0,.879-.879V11.9Z" transform="translate(-163.69 -6.677)" fill="#eceaec"/>
      <path id="Trazado_1058649" data-name="Trazado 1058649" d="M202.525,18.051V7.5h-1.758a.879.879,0,0,0-.879.879V22.447a.879.879,0,0,0,.879.879h10.551a.879.879,0,0,0,.879-.879V20.688h-7.034A2.638,2.638,0,0,1,202.525,18.051Z" transform="translate(-163.69 -6.677)" fill="#dad8db"/>
      <path id="Trazado_1058650" data-name="Trazado 1058650" d="M272.032,11.017a.879.879,0,0,0,.879.879h3.517l-4.4-4.4Z" transform="translate(-227.922 -6.677)" fill="#dad8db"/>
      <path id="Trazado_1058651" data-name="Trazado 1058651" d="M384.155,7.5h-7.034a.879.879,0,0,0-.879.879V22.447a.879.879,0,0,0,.879.879h10.551a.879.879,0,0,0,.879-.879V11.9Z" transform="translate(-320.702 -6.677)" fill="#eceaec"/>
      <path id="Trazado_1058652" data-name="Trazado 1058652" d="M378.88,18.051V7.5h-1.758a.879.879,0,0,0-.879.879V22.447a.879.879,0,0,0,.879.879h10.551a.879.879,0,0,0,.879-.879V20.688h-7.034A2.638,2.638,0,0,1,378.88,18.051Z" transform="translate(-320.702 -6.677)" fill="#dad8db"/>
      <path id="Trazado_1058653" data-name="Trazado 1058653" d="M448.387,11.017a.879.879,0,0,0,.879.879h3.517l-4.4-4.4Z" transform="translate(-384.934 -6.677)" fill="#dad8db"/>
      <path id="Trazado_1058654" data-name="Trazado 1058654" d="M319.606,456.919h-6.154a.823.823,0,0,0,0,1.645h6.154a.823.823,0,1,0,0-1.645Z" transform="translate(-264.066 -406.804)"/>
      <path id="Trazado_1058655" data-name="Trazado 1058655" d="M335.638,424.854h-6.155a.823.823,0,0,0,0,1.645h6.155a.823.823,0,0,0,0-1.645Z" transform="translate(-278.34 -378.256)"/>
      <path id="Trazado_1058656" data-name="Trazado 1058656" d="M48.92,73.79h4.4a.823.823,0,1,0,0-1.645h-4.4a.823.823,0,1,0,0,1.645Z" transform="translate(-28.548 -64.232)"/>
      <path id="Trazado_1058657" data-name="Trazado 1058657" d="M54.138,105.032a.823.823,0,0,0-.823-.823h-4.4a.823.823,0,1,0,0,1.645h4.4A.823.823,0,0,0,54.138,105.032Z" transform="translate(-28.548 -92.779)"/>
      <path id="Trazado_1058658" data-name="Trazado 1058658" d="M225.275,73.79h4.4a.823.823,0,0,0,0-1.645h-4.4a.823.823,0,0,0,0,1.645Z" transform="translate(-185.56 -64.232)"/>
      <path id="Trazado_1058659" data-name="Trazado 1058659" d="M230.492,105.032a.823.823,0,0,0-.823-.823h-4.4a.823.823,0,1,0,0,1.645h4.4A.823.823,0,0,0,230.492,105.032Z" transform="translate(-185.559 -92.779)"/>
      <path id="Trazado_1058660" data-name="Trazado 1058660" d="M68.431,4.637l-4.4-4.4A.822.822,0,0,0,63.453,0H56.419a1.7,1.7,0,0,0-1.7,1.7V15.769a1.7,1.7,0,0,0,1.7,1.7h4.453v2.694a.937.937,0,0,1-.936.936H44.8a2.593,2.593,0,0,0-1.623-1.623V17.471h4.453a1.7,1.7,0,0,0,1.7-1.7V5.219a.822.822,0,0,0-.241-.582l-4.4-4.4A.822.822,0,0,0,44.11,0H37.077a1.7,1.7,0,0,0-1.7,1.7V15.769a1.7,1.7,0,0,0,1.7,1.7h4.453v2.007A2.593,2.593,0,0,0,39.906,21.1H24.768a.937.937,0,0,1-.936-.936V17.471h4.453a1.7,1.7,0,0,0,1.7-1.7V5.219a.822.822,0,0,0-.241-.582l-4.4-4.4A.822.822,0,0,0,24.768,0H17.734a1.7,1.7,0,0,0-1.7,1.7V15.769a1.7,1.7,0,0,0,1.7,1.7h4.453v2.694a2.584,2.584,0,0,0,2.581,2.581H39.906a2.593,2.593,0,0,0,1.623,1.623v5.516a1.8,1.8,0,0,1-1.127-.524L38.431,27.39a3.438,3.438,0,0,0-2.447-1.013h-7.7a3.464,3.464,0,0,0-3.46,3.46V52.7a3.464,3.464,0,0,0,3.46,3.46H57.156a3.456,3.456,0,0,0,3.283-2.366l6.047-18.14a1.7,1.7,0,0,0-1.614-2.24H59.88v-.057a3.464,3.464,0,0,0-3.46-3.46H45.869a.823.823,0,0,0,0,1.645H56.419a1.817,1.817,0,0,1,1.815,1.815v.057H43.175V24.369A2.593,2.593,0,0,0,44.8,22.746H59.936a2.584,2.584,0,0,0,2.581-2.581V17.471H66.97a1.7,1.7,0,0,0,1.7-1.7V5.219a.823.823,0,0,0-.241-.582Zm-23.5-1.828L46.52,4.4H44.99a.057.057,0,0,1-.057-.057ZM37.02,15.769V1.7a.057.057,0,0,1,.057-.057h6.211V4.339a1.7,1.7,0,0,0,1.7,1.7h2.694v9.728a.057.057,0,0,1-.057.057H37.077A.057.057,0,0,1,37.02,15.769ZM25.59,2.808,27.178,4.4H25.647a.057.057,0,0,1-.057-.057ZM17.677,15.769V1.7a.057.057,0,0,1,.057-.057h6.211V4.339a1.7,1.7,0,0,0,1.7,1.7h2.694v9.728a.057.057,0,0,1-.057.057H17.734A.057.057,0,0,1,17.677,15.769Zm24.675,5.219a.937.937,0,0,1,.936.934v0a.936.936,0,1,1-.936-.937ZM64.917,35.079a.051.051,0,0,1,.008.051L58.878,53.27a1.813,1.813,0,0,1-1.722,1.241H28.284a1.809,1.809,0,0,1-1.309-.561L32.86,36.3a1.813,1.813,0,0,1,1.722-1.241H64.871a.052.052,0,0,1,.046.024ZM34.582,33.41A3.456,3.456,0,0,0,31.3,35.776l-4.83,14.489V29.837a1.817,1.817,0,0,1,1.815-1.815h7.7a1.8,1.8,0,0,1,1.283.532l1.972,1.972a3.435,3.435,0,0,0,2.29,1.01V33.41Zm29.694-30.6L65.863,4.4H64.332a.057.057,0,0,1-.057-.057ZM66.97,15.826H56.42a.057.057,0,0,1-.057-.057V1.7a.057.057,0,0,1,.057-.057h6.211V4.339a1.7,1.7,0,0,0,1.7,1.7h2.694v9.728a.057.057,0,0,1-.057.057Z" transform="translate(0 0)"/>
      <path id="Trazado_1058661" data-name="Trazado 1058661" d="M406.025,72.145h-4.4a.823.823,0,0,0,0,1.645h4.4a.823.823,0,0,0,0-1.645Z" transform="translate(-342.572 -64.232)"/>
      <path id="Trazado_1058662" data-name="Trazado 1058662" d="M406.025,104.209h-4.4a.823.823,0,0,0,0,1.645h4.4a.823.823,0,0,0,0-1.645Z" transform="translate(-342.572 -92.779)"/>
    </g>
  </g>
</svg>
